<svg width="68" height="70" viewBox="0 0 68 70" fill="none" xmlns="http://www.w3.org/2000/svg">
<g clip-path="url(#clip0_864_9032)">
<path d="M32.3921 -0.000488281H33.2124C33.3849 0.0954451 33.5633 0.180398 33.7466 0.253863C40.1053 2.44891 46.4641 4.64142 52.8229 6.83139C56.7755 8.19301 60.7277 9.55549 64.6795 10.9188C65.1984 11.0981 65.5697 11.3906 65.6053 11.9667C65.6358 12.5085 65.3255 12.8328 64.8601 13.0833C64.7697 13.146 64.6941 13.2276 64.6385 13.3225C64.5829 13.4174 64.5487 13.5233 64.5383 13.6327C64.5078 14.7239 64.5981 15.8227 64.5091 16.9088C64.303 19.4154 64.7825 21.7656 65.7923 24.0586C66.5388 25.7551 67.1391 27.5165 67.8055 29.2499V30.4899C67.1696 32.2271 65.9169 32.9507 64.1008 32.8223C63.465 32.7765 62.8291 32.8223 62.1932 32.8134C59.8697 32.793 58.5216 30.8714 59.3203 28.7069C60.2563 26.1634 61.205 23.6338 62.1436 21.0954C62.2224 20.8843 62.3293 20.663 62.3305 20.4455C62.3445 18.309 62.3382 16.1712 62.3382 13.985C62.1347 14.0397 61.9821 14.0715 61.8295 14.1224C59.2707 15.0037 56.7183 15.9028 54.1532 16.76C53.7106 16.9088 53.5707 17.1059 53.5732 17.5752C53.5974 20.8093 53.5135 24.0471 53.6203 27.2787C53.6661 28.6573 53.1777 29.5907 52.1234 30.3373C51.6592 30.6654 51.1861 30.9833 50.7245 31.3063C50.5732 31.4119 50.4244 31.5238 50.2158 31.6726H55.7428V30.6552L54.7318 30.6031V28.4411C55.4631 28.4411 56.1447 28.4233 56.8251 28.4411C57.5411 28.4652 57.9443 28.8849 57.957 29.6225C57.9748 30.6459 57.9748 31.6709 57.957 32.6976C57.9443 33.467 57.5348 33.8702 56.773 33.9007C56.4614 33.9122 56.1485 33.9007 55.8166 33.9007V38.2768H56.4627C57.6263 38.2845 57.9582 38.6189 57.9621 39.7864C57.9621 40.3676 57.9621 40.9488 57.9621 41.558C59.0888 41.558 60.1126 41.5452 61.1414 41.558C61.9045 41.5707 62.3229 41.9815 62.3356 42.7458C62.3534 43.7937 62.356 44.8429 62.3356 45.8896C62.3204 46.5776 61.9032 46.9782 61.2178 47.0163C60.8846 47.0354 60.5488 47.0163 60.2004 47.0163V51.3924C60.47 51.3924 60.6938 51.3924 60.9189 51.3924C61.9846 51.4001 62.3394 51.7587 62.3433 52.8384C62.3433 53.6803 62.3433 54.5231 62.3433 55.3667C62.3433 56.5202 61.9973 56.8572 60.8273 56.8597C59.8824 56.8597 58.9362 56.8597 57.9684 56.8597C57.9684 57.6228 57.9824 58.2879 57.9684 58.9467C57.9481 59.7097 57.5398 60.1103 56.7717 60.1383C56.4614 60.1498 56.1511 60.1383 55.8319 60.1383V64.5132H56.5542C57.6149 64.5221 57.9684 64.882 57.9722 65.9655C57.9722 66.7184 57.9722 67.47 57.9722 68.2216C57.9722 69.7235 57.7179 69.9817 56.2439 69.9817H32.7864C25.4967 69.9817 18.2057 69.9982 10.9122 69.9728C7.41611 69.9614 4.40714 67.6213 3.54489 64.3389C2.64321 60.9052 4.05359 57.4396 7.15795 55.691C7.98586 55.223 8.9384 54.9699 9.81464 54.624C6.85272 51.0008 6.88325 47.3343 9.88713 43.6703C5.51229 42.9505 2.86704 39.1645 3.32106 35.2488C3.86791 30.5217 8.01638 28.2948 10.888 28.4767V30.5852C10.7316 30.5992 10.5993 30.6107 10.4671 30.6247C7.65647 30.9273 5.54155 33.144 5.4627 35.8707C5.36986 39.078 7.82816 41.5427 11.1487 41.544C25.7968 41.5491 40.4453 41.5491 55.0942 41.544H55.7301V40.4503H54.8882C40.7412 40.4503 26.5942 40.4473 12.4472 40.4414C11.8564 40.452 11.2672 40.3784 10.6972 40.2226C9.71985 39.9202 8.88074 39.2822 8.32808 38.4212C7.77542 37.5602 7.54476 36.5317 7.67682 35.5171C7.8118 34.4787 8.31485 33.5232 9.09455 32.8243C9.87425 32.1253 10.8789 31.7293 11.9258 31.7082C13.0525 31.6853 14.1806 31.7082 15.5134 31.7082C15.1319 31.4615 14.9284 31.3432 14.7402 31.1995C14.0242 30.6412 13.3031 30.088 12.6061 29.5055C12.1648 29.1354 12.0008 28.6458 12.0097 28.0494C12.0389 26.2053 12.0199 24.3613 12.0199 22.5134V16.9558L7.2279 15.3026C5.09982 14.57 2.97175 13.8371 0.843678 13.1037C0.318443 12.9231 -0.0147581 12.5746 0.00050293 11.9973C0.0144922 11.4517 0.342602 11.1274 0.839859 10.9557L1.22139 10.8222C10.0999 7.76231 18.9772 4.70162 27.8532 1.64008C29.3793 1.1123 30.8826 0.547639 32.3921 -0.000488281ZM4.69455 11.9477L4.706 12.1003C4.87387 12.1651 5.03793 12.2376 5.2147 12.2961C14.2391 15.406 23.2664 18.5091 32.2968 21.6054C32.6804 21.715 33.0884 21.7039 33.4655 21.5736C41.4216 18.852 49.3735 16.1169 57.3211 13.3682C58.5318 12.9511 59.7374 12.52 61.1058 12.0392C60.7319 11.8968 60.531 11.8129 60.325 11.7416C51.4091 8.66229 42.4945 5.57998 33.5812 2.4947C33.0703 2.31228 32.5106 2.32087 32.0055 2.51886C24.6616 5.06237 17.3133 7.59868 9.9609 10.1278C8.20333 10.7306 6.44788 11.3372 4.69455 11.9477ZM60.1126 43.7416H15.7194C15.4651 43.7416 15.2183 43.7416 14.9678 43.753C13.6128 43.8396 12.3381 44.4261 11.3908 45.3988C10.4435 46.3715 9.89087 47.6612 9.84008 49.0181C9.75614 52.1708 12.1903 54.6685 15.4053 54.6736C23.1062 54.6863 30.8063 54.6863 38.5055 54.6736H39.3194V56.861H19.1226C16.3667 56.861 13.6096 56.8381 10.8562 56.8699C10.1367 56.8773 9.42572 57.0272 8.76444 57.311C8.10317 57.5948 7.50467 58.0068 7.00353 58.5231C6.50239 59.0395 6.10853 59.6501 5.84472 60.3196C5.58091 60.9891 5.45236 61.7042 5.46651 62.4237C5.50593 65.4759 7.95788 67.7956 11.1831 67.7968C25.8082 67.7968 40.4334 67.7968 55.0586 67.7968C55.2787 67.7968 55.4999 67.7778 55.7212 67.7689V66.7044H12.6252C12.3518 66.7044 12.0784 66.7044 11.8049 66.6968C10.7016 66.6388 9.66086 66.1664 8.89078 65.3742C8.1207 64.5819 7.67806 63.5282 7.65138 62.4237C7.60942 59.8801 9.56919 57.9573 12.2297 57.956C26.4454 57.956 40.6611 57.956 54.8768 57.956H55.7365V56.8546H52.5368V54.6659H60.1012V53.5646H52.5215V51.3912H57.9036V47.0227H16.7139C16.5545 47.0163 16.3949 47.0189 16.2357 47.0303C15.3175 47.1359 14.6638 47.6064 14.3446 48.4827C13.8029 49.9694 14.9004 51.3924 16.5956 51.395C22.4508 51.4001 28.3056 51.4001 34.1599 51.395H34.9344V53.5824H29.8232C25.358 53.5824 20.8929 53.5977 16.4278 53.5824C13.5116 53.5684 11.4743 50.9372 12.1623 48.1342C12.6507 46.1401 14.4044 44.8416 16.6313 44.8404H60.1126V43.7416ZM51.3947 17.7214C51.0984 17.8206 50.8669 17.8944 50.6317 17.9758C44.9571 19.9305 39.2876 21.8941 33.6028 23.8259C33.1187 23.9913 32.5954 24.0046 32.1034 23.864C27.0164 22.1459 21.9561 20.3794 16.8856 18.6282C16.0157 18.3281 15.142 18.0394 14.2047 17.724C14.2047 21.014 14.2175 24.201 14.192 27.3893C14.192 27.898 14.3408 28.235 14.7338 28.5441C16.7279 30.1134 19.0349 31.0113 21.4639 31.5709C28.8312 33.2712 36.2265 33.2521 43.6116 31.698C46.0966 31.1766 48.457 30.2991 50.5477 28.7895C51.1467 28.3584 51.4303 27.8891 51.4125 27.0994C51.3515 24.4821 51.3896 21.861 51.3896 19.2425L51.3947 17.7214ZM53.5567 60.1459H12.3327C12.1737 60.1394 12.0145 60.1423 11.8558 60.1549C10.9363 60.263 10.2852 60.7348 9.96853 61.6123C9.42294 63.1231 10.5395 64.5195 12.2946 64.5195C25.8261 64.5195 39.3575 64.5195 52.889 64.5195C53.1078 64.5195 53.3265 64.4992 53.5516 64.489L53.5567 60.1459ZM53.5567 33.8994C50.3341 33.8994 47.1979 33.8994 44.0503 33.8994C43.8916 33.9062 43.734 33.9288 43.5798 33.9668C37.7933 35.1407 31.9661 35.2602 26.116 34.6027C24.6039 34.4349 23.1121 33.9745 21.6026 33.9236C18.3952 33.8168 15.1827 33.8816 11.9715 33.8982C11.5231 33.9003 11.087 34.045 10.7263 34.3114C10.3655 34.5777 10.0988 34.9519 9.96471 35.3798C9.44583 36.8957 10.5599 38.2641 12.3251 38.2641H52.8941C53.1129 38.2641 53.3316 38.2438 53.5503 38.2336L53.5567 33.8994ZM63.5018 24.1311H63.3441C62.6663 25.9561 61.9783 27.7785 61.3093 29.6098C61.1211 30.1274 61.42 30.5738 61.9948 30.5967C62.9473 30.6336 63.9024 30.6323 64.8575 30.5967C65.3993 30.5751 65.721 30.1338 65.5506 29.662C64.888 27.8192 64.1886 25.9802 63.5018 24.1311Z" fill="white"/>
<path d="M45.9306 53.8646C44.7441 54.7549 43.6097 55.5917 42.4867 56.445C42.048 56.777 41.6092 57.0326 41.0509 56.7363C40.532 56.4603 40.4506 55.9923 40.4532 55.4645C40.4646 53.4831 40.4532 51.5004 40.4532 49.519C40.4532 48.4953 40.8271 48.1201 41.8585 48.1201C44.5716 48.1201 47.2821 48.1201 49.9901 48.1201C51.0151 48.1201 51.389 48.494 51.389 49.519C51.389 51.5004 51.389 53.4818 51.389 55.4632C51.389 55.9974 51.3 56.4628 50.7798 56.735C50.2597 57.0071 49.826 56.7948 49.4025 56.473C48.2707 55.6095 47.1185 54.7561 45.9306 53.8646ZM42.6838 50.3393V53.5543C43.4647 52.9731 44.1693 52.4504 44.8713 51.9252C45.82 51.213 46.0273 51.2105 46.9671 51.9087L49.1533 53.5365V50.3393H42.6838Z" fill="white"/>
<path d="M39.3248 53.5606H37.2188V51.4419H39.3248V53.5606Z" fill="white"/>
</g>
<defs>
<clipPath id="clip0_864_9032">
<rect width="67.7973" height="70" fill="white" transform="translate(0 -0.000488281)"/>
</clipPath>
</defs>
</svg>
