<svg width="70" height="75" viewBox="0 0 70 75" fill="none" xmlns="http://www.w3.org/2000/svg">
<g clip-path="url(#clip0_864_9065)">
<path d="M7.81122 69.7372H5.31577C2.21481 69.7297 0.0880593 67.8068 0.0490913 64.7089C-0.0243485 58.6838 -0.00786201 52.6572 0.0490913 46.6322C0.0745704 44.1142 1.06076 41.986 2.89676 40.18C4.38054 38.7262 6.10862 37.9738 8.10948 37.9003C10.6769 37.8059 13.2503 37.8599 15.8222 37.8494H16.4322C16.7604 36.3746 17.0826 34.9313 17.4034 33.485C17.4999 33.1384 17.5681 32.7845 17.6072 32.4268C17.6131 32.3191 17.5974 32.2112 17.5611 32.1096C17.5248 32.0079 17.4687 31.9145 17.3959 31.8348C15.9971 30.6425 14.9814 29.0637 14.4763 27.2965C14.0746 27.2051 13.6954 27.1392 13.3297 27.0298C12.3362 26.7274 11.4644 26.1172 10.8403 25.2873C10.2161 24.4573 9.87179 23.4504 9.85705 22.412C9.83007 19.4265 9.79709 16.4364 9.88103 13.4524C9.94847 11.0543 10.6709 8.81818 11.9164 6.73789C12.9969 4.91977 14.5048 3.39282 16.3093 2.28954C21.0274 -0.627071 25.9868 -0.736482 30.7184 1.83991C35.3901 4.38782 37.7342 8.69379 37.8976 14.0624C37.9815 16.7886 37.995 19.5239 37.8976 22.2487C37.8031 24.7966 36.3988 26.8019 33.3937 27.2681C32.9906 28.0969 32.6264 28.9422 32.1752 29.738C31.8995 30.2251 31.5757 30.7497 31.1261 31.0569C30.038 31.8063 30.053 32.7221 30.3767 33.8492C30.7529 35.1531 30.9837 36.499 31.291 37.8958C33.1225 37.8958 34.915 37.8824 36.709 37.8958C37.941 37.9078 39.182 37.8764 40.402 38.0172C44.4397 38.4849 47.6201 42.4686 47.6501 46.4718C47.6995 53.1144 47.6785 59.7584 47.668 66.4055C47.6774 67.5616 47.6228 68.7175 47.5047 69.8676C47.3293 71.4054 46.4301 72.5384 45.303 73.5501C44.08 74.6472 42.6606 75.0054 41.0675 75.0039C30.5761 74.9909 20.0847 74.9884 9.59326 74.9964C8.14994 74.9964 7.81722 74.6712 7.80972 73.2369C7.80523 72.1038 7.81122 70.9752 7.81122 69.7372ZM24.8073 67.1219C24.1643 69.2366 23.4719 69.7372 21.2717 69.7372H10.3681V72.3181H34.9944V63.0257C34.9944 62.4082 34.9734 61.7878 35.0094 61.1718C35.0484 60.4838 35.4591 60.0762 36.1335 60.0237C36.8079 59.9712 37.2486 60.3564 37.4194 61.0024C37.4658 61.2559 37.4799 61.5142 37.4614 61.7713C37.4614 65.0166 37.4614 68.2609 37.4614 71.5043V72.3721H40.9431C43.7697 72.3721 45.2071 70.9317 45.1996 68.0931C45.1836 62.119 45.1631 56.1449 45.1381 50.1708C45.1381 48.8848 45.1546 47.5929 45.0602 46.3114C44.8069 42.9002 42.244 40.5412 38.8313 40.5262C36.1335 40.5157 33.4357 40.5412 30.7379 40.5112C30.0815 40.5112 29.7757 40.787 29.4055 41.3055C28.6996 42.2917 27.9772 43.3843 26.9985 44.0333C24.9212 45.4092 22.673 45.3043 20.5103 44.0573C20.2106 43.8804 19.9633 43.5852 19.5376 43.2075L22.3583 56.1359C24.0459 56.1359 25.6646 56.1119 27.2818 56.1359C29.7248 56.1793 31.4289 57.4308 32.1887 59.7329C33.4102 63.4259 30.8323 67.2912 26.9251 67.1264C26.2176 67.0964 25.5057 67.1219 24.8073 67.1219ZM31.4334 22.2247L31.309 22.2112C31.309 21.3869 31.3224 20.5626 31.3 19.7397C31.3027 19.4879 31.2391 19.2398 31.1156 19.0203C30.2448 17.6879 29.377 16.354 28.4523 15.0606C27.553 13.8031 26.1337 13.6442 24.8552 14.494C24.4098 14.7748 23.9002 14.9378 23.3745 14.9676C22.1949 15.0366 21.0094 14.9542 19.8284 15.0111C19.4627 15.0291 18.9531 15.1925 18.7792 15.4607C17.3749 17.568 15.8821 19.6573 16.3617 22.439C16.5116 23.3203 16.4531 24.2375 16.5311 25.1368C16.6626 26.7395 17.3294 28.2513 18.424 29.4293C20.3934 31.571 22.9203 32.1466 25.6856 31.4976C28.4823 30.8441 30.2868 29.0381 30.9777 26.2669C31.2955 24.9614 31.2895 23.5736 31.4334 22.2247ZM35.4261 18.3579C35.4261 16.7737 35.5025 15.2254 35.4111 13.6877C35.1893 9.8988 33.5331 6.83531 30.4472 4.63062C27.8993 2.81111 24.9767 2.51885 21.9671 2.91003C19.5595 3.19203 17.3218 4.2926 15.6288 6.02747C12.1097 9.54958 12.1547 13.9005 12.375 18.3504C13.009 18.166 13.6085 18.0251 14.1735 17.8093C14.4206 17.7008 14.6294 17.5207 14.773 17.2922C15.4664 16.2161 16.1429 15.1285 16.8023 14.0294C17.5173 12.8424 18.6234 12.4482 19.9228 12.4302C20.7966 12.4182 21.6734 12.4677 22.5426 12.4062C23.067 12.3823 23.5813 12.2534 24.0549 12.0271C26.0902 10.9629 28.8824 11.3976 30.0979 13.0957C31.0961 14.4895 31.9969 15.9523 32.9561 17.3762C33.0749 17.5649 33.2485 17.7129 33.4537 17.8003C34.0787 18.0176 34.7247 18.1675 35.4261 18.3579ZM10.4655 67.2088H22.3193C20.3814 58.2566 18.4615 49.3914 16.5476 40.5577H13.6999C12.6163 49.4514 11.5447 58.3076 10.4655 67.2088ZM7.9656 67.2538C9.03272 58.3121 10.0894 49.4634 11.173 40.3988C9.6667 40.5337 8.22788 40.4737 6.89398 40.8229C4.15572 41.5364 2.54754 43.9509 2.53555 47.0908C2.51456 52.8281 2.53555 58.5654 2.53555 64.3027C2.53217 64.5853 2.55374 64.8677 2.59999 65.1465C2.80383 66.2766 3.6926 67.1818 4.75523 67.2448C5.81786 67.3077 6.84751 67.2538 7.97009 67.2538H7.9656ZM18.9756 38.0382C19.4911 38.7307 20.0427 39.2372 20.308 39.8742C20.9465 41.3925 22.0525 42.2273 23.6367 42.3397C25.2209 42.4521 26.4005 41.7267 27.2158 40.3688C27.6789 39.5984 28.1765 38.8506 28.767 37.9228C28.4973 36.6818 28.1675 35.1921 27.8333 33.6318C25.1355 34.7065 22.5307 34.702 19.8748 33.6228C19.5511 35.21 19.2453 36.7148 18.9756 38.0382ZM24.2542 64.4586C25.4098 64.4586 26.5159 64.535 27.6085 64.4406C29.0863 64.3132 29.9646 63.2835 30.0575 61.7503C30.1564 60.1016 28.9349 58.8831 27.8363 58.7258C26.2911 58.5039 24.6889 58.6688 23.0402 58.6688C23.4434 60.6157 23.8406 62.4967 24.2542 64.4586ZM33.7864 20.4561V24.4249C34.7891 24.1956 35.3242 23.5676 35.3721 22.6473C35.3834 22.1591 35.2345 21.6805 34.9481 21.2848C34.6618 20.8891 34.2538 20.5981 33.7864 20.4561ZM13.8872 24.4189V20.5356C13.1109 20.7334 12.345 21.7166 12.327 22.496C12.3075 23.3038 12.916 24.0697 13.8872 24.4189Z" fill="white"/>
<path d="M55.8509 37.9707C55.1225 37.9318 54.4795 37.9437 53.8501 37.8553C51.3021 37.5001 49.5666 35.0991 49.3537 32.9304C49.2743 32.139 49.3013 31.3357 49.3013 30.5323C49.3013 24.867 49.3013 19.2006 49.3013 13.5333C49.3013 10.6376 50.8975 8.34752 53.3989 7.67607C54.1288 7.47973 54.9082 7.46474 55.5317 7.37631C55.5317 6.27472 55.4507 5.16712 55.5512 4.07902C55.6876 2.59673 56.3185 1.35425 57.7723 0.724767C59.1662 0.125258 60.5106 0.275135 61.6796 1.24784C62.5894 1.99722 63.0375 3.04636 63.0825 4.2199C63.123 5.26904 63.0915 6.31818 63.0915 7.44226C63.4752 7.47373 64.0072 7.5067 64.5348 7.56516C67.1966 7.86491 68.8692 9.96319 69.2694 12.4257C69.3187 12.7827 69.3402 13.143 69.3339 13.5033C69.3339 19.6073 69.3339 25.7113 69.3339 31.8153C69.3339 34.3752 68.2712 36.367 65.9391 37.4686C65.0249 37.9003 63.9248 37.9378 62.7737 38.185C62.7737 38.4249 62.7737 38.8805 62.7737 39.3361C62.7513 40.703 62.2012 41.7956 60.9872 42.452C60.5376 42.6963 60.5511 43.0201 60.5526 43.4083C60.5526 47.1942 60.575 50.9801 60.5526 54.766C60.5316 57.4278 59.5544 59.616 57.0514 60.803C56.2001 61.2062 55.1855 61.3291 54.2292 61.4265C53.2101 61.5299 52.1744 61.4535 51.1448 61.449C50.0417 61.449 49.5111 61.0743 49.4707 60.2874C49.4302 59.5006 50.0956 58.8666 51.1193 58.8306C52.095 58.7976 53.0677 58.8306 54.0509 58.8216C56.5838 58.8066 58.0751 57.3229 58.0841 54.7839C58.0991 50.9711 58.0956 47.1592 58.0736 43.3483C58.0736 43.0695 57.9237 42.6604 57.7169 42.536C56.38 41.7386 55.8269 40.5606 55.8554 39.0498C55.8554 38.7261 55.8509 38.3919 55.8509 37.9707ZM51.8297 19.966C51.8117 20.2373 51.7863 20.4606 51.7863 20.6854C51.7863 24.4428 51.7758 28.2002 51.7863 31.9577C51.7863 34.1294 52.9598 35.2954 55.1195 35.3029C57.8443 35.3119 60.5676 35.3029 63.2923 35.3029C65.7533 35.3029 66.8609 34.1968 66.8639 31.7194C66.8699 27.3949 66.8699 23.0714 66.8639 18.749C66.8639 18.4732 66.8369 18.1974 66.8219 17.8887C64.6382 17.2427 62.5115 17.2023 60.5825 18.3533C57.8563 19.9765 55.0161 20.6719 51.8297 19.966ZM66.8729 15.1235V13.806C66.8729 11.2491 65.7578 10.1236 63.2264 10.1221C60.581 10.1221 57.9372 10.1221 55.2919 10.1221C54.8813 10.1184 54.4715 10.1571 54.0689 10.2375C52.9283 10.4848 51.9181 11.4844 51.8537 12.625C51.7668 14.1837 51.8327 15.7514 51.8327 17.532C52.9598 17.5964 54.0719 17.7313 55.181 17.6968C55.8696 17.6599 56.5452 17.4941 57.1728 17.2083C58.222 16.7481 59.1887 16.1067 60.2348 15.6465C62.3181 14.7338 64.5063 14.6633 66.8729 15.1235ZM60.6275 5.12816C60.6275 4.81941 60.644 4.50916 60.6275 4.20192C60.5765 3.45253 60.0475 2.95344 59.3296 2.95044C59.1619 2.94505 58.9948 2.9729 58.838 3.0324C58.6811 3.09189 58.5376 3.18184 58.4157 3.29706C58.2938 3.41229 58.1959 3.55051 58.1277 3.70375C58.0594 3.85699 58.0222 4.02223 58.0181 4.18992C57.9837 4.83244 57.9837 5.47633 58.0181 6.11884C58.0275 6.45776 58.1683 6.77974 58.4108 7.01667C58.6534 7.2536 58.9785 7.38687 59.3176 7.3883C59.6557 7.38782 59.9806 7.25674 60.2244 7.02243C60.4682 6.78812 60.6121 6.46869 60.626 6.13083C60.6455 5.8026 60.626 5.46688 60.6275 5.12816ZM58.3719 37.9512C58.3074 38.7771 58.1575 39.5849 58.85 40.126C59.0568 40.2878 59.6308 40.2758 59.8287 40.099C60.4791 39.5309 60.3397 38.7396 60.2543 37.9512H58.3719Z" fill="white"/>
<path d="M37.0851 54.2429C37.0851 54.706 37.1106 55.1706 37.0851 55.6307C37.0341 56.4131 36.5096 56.9257 35.8246 56.9047C35.1637 56.8837 34.6796 56.3906 34.6436 55.6352C34.6106 54.9428 34.6361 54.2489 34.6271 53.5549C34.6106 52.23 34.2015 51.8254 32.8571 51.8074C32.2935 51.7999 31.7285 51.8298 31.1634 51.8074C30.2267 51.7744 29.6991 51.2453 29.7111 50.3925C29.7231 49.6327 30.2522 49.1935 31.1799 49.183C31.7959 49.1755 32.4119 49.183 33.0279 49.183C35.3645 49.195 36.8768 50.5919 37.0746 52.9299C37.1091 53.3631 37.0746 53.8022 37.0746 54.2384L37.0851 54.2429Z" fill="white"/>
<path d="M58.0898 26.5607C58.0898 25.8113 58.0659 25.1893 58.0898 24.5748C58.1288 23.8059 58.5949 23.3293 59.2709 23.3084C59.9753 23.2859 60.4894 23.7775 60.5328 24.5763C60.5658 25.1893 60.5328 25.8038 60.5328 26.5607C61.1323 26.5607 61.6524 26.5502 62.1815 26.5607C63.0972 26.5832 63.6398 27.0523 63.6338 27.8002C63.6263 28.6755 63.1587 29.1416 62.2189 29.179C61.7079 29.1985 61.1953 29.179 60.5433 29.179C60.5433 29.6032 60.5433 29.9749 60.5433 30.3466C60.5358 30.6808 60.6332 31.096 60.4714 31.3298C60.1611 31.7719 59.7565 32.229 59.2829 32.4524C58.9022 32.6337 58.1573 31.8379 58.1153 31.2533C58.0688 30.5939 58.1048 29.9284 58.1048 29.1745C57.4499 29.1745 56.9148 29.1925 56.3812 29.1745C55.446 29.1356 54.9829 28.662 54.9844 27.7807C54.9844 27.0523 55.5045 26.5817 56.3707 26.5577C56.9118 26.5397 57.4454 26.5607 58.0898 26.5607Z" fill="white"/>
</g>
<defs>
<clipPath id="clip0_864_9065">
<rect width="69.3361" height="75" fill="white" transform="translate(0 -0.000488281)"/>
</clipPath>
</defs>
</svg>
