<svg width="71" height="70" viewBox="0 0 71 70" fill="none" xmlns="http://www.w3.org/2000/svg">
<g clip-path="url(#clip0_896_7)">
<path d="M36.0973 0C36.722 0.198113 37.3823 0.321265 37.966 0.605048C40.5986 1.88832 42.2495 3.92657 42.071 6.94824C41.9461 9.11321 41.557 11.28 41.109 13.4092C40.7905 14.9706 39.9031 16.358 38.6192 17.3019C35.6011 19.5329 32.1636 18.6369 30.2788 16.1168C29.589 15.2159 29.0909 14.1833 28.8153 13.0826C28.3673 11.0879 28.069 9.06242 27.9229 7.0232C27.6569 3.33758 30.6269 0.726415 33.4558 0.142784C33.6099 0.103096 33.7618 0.0554377 33.9109 0H36.0973ZM40.0453 6.99464C39.9703 5.85951 39.658 4.87073 38.9351 4.00331C38.2511 3.1848 37.3289 2.59998 36.2968 2.33029C35.2648 2.06061 34.1743 2.11948 33.1773 2.49872C31.1016 3.28939 29.9236 5.05456 30.111 7.35875C30.2443 8.99064 30.4828 10.6122 30.825 12.2134C31.0117 13.082 31.3683 13.9052 31.8744 14.6354C33.5486 17.0181 36.5613 16.9146 38.1801 14.614C38.5931 14.0412 38.888 13.392 39.0476 12.7042C39.4438 10.8106 39.7204 8.89725 40.0453 6.99464Z" fill="white"/>
<path d="M0 36.7812C0.381948 36.2155 0.913817 36.0673 1.58133 36.0798C4.38169 36.1084 7.18383 36.0923 9.96991 36.0923L11.3496 38.2341H2.24707V40.4615H8.32433L8.35467 40.5989C7.66395 40.9702 6.87506 41.2308 6.30214 41.7341C5.30444 42.6122 4.19429 42.771 2.96099 42.664C2.50675 42.6238 2.04985 42.6238 1.59561 42.664C0.926314 42.7246 0.398013 42.523 0.00714074 41.9732L0 36.7812Z" fill="white"/>
<path d="M16.4238 53.5975C19.9791 53.5975 23.5338 53.5975 27.088 53.5975C29.2726 53.5975 30.6326 54.9504 30.6344 57.1296C30.6344 60.9372 30.6344 64.7448 30.6344 68.5524C30.6467 68.7342 30.6383 68.9168 30.6094 69.0967C30.5729 69.3484 30.4468 69.5784 30.2544 69.7446C30.0619 69.9109 29.816 70.0021 29.5617 70.0016C29.2968 70.0097 29.0384 69.9193 28.8363 69.7479C28.6342 69.5764 28.5028 69.3362 28.4676 69.0735C28.4441 68.8471 28.4375 68.6192 28.448 68.3917C28.448 64.7031 28.448 61.0116 28.448 57.317C28.448 56.1159 28.1196 55.791 26.9006 55.791H5.90949C4.70118 55.791 4.37992 56.1158 4.37992 57.3349C4.37992 61.0235 4.37992 64.7121 4.37992 68.4006C4.39104 68.6282 4.38328 68.8562 4.35672 69.0824C4.31767 69.3447 4.1827 69.5832 3.97795 69.7516C3.77321 69.9201 3.51323 70.0067 3.24835 69.9945C2.9939 69.9917 2.74905 69.897 2.55907 69.7277C2.3691 69.5584 2.24686 69.326 2.21495 69.0735C2.1881 68.87 2.18092 68.6644 2.19353 68.4595C2.19353 64.7008 2.19353 60.9414 2.19353 57.1814C2.19353 54.9504 3.54106 53.5993 5.76314 53.5975C9.31252 53.5951 12.8661 53.5951 16.4238 53.5975Z" fill="white"/>
<path d="M53.5945 53.5977H64.1891C66.5094 53.5977 67.8177 54.9184 67.8177 57.2529C67.8177 60.9903 67.8177 64.7271 67.8177 68.4633C67.8276 68.6682 67.8204 68.8736 67.7962 69.0773C67.7584 69.3399 67.6245 69.5791 67.4204 69.7486C67.2163 69.9181 66.9565 70.0058 66.6914 69.9947C66.4371 69.9933 66.1918 69.8998 66.0011 69.7314C65.8105 69.5631 65.6873 69.3313 65.6545 69.079C65.6244 68.8531 65.6166 68.6247 65.6313 68.3972C65.6313 64.6825 65.6313 60.9683 65.6313 57.2547C65.6313 56.1339 65.2743 55.7858 64.1624 55.784H43.041C41.9166 55.784 41.5685 56.1303 41.5668 57.2458C41.5668 60.9606 41.5668 64.6747 41.5668 68.3883C41.5751 68.5936 41.5709 68.7993 41.5543 69.0041C41.5299 69.2794 41.4019 69.5352 41.1961 69.7197C40.9904 69.9043 40.7222 70.0038 40.4459 69.9982C40.1813 69.9902 39.9286 69.8864 39.7346 69.7062C39.5407 69.5261 39.4186 69.2817 39.3911 69.0184C39.3753 68.8368 39.3711 68.6543 39.3786 68.4722C39.3786 64.7134 39.3786 60.954 39.3786 57.194C39.3786 54.9273 40.719 53.5977 42.9982 53.5977H53.5945Z" fill="white"/>
<path d="M27.8945 51.3772H25.7028C25.7028 50.1886 25.6653 49.032 25.7152 47.879C25.7581 46.9063 25.3761 46.1549 24.5837 45.6927C22.8185 44.661 21.0141 43.7008 19.2114 42.7281C19.0404 42.6651 18.8572 42.6425 18.676 42.6621C17.1714 42.6621 15.6686 42.6478 14.1676 42.671C13.8565 42.6807 13.5516 42.76 13.2752 42.903C11.8045 43.6705 10.3463 44.4647 8.88454 45.2536C7.69408 45.8961 6.94446 46.7617 7.09974 48.2503C7.19969 49.2623 7.11937 50.2921 7.11937 51.3648H4.97761C4.97761 49.8477 4.86874 48.3217 5.00974 46.8189C5.14538 45.3607 6.13952 44.3416 7.35854 43.6348C9.16654 42.5853 11.0227 41.6144 12.8682 40.6327C13.1157 40.5212 13.3858 40.4686 13.6571 40.4792C15.4794 40.4667 17.3017 40.4578 19.1222 40.4792C19.4823 40.49 19.8355 40.5815 20.1556 40.747C21.7887 41.5947 23.4182 42.4568 25.0281 43.351C26.92 44.4022 28.0623 45.9015 27.9088 48.2039C27.8338 49.2462 27.8945 50.2939 27.8945 51.3772Z" fill="white"/>
<path d="M44.2968 51.3847H42.155C42.155 49.8623 42.0533 48.3595 42.1836 46.8745C42.3138 45.3896 43.2794 44.3758 44.5038 43.6619C46.3279 42.591 48.2055 41.6183 50.0724 40.6277C50.3202 40.5172 50.5902 40.4659 50.8613 40.4778C52.6836 40.4653 54.5058 40.4564 56.3263 40.4778C56.6862 40.4898 57.0387 40.5825 57.358 40.7491C58.9928 41.5986 60.6224 42.4589 62.2305 43.3549C64.1224 44.4079 65.2646 45.9107 65.1022 48.2113C65.029 49.2483 65.0897 50.2942 65.0897 51.3704H62.8926C62.8926 50.4352 62.8034 49.4785 62.9105 48.5469C63.1175 46.7514 62.2215 45.7572 60.7223 45.0326C59.373 44.3794 58.0808 43.6048 56.7493 42.9158C56.4515 42.7628 56.1237 42.6769 55.7891 42.6642C54.3327 42.638 52.8757 42.638 51.4181 42.6642C51.0824 42.6704 50.7524 42.7521 50.4525 42.9033C48.9801 43.6672 47.5219 44.4632 46.0619 45.2503C44.8679 45.8947 44.129 46.7692 44.2771 48.2542C44.3789 49.2715 44.2968 50.3013 44.2968 51.3847Z" fill="white"/>
<path d="M22.0046 29.5313C21.6923 31.2019 21.437 32.8867 21.0497 34.5412C20.7807 35.6372 20.1343 36.6034 19.2239 37.2702C18.7448 37.6482 18.1946 37.9258 17.606 38.0867C17.0174 38.2476 16.4024 38.2883 15.7977 38.2066C15.193 38.1248 14.6109 37.9222 14.0862 37.6107C13.5614 37.2993 13.1047 36.8855 12.7432 36.3939C12.3381 35.8584 11.9205 35.2391 11.7973 34.6091C11.4403 32.744 11.0584 30.861 10.987 28.9673C10.9103 26.9398 12.5273 25.0639 14.5566 24.3625C15.5946 24.0028 16.7153 23.9547 17.7803 24.2243C18.8453 24.4939 19.8081 25.0693 20.55 25.8796C21.4727 26.9237 21.9189 28.1213 22.0046 29.5313ZM19.6736 30.131C19.7111 27.6573 18.3386 26.2633 16.4431 26.258C14.4799 26.258 13.0199 27.6251 13.152 29.5331C13.2546 30.9835 13.487 32.4219 13.8463 33.8309C14.2032 35.2409 15.3473 36.1154 16.4414 36.0869C17.5943 36.0583 18.626 35.2195 18.9918 33.7791C19.3434 32.3959 19.5219 30.9699 19.6736 30.131Z" fill="white"/>
<path d="M59.2024 29.478C58.8883 31.1718 58.6313 32.878 58.2386 34.554C57.9683 35.6516 57.3159 36.6171 56.3985 37.2776C55.9191 37.655 55.3685 37.9319 54.7796 38.0917C54.1907 38.2516 53.5757 38.291 52.9712 38.2077C52.3667 38.1244 51.7853 37.92 51.2616 37.6069C50.7379 37.2938 50.2827 36.8782 49.9232 36.3852C49.4949 35.814 49.0755 35.1358 48.9398 34.4629C48.5829 32.6656 48.2402 30.8416 48.167 29.0175C48.0867 26.99 49.668 25.0999 51.6955 24.377C52.7414 24.004 53.8746 23.95 54.9512 24.222C56.0278 24.494 56.9993 25.0797 57.7425 25.9048C58.6955 26.9775 59.0757 27.9877 59.2024 29.478ZM53.591 26.2653C51.8205 26.2653 50.2766 27.5415 50.3552 29.1763C50.4414 30.7631 50.6763 32.3382 51.0566 33.8811C51.3886 35.2572 52.5326 36.105 53.6124 36.0942C54.7565 36.0835 55.822 35.2411 56.1772 33.8079C56.5188 32.436 56.7438 31.0377 56.8501 29.6279C56.9982 27.6646 55.5614 26.2564 53.591 26.2582V26.2653Z" fill="white"/>
<path d="M32.706 20.4198L34.7906 20.8249C34.5711 21.7173 34.3569 22.6097 34.1356 23.5021C33.7287 25.1334 33.2878 26.7594 32.9291 28.4014C32.8952 28.5918 32.9003 28.7872 32.9442 28.9755C32.9881 29.1639 33.0697 29.3414 33.1843 29.4973C33.7554 30.1398 34.4337 30.6824 35.1476 31.3231C35.7098 30.727 36.3969 30.0434 37.0163 29.3009C37.1626 29.1225 37.1466 28.7352 37.0841 28.4746C36.5219 26.1311 35.9329 23.7948 35.3528 21.4549C35.3029 21.2568 35.2636 21.0569 35.2118 20.8249L37.2822 20.418C37.353 20.5656 37.4126 20.7184 37.4607 20.8749C38.0497 23.2112 38.6172 25.5529 39.2241 27.8856C39.5525 29.1492 39.2776 30.2058 38.3531 31.1304C37.6267 31.8532 36.9252 32.6064 36.2113 33.3364C35.4974 34.0664 34.5318 34.0896 33.809 33.3489C33.0861 32.6082 32.3258 31.8068 31.5887 31.0286C30.7605 30.1541 30.4625 29.1385 30.7623 27.9516C31.3763 25.5279 31.976 23.1005 32.5846 20.675C32.6179 20.5867 32.6585 20.5013 32.706 20.4198Z" fill="white"/>
<path d="M47.174 36.126C47.6291 36.8399 48.0574 37.4985 48.5179 38.216H21.5156L22.8453 36.126H47.174Z" fill="white"/>
<path d="M67.7697 38.259H58.6797L60.0611 36.0923H64.3625C65.7903 36.0923 67.2307 36.0923 68.6657 36.0923C69.6063 36.0923 69.9953 36.4832 70.0007 37.4166C70.0102 38.7374 70.0102 40.0581 70.0007 41.3789C70.0007 42.2302 69.5902 42.6425 68.7513 42.6532C67.6358 42.6693 66.5203 42.6639 65.4048 42.6532C65.2054 42.6534 65.009 42.6037 64.8337 42.5087C63.8574 41.9339 62.8918 41.3378 61.9245 40.7488C61.8352 40.6953 61.746 40.6346 61.5229 40.4811H67.7697V38.259Z" fill="white"/>
<path d="M45.5107 40.5329C43.5349 41.552 41.6555 42.6389 40.4847 44.67V42.6568H29.5546V44.6647C28.3587 42.6389 26.4847 41.5484 24.5 40.5293L45.5107 40.5329Z" fill="white"/>
<path d="M29.9398 19.1222C28.3032 19.8129 26.6504 20.5054 25.0013 21.2086C23.6395 21.7905 22.3901 22.5044 21.8993 24.0643L20.0859 22.7186C20.5546 21.5761 21.4126 20.6365 22.5079 20.0664C24.4212 19.0901 26.4041 18.2441 28.2603 17.3892L29.9398 19.1222Z" fill="white"/>
<path d="M40.0703 19.1293L41.864 17.4355C43.6738 18.2815 45.7121 19.1632 47.6789 20.1824C48.6945 20.7089 49.4352 21.6102 49.9171 22.7168L48.1323 24.0643C47.4915 22.1349 45.7763 21.5263 44.1236 20.8356C42.7582 20.2662 41.4036 19.6898 40.0703 19.1293Z" fill="white"/>
<path d="M32.7826 55.7628C32.4595 55.0346 32.1597 54.3545 31.8438 53.6406H38.1602L37.2214 55.7628H32.7826Z" fill="white"/>
<path d="M16.9592 48.1308C17.484 48.1308 18.0087 48.1165 18.5317 48.1308C19.2295 48.1522 19.6882 48.5966 19.6846 49.2195C19.6863 49.363 19.6592 49.5054 19.6048 49.6382C19.5504 49.771 19.4698 49.8915 19.368 49.9926C19.2661 50.0936 19.1449 50.1732 19.0117 50.2265C18.8784 50.2798 18.7358 50.3058 18.5923 50.3029C17.5 50.3297 16.4042 50.3297 15.3119 50.3029C15.1685 50.3048 15.0263 50.278 14.8935 50.2239C14.7607 50.1698 14.6402 50.0896 14.539 49.9881C14.4378 49.8866 14.358 49.7658 14.3044 49.6328C14.2507 49.4999 14.2243 49.3575 14.2267 49.2142C14.2255 49.071 14.253 48.929 14.3076 48.7966C14.3622 48.6642 14.4429 48.5441 14.5447 48.4435C14.6465 48.3428 14.7675 48.2636 14.9005 48.2105C15.0335 48.1574 15.1758 48.1315 15.319 48.1344C15.8669 48.1112 16.4238 48.1308 16.9592 48.1308Z" fill="white"/>
<path d="M13.1275 62.9217C13.1275 63.4464 13.1435 63.9711 13.1275 64.4941C13.0989 65.1812 12.6295 65.6417 12.012 65.6257C11.8684 65.6241 11.7266 65.5937 11.595 65.5363C11.4634 65.4788 11.3447 65.3955 11.246 65.2913C11.1473 65.1871 11.0705 65.064 11.0202 64.9295C10.97 64.795 10.9473 64.6518 10.9536 64.5084C10.9321 63.4375 10.9321 62.3666 10.9536 61.2957C10.9678 60.6068 11.4462 60.1499 12.0673 60.1659C12.6598 60.182 13.0846 60.6246 13.1382 61.2814C13.1382 61.3261 13.1382 61.3725 13.1382 61.4189L13.1275 62.9217Z" fill="white"/>
<path d="M17.4987 62.95C17.4987 63.4747 17.5165 63.9995 17.4987 64.5224C17.4683 65.1739 17.0186 65.6165 16.4278 65.6254C16.2851 65.6288 16.1431 65.6035 16.0103 65.5512C15.8775 65.4989 15.7565 65.4205 15.6543 65.3207C15.5522 65.221 15.4711 65.1018 15.4158 64.9702C15.3604 64.8386 15.3319 64.6973 15.3319 64.5545C15.3051 63.4622 15.3069 62.3664 15.3319 61.2741C15.3279 61.1309 15.3526 60.9884 15.4046 60.8549C15.4566 60.7215 15.5348 60.5998 15.6346 60.4972C15.7345 60.3945 15.8539 60.3129 15.9859 60.2572C16.1178 60.2015 16.2596 60.1728 16.4028 60.1729C17.0239 60.1729 17.4737 60.6226 17.504 61.3169C17.5147 61.8559 17.4987 62.4039 17.4987 62.95Z" fill="white"/>
<path d="M21.8757 62.9375C21.8757 63.4622 21.8935 63.9869 21.8757 64.5099C21.8471 65.1649 21.4045 65.6111 20.8137 65.6236C20.1944 65.6397 19.7178 65.181 19.7036 64.4903C19.6821 63.4194 19.6821 62.3485 19.7036 61.2776C19.6978 61.1342 19.721 60.991 19.7716 60.8567C19.8223 60.7224 19.8995 60.5996 19.9986 60.4957C20.0976 60.3918 20.2166 60.3089 20.3483 60.2519C20.4801 60.1949 20.622 60.165 20.7655 60.1639C21.3866 60.1496 21.8507 60.6065 21.8775 61.2955C21.8935 61.8434 21.8757 62.3913 21.8757 62.9375Z" fill="white"/>
<path d="M50.315 62.9377C50.315 63.4624 50.3328 63.9871 50.315 64.5101C50.2864 65.1651 49.8438 65.6095 49.253 65.6238C48.6337 65.6398 48.1553 65.1811 48.1411 64.4922C48.1196 63.4213 48.1196 62.3505 48.1411 61.2796C48.1353 61.1363 48.1584 60.9933 48.209 60.8591C48.2596 60.7249 48.3366 60.6022 48.4354 60.4983C48.5343 60.3945 48.6531 60.3115 48.7846 60.2544C48.9162 60.1973 49.0578 60.1672 49.2012 60.1659C49.8223 60.1516 50.2864 60.6085 50.3132 61.2974C50.331 61.8436 50.315 62.3915 50.315 62.9377Z" fill="white"/>
<path d="M54.6864 62.8732C54.6864 63.4211 54.7042 63.9672 54.6864 64.5134C54.6578 65.1666 54.2116 65.6128 53.6155 65.6253C52.9962 65.6378 52.5214 65.1791 52.5089 64.4866C52.4875 63.4157 52.4857 62.3449 52.5089 61.274C52.5036 61.1301 52.5274 60.9866 52.5789 60.8521C52.6303 60.7176 52.7084 60.5949 52.8084 60.4912C52.9083 60.3876 53.0282 60.3052 53.1607 60.2489C53.2933 60.1927 53.4358 60.1637 53.5798 60.1638C54.2009 60.1513 54.6614 60.6082 54.6882 61.299C54.7024 61.8255 54.6864 62.3502 54.6864 62.8732Z" fill="white"/>
<path d="M56.8797 62.8874C56.8797 62.3626 56.8654 61.8397 56.8797 61.315C56.9047 60.6189 57.3544 60.162 57.9756 60.1655C58.5967 60.1691 59.0464 60.6278 59.0464 61.3292C59.0655 62.3775 59.0655 63.4258 59.0464 64.4741C59.0322 65.1684 58.5699 65.6288 57.9523 65.6253C57.3348 65.6217 56.9029 65.1594 56.8672 64.4598C56.8672 64.4134 56.8672 64.3688 56.8672 64.3224C56.8743 63.844 56.8785 63.3657 56.8797 62.8874Z" fill="white"/>
</g>
<defs>
<clipPath id="clip0_896_7">
<rect width="70.0107" height="70" fill="white"/>
</clipPath>
</defs>
</svg>
