<svg width="71" height="75" viewBox="0 0 71 75" fill="none" xmlns="http://www.w3.org/2000/svg">
<g clip-path="url(#clip0_864_9075)">
<path d="M60.0571 42.85C60.0571 40.698 60.0437 38.4635 60.0571 36.2271C60.0407 35.5626 60.1051 34.8986 60.2489 34.2496C60.5665 33.0379 61.3119 31.982 62.3473 31.2769C63.3827 30.5719 64.6382 30.2652 65.8821 30.4136C68.4541 30.6994 70.2935 32.7152 70.3453 35.4254C70.3913 38.2506 70.3587 41.0758 70.3587 43.903V58.616C70.3587 61.9265 69.0315 63.2883 65.7555 63.3478C65.6251 63.3478 65.4946 63.3612 65.2491 63.3746C65.2218 63.8733 65.2301 64.3732 65.2741 64.8707C65.3009 65.0625 65.5618 65.2715 65.7651 65.3636C69.1676 66.8788 69.8811 70.9258 67.265 73.5516C65.9109 74.9115 64.3573 75.2663 62.6023 74.7714C60.784 74.2574 59.7253 72.8937 59.2285 71.1522C58.9107 70.078 58.9894 68.9255 59.4503 67.9045C59.9111 66.8836 60.7234 66.0621 61.7392 65.5899C62.5486 65.2217 62.8248 64.792 62.6886 63.9826C62.666 63.7872 62.6544 63.5906 62.6541 63.3938H59.6505C59.6053 63.4396 59.5683 63.4928 59.5411 63.5511C58.5821 66.6199 56.5279 68.1658 53.3364 68.1677C41.2286 68.1754 29.1208 68.1754 17.0131 68.1677C13.9155 68.1677 11.9323 66.7292 10.8486 63.7985C10.7897 63.6852 10.7053 63.5872 10.6022 63.512C10.499 63.4368 10.3798 63.3865 10.254 63.365C9.43308 63.3152 8.60834 63.3439 7.72989 63.3439V65.1756C9.16265 65.6666 10.2981 66.5604 10.91 68.0316C11.3429 69.0455 11.4107 70.1782 11.1018 71.2365C10.4573 73.5094 8.31872 75.0726 6.15329 74.9939C3.7481 74.9019 1.8416 72.6425 1.55006 70.7053C1.18564 68.2118 2.44001 66.1999 5.0581 65.1776V63.3439C4.64573 63.3439 4.22952 63.3439 3.81523 63.3439C1.66322 63.296 -0.00928479 61.6753 -0.0207929 59.5348C-0.0374156 50.2311 -0.0342213 40.9269 -0.0112051 31.6219C-0.0112051 29.4584 1.10124 27.8588 3.09214 26.9919C3.75385 26.7022 3.90154 26.3647 3.89962 25.6972C3.87533 18.5533 3.87149 11.4087 3.88812 4.26343C3.88812 2.05005 5.02741 0.530983 6.98762 0.0955942C7.27396 0.0356062 7.56584 0.00603421 7.8584 0.00736735C11.3262 0.00736735 14.7939 0.00736735 18.2598 0.00736735C18.8639 0.00736735 19.3684 0.149298 19.6618 0.724702C20.1011 1.58397 19.5122 2.5238 18.4803 2.56024C17.5539 2.59285 16.6256 2.56024 15.657 2.56024V5.43726C16.031 5.43726 16.3935 5.42575 16.7561 5.43726C17.6172 5.46795 18.1447 5.90717 18.1562 6.7511C18.1869 8.96256 18.2502 11.1817 18.1255 13.3874C18.0008 15.5931 16.2075 17.0758 14.019 16.976C11.984 16.8839 10.4017 15.1923 10.3748 13.0498C10.3556 11.1318 10.3748 9.21382 10.3748 7.29581C10.3748 5.81511 10.7354 5.45068 12.1989 5.43726H12.8817V2.71368C11.048 2.71368 9.22019 2.67916 7.39424 2.73286C6.79774 2.75204 6.49277 3.25839 6.40646 3.8338C6.3799 4.09889 6.37349 4.36562 6.38728 4.63169C6.38728 11.6708 6.38728 18.7093 6.38728 25.7471V26.639C8.69849 27.4273 10.0775 28.9578 10.2981 31.4052C10.3576 32.0669 10.325 32.7382 10.3269 33.4038C10.3269 34.2822 10.3269 35.1607 10.3269 36.1523C11.3434 36.1523 12.3331 36.252 13.294 36.1331C15.8661 35.8205 17.2969 37.2456 18.4401 39.2595C18.9886 40.2281 19.658 41.1314 20.2909 42.0502C20.3407 42.1236 20.4044 42.1864 20.4784 42.2351C20.5525 42.2839 20.6354 42.3175 20.7225 42.334C21.4015 42.3628 22.0843 42.3475 22.9225 42.3475C22.6616 42.0674 22.5293 41.9159 22.3873 41.7721C21.3765 40.7689 20.7839 39.5452 20.7685 38.1374C20.7244 34.1096 20.7359 30.0818 20.7685 26.054C20.789 25.4679 20.9383 24.8936 21.2058 24.3719C22.2838 22.2199 23.9121 20.9194 26.4669 20.929C32.2536 20.9636 38.0441 21.0345 43.8288 20.9041C47.1182 20.8293 49.6845 23.7543 49.6826 26.6121C49.6826 30.2563 49.7094 33.9178 49.671 37.5697C49.6519 39.4072 49.3239 40.0286 47.5958 42.2631C51.7578 42.6601 55.9353 41.8219 60.0571 42.85ZM26.3864 53.2283H25.577C20.2424 53.2283 14.909 53.2283 9.57693 53.2283C8.26309 53.2283 7.85072 52.8083 7.85072 51.5136C7.85072 47.6495 7.85072 43.7847 7.85072 39.9193C7.85072 37.1995 7.86798 34.4798 7.85072 31.762C7.83538 30.0358 6.45825 28.8734 4.7819 29.1113C3.44889 29.3031 2.5877 30.427 2.5877 32.0055C2.5877 40.9627 2.5877 49.9191 2.5877 58.875C2.5877 60.4458 2.93294 60.793 4.5153 60.793H66.0355C67.5699 60.793 67.9133 60.4516 67.9133 58.9191C67.9133 51.2956 67.9133 43.6715 67.9133 36.0468C67.9133 35.8339 67.9133 35.621 67.9133 35.4081C67.8922 34.7343 67.6051 34.0963 67.1148 33.6337C66.6245 33.1711 65.9709 32.9215 65.2971 32.9396C63.7109 32.9396 62.656 34.1077 62.6521 35.9049C62.6426 41.049 62.6521 46.195 62.6521 51.3391C62.6521 52.8735 62.3031 53.2341 60.7821 53.2341H43.8115C43.7847 53.7059 43.7904 54.078 43.7386 54.4405C43.5372 55.8215 43.0616 57.0605 41.9184 57.9582C40.0676 59.412 37.6087 59.3986 35.729 57.868C35.332 57.5439 35.1172 57.5496 34.7336 57.868C32.3111 59.9318 28.6362 59.1761 27.332 56.3087C26.8793 55.3938 26.7105 54.3561 26.3864 53.2283ZM26.6549 40.8648C26.7815 39.129 26.9484 37.4431 27.0155 35.7533C27.0769 34.2362 27.0155 32.7152 27.0385 31.1961C27.05 30.4174 27.5602 29.9149 28.266 29.9015C28.9719 29.8881 29.4993 30.3695 29.5741 31.1367C29.5949 31.4559 29.5994 31.776 29.5875 32.0957C29.5875 33.2465 29.5875 34.3762 29.5875 35.598C31.7511 34.848 33.5924 35.2873 35.1632 36.7756C37.1982 35.2259 37.3075 35.201 40.7389 35.4887C40.7523 35.2547 40.7753 35.0226 40.7772 34.7905C40.7772 33.6186 40.7657 32.4467 40.7772 31.2729C40.7907 30.4309 41.2778 29.913 42.0124 29.9015C42.747 29.89 43.2611 30.3944 43.3224 31.2211C43.3474 31.5395 43.3224 31.8598 43.332 32.1801C43.3723 35.0705 43.1153 37.9744 43.8154 40.8342C45.6854 40.9838 47.076 39.6335 47.076 37.5122C47.1067 33.914 47.1009 30.3158 47.076 26.7176C47.0645 24.8571 45.8523 23.6756 44.0072 23.6737C38.115 23.666 32.2229 23.666 26.3308 23.6737C24.5298 23.6737 23.2773 24.8437 23.2619 26.6466C23.2102 30.3254 23.1929 34.0022 23.2313 37.6809C23.2581 39.6296 24.5777 40.8514 26.6549 40.8648ZM13.482 63.3861C13.5817 63.6233 13.6964 63.854 13.8253 64.0766C14.6175 65.2504 15.7606 65.6245 17.1339 65.6225C29.1828 65.6072 41.2312 65.604 53.2788 65.6129C53.5721 65.6236 53.8657 65.612 54.1573 65.5784C55.4654 65.3866 56.3745 64.675 56.9384 63.3861H13.482ZM10.4017 50.5987H26.6319V44.9023H17.7208C16.1212 44.9023 14.5216 44.8831 12.9258 44.9157C11.635 44.9445 10.5225 45.8536 10.4228 47.0581C10.3269 48.2262 10.4017 49.3981 10.4017 50.5987ZM43.7866 50.6083H60.0571C60.0571 49.6819 60.0571 48.8073 60.0571 47.9231C60.0456 45.8766 59.0674 44.8984 57.0094 44.8946C52.8805 44.8946 48.7504 44.8946 44.619 44.8946H43.7866V50.6083ZM33.928 47.2576C33.928 45.071 33.928 42.8864 33.928 40.6999C33.9239 40.3024 33.8743 39.9066 33.7803 39.5203C33.66 39.0102 33.3649 38.5583 32.9462 38.243C32.5276 37.9277 32.0118 37.7689 31.4883 37.7941C30.9793 37.797 30.4885 37.9838 30.1065 38.3201C29.7244 38.6563 29.4767 39.1194 29.4092 39.6239C29.2938 40.1976 29.2297 40.7804 29.2174 41.3654C29.2174 45.5505 29.2385 49.7337 29.2577 53.9188C29.2577 55.4532 30.2167 56.4774 31.611 56.4698C33.0054 56.4621 33.9376 55.4283 33.9414 53.8862C33.9318 51.6901 33.928 49.4767 33.928 47.2652V47.2576ZM41.1743 47.1904C41.1743 44.979 41.1858 42.779 41.1743 40.558C41.1647 39.248 40.5989 38.3964 39.5727 38.0645C37.9386 37.5409 36.5039 38.6994 36.5039 40.5886C36.4886 44.8773 36.5039 49.166 36.5039 53.4547C36.5039 55.06 37.4284 56.1188 38.8266 56.1399C40.2248 56.161 41.1666 55.1061 41.1666 53.5122C41.18 51.4081 41.1666 49.3022 41.1666 47.1981L41.1743 47.1904ZM17.3008 42.3168C16.5585 41.166 15.8891 40.0957 15.1794 39.0562C15.106 38.9637 15.0143 38.8873 14.91 38.8319C14.8057 38.7765 14.6911 38.7431 14.5734 38.7339C13.1962 38.7052 11.8172 38.7186 10.4017 38.7186V42.967C12.6208 41.9792 14.9359 42.4568 17.3008 42.3244V42.3168ZM12.9718 8.06493C12.9718 9.8295 12.945 11.5519 12.9852 13.2723C13.0011 13.5969 13.1428 13.9026 13.3801 14.1246C13.6175 14.3465 13.932 14.4674 14.2569 14.4615C14.9359 14.4807 15.5592 14.0549 15.5841 13.3471C15.6455 11.6037 15.6033 9.85635 15.6033 8.06493H12.9718ZM62.7001 68.0527C61.697 68.8103 61.4054 69.7558 61.7699 70.7379C61.9369 71.1923 62.2395 71.5845 62.6368 71.8614C63.034 72.1382 63.5067 72.2863 63.9909 72.2857C64.4874 72.2733 64.9678 72.1067 65.3654 71.8091C65.763 71.5115 66.0582 71.0976 66.2101 70.6247C66.5093 69.6388 66.1813 68.6818 65.2511 68.0642C65.2511 68.7623 65.2952 69.3933 65.2395 70.0148C65.2321 70.1815 65.1911 70.3451 65.1189 70.4956C65.0468 70.646 64.9449 70.7804 64.8195 70.8906C64.6941 71.0007 64.5478 71.0844 64.3892 71.1366C64.2307 71.1888 64.0632 71.2085 63.8969 71.1944C63.2256 71.1541 62.7596 70.6707 62.727 69.9246C62.679 69.3454 62.7001 68.7642 62.7001 68.0527ZM5.15975 68.0527C4.14321 68.9196 3.89387 69.917 4.32926 70.8894C4.53349 71.3404 4.87373 71.7163 5.30229 71.9643C5.73085 72.2123 6.22626 72.32 6.7191 72.2723C7.22443 72.2104 7.69679 71.9887 8.06732 71.6395C8.43786 71.2904 8.68721 70.832 8.77904 70.3312C8.87197 69.8971 8.81871 69.4445 8.62756 69.0438C8.43641 68.6431 8.1181 68.3169 7.72222 68.116C7.72222 68.6722 7.73181 69.1958 7.72222 69.7194C7.70304 70.6784 7.23312 71.2135 6.44482 71.2059C5.65652 71.1982 5.19236 70.6535 5.16743 69.6945C5.15208 69.19 5.16359 68.6952 5.16359 68.0411L5.15975 68.0527Z" fill="white"/>
<path d="M41.4551 13.4505C41.4417 17.0257 38.7296 19.7167 35.164 19.6956C31.5984 19.6745 28.9497 16.9643 28.9689 13.3661C28.9861 9.79479 31.7461 7.04628 35.2561 7.1019C38.8351 7.15561 41.4666 9.85425 41.4551 13.4505ZM35.2043 17.1369C35.6978 17.1426 36.1874 17.0495 36.6443 16.8631C37.1013 16.6767 37.5163 16.4007 37.865 16.0515C38.2137 15.7023 38.489 15.2868 38.6747 14.8296C38.8604 14.3724 38.9528 13.8826 38.9463 13.3891C38.9461 12.8957 38.8482 12.4072 38.6584 11.9518C38.4685 11.4963 38.1904 11.083 37.8401 10.7355C37.4897 10.388 37.0741 10.1133 36.6171 9.92716C36.1602 9.74102 35.6709 9.64715 35.1775 9.65094C34.1924 9.66005 33.2508 10.058 32.5578 10.7582C31.8648 11.4584 31.4766 12.404 31.4776 13.3891C31.4707 13.8814 31.5622 14.3702 31.7468 14.8266C31.9314 15.2831 32.2053 15.698 32.5524 16.0471C32.8996 16.3963 33.313 16.6725 33.7684 16.8597C34.2238 17.0468 34.712 17.1411 35.2043 17.1369Z" fill="white"/>
<path d="M13.0117 22.1622C13.0117 21.3106 12.9983 20.459 13.0117 19.6074C13.029 18.6618 13.5219 18.0903 14.2872 18.0826C15.0525 18.0749 15.555 18.6427 15.5627 19.5863C15.5761 21.1207 15.5627 22.6724 15.5627 24.2164C15.5742 25.9023 16.2167 26.6504 17.8643 26.9016C18.6852 27.0282 19.1743 27.5633 19.1225 28.2768C19.0707 28.9903 18.5164 29.4526 17.6859 29.4506C15.1618 29.4506 13.1172 27.3408 13.0136 24.6345C12.983 23.8117 13.0136 22.985 13.0136 22.1603L13.0117 22.1622Z" fill="white"/>
</g>
<defs>
<clipPath id="clip0_864_9075">
<rect width="70.3891" height="75" fill="white" transform="translate(0 -0.000488281)"/>
</clipPath>
</defs>
</svg>
