<svg width="64" height="70" viewBox="0 0 64 70" fill="none" xmlns="http://www.w3.org/2000/svg">
<g clip-path="url(#clip0_864_9051)">
<path d="M34.3341 69.9995C33.916 69.6343 33.5234 69.2436 33.7772 68.6082C34.031 67.9728 34.5623 67.9417 35.1375 67.9454C37.4138 67.9539 39.6913 67.9539 41.9701 67.9454C43.5385 67.9454 44.5483 66.963 44.5519 65.3891C44.5629 58.9655 44.5629 52.542 44.5519 46.1184C44.5519 45.9869 44.53 45.8555 44.5063 45.6053L42.4978 45.766V63.6271C42.4978 65.3069 41.9153 65.8949 40.2519 65.8949H6.28992C4.67398 65.8949 4.09882 65.327 4.09882 63.7348V24.9926C4.09261 24.8099 4.09749 24.627 4.11343 24.4448C4.12427 24.2015 4.22873 23.9718 4.405 23.8037C4.58126 23.6356 4.81568 23.5421 5.05925 23.5428C5.28964 23.5125 5.52292 23.5712 5.71156 23.7069C5.90019 23.8426 6.02997 24.0451 6.07446 24.2732C6.1349 24.5624 6.15883 24.8581 6.14567 25.1533C6.14567 37.7265 6.14567 50.3004 6.14567 62.8748V63.7987H40.4144V46.3503L36.6475 47.2632C35.1265 47.6284 34.2921 47.0295 34.1424 45.3917H22.1388C21.9343 45.4055 21.7289 45.4 21.5253 45.3753C20.9648 45.2657 20.6325 44.9297 20.6452 44.3363C20.6562 43.7739 20.9885 43.4635 21.5162 43.3595C21.7197 43.3338 21.9252 43.3283 22.1297 43.343H34.6993C35.1667 41.3619 35.6287 39.4063 36.1198 37.3303H10.4092C8.76585 37.3303 8.20164 36.7679 8.20164 35.1136C8.20164 30.3748 8.20164 25.6365 8.20164 20.8989C8.20164 19.3268 8.78046 18.7425 10.3307 18.7425H36.2294C37.7997 18.7425 38.4022 19.3524 38.4059 20.9336C38.4059 21.5891 38.4059 22.2446 38.4059 23.0297C39.1089 22.356 39.726 21.7772 40.3286 21.1801C40.4096 21.0759 40.4521 20.9469 40.4491 20.8149C40.4491 18.1071 40.4491 15.4011 40.4491 12.6421H28.4364C28.4364 13.1735 28.451 13.692 28.4364 14.2088C28.3908 15.7005 27.4011 16.6792 25.9166 16.6883C24.1638 16.6993 22.4091 16.703 20.6544 16.6883C19.1936 16.6756 18.2223 15.6969 18.1912 14.2416C18.1803 13.7231 18.1912 13.2027 18.1912 12.6385H6.16028V13.3341C6.16028 15.3159 6.16028 17.2976 6.16028 19.2793C6.17147 19.5061 6.15677 19.7333 6.11646 19.9567C5.98134 20.5191 5.60337 20.8313 5.02091 20.7729C4.48409 20.7181 4.12438 20.3822 4.12073 19.8271C4.10795 17.2306 4.09334 14.6342 4.13899 12.0377C4.15542 11.1248 4.94605 10.5442 6.00873 10.5442C9.76646 10.5442 13.5248 10.5442 17.2837 10.5442H18.1383V8.53382C17.9356 8.52469 17.7201 8.50461 17.5028 8.50461C13.2424 8.50461 8.98192 8.50461 4.72146 8.50461C2.99414 8.50461 2.0538 9.43582 2.0538 11.1595C2.0538 29.1995 2.0538 47.2401 2.0538 65.2813C2.0538 67.0415 2.98684 67.9563 4.76893 67.9581H29.0974C29.2562 67.9581 29.4169 67.9581 29.5758 67.9581C30.1655 67.9235 30.6969 68.0403 30.8977 68.6721C31.0986 69.3038 30.7553 69.711 30.2349 70.0105H3.71721C3.46158 69.9228 3.20595 69.8279 2.95033 69.7457C2.1169 69.4559 1.39039 68.9212 0.865872 68.2116C0.341354 67.502 0.0432627 66.6507 0.0106053 65.7689C0.0014757 65.5644 0.00147236 65.3599 0.00147236 65.1554C0.00147236 47.2054 0.00147236 29.2561 0.00147236 11.3074C-0.0117808 10.6946 0.0644983 10.0832 0.227889 9.49243C0.507262 8.61723 1.05638 7.85286 1.79662 7.30874C2.53686 6.76463 3.43028 6.46867 4.34897 6.46324C6.62588 6.4395 8.9028 6.46324 11.1815 6.46324H11.974C12.0087 6.08893 12.016 5.75113 12.0744 5.42429C12.2325 4.58915 12.6694 3.83239 13.3136 3.27781C13.9577 2.72323 14.771 2.40366 15.6203 2.37137C16.4383 2.34398 17.2637 2.37137 17.9685 2.37137C18.2862 1.7889 18.4541 1.15349 18.865 0.812039C19.3639 0.40009 19.974 0.145854 20.6178 0.0816745C22.2064 -0.0169247 23.8041 0.0488067 25.3981 0.0488067C27.2952 0.0488067 27.9197 0.505285 28.4802 2.37137C29.0134 2.37137 29.5758 2.41336 30.1345 2.37137C32.4114 2.17234 34.4893 3.50161 34.6116 6.47967H35.342C37.5514 6.47967 39.7625 6.47967 41.9719 6.47967C44.6688 6.4888 46.5732 8.36949 46.6006 11.0737C46.6207 13.1917 46.6006 15.3098 46.6006 17.4278V18.1765C55.9547 16.5514 63.1908 23.3365 63.7021 31.1404C64.007 35.8184 62.402 39.7898 58.889 42.8975C55.3759 46.0052 51.2658 46.9948 46.6006 46.2133V64.4195C46.6006 67.7591 45.9378 68.7743 42.9378 70.0251L34.3341 69.9995ZM36.3536 45.1835C36.6567 45.1288 36.8539 45.1014 37.0456 45.0539C38.6597 44.665 40.2811 44.3035 41.8824 43.8725C43.2961 43.4988 44.7852 43.5196 46.1879 43.9328C54.1361 46.1239 61.8908 40.1422 61.6698 31.911C61.542 26.9372 59.1282 23.2379 54.6529 21.1381C50.1775 19.0383 45.8045 19.5276 41.9409 22.5988C37.8252 25.869 36.4631 30.2348 37.6828 35.3455C38.0613 36.7779 38.0676 38.2831 37.7011 39.7186C37.2318 41.4879 36.8192 43.2809 36.3536 45.1835ZM35.5173 35.2634C35.1375 33.3461 35.0371 31.4618 35.4424 29.5921C35.6688 28.5531 36.2184 27.558 36.2988 26.5172C36.4394 24.6457 36.339 22.754 36.339 20.8368H10.3033V35.2615L35.5173 35.2634ZM20.2289 8.28732C20.2289 10.1534 20.249 12.0195 20.2162 13.8837C20.2052 14.4918 20.4152 14.6707 21.0068 14.6561C22.5296 14.6214 24.0542 14.6251 25.5715 14.6561C26.1504 14.6671 26.3841 14.5027 26.3823 13.8892C26.3603 10.2021 26.3603 6.51619 26.3823 2.8315C26.3823 2.22164 26.1613 2.04818 25.577 2.06096C24.0761 2.092 22.5734 2.0993 21.0725 2.06096C20.4298 2.04453 20.1924 2.22347 20.2088 2.89906C20.2563 4.69941 20.2289 6.4888 20.2289 8.28732ZM28.4583 10.5423H29.2818C32.7656 10.5423 36.2495 10.6117 39.7278 10.5204C42.306 10.4529 42.569 11.4681 42.5197 13.2995C42.4631 15.3883 42.5069 17.4808 42.5069 19.6573L44.5574 18.7224C44.5574 16.1899 44.5574 13.6865 44.5574 11.185C44.5574 9.44678 43.5878 8.49365 41.8404 8.49365C37.608 8.49365 33.3749 8.49365 29.1412 8.49365C28.9203 8.49365 28.7012 8.51191 28.4601 8.52287L28.4583 10.5423ZM18.1547 4.40726C17.2509 4.40726 16.4091 4.35431 15.5765 4.42004C14.5723 4.50038 13.9843 5.37682 14.1632 6.38473H18.1547V4.40726ZM32.4991 6.41576C32.4991 5.26726 31.9878 4.51499 31.0621 4.431C30.213 4.35431 29.3512 4.41456 28.4766 4.41456V6.42307L32.4991 6.41576Z" fill="white"/>
<path d="M29.558 55.6423C26.9871 55.6423 24.4156 55.6423 21.8435 55.6423C21.2829 55.6423 20.8465 55.4597 20.6877 54.8919C20.6089 54.6734 20.6151 54.4333 20.7051 54.2192C20.7951 54.0051 20.9622 53.8327 21.1734 53.736C21.3778 53.6405 21.6014 53.593 21.8271 53.5973C26.9494 53.59 32.0704 53.59 37.1903 53.5973C37.9206 53.5973 38.3954 54.0063 38.399 54.6107C38.4027 55.215 37.9243 55.6405 37.1373 55.6423C34.6103 55.6514 32.0923 55.6423 29.558 55.6423Z" fill="white"/>
<path d="M11.8362 57.4975C13.4187 55.7933 15.0011 54.094 16.5836 52.3996C16.7058 52.2643 16.8369 52.1374 16.9762 52.0198C17.4454 51.6345 18.0005 51.6546 18.3931 52.0362C18.4889 52.1268 18.5656 52.2356 18.6188 52.3562C18.672 52.4769 18.7005 52.6069 18.7027 52.7387C18.7049 52.8706 18.6808 53.0015 18.6317 53.1239C18.5826 53.2462 18.5095 53.3575 18.4168 53.4513C18.132 53.7763 17.8069 54.0666 17.5038 54.3642C15.8277 56.0063 14.1509 57.6497 12.4735 59.2942C11.776 59.9753 11.2921 59.9716 10.6037 59.2942C9.91535 58.6168 9.27446 57.9814 8.62444 57.3131C8.11501 56.7872 8.08762 56.1701 8.52949 55.7446C8.97136 55.3192 9.55565 55.3648 10.0487 55.8505C10.5416 56.3362 10.9817 56.8438 11.4455 57.3423L11.8362 57.4975Z" fill="white"/>
<path d="M11.8225 47.2433C13.3769 45.578 14.9314 43.9128 16.4859 42.2476C16.6252 42.0972 16.7721 41.954 16.9259 41.8185C17.4226 41.3839 17.9776 41.373 18.3866 41.7838C18.7956 42.1946 18.8066 42.7643 18.3684 43.2445C18.0927 43.5476 17.7896 43.8252 17.4956 44.1118C15.8218 45.7539 14.1457 47.3973 12.467 49.0418C11.7677 49.7229 11.2838 49.721 10.5973 49.0418C9.96554 48.4173 9.33742 47.7892 8.71296 47.1575C8.11954 46.5604 8.05016 45.945 8.51576 45.4922C8.98137 45.0394 9.56749 45.1179 10.1353 45.6858C10.5827 46.1368 11.0045 46.6133 11.439 47.0789L11.8225 47.2433Z" fill="white"/>
<path d="M25.8375 47.4479C27.1339 47.4479 28.4321 47.4479 29.7304 47.4479C30.5228 47.4479 30.9902 47.8441 30.9829 48.4796C30.9756 49.115 30.51 49.4929 29.7048 49.4948C27.1096 49.4948 24.5143 49.4948 21.9191 49.4948C21.0993 49.4948 20.6556 49.1296 20.641 48.4942C20.6264 47.8587 21.0828 47.4497 21.9374 47.4479C23.2411 47.4443 24.5393 47.4479 25.8375 47.4479Z" fill="white"/>
<path d="M25.792 59.749C24.4938 59.749 23.1956 59.749 21.8992 59.749C21.094 59.749 20.6466 59.3692 20.6484 58.721C20.6503 58.0728 21.0958 57.704 21.9065 57.7021C24.5029 57.7021 27.0988 57.7021 29.694 57.7021C30.5047 57.7021 30.9722 58.0673 30.9849 58.6954C31.0032 59.3546 30.5285 59.7453 29.6849 59.749C28.3867 59.7526 27.0884 59.749 25.792 59.749Z" fill="white"/>
<path d="M49.4882 26.4588C51.4784 25.1131 53.4778 24.9396 55.4808 26.2269C56.4793 26.8707 57.2157 27.8492 57.558 28.9869C57.9003 30.1246 57.8261 31.347 57.3487 32.435C56.8071 33.6338 56.1017 34.7516 55.2526 35.7563C53.9982 37.3028 52.4261 38.5171 50.7024 39.5305C49.8972 40.0034 49.1504 40.0362 48.3287 39.5505C45.9861 38.1574 43.9758 36.4081 42.4566 34.1331C41.487 32.6815 40.9813 31.0911 41.361 29.34C41.5346 28.5413 41.8995 27.7967 42.4245 27.1703C42.9496 26.5439 43.6189 26.0545 44.375 25.744C45.1311 25.4336 45.9513 25.3116 46.765 25.3884C47.5788 25.4651 48.3616 25.7385 49.0463 26.1849L49.4882 26.4588ZM43.2965 30.9505C43.4791 31.3686 43.722 32.256 44.193 33.001C45.4182 34.9365 47.1401 36.3881 49.05 37.626C49.3896 37.8488 49.6616 37.8086 49.9794 37.6023C51.7541 36.4538 53.3445 35.099 54.5569 33.3589C54.9983 32.727 55.34 32.0311 55.5703 31.2956C55.7625 30.6675 55.7428 29.9937 55.5141 29.3779C55.2854 28.7622 54.8605 28.2388 54.3049 27.8884C53.2094 27.1745 51.829 27.264 50.7444 28.1185C49.7602 28.8963 49.2472 28.889 48.2046 28.0911C47.2131 27.3297 46.1267 27.1782 45.0019 27.7259C43.8772 28.2737 43.3276 29.2177 43.2965 30.9505Z" fill="white"/>
<path d="M15.0447 27.0724C15.2912 25.9914 15.5285 24.9726 15.7531 23.9519C15.8718 23.4169 16.1055 23.0134 16.7154 22.9677C17.3252 22.9221 17.663 23.2581 17.8493 23.8259C18.3204 25.2501 18.8188 26.6652 19.31 28.0839C19.4089 28.3821 19.531 28.6721 19.6752 28.9513C20.0221 26.8076 21.5468 26.9519 23.0714 27.1107C23.6575 25.8016 24.229 24.5417 24.7823 23.2763C25.0087 22.7578 25.299 22.3634 25.9417 22.42C26.5534 22.4656 26.767 22.8929 26.9314 23.395C27.5729 25.3426 28.218 27.2842 28.8668 29.2197C28.9454 29.4552 29.033 29.6853 29.1626 30.0505C29.5004 29.4424 29.8437 28.9659 30.0427 28.4345C30.4609 27.3225 31.2131 26.8898 32.3708 27.0669C32.6593 27.1126 32.9624 27.0669 33.2582 27.0797C33.8571 27.1126 34.2679 27.5088 34.288 28.0547C34.2946 28.3204 34.1982 28.5784 34.0187 28.7745C33.8393 28.9706 33.591 29.0895 33.3257 29.1065C32.9204 29.1448 32.5077 29.1065 32.0257 29.1065C31.3391 30.3736 30.6708 31.6627 29.9423 32.9135C29.7598 33.2394 29.4662 33.4889 29.1152 33.6165C28.4943 33.7808 28.1 33.4156 27.9009 32.8076C27.2728 30.8867 26.6228 28.9732 25.9855 27.0505C25.9162 26.8423 25.8285 26.6396 25.6934 26.2891C25.372 27.0048 25.0835 27.5836 24.8498 28.1825C24.5814 28.8746 24.1103 29.1704 23.3727 29.1229C22.876 29.09 22.3739 29.1229 21.8206 29.1229C21.3842 30.0468 20.9405 30.9616 20.5151 31.8855C20.2905 32.3767 20.0002 32.7364 19.3922 32.7017C18.7841 32.667 18.5541 32.2507 18.3843 31.7486C17.9534 30.4704 17.5097 29.1813 16.9929 27.6676C16.8542 29.017 16.0964 29.1941 15.1506 29.1284C14.5626 29.0882 13.9674 29.1393 13.3758 29.1119C12.6929 29.0827 12.2802 28.6518 12.3058 28.0383C12.3295 27.4558 12.7312 27.0907 13.4014 27.0742C13.929 27.0614 14.4513 27.0724 15.0447 27.0724Z" fill="white"/>
</g>
<defs>
<clipPath id="clip0_864_9051">
<rect width="63.7426" height="70" fill="white" transform="translate(0 -0.000488281)"/>
</clipPath>
</defs>
</svg>
