<svg width="94" height="70" viewBox="0 0 94 70" fill="none" xmlns="http://www.w3.org/2000/svg">
<g clip-path="url(#clip0_864_9041)">
<path d="M93.0875 42.0986L92.716 43.2958C92.2073 44.9771 91.1642 46.4465 89.7447 47.4812C88.3253 48.5159 86.607 49.0593 84.8508 49.0289C84.1854 49.0289 83.6998 49.1576 83.27 49.6627C83.0184 49.9684 82.7079 50.2202 82.3569 50.4034C81.6284 50.7579 81.422 51.2848 81.6819 52.1226L85.7274 53.7568C89.8166 55.4153 91.9486 58.5672 91.9632 62.9843C91.9632 63.5622 91.9826 64.1377 91.9632 64.7132C91.9171 65.6505 91.3901 66.1969 90.5815 66.1896C89.7729 66.1823 89.2824 65.6457 89.2508 64.6841C89.2144 63.6545 89.2702 62.6127 89.1318 61.5977C88.8161 59.2569 87.5243 57.5692 85.3874 56.5882C84.0422 55.9714 82.6483 55.4639 81.2181 54.8884C80.305 56.4255 79.0326 57.4089 77.1968 57.4138C75.3611 57.4187 74.1008 56.5056 73.1489 54.8714L68.6711 56.6877C68.7051 60.573 68.7464 64.2616 68.761 67.9501C68.761 68.8996 68.2316 69.4411 67.4157 69.4362C66.5998 69.4314 66.0705 68.8826 66.0607 67.9355C66.034 65.4781 66.0122 63.0183 66.0607 60.5608C66.1287 56.9184 64.6451 54.1283 61.6291 52.1177C59.9293 50.974 58.2295 49.7866 56.4302 48.5433C55.7503 49.4515 55.0898 50.3378 54.4244 51.2144C53.3268 52.6714 52.4818 52.9506 50.7262 52.4285L47.8754 51.5568C47.8754 51.9963 47.8754 52.3241 47.8754 52.6495C47.8754 57.7489 47.8754 62.8483 47.8754 67.9477C47.8884 68.2506 47.8795 68.5542 47.8486 68.8559C47.8301 69.1651 47.694 69.4555 47.4683 69.6677C47.2426 69.8798 46.9443 69.9977 46.6345 69.9971C46.3298 70.0462 46.0178 69.9773 45.7621 69.8045C45.5063 69.6318 45.326 69.3681 45.2577 69.0671C45.1749 68.714 45.1406 68.3513 45.1557 67.989C45.1557 62.8896 45.1557 57.7902 45.1557 52.6908V51.5689C44.1188 51.8846 43.1791 52.1736 42.2417 52.4553C40.5978 52.9409 39.7091 52.6568 38.6867 51.2945L36.5596 48.4923C34.1969 50.2237 31.7734 51.7875 29.6074 53.6524C27.7109 55.2842 26.9849 57.6153 26.963 60.1189C26.9412 62.7269 26.963 65.3373 26.9509 67.9477C26.9509 68.9044 26.4337 69.4556 25.6177 69.4459C24.8018 69.4362 24.2725 68.9603 24.2846 68.2318C24.3405 64.5675 24.4619 60.9057 24.6027 57.2438C24.6222 56.7193 24.882 56.2069 25.0665 55.5659L20.3872 53.8345C19.4402 55.5804 18.0731 56.6732 16.06 56.678C14.047 56.6829 12.6969 55.6727 11.6891 53.8175C10.1885 54.393 8.67079 54.9491 7.17011 55.5562C6.17452 55.9617 5.35619 55.7286 5.08179 54.8568C4.83896 54.0531 5.16435 53.4606 5.89283 53.157C7.4008 52.5354 8.93304 51.9744 10.4556 51.3892L11.2739 51.0711C11.4852 50.2601 11.3565 49.6943 10.6668 49.1407C9.10302 47.8804 8.21913 46.1636 7.83303 44.2088C7.22407 44.1552 6.61907 44.0635 6.02154 43.9344C5.39079 43.7608 4.80846 43.4444 4.31968 43.0096C3.83091 42.5747 3.4488 42.0332 3.20296 41.427C2.95713 40.8207 2.85417 40.166 2.90206 39.5136C2.94995 38.8611 3.14741 38.2285 3.47913 37.6646C3.80704 37.1259 3.9222 36.4843 3.80209 35.8652C3.64425 34.8454 3.49613 33.8255 3.348 32.8056C2.73122 28.5683 5.21778 24.7267 9.31186 23.4907C10.4361 23.1508 11.4973 22.6238 12.6022 22.1916C14.4343 21.4434 16.4258 21.17 18.3918 21.3969C20.3578 21.6238 22.2347 22.3435 23.8483 23.4894C25.4619 24.6353 26.7599 26.1702 27.6219 27.9516C28.484 29.7331 28.8821 31.7034 28.7794 33.6798C28.7599 34.197 28.7575 34.7167 28.6871 35.2242C28.5187 36.169 28.6699 37.1431 29.1169 37.9924C30.5253 40.7072 28.5244 43.9611 25.4745 44.1141C25.2317 44.1263 24.9888 44.1141 24.746 44.1141C24.4497 44.913 24.2943 45.7556 23.8597 46.4088C23.1333 47.5091 22.2969 48.5326 21.3634 49.4636C20.8778 49.9493 20.5791 50.3257 20.7976 51.0784C21.6767 51.3965 22.614 51.7292 23.544 52.074C24.474 52.4188 25.4016 52.7758 26.3827 53.1473C28.5244 50.2334 31.8147 48.7206 34.6145 46.5764C34.9593 46.3141 35.1536 45.8479 35.3989 45.4667C35.7024 44.981 35.9015 44.4152 36.2949 44.0388C37.1496 43.2278 38.1064 42.526 39 41.7538C39.1854 41.5817 39.3141 41.3573 39.3691 41.1103C39.4347 40.8189 39.3521 40.5008 39.3934 40.2046C39.5148 39.2867 39.1991 38.6602 38.4658 38.041C36.3095 36.2198 35.0492 33.8328 34.5004 30.999C34.2163 30.9456 33.9297 30.8824 33.6384 30.8363C32.8549 30.7213 32.1136 30.4088 31.4842 29.9283C30.8548 29.4478 30.358 28.815 30.0406 28.0895C29.7231 27.3641 29.5955 26.5698 29.6697 25.7814C29.7439 24.9931 30.0174 24.2365 30.4646 23.583C30.8021 23.0828 30.7876 22.7113 30.6176 22.1843C28.9987 17.1092 29.4212 12.2057 31.8851 7.4738C32.4461 6.39808 33.194 6.07755 33.9807 6.52192C34.7092 6.94201 34.8331 7.73606 34.294 8.7438C32.3417 12.3296 31.8535 16.5321 32.9317 20.47C32.9997 20.7322 33.0847 20.992 33.1746 21.2494C33.221 21.3451 33.2763 21.4361 33.3397 21.5214L34.2576 21.4825C34.3498 20.7735 34.3911 20.0839 34.532 19.4137C34.8984 17.6314 35.8561 16.0252 37.2498 14.8554C38.6435 13.6856 40.3914 13.0209 42.2102 12.969C44.3592 12.9156 46.5107 12.969 48.6597 12.9326C49.0962 12.9173 49.5185 12.7737 49.8738 12.5198C51.7533 11.0992 52.1637 11.0798 54.0845 12.5052C54.1863 12.5562 54.2939 12.5945 54.405 12.6193C54.5366 10.567 53.9494 8.533 52.7441 6.86673C49.869 2.73866 43.7837 1.45167 39.0486 3.9528C38.728 4.12278 38.4245 4.32433 38.1088 4.50159C37.3026 4.95811 36.5304 4.82455 36.1128 4.1592C35.6951 3.49386 35.8699 2.71923 36.6519 2.21658C38.4079 1.00682 40.4442 0.266217 42.5671 0.065129C47.6811 -0.362248 52.0083 1.13357 55.0995 5.47533C55.2715 5.71421 55.5159 5.89132 55.7964 5.98041C61.5441 7.54423 64.1448 11.5825 63.1735 17.454C62.887 19.2194 62.6563 20.9945 62.4256 22.7695C62.3843 23.0315 62.4313 23.2997 62.5592 23.532C64.6475 26.5625 62.5592 30.7731 58.8123 30.9334C58.73 30.9464 58.6488 30.9659 58.5695 30.9917C58.4529 31.4215 58.3267 31.8853 58.198 32.3442C57.576 34.6133 56.2734 36.6371 54.4657 38.143C54.186 38.3571 53.9623 38.6356 53.8134 38.9548C53.6646 39.274 53.5951 39.6245 53.611 39.9763C53.5794 40.9841 53.7227 41.7417 54.6818 42.3099C55.4175 42.7951 56.0933 43.3657 56.6949 44.0097C57.0518 44.3594 57.4938 44.811 57.5351 45.253C57.6152 46.0932 58.1421 46.438 58.7176 46.8289C59.973 47.6788 61.1969 48.57 62.4669 49.3956C64.4216 50.668 66.1554 52.1517 67.304 54.2959L72.6608 52.125C72.9036 51.2533 72.6025 50.7579 71.9323 50.1824C70.9877 49.3422 70.0358 49.0702 68.7974 48.9998C63.7612 48.706 60.279 43.2812 61.8987 38.3809C62.1415 37.6355 62.5179 36.924 62.785 36.1955C63.4795 34.265 64.242 32.354 64.8077 30.3822C66.4371 24.5543 71.5826 20.6132 77.4955 20.7541C83.5832 20.9022 88.5223 25.0497 89.8797 30.9917C90.2755 32.7158 91.0574 34.35 91.6694 36.0231C92.1259 37.2688 92.5946 38.5072 93.0583 39.7505L93.0875 42.0986ZM51.9112 14.3313C50.8986 15.7882 49.4222 15.7542 47.9069 15.7105C46.093 15.6595 44.2766 15.6814 42.4603 15.7105C41.0501 15.7021 39.6938 16.2516 38.6871 17.2391C37.6804 18.2267 37.1051 19.5722 37.0865 20.9823C37.0428 23.8016 37.0258 26.6232 37.1011 29.44C37.2298 34.2432 41.2292 38.1818 46.1197 38.4247C50.816 38.6675 55.2768 35.1343 55.7915 30.4963C56.0951 27.7378 55.9105 24.9283 56.0004 22.143C56.1072 18.8212 54.7377 16.2957 51.9112 14.3313ZM85.6788 46.268C88.1314 45.8018 89.7365 44.2307 90.244 41.9165C90.5257 40.6368 90.2003 39.4688 89.734 38.2911C88.889 36.1591 87.823 34.0635 87.3373 31.8464C86.3126 27.1842 82.5172 23.7044 77.7432 23.481C73.0518 23.2552 68.676 26.3051 67.5614 30.8946C66.9519 33.3981 65.9296 35.7001 64.9729 38.0507C64.6436 38.7977 64.4071 39.5822 64.2687 40.3867C63.8729 43.1647 66.2477 46.1174 68.8824 46.1757C68.7658 45.6148 68.557 45.0611 68.5449 44.5026C68.489 41.562 68.4162 38.6213 68.4817 35.6831C68.5206 33.8911 69.2102 32.2568 70.235 30.778C71.2913 29.2458 72.3524 29.0782 73.807 30.2025C75.1618 31.2945 76.8389 31.909 78.5785 31.9509C80.2443 31.9921 81.9101 32.0456 83.5735 32.0941C85.2369 32.1427 86.1523 33.046 86.1742 34.7021C86.1742 35.6734 86.1742 36.6447 86.1742 37.616C86.1742 38.6796 85.657 39.3158 84.8289 39.3304C84.0009 39.345 83.4642 38.6991 83.4545 37.65C83.4545 36.7224 83.4545 35.7948 83.4545 34.8454C79.5693 34.6365 75.633 35.1829 72.2189 32.3928C71.8546 33.505 71.3423 34.401 71.2985 35.3213C71.1626 38.1648 71.131 41.0181 71.2233 43.864C71.2524 44.7479 71.6822 45.6949 72.1533 46.4768C72.8135 47.5416 73.7894 48.374 74.945 48.858C76.1006 49.342 77.3784 49.4536 78.6004 49.1771C81.1355 48.6331 82.9251 46.6298 83.4302 43.7742C83.6026 42.8028 84.1806 42.3172 85.0329 42.458C85.8027 42.5819 86.247 43.2642 86.1135 44.17C85.9993 44.8499 85.8366 45.5104 85.6788 46.268ZM25.9067 35.4354C25.9067 34.0149 26.1277 32.6186 25.8679 31.3219C24.7387 25.6616 18.9303 22.5996 13.5759 24.7292C12.2574 25.2537 10.9291 25.7466 9.60568 26.2614C8.78911 26.5526 8.05427 27.0353 7.46275 27.669C6.87124 28.3028 6.4403 29.0691 6.20608 29.9038C5.64758 31.7857 6.2935 33.5997 6.48534 35.4889L7.49308 35.4184C8.06615 34.0513 8.46438 32.8105 9.08845 31.6886C9.88978 30.2316 10.9898 30.0641 12.3278 31.0621C13.9144 32.2947 15.8114 33.0638 17.8084 33.284C19.1054 33.3937 20.4082 33.4172 21.7082 33.3544C23.255 33.301 24.3793 33.7891 24.7776 35.4233L25.9067 35.4354ZM22.0069 36.0619C18.1071 36.3266 14.4234 35.9405 11.0165 33.4637C10.798 34.469 10.4823 35.3019 10.4556 36.1469C10.3803 38.4198 10.3463 40.7 10.4556 42.9704C10.5023 44.458 11.127 45.8689 12.1969 46.9035C13.2669 47.9381 14.698 48.515 16.1863 48.5117C19.2144 48.5287 21.8466 46.2219 21.9899 43.2496C22.0967 40.9209 22.0069 38.5825 22.0069 36.0619ZM59.7739 21.5773C59.8214 21.4704 59.8603 21.36 59.8905 21.247C60.1333 19.5108 60.3761 17.7721 60.619 16.0359C60.8091 14.757 60.6141 13.4504 60.0588 12.2828C59.5035 11.1151 58.6131 10.1392 57.5011 9.47956C57.2757 9.36638 57.0438 9.26665 56.8066 9.18088C57.251 11.0846 57.2784 13.0619 56.8867 14.9772C56.8396 15.1504 56.856 15.3347 56.9328 15.4968C58.1251 17.3156 58.6472 19.3408 58.7443 21.485L59.7739 21.5773ZM54.9174 46.0203L52.7611 44.2161C51.2337 44.9664 49.7694 45.6731 48.3246 46.4016C48.2157 46.4644 48.1215 46.5498 48.0482 46.6519C47.9749 46.7541 47.9243 46.8707 47.8996 46.994C47.8625 47.5599 47.8561 48.1273 47.8802 48.6938L51.9864 49.9396L54.9174 46.0203ZM40.287 44.2064L38.1477 46.0252L41.0762 49.9493L45.1533 48.6987C45.1757 48.1807 45.17 47.6619 45.1363 47.1446C45.1258 47.0074 45.0874 46.8737 45.0235 46.7518C44.9597 46.6299 44.8716 46.5223 44.7647 46.4355C43.2859 45.6706 41.8047 44.9543 40.2748 44.2064H40.287ZM50.8791 40.3551C48.1057 41.4032 45.0471 41.4145 42.266 40.3867C41.9212 41.868 41.9795 42.0064 43.1645 42.5867C44.114 43.0505 45.0513 43.5338 46.0177 43.9611C46.302 44.095 46.6263 44.1166 46.9259 44.0218C48.2687 43.4099 49.5824 42.7348 50.9398 42.0646C50.9398 41.6518 50.9398 41.2609 50.9398 40.8699C50.9228 40.7218 50.8937 40.581 50.867 40.3551H50.8791ZM14.1757 51.1464C13.9984 52.4625 14.2898 53.293 15.13 53.7252C15.4598 53.9166 15.841 54.0004 16.2206 53.9647C16.6002 53.929 16.9592 53.7756 17.2475 53.5261C18.0124 52.9045 18.0779 52.0692 17.942 51.1464H14.1757ZM75.5189 51.9769C75.4557 52.8996 75.3343 53.8904 76.2911 54.3712C76.5673 54.4913 76.865 54.5545 77.1662 54.557C77.4674 54.5595 77.7661 54.5013 78.0443 54.3857C79.001 53.9171 78.9258 52.9288 78.8286 51.9769H75.5189ZM34.3183 28.1336V24.3164C33.2134 24.3503 32.4631 25.0448 32.3926 26.0696C32.3052 27.1599 33.0021 27.9539 34.3061 28.1336H34.3183ZM58.771 24.2629V28.0948C59.9051 28.0049 60.6287 27.3007 60.6772 26.2784C60.7258 25.2561 60.0289 24.4863 58.7589 24.2629H58.771ZM24.8067 38.2013V41.341C26.0476 41.4041 26.776 40.8675 26.8367 39.884C26.8974 38.9006 26.1933 38.2547 24.8067 38.2013ZM7.65091 38.2207C6.27165 38.2207 5.56502 38.8447 5.6403 39.9205C5.71072 40.9112 6.45863 41.4382 7.65091 41.3022V38.2207Z" fill="white"/>
<path d="M0.0425634 64.2082C-0.0618526 62.3602 0.110554 60.2671 1.03573 58.2929C1.37326 57.5644 1.88805 57.2001 2.69667 57.3798C3.44215 57.5425 3.97637 58.3317 3.62913 59.0578C2.46598 61.5031 2.8278 64.0916 2.75981 66.6462C2.77892 66.9773 2.74946 67.3094 2.67239 67.632C2.5903 67.9448 2.39001 68.2136 2.11371 68.3816C1.8374 68.5497 1.50665 68.6039 1.19114 68.5329C0.462658 68.4237 0.0789897 67.938 0.0522786 67.2241C0.00614132 66.3159 0.0425634 65.4077 0.0425634 64.2082Z" fill="white"/>
<path d="M31.9976 63.6543C31.9976 62.5008 31.9854 61.3474 31.9976 60.194C32.0122 59.2785 32.5585 58.6836 33.338 58.6812C34.1175 58.6787 34.6978 59.2712 34.7075 60.1843C34.7286 62.462 34.7286 64.7389 34.7075 67.015C34.7075 67.9985 34.1393 68.5764 33.3016 68.5545C32.4638 68.5327 32.0073 67.9839 31.9952 67.0223C31.9879 65.9004 31.9976 64.7761 31.9976 63.6543Z" fill="white"/>
<path d="M58.3424 63.6422C58.3424 62.4888 58.3278 61.3354 58.3424 60.1819C58.357 59.2665 58.9082 58.6764 59.6901 58.6837C59.8739 58.6831 60.0559 58.72 60.2249 58.7922C60.394 58.8644 60.5465 58.9704 60.6731 59.1036C60.7997 59.2369 60.8978 59.3945 60.9614 59.567C61.0249 59.7395 61.0526 59.9231 61.0427 60.1066C61.0734 62.4426 61.0734 64.7795 61.0427 67.1171C61.0305 68.0398 60.4404 68.574 59.6294 68.5546C58.8184 68.5352 58.3594 68.0058 58.3424 67.0977C58.3278 65.9491 58.3424 64.7956 58.3424 63.6422Z" fill="white"/>
</g>
<defs>
<clipPath id="clip0_864_9041">
<rect width="93.0881" height="70" fill="white" transform="translate(0 -0.000488281)"/>
</clipPath>
</defs>
</svg>
