<svg width="39" height="31" viewBox="0 0 39 31" fill="none" xmlns="http://www.w3.org/2000/svg">
<g clip-path="url(#clip0_451_266)">
<path d="M3.99141 30.2305C2.94641 30.2305 2.05214 29.8636 1.30861 29.1298C0.565073 28.3961 0.192673 27.513 0.191406 26.4805V3.98047C0.191406 2.94922 0.563806 2.06672 1.30861 1.33297C2.05341 0.599218 2.94767 0.231719 3.99141 0.230469H34.3914C35.4364 0.230469 36.3313 0.597968 37.0761 1.33297C37.8209 2.06797 38.1927 2.95047 38.1914 3.98047V26.4805C38.1914 27.5117 37.8196 28.3948 37.0761 29.1298C36.3326 29.8648 35.4377 30.2317 34.3914 30.2305H3.99141ZM34.3914 7.73047L20.1889 16.4961C20.0306 16.5898 19.8646 16.6605 19.6911 16.708C19.5176 16.7555 19.351 16.7786 19.1914 16.7773C19.0318 16.7761 18.8659 16.753 18.6936 16.708C18.5213 16.663 18.3548 16.5923 18.1939 16.4961L3.99141 7.73047V26.4805H34.3914V7.73047ZM19.1914 13.3555L34.3914 3.98047H3.99141L19.1914 13.3555ZM3.99141 8.19922V5.43359V5.48047V5.45797V8.19922Z" fill="white"/>
</g>
<defs>
<clipPath id="clip0_451_266">
<rect width="38" height="30" fill="white" transform="translate(0.191406 0.230469)"/>
</clipPath>
</defs>
</svg>
