<svg width="51" height="51" viewBox="0 0 51 51" fill="none" xmlns="http://www.w3.org/2000/svg">
<g clip-path="url(#clip0_451_258)">
<path d="M0.566896 16.977C1.15654 13.3317 2.89238 10.174 5.37734 7.44139C8.37393 4.14617 12.0627 2.04549 16.4326 1.21824C21.3187 0.293241 25.9386 1.10232 30.2364 3.61805C34.0064 5.82478 36.7462 8.96521 38.5032 12.9536C39.8326 15.9713 40.2935 19.1471 40.0947 22.4276C40.0908 22.4922 40.0808 22.5571 40.0661 22.6201C40.0593 22.6495 40.0344 22.6748 39.9894 22.7477C39.7809 22.5624 39.5767 22.3849 39.377 22.2027C38.4514 21.3581 37.5442 20.4919 36.5932 19.677C36.2395 19.374 36.1036 19.0319 36.0354 18.6014C35.1381 12.9356 32.0913 8.83914 26.9605 6.31023C24.2693 4.98377 21.3922 4.54002 18.4221 4.87469C14.4776 5.31902 11.1291 7.00916 8.40977 9.91033C6.36026 12.0969 5.02373 14.6719 4.42803 17.6015C3.77422 20.8172 4.03535 23.9608 5.31631 27.013C6.99219 31.006 9.49502 34.4535 12.2828 37.7174C14.6123 40.4445 17.1601 42.9577 19.8363 45.3416C20.0923 45.5696 20.1889 45.8022 20.1846 46.14C20.1673 47.4743 20.1775 48.8091 20.1775 50.1435C20.1775 50.3009 20.1775 50.4581 20.1775 50.7549C19.3208 50.0424 18.5533 49.4279 17.8119 48.7836C14.1058 45.5627 10.6783 42.0686 7.63389 38.2137C4.97393 34.8457 2.79551 31.2253 1.24199 27.1764C-0.316503 23.1152 0.102052 19.8507 0.566896 16.977Z" fill="white"/>
<path d="M50.1959 37.3223C49.3135 38.2908 48.4596 39.2281 47.5722 40.2022C47.2238 39.8989 46.8883 39.6068 46.4963 39.2655C46.4852 39.4872 46.4709 39.6405 46.4708 39.7939C46.4692 41.649 46.4744 43.504 46.4686 45.3591C46.459 48.4107 44.1536 50.7417 41.103 50.753C37.0513 50.7681 32.9994 50.7659 28.9477 50.7538C25.894 50.7447 23.5811 48.4439 23.5458 45.3844C23.5248 43.5621 23.5417 41.7395 23.5415 39.9169C23.5415 39.7397 23.5415 39.5627 23.5415 39.2635C23.1458 39.6074 22.8256 39.8858 22.4608 40.2029C21.5976 39.2598 20.7344 38.3166 19.8262 37.3243C24.8896 32.7057 29.9402 28.0988 35.012 23.4727C40.0918 28.106 45.137 32.7078 50.1959 37.3223ZM35.0128 28.7702C32.5379 31.025 30.094 33.2467 27.662 35.4814C27.5407 35.5929 27.4666 35.8172 27.466 35.9893C27.4545 39.0649 27.453 42.1408 27.4602 45.2165C27.4627 46.3045 28.0021 46.8436 29.081 46.8448C33.0355 46.8495 36.99 46.8496 40.9446 46.8448C42.0235 46.8436 42.5676 46.294 42.5688 45.2174C42.5723 42.1579 42.5753 39.0983 42.5584 36.039C42.5572 35.8297 42.4417 35.5676 42.2907 35.4218C41.5772 34.7323 40.833 34.0747 40.0994 33.4061C38.4165 31.872 36.7332 30.3382 35.0128 28.7702Z" fill="white"/>
<path d="M28.4324 20.8134C28.4604 25.3708 24.7671 29.0828 20.1767 29.1111C15.6195 29.1392 11.9074 25.4459 11.8791 20.8554C11.851 16.2981 15.5443 12.5861 20.1347 12.5578C24.6921 12.5297 28.4041 16.223 28.4324 20.8134ZM20.1322 16.4763C17.7213 16.4883 15.7769 18.4587 15.7963 20.8702C15.8156 23.2602 17.7647 25.1944 20.1546 25.195C22.5653 25.1956 24.5198 23.2356 24.5141 20.8233C24.5086 18.4088 22.5484 16.4643 20.1322 16.4763Z" fill="white"/>
<path d="M37.9679 37.041C37.9679 38.9717 37.9679 40.8729 37.9679 42.8137C36.0397 42.8137 34.1153 42.8137 32.1582 42.8137C32.1582 40.9059 32.1582 38.9938 32.1582 37.041C34.0705 37.041 35.9943 37.041 37.9679 37.041Z" fill="white"/>
</g>
<defs>
<clipPath id="clip0_451_258">
<rect width="50.0977" height="50" fill="white" transform="translate(0.142578 0.847656)"/>
</clipPath>
</defs>
</svg>
