<svg width="47" height="42" viewBox="0 0 47 42" fill="none" xmlns="http://www.w3.org/2000/svg">
<g clip-path="url(#clip0_451_268)">
<path d="M2.24219 14.4628C2.24219 3.32227 13.3937 3.32227 22.9521 3.32227C32.5106 3.32227 43.6621 3.32227 43.6621 14.4628C43.6621 27.1949 32.5106 12.8713 32.5106 12.8713H13.3937C13.3937 12.8713 2.24219 27.1949 2.24219 14.4628ZM14.9868 17.6459C14.9868 17.6459 7.02141 25.6034 7.02141 39.927H38.8829C38.8829 25.6034 30.9175 17.6459 30.9175 17.6459H14.9868Z" stroke="white" stroke-width="3.5" stroke-linecap="round" stroke-linejoin="round"/>
<path d="M22.9523 33.0915C25.3325 33.0915 27.262 31.1638 27.262 28.786C27.262 26.4081 25.3325 24.4805 22.9523 24.4805C20.5721 24.4805 18.6426 26.4081 18.6426 28.786C18.6426 31.1638 20.5721 33.0915 22.9523 33.0915Z" stroke="white" stroke-width="3" stroke-linecap="round" stroke-linejoin="round"/>
</g>
<defs>
<clipPath id="clip0_451_268">
<rect width="46" height="41" fill="white" transform="translate(0.191406 0.730469)"/>
</clipPath>
</defs>
</svg>
