<svg width="41" height="40" viewBox="0 0 41 40" fill="none" xmlns="http://www.w3.org/2000/svg">
<g clip-path="url(#clip0_864_9157)">
<path d="M1.50305 12.9633C1.96326 10.1182 3.31806 7.65361 5.25755 5.52084C7.59634 2.94896 10.4754 1.3094 13.8861 0.663749C17.6995 -0.0582026 21.3053 0.573276 24.6598 2.53677C27.6022 4.2591 29.7405 6.71017 31.1119 9.82305C32.1495 12.1783 32.5091 14.657 32.354 17.2174C32.351 17.2678 32.3431 17.3185 32.3317 17.3676C32.3264 17.3906 32.3069 17.4103 32.2718 17.4673C32.1091 17.3226 31.9497 17.1841 31.7938 17.0419C31.0714 16.3826 30.3634 15.7066 29.6211 15.0706C29.345 14.8341 29.239 14.5671 29.1858 14.2311C28.4854 9.80902 26.1075 6.61177 22.103 4.63799C20.0025 3.6027 17.7569 3.25636 15.4388 3.51756C12.3602 3.86436 9.74672 5.18349 7.62432 7.44782C6.0247 9.15437 4.98156 11.1641 4.51662 13.4507C4.00633 15.9605 4.21014 18.4141 5.20991 20.7962C6.51791 23.9128 8.47134 26.6035 10.6472 29.1509C12.4653 31.2794 14.4538 33.2409 16.5426 35.1015C16.7424 35.2794 16.8178 35.461 16.8144 35.7246C16.8009 36.766 16.8089 37.8078 16.8089 38.8493C16.8089 38.9721 16.8089 39.0948 16.8089 39.3265C16.1402 38.7704 15.5412 38.2908 14.9626 37.7879C12.07 35.274 9.39489 32.547 7.01875 29.5383C4.94268 26.9096 3.24246 24.0839 2.02996 20.9238C0.813568 17.7541 1.14024 15.2061 1.50305 12.9633Z" fill="white"/>
<path d="M40.2345 28.8422C39.5457 29.5981 38.8793 30.3297 38.1867 31.09C37.9148 30.8532 37.6529 30.6252 37.347 30.3589C37.3383 30.5319 37.3271 30.6515 37.3271 30.7713C37.3258 32.2191 37.3299 33.6669 37.3253 35.1148C37.3178 37.4966 35.5185 39.3159 33.1376 39.3247C29.9752 39.3364 26.8128 39.3348 23.6505 39.3253C21.2671 39.3182 19.4619 37.5225 19.4344 35.1345C19.418 33.7123 19.4312 32.2897 19.431 30.8672C19.431 30.729 19.431 30.5908 19.431 30.3573C19.1222 30.6257 18.8723 30.843 18.5876 31.0905C17.9138 30.3544 17.2401 29.6182 16.5312 28.8438C20.4832 25.239 24.4252 21.6434 28.3836 18.0327C32.3483 21.6489 36.2861 25.2406 40.2345 28.8422ZM28.3842 22.1674C26.4526 23.9272 24.5452 25.6612 22.647 27.4054C22.5524 27.4924 22.4945 27.6675 22.4941 27.8018C22.4851 30.2023 22.4839 32.603 22.4895 35.0035C22.4915 35.8527 22.9125 36.2734 23.7545 36.2744C26.841 36.2781 29.9274 36.2781 33.0139 36.2744C33.856 36.2734 34.2806 35.8445 34.2816 35.0042C34.2843 32.6163 34.2867 30.2284 34.2735 27.8406C34.2726 27.6772 34.1824 27.4727 34.0646 27.3589C33.5076 26.8207 32.9268 26.3075 32.3543 25.7856C31.0408 24.5883 29.727 23.3912 28.3842 22.1674Z" fill="white"/>
<path d="M23.2557 15.9572C23.2776 19.5142 20.3951 22.4114 16.8123 22.4335C13.2554 22.4554 10.3582 19.5728 10.3361 15.99C10.3142 12.4331 13.1967 9.5359 16.7795 9.5138C20.3364 9.49192 23.2336 12.3745 23.2557 15.9572ZM16.7775 12.5722C14.8958 12.5816 13.3783 14.1194 13.3935 16.0015C13.4085 17.8669 14.9297 19.3765 16.7951 19.377C18.6765 19.3774 20.202 17.8477 20.1976 15.9649C20.1932 14.0804 18.6633 12.5628 16.7775 12.5722Z" fill="white"/>
<path d="M30.6906 28.6226C30.6906 30.1294 30.6906 31.6133 30.6906 33.128C29.1857 33.128 27.6838 33.128 26.1562 33.128C26.1562 31.639 26.1562 30.1466 26.1562 28.6226C27.6488 28.6226 29.1503 28.6226 30.6906 28.6226Z" fill="white"/>
</g>
<defs>
<clipPath id="clip0_864_9157">
<rect width="40" height="40" fill="white" transform="translate(0.6875)"/>
</clipPath>
</defs>
</svg>
