<svg width="59" height="40" viewBox="0 0 59 40" fill="none" xmlns="http://www.w3.org/2000/svg">
<g clip-path="url(#clip0_864_157)">
<path d="M54.0892 35.3365C53.6181 36.2951 53.1486 37.2536 52.6644 38.2416H55.0494C55.7528 38.2416 56.4562 38.2302 57.158 38.2416C57.8123 38.2547 58.1705 38.5835 58.1672 39.1103C58.164 39.637 57.7943 39.9625 57.158 39.9919C56.9944 39.9919 56.8308 39.9919 56.677 39.9919H1.46418C1.28261 39.9919 1.10103 40.0018 0.921094 39.9919C0.335481 39.9445 -0.00803613 39.6026 0.000142829 39.0873C0.00832178 38.5721 0.366566 38.2351 0.957087 38.2286C2.06125 38.2155 3.16703 38.2286 4.27119 38.2286H6.30612C5.81538 37.2193 5.32464 36.2263 4.80446 35.1418C4.37098 35.1418 3.81154 35.1418 3.2521 35.1418C1.48053 35.1091 0.407452 34.0311 0.405816 32.2628C0.405816 22.4808 0.405816 12.6977 0.405816 2.91346C0.405816 1.11409 1.49362 0.00993657 3.28645 0.00830078C12.0107 0.00830078 20.7305 0.00830078 29.446 0.00830078C31.2961 0.00830078 32.3496 1.0732 32.3545 2.92819C32.3545 4.35133 32.3545 5.77283 32.3545 7.24668H34.481C34.481 6.71668 34.481 6.2014 34.481 5.68449C34.5006 3.85568 35.7896 2.4947 37.5301 2.47998C39.2706 2.46526 40.6267 3.84423 40.6381 5.69267C40.6381 6.20795 40.6381 6.72486 40.6381 7.29739C41.0863 7.29739 41.4642 7.29739 41.8404 7.29739C43.1736 7.2843 44.1109 7.87645 44.5951 9.12947C45.4539 11.3541 46.2865 13.5903 47.1584 15.81C47.5984 16.9289 48.0859 18.0314 48.5913 19.1225C48.7242 19.3343 48.9275 19.4925 49.1655 19.5691C51.3264 20.3772 53.4938 21.1656 55.6596 21.9573C57.1498 22.5004 57.7501 23.3592 57.7518 24.9574C57.7518 27.3882 57.7518 29.819 57.7518 32.2497C57.7518 34.0818 56.664 35.1664 54.8286 35.1827C54.5358 35.1827 54.243 35.1827 53.9502 35.1827L54.0892 35.3365ZM2.18556 20.989V28.1374C2.18556 29.5621 2.18556 30.9885 2.18556 32.415C2.18556 33.0071 2.48982 33.3637 3.02636 33.3866C3.66432 33.4161 4.30555 33.3866 4.93042 33.3866C6.15563 30.0561 7.85358 28.6019 10.5199 28.5561C11.6924 28.5209 12.8464 28.8544 13.8193 29.5098C15.2065 30.4389 15.9998 31.7639 16.3237 33.3523H42.6223C43.4075 30.4389 45.4032 28.6657 47.9714 28.5594C49.2247 28.4862 50.4673 28.8271 51.5079 29.5294C52.8722 30.452 53.6525 31.7639 53.9829 33.3899H54.6732C55.7365 33.3899 55.972 33.1527 55.9736 32.0813C55.9736 29.6712 55.9736 27.2611 55.9736 24.8511C55.9736 24.0675 55.8477 23.8925 55.0985 23.6177C52.8575 22.7998 50.6181 21.9819 48.3705 21.1738C48.0325 21.0553 47.6769 20.9944 47.3187 20.9939C32.5137 20.9851 17.7081 20.9824 2.90203 20.9857L2.18556 20.989ZM2.18556 19.1896H30.5911V3.14248C30.5911 1.99742 30.3801 1.78967 29.2088 1.78967H3.52691C2.39331 1.78967 2.18066 1.99742 2.18066 3.10812V19.1896H2.18556ZM15.0331 38.1926H44.0487C43.7357 37.7363 43.4458 37.2646 43.1801 36.7792C42.9397 36.2885 42.7892 35.7422 42.5929 35.204H16.4791L15.0331 38.1926ZM46.0248 17.7027H45.3606C43.1098 17.7027 40.8606 17.7027 38.6097 17.7027C37.4107 17.7027 36.6975 16.9862 36.686 15.7904C36.6746 14.7664 36.7302 13.7391 36.6713 12.7184C36.6042 11.5455 37.3027 10.5199 38.8158 10.5919C40.2766 10.6557 41.7423 10.6066 43.2161 10.6066C42.8104 9.05422 42.5618 9.0624 41.4642 9.06567C38.6523 9.07549 35.8387 9.06567 33.0268 9.06567H32.4003V19.1749H46.6562C46.4337 18.653 46.2391 18.1983 46.0248 17.7043V17.7027ZM10.6344 38.2384C11.6795 38.2445 12.6846 37.8367 13.43 37.1042C14.1754 36.3717 14.6006 35.3739 14.6127 34.3288C14.6181 33.806 14.5201 33.2872 14.3244 32.8023C14.1288 32.3174 13.8393 31.8759 13.4725 31.5032C13.1057 31.1305 12.6689 30.8339 12.1872 30.6305C11.7055 30.4271 11.1884 30.3209 10.6655 30.3179C9.60929 30.32 8.59682 30.7399 7.84905 31.4858C7.10127 32.2317 6.67892 33.2432 6.67417 34.2994C6.68405 35.3447 7.10514 36.3441 7.8463 37.0812C8.58746 37.8184 9.58908 38.2341 10.6344 38.2384ZM48.3329 38.2384C48.8503 38.2371 49.3623 38.1338 49.8398 37.9344C50.3172 37.735 50.7507 37.4435 51.1153 37.0764C51.4799 36.7093 51.7686 36.2739 51.9648 35.7952C52.161 35.3164 52.2609 34.8037 52.2588 34.2863C52.2605 33.7635 52.1586 33.2456 51.9588 32.7624C51.759 32.2793 51.4655 31.8406 51.095 31.4717C50.7246 31.1028 50.2847 30.811 49.8007 30.6132C49.3168 30.4154 48.7984 30.3156 48.2756 30.3195C47.2308 30.3281 46.2318 30.7495 45.4964 31.4916C44.761 32.2338 44.3488 33.2366 44.3497 34.2814C44.3473 34.8042 44.449 35.3223 44.6488 35.8054C44.8487 36.2885 45.1427 36.727 45.5137 37.0953C45.8848 37.4636 46.3254 37.7543 46.81 37.9506C47.2946 38.1469 47.8134 38.2447 48.3361 38.2384H48.3329ZM44.0324 12.4125H38.5001V15.9164H45.2347C45.2345 15.8261 45.2246 15.7362 45.2052 15.6481C44.8225 14.5734 44.4315 13.5019 44.0356 12.4109L44.0324 12.4125ZM38.8567 7.28103C38.8567 6.6447 38.8829 6.046 38.8567 5.44894C38.8358 5.13451 38.6998 4.83882 38.4747 4.61827C38.2496 4.39772 37.9512 4.26775 37.6364 4.25318C37.0328 4.21065 36.3932 4.62287 36.3147 5.2461C36.2313 5.90042 36.2951 6.58582 36.2951 7.28103H38.8567Z" fill="black"/>
<path d="M10.6639 33.398C11.3379 33.398 11.7272 33.7153 11.737 34.2649C11.7468 34.8391 11.3346 35.1793 10.6377 35.1744C9.98343 35.1744 9.56466 34.8326 9.55485 34.2977C9.54504 33.7628 9.98015 33.3947 10.6639 33.398Z" fill="black"/>
<path d="M48.3002 33.3979C48.9905 33.3979 49.4272 33.7447 49.4174 34.296C49.4092 34.8211 48.9774 35.1695 48.3312 35.1744C47.6524 35.1744 47.2091 34.8195 47.2189 34.2666C47.2287 33.7137 47.6409 33.4012 48.3002 33.3979Z" fill="black"/>
<rect x="13.6797" y="4.17578" width="4.22266" height="13.2751" fill="#FF0000"/>
<rect x="9.15625" y="12.9243" width="4.22266" height="13.2751" transform="rotate(-90 9.15625 12.9243)" fill="#FF0000"/>
</g>
<defs>
<clipPath id="clip0_864_157">
<rect width="58.1671" height="40" fill="white"/>
</clipPath>
</defs>
</svg>
