<svg width="31" height="31" viewBox="0 0 31 31" fill="none" xmlns="http://www.w3.org/2000/svg">
<g clip-path="url(#clip0_451_14)">
<path d="M12.4747 19.5H15.5934L15.5552 19.8247L14.711 27H13.8027L12.5169 19.7385L12.4747 19.5Z" stroke="white" stroke-width="3"/>
<path d="M5.04492 10.5H6.04492V9.5C6.04492 8.40228 6.94721 7.5 8.04492 7.5H20.0449H20.4591L20.752 7.20711L26.4591 1.5H28.0449V23.5H26.4591L20.752 17.7929L20.4591 17.5H20.0449H8.04492C7.51449 17.5 7.00578 17.2893 6.63071 16.9142C6.25564 16.5391 6.04492 16.0304 6.04492 15.5V14.5H5.04492H3.04492V10.5H5.04492Z" stroke="white" stroke-width="2"/>
</g>
<defs>
<clipPath id="clip0_451_14">
<rect width="30" height="30" fill="white" transform="translate(0.544922 0.5)"/>
</clipPath>
</defs>
</svg>
