<svg width="42" height="29" viewBox="0 0 42 29" fill="none" xmlns="http://www.w3.org/2000/svg">
<g clip-path="url(#clip0_451_80)">
<path d="M0.519531 14.1414C0.878225 13.3678 1.4892 13.1382 2.32137 13.1442C6.25625 13.1729 10.1911 13.1573 14.1272 13.1573H14.6915C14.5445 12.9935 14.4524 12.8847 14.3556 12.7855C13.472 11.8983 12.5764 11.0219 11.7036 10.1252C10.9181 9.31931 11.2349 8.09975 12.2871 7.83193C12.8335 7.69323 13.2747 7.89888 13.6585 8.28388C15.2694 9.89801 16.882 11.5105 18.4961 13.1215C18.6013 13.2267 18.7077 13.3307 18.8117 13.4383C19.4801 14.1222 19.4861 14.8803 18.8117 15.5594C17.3722 17.0069 15.9286 18.4513 14.4811 19.8924C14.1858 20.1877 13.8964 20.4902 13.5927 20.776C12.9949 21.3475 12.1663 21.3523 11.6355 20.7975C11.1046 20.2427 11.1309 19.4524 11.7024 18.8737C12.6757 17.8873 13.6633 16.9153 14.6294 15.8416H14.1714C10.2258 15.8416 6.27179 15.826 2.32137 15.8547C1.48442 15.8547 0.87703 15.6299 0.519531 14.8576V14.1414Z" fill="white"/>
<path d="M26.1325 3.75945H12.8955C11.8732 3.75945 11.2503 3.24054 11.2599 2.40119C11.2694 1.56185 11.8852 1.07402 12.8812 1.07402H39.3564C39.5351 1.06555 39.7141 1.07516 39.8908 1.10272C40.2087 1.16638 40.493 1.3425 40.6915 1.59879C40.8901 1.85507 40.9895 2.17434 40.9717 2.49804C40.9481 2.82842 40.8043 3.1387 40.5675 3.37025C40.3307 3.60179 40.0172 3.73855 39.6864 3.75467C39.5525 3.76304 39.4186 3.75467 39.2847 3.75467L26.1325 3.75945Z" fill="white"/>
<path d="M26.0704 27.9235C21.6864 27.9235 17.3023 27.9235 12.9183 27.9235C12.7395 27.9316 12.5604 27.9252 12.3826 27.9044C12.0561 27.8489 11.7613 27.6756 11.5539 27.4174C11.3466 27.1592 11.2411 26.8339 11.2575 26.5031C11.2806 26.1727 11.4237 25.8622 11.6597 25.6299C11.8958 25.3976 12.2086 25.2595 12.5393 25.2417C12.6277 25.2357 12.7174 25.2417 12.8071 25.2417C21.6764 25.2417 30.5461 25.2417 39.4162 25.2417C40.0559 25.2417 40.5616 25.4401 40.8414 26.0368C40.9299 26.2308 40.9707 26.4432 40.9603 26.6562C40.95 26.8692 40.8889 27.0766 40.782 27.2612C40.6752 27.4457 40.5257 27.602 40.3462 27.717C40.1666 27.832 39.9621 27.9024 39.7498 27.9223C39.6014 27.9325 39.4525 27.9349 39.3038 27.9295C34.8935 27.9271 30.4823 27.9251 26.0704 27.9235Z" fill="white"/>
<path d="M31.5263 9.12923C34.2784 9.12923 37.0314 9.11966 39.7834 9.14477C40.0802 9.15307 40.3685 9.27415 40.6116 9.49271C40.9517 9.81314 41.0542 10.3141 40.92 10.8569C40.8614 11.1168 40.7424 11.3476 40.5789 11.5185C40.4155 11.6894 40.2153 11.7923 40.0051 11.8135C39.9008 11.8254 39.7965 11.8135 39.6912 11.8135H23.2813C22.4848 11.8135 21.9994 11.2957 22.0059 10.4564C22.0124 9.61705 22.4932 9.12803 23.2683 9.12803L31.5263 9.12923Z" fill="white"/>
<path d="M31.4713 19.8696C28.7305 19.8696 25.9896 19.8696 23.2487 19.8696C23.0869 19.8765 22.9252 19.8548 22.768 19.805C22.5305 19.722 22.324 19.5327 22.1858 19.2713C22.0476 19.0099 21.9867 18.6937 22.0143 18.3798C22.0447 18.0664 22.159 17.7762 22.3376 17.5588C22.5161 17.3414 22.7479 17.2103 22.9935 17.1878C23.0633 17.1806 23.1332 17.1878 23.2021 17.1878C28.7298 17.1878 34.2576 17.1878 39.7853 17.1878C40.2865 17.1878 40.675 17.4101 40.8837 18.008C40.9495 18.2038 40.9779 18.4169 40.9664 18.6297C40.955 18.8424 40.9041 19.0485 40.8179 19.2309C40.7317 19.4132 40.6128 19.5664 40.4711 19.6777C40.3294 19.789 40.169 19.8552 40.0033 19.8708C39.8878 19.8839 39.7713 19.8708 39.6548 19.8708L31.4713 19.8696Z" fill="white"/>
</g>
<defs>
<clipPath id="clip0_451_80">
<rect width="40.8148" height="29" fill="white" transform="translate(0.519531)"/>
</clipPath>
</defs>
</svg>
