<svg width="1920" height="750" viewBox="0 0 1920 750" fill="none" xmlns="http://www.w3.org/2000/svg">
<g clip-path="url(#clip0_950_2)">
<path d="M663.837 799.131C628.704 771.542 595.297 742.782 562.514 714.532C552.49 705.893 542.123 696.96 531.958 688.288C450.971 619.168 373.619 568.3 295.471 532.785C199.148 489.008 99.8139 468.452 -0.00351369 471.562V471.364C23.2902 470.621 46.6212 471.153 69.8215 472.955C96.8354 475.095 123.591 478.922 149.836 484.399C198.628 494.561 247.75 510.793 295.82 532.64C373.998 568.174 451.375 619.057 532.387 688.196C542.545 696.874 552.918 705.797 562.942 714.436C595.774 742.719 629.199 771.508 664.375 799.122L663.837 799.131Z" fill="url(#paint0_linear_950_2)"/>
<path d="M666.658 799.131C613.417 761.684 562.685 720.712 513.575 681.023L513.416 680.888C472.763 647.861 435.084 619.766 398.25 595.002C281.231 516.51 168.152 473.581 52.558 463.752C35.1013 462.297 17.5568 461.593 0.00265548 461.645V461.414C17.5814 461.366 35.1504 462.072 52.6315 463.53C85.5052 466.368 117.942 471.76 149.469 479.627C180.361 487.385 210.376 497.163 239.201 508.86C291.946 530.138 344.11 558.272 398.691 594.881C435.543 619.65 473.216 647.75 513.875 680.787L514.04 680.917C563.217 720.649 614.01 761.655 667.312 799.131H666.658Z" fill="url(#paint1_linear_950_2)"/>
<path d="M672.75 799.131C668.262 796.335 663.752 793.48 659.22 790.565C609.473 758.632 555.706 720.351 494.858 673.527C463.942 649.736 422.738 618.57 378.132 588.339C260.072 508.71 153.15 466.292 41.6378 454.843C28.2236 453.469 14.4177 452.592 0.0242728 452.177V451.917C14.4911 452.332 28.3398 453.209 41.7969 454.593C73.7599 457.928 105.227 463.741 135.74 471.947C165.752 480.065 194.869 490.108 222.797 501.976C273.205 523.254 324.2 551.461 378.683 588.209C423.295 618.435 464.505 649.621 495.427 673.411C556.269 720.23 610.024 758.507 659.764 790.43C664.272 793.322 668.846 796.224 673.484 799.136L672.75 799.131Z" fill="url(#paint2_linear_950_2)"/>
<path d="M1688.17 799.131C1765.33 776.956 1842.2 756.781 1920 742.121V742.41C1842.59 757.012 1766.07 777.062 1689.29 799.131H1688.17Z" fill="url(#paint3_linear_950_2)"/>
<path d="M683.111 799.131C671.3 792.662 659.244 785.807 646.809 778.489C590.068 745.076 531.111 706.23 476.304 666.165C440.345 639.863 399.576 610.052 358.018 581.682C277.758 527.236 168.027 462.609 30.7147 445.934C20.9233 444.748 10.7157 443.842 0.000250091 443.182V442.878C10.7769 443.538 21.0518 444.449 30.8983 445.645C89.9039 452.809 147.288 468.977 206.324 495.072C254.29 516.283 304.097 544.547 358.605 581.523C400.176 609.897 440.939 639.714 476.91 666.016C531.699 706.091 590.649 744.927 647.372 778.339C659.11 785.257 671.239 792.228 683.852 799.15L683.111 799.131Z" fill="url(#paint4_linear_950_2)"/>
<path d="M1578.95 799.131H1577.72C1585.26 796.942 1592.51 794.845 1599.61 792.806C1668.97 772.863 1751.37 750.114 1836.56 732.614C1865.23 726.728 1892.98 721.705 1920 717.497V717.742C1818.89 733.526 1715.3 759.895 1600 793.047C1593.17 795.014 1586.18 797.029 1578.95 799.131Z" fill="url(#paint5_linear_950_2)"/>
<path d="M699.171 799.131C678.487 789.441 657.05 778.609 634.395 766.413C571.069 732.311 509.989 695.066 457.758 658.765C441.816 647.678 425.323 636.108 409.412 624.88C386.158 608.49 362.065 591.583 337.923 574.981C252.903 516.968 148.618 455.205 19.8238 436.987C13.4411 436.086 6.87478 435.305 0.0269015 434.634V434.307C6.95433 434.982 13.5941 435.753 20.0503 436.683C76.9263 444.729 132.486 461.568 189.919 488.164C235.902 509.452 283.14 536.989 338.578 574.817C362.72 591.424 386.794 608.35 410.073 624.721C425.984 635.929 442.507 647.519 458.418 658.606C510.649 694.916 571.693 732.123 635.001 766.22C655.434 777.221 677.042 788.366 700.016 799.131H699.171Z" fill="url(#paint6_linear_950_2)"/>
<path d="M1511.7 786.067C1496.96 790.396 1482.03 794.751 1466.9 799.131H1465.49C1480.6 794.773 1495.86 790.33 1511.25 785.802C1535.97 778.604 1558.87 772.082 1581.27 765.858C1683.07 737.58 1798.75 708.641 1920 693.86V694.198C1798.92 708.978 1683.4 737.879 1581.71 766.128C1559.31 772.347 1536.41 778.884 1511.7 786.067Z" fill="url(#paint7_linear_950_2)"/>
<path d="M723.739 799.131C691.861 786.949 658.534 772.26 621.987 754.342C552.364 720.201 490.868 685.564 439.206 651.39C408.222 630.892 376.272 608.774 345.374 587.385C336.202 581.031 327.005 574.671 317.78 568.304C229.143 507.153 130.342 447.839 8.83641 428.059C5.92754 427.587 2.97176 427.14 -0.0309403 426.719V426.353C3.07784 426.786 6.13766 427.246 9.14852 427.731C63.9682 436.654 117.754 454.159 173.583 481.242C217.681 502.626 262.373 529.449 318.49 568.131C327.71 574.491 336.908 580.851 346.084 587.211C376.982 608.596 408.926 630.714 439.904 651.207C491.553 685.362 553.025 719.989 622.636 754.115C653.883 769.435 687.823 785.016 724.969 799.131H723.739Z" fill="url(#paint8_linear_950_2)"/>
<path d="M1493.06 758.772L1480.56 762.388C1437.48 774.849 1393.93 787.455 1350.21 799.131H1348.63C1392.74 787.364 1436.65 774.661 1480.1 762.093L1492.59 758.478C1514.62 752.105 1538.31 745.525 1562.97 738.91C1650.99 715.289 1728.59 698.127 1800.18 686.364C1841.61 679.577 1881.38 674.539 1920 671.165V671.463C1814.63 680.623 1700.25 702.514 1563.41 739.209C1538.75 745.819 1515.09 752.404 1493.06 758.772Z" fill="url(#paint9_linear_950_2)"/>
<path d="M763.619 799.131C715.886 785.807 666.733 767.661 609.581 742.246C534.444 708.863 472.648 676.718 420.656 643.985C381.9 619.583 343.457 593.401 297.651 561.599C215.556 504.589 118.144 441.962 -0.0142413 419.498V419.078C52.0761 428.941 103.518 447.038 157.181 474.314C209.412 500.891 257.892 533.253 298.428 561.406C344.215 593.223 382.653 619.38 421.433 643.778C473.395 676.496 535.16 708.617 610.255 741.986C655.95 762.286 707.251 783.011 765.602 799.107L763.619 799.131Z" fill="url(#paint10_linear_950_2)"/>
<path d="M1474.42 731.477C1461.63 735.131 1448.56 738.891 1435.93 742.526C1366.17 762.619 1295.01 783.092 1224.04 799.131H1222.07C1293.51 783.049 1365.13 762.436 1435.4 742.208C1448.04 738.573 1461.11 734.813 1473.9 731.154C1495.93 724.858 1519.73 718.403 1544.61 711.967C1630.48 689.763 1708.11 673.83 1781.93 663.278C1829.74 656.437 1875.49 651.881 1920 649.572V649.939C1806.67 655.772 1685.12 676.086 1545.1 712.295C1520.23 718.726 1496.45 725.181 1474.42 731.477Z" fill="url(#paint11_linear_950_2)"/>
<path d="M848.503 799.131C818.294 795.352 788.443 789.966 759.157 783.01C709.11 771.171 657.65 754.39 597.213 730.199C518.269 698.599 454.466 668.012 402.143 636.633C365.156 614.458 325.568 588.503 277.584 554.946C190.979 494.407 104.478 438.057 0.00336174 413.134V412.652C104.918 437.575 191.621 494.06 278.392 554.719C326.37 588.272 365.939 614.217 402.92 636.378C455.2 667.713 518.967 698.3 597.855 729.9C671.346 759.307 752.462 787.229 851.82 799.131H848.503Z" fill="url(#paint12_linear_950_2)"/>
<path d="M1455.78 704.162C1435.1 710.005 1413.98 716.089 1393.56 721.999C1285.24 753.218 1173.42 785.43 1064.89 799.131H1061.36C1170.75 785.676 1283.64 753.16 1392.99 721.647C1413.41 715.761 1434.53 709.677 1455.22 703.81C1477.34 697.543 1501.25 691.233 1526.29 685.01C1669.05 649.442 1798.65 631.017 1920 629.089V629.503C1798.83 631.432 1669.4 649.837 1526.8 685.361C1501.78 691.628 1477.89 697.934 1455.78 704.162Z" fill="url(#paint13_linear_950_2)"/>
<path d="M-0.00344338 407.084C40.6004 418.9 81.5224 436.491 124.397 460.594C168.856 485.566 209.637 513.777 258.331 548.062C303.733 580.028 344.973 606.509 384.396 629.017C437.545 659.344 503.306 688.389 585.444 717.815C714.067 763.887 812.838 782.49 926.357 782.032C966.49 781.868 999.793 780.002 1031.11 776.155C1136.71 763.197 1246.43 731.371 1352.52 700.585C1380.06 692.597 1408.55 684.335 1436.52 676.53C1458.76 670.326 1482.79 664.121 1507.94 658.091C1589.58 638.518 1669.5 624.697 1745.45 617.003C1804.81 610.992 1863.28 608.572 1919.98 609.748V610.158C1790.72 607.328 1655.48 623.241 1508.49 658.476C1483.35 664.502 1459.34 670.702 1437.12 676.901C1409.17 684.701 1380.69 692.964 1353.14 700.957C1246.97 731.756 1137.18 763.626 1031.43 776.584C1000 780.441 966.624 782.312 926.394 782.475C866.247 782.812 806.301 776.979 748.067 765.121C697.623 754.91 645.735 739.981 584.771 718.143C502.566 688.697 436.743 659.624 383.551 629.267C344.086 606.75 302.833 580.26 257.413 548.279C179.131 493.158 98.3697 436.322 -0.0156946 407.629L-0.00344338 407.084Z" fill="url(#paint14_linear_950_2)"/>
<path d="M-6.96096e-05 402.461C83.637 431.578 153.909 481.449 227.779 533.899L238.286 541.351C281.883 572.267 324.824 599.263 365.911 621.593C420.327 651.168 488.09 678.675 573.067 705.686C700.099 746.064 802.199 762.007 914.464 758.998C954.682 757.923 987.342 755.465 1017.27 751.285C1114.64 737.594 1215.91 707.899 1313.84 679.133C1347.92 669.13 1383.16 658.785 1417.87 649.211C1440.24 643.045 1464.38 636.966 1489.65 631.147C1638.72 596.771 1783.28 583.485 1920 591.492V591.974C1783.49 583.962 1639.11 597.229 1490.2 631.543C1464.97 637.357 1440.84 643.426 1418.5 649.587C1383.78 659.156 1348.54 669.497 1314.47 679.475C1216.47 708.236 1115.15 737.975 1017.63 751.685C987.642 755.904 954.878 758.372 914.556 759.452C853.726 761.081 795.639 757.07 736.988 747.188C686.018 738.607 633.719 725.528 572.37 706.038C487.307 678.998 419.477 651.462 364.994 621.853C323.876 599.509 280.91 572.493 237.289 541.564L226.781 534.106C153.174 481.844 83.1474 432.142 -0.0245721 403.044L-6.96096e-05 402.461Z" fill="url(#paint15_linear_950_2)"/>
<path d="M-6.96096e-05 399.009C69.5068 427.649 129.565 470.877 192.493 516.197C201.004 522.329 209.583 528.49 218.232 534.68C261.009 565.224 304.47 591.979 347.406 614.222C403.425 643.219 473.183 669.178 560.663 693.61C687.437 728.999 789.684 741.682 902.549 736.032C943.397 733.984 974.491 731.019 1003.37 726.425C1093.05 712.155 1186.35 684.33 1276.56 657.416C1316.65 645.455 1358.12 633.09 1399.18 621.906C1421.7 615.774 1445.97 609.825 1471.31 604.219C1624.42 570.31 1775.26 560.336 1920 574.441V574.966C1775.47 560.851 1624.83 570.806 1471.89 604.633C1446.58 610.23 1422.32 616.174 1399.86 622.301C1358.81 633.476 1317.36 645.841 1277.27 657.796C1186.99 684.725 1093.63 712.575 1003.82 726.863C974.846 731.472 943.667 734.446 902.72 736.505C842.068 739.547 784.213 737.209 725.863 729.356C674.25 722.414 621.559 711.181 560.02 694.005C472.436 669.559 402.58 643.556 346.482 614.516C303.503 592.268 260.011 565.489 217.198 534.921C208.545 528.74 199.977 522.579 191.496 516.438C128.861 471.33 69.0723 428.295 0.0366841 399.703L-6.96096e-05 399.009Z" fill="url(#paint16_linear_950_2)"/>
<path d="M-6.96096e-05 396.801C56.4108 423.995 106.561 460.84 158.909 499.314C171.662 508.691 184.85 518.38 198.178 527.964C240.33 558.277 284.306 584.796 328.9 606.783C386.786 635.322 458.538 659.754 548.258 681.461C674.439 711.996 776.827 721.421 890.622 712.975C918.16 710.931 954.266 707.783 989.484 701.506C1071.93 686.803 1153.87 661.86 1240.62 635.462C1286.26 621.569 1333.46 607.198 1380.51 594.548C1403.19 588.45 1427.58 582.627 1452.99 577.237C1609.59 544.032 1766.25 537.707 1918.62 558.436L1920 558.634V559.193L1918.25 558.947C1766.21 538.271 1609.88 544.591 1453.59 577.748C1428.21 583.128 1403.86 588.942 1381.21 595.03C1334.2 607.675 1287.02 622.026 1241.39 635.93C1154.58 662.352 1072.59 687.314 990.011 702.036C954.694 708.337 918.478 711.495 890.872 713.544C776.753 722.014 674.103 712.579 547.634 681.963C457.786 660.221 385.917 635.756 327.939 607.164C283.296 585.153 239.272 558.61 197.083 528.268C183.754 518.679 170.566 508.985 157.813 499.613C105.796 461.38 55.9396 424.752 0.00605601 397.64L-6.96096e-05 396.801Z" fill="url(#paint17_linear_950_2)"/>
<path d="M-6.96096e-05 396.117C44.2572 420.828 84.7936 451.401 126.897 483.17C143.42 495.646 160.555 508.551 178.124 521.292C219.774 551.46 264.277 577.738 310.394 599.388C370.367 627.546 444.096 650.435 535.842 669.361C661.098 695.201 763.633 701.366 878.701 689.975C907.952 687.082 942.345 683.226 975.605 676.636C1051.23 661.648 1126.34 638.224 1205.86 613.426C1256.65 597.59 1309.12 581.219 1361.83 567.224C1384.68 561.16 1409.19 555.462 1434.66 550.289C1588.68 519.046 1744.84 515.724 1898.83 540.474C1905.9 541.615 1912.96 542.828 1920 544.114V544.721C1912.83 543.41 1905.62 542.169 1898.37 540.999C1744.76 516.308 1588.95 519.6 1435.28 550.785C1409.84 555.949 1385.38 561.637 1362.57 567.692C1309.9 581.672 1257.43 598.063 1206.68 613.87C1127.12 638.682 1051.94 662.121 976.205 677.137C942.828 683.751 908.356 687.613 879.043 690.515C763.639 701.935 660.835 695.76 535.266 669.858C443.356 650.893 369.473 627.961 309.39 599.745C263.218 578.052 218.655 551.745 176.961 521.543C159.38 508.802 142.245 495.906 125.722 483.42C83.9797 451.922 43.786 421.609 -6.96096e-05 397.033V396.117Z" fill="url(#paint18_linear_950_2)"/>
<path d="M-6.96096e-05 397.081C33.046 418.225 64.1704 442.492 96.3536 467.56C116.126 482.987 136.572 498.895 158.07 514.582C198.753 544.344 243.653 570.314 291.882 591.979C353.238 619.423 431.135 641.382 523.419 657.247C647.476 678.579 750.164 681.481 866.773 666.961C897.469 663.143 930.216 658.655 961.72 651.756C1030.87 636.624 1099.47 614.636 1172.12 591.333C1227.63 573.535 1285.03 555.134 1343.16 539.9C1366.18 533.86 1390.81 528.287 1416.35 523.336C1568.16 493.891 1723.82 493.626 1879.04 522.546C1892.82 525.117 1906.48 527.951 1920 531.05V531.729C1906.3 528.583 1892.46 525.703 1878.48 523.091C1723.66 494.248 1568.39 494.513 1416.97 523.881C1391.48 528.822 1366.91 534.386 1343.93 540.407C1285.86 555.626 1228.49 574.022 1173 591.81C1100.3 615.119 1031.64 637.125 962.405 652.291C930.797 659.209 897.971 663.707 867.208 667.539C806.734 675.065 749.478 677.798 692.186 675.894C638.774 674.115 583.41 668.18 522.929 657.801C430.449 641.893 352.375 619.891 290.879 592.379C242.573 570.685 197.603 544.678 156.858 514.871C135.348 499.18 114.896 483.242 95.1174 467.835C63.3382 443.076 32.5625 419.102 0.0183072 398.161L-6.96096e-05 397.081Z" fill="url(#paint19_linear_950_2)"/>
<path d="M-6.96096e-05 399.974C22.6426 416.422 44.6733 434.201 67.1997 452.457C89.7261 470.713 112.932 489.466 138.022 507.896C178.817 537.886 224.302 563.653 273.376 584.574C337.094 611.72 417.035 632.097 510.99 645.142C632 661.943 738.028 661.576 854.846 643.961C883.382 639.656 916.459 634.431 947.865 626.891C1010.81 611.754 1073.23 591.111 1139.32 569.259C1199.24 549.446 1261.19 528.962 1324.51 512.581C1347.76 506.57 1372.48 501.127 1398.06 496.393C1548.03 468.645 1703.21 471.412 1859.29 504.618C1879.61 508.922 1899.91 513.936 1920 519.528V520.261C1899.82 514.64 1879.36 509.613 1858.6 505.182C1702.94 472.068 1548.2 469.306 1398.66 496.986C1373.14 501.711 1348.47 507.144 1325.29 513.136C1262.03 529.497 1200.12 549.976 1140.24 569.775C1074.11 591.642 1011.64 612.299 948.599 627.455C917.126 635.024 883.976 640.259 855.379 644.573C738.249 662.237 631.896 662.603 510.549 645.759C416.362 632.681 336.207 612.25 272.318 585.018C223.162 564.053 177.601 538.235 136.737 508.19C111.647 489.741 88.3919 470.921 65.8839 452.722C43.7675 434.828 22.1959 417.372 0.0121816 401.203L-6.96096e-05 399.974Z" fill="url(#paint20_linear_950_2)"/>
<path d="M-6.96096e-05 404.919C13.1082 415.525 26.1307 426.54 39.3675 437.729C64.0541 458.603 89.5915 480.181 117.968 501.195C158.884 531.411 204.955 556.979 254.846 577.16C321.055 604.016 403.045 622.812 498.542 633.023C618.004 645.793 724.21 642.071 842.895 620.971C872.636 615.668 904.164 609.854 933.93 602.03C990.965 587.042 1047.46 567.716 1107.27 547.252C1171.27 525.356 1237.46 502.718 1305.8 485.267C1329.19 479.294 1354.06 473.977 1379.7 469.46C1528.17 443.302 1682.86 449.102 1839.46 486.699C1866.47 493.158 1893.44 500.818 1920 509.501V510.229C1893.48 501.587 1866.39 493.925 1838.71 487.243C1682.56 449.757 1528.35 443.967 1380.35 470.043C1354.78 474.55 1329.98 479.853 1306.65 485.812C1238.39 503.234 1172.26 525.862 1108.29 547.744C1048.44 568.217 991.914 587.558 934.799 602.565C904.935 610.413 873.346 616.251 843.549 621.554C724.528 642.736 618.016 646.468 498.2 633.659C402.427 623.42 320.192 604.571 253.781 577.627C203.781 557.407 157.61 531.787 116.604 501.508C88.2023 480.48 62.6589 458.892 37.9601 438.014C25.1945 427.225 12.6309 416.61 0.0183072 406.342L-6.96096e-05 404.919Z" fill="url(#paint21_linear_950_2)"/>
<path d="M0.000117396 412.025C4.24715 415.779 8.51044 419.559 12.7901 423.364C39.2025 446.831 66.5206 471.089 97.9143 494.508C138.114 524.493 184.691 549.812 236.347 569.76C304.189 595.961 390.561 613.629 486.107 620.923C603.966 629.889 710.325 622.808 830.974 597.952C862.924 591.367 891.687 585.259 920.057 577.146C971.401 562.452 1022.22 544.418 1076.02 525.323C1143.82 501.253 1213.93 476.368 1287.14 457.933C1310.75 451.985 1335.74 446.793 1361.41 442.507C1508.7 417.81 1662.89 426.661 1819.69 468.741C1853.91 477.953 1887.4 488.75 1920 501.074L1920 501.99C1887.13 489.523 1853.34 478.614 1818.82 469.32C1662.5 427.379 1508.82 418.558 1362.04 443.129C1336.44 447.41 1311.54 452.587 1287.99 458.517C1214.9 476.922 1144.84 501.792 1077.08 525.843C1023.23 544.948 972.435 562.997 920.987 577.705C892.531 585.847 863.72 591.969 831.714 598.559C710.735 623.483 604.063 630.588 485.844 621.593C389.974 614.299 303.32 596.525 235.239 570.257C183.448 550.255 136.762 524.879 96.4762 494.831C65.0457 471.388 37.7277 447.106 11.2908 423.639L-0.0121338 413.611L0.000117396 412.025Z" fill="url(#paint22_linear_950_2)"/>
<path d="M-6.96096e-05 421.064C23.8298 443.327 48.8408 465.998 77.8662 487.808C117.779 517.802 164.869 542.88 217.835 562.346C306.9 595.079 406.118 605.68 473.666 608.803C589.939 614.188 696.421 603.746 819.034 574.938C846.175 568.56 876.932 561.334 906.166 552.28C952.063 538.044 997.391 521.297 1045.41 503.567C1116.75 477.202 1190.54 449.96 1268.45 430.6C1292.98 424.54 1317.91 419.512 1343.11 415.535C1420.12 403.319 1500.31 400.861 1581.46 408.227C1653.47 414.768 1726.98 429.096 1799.93 450.813C1841.19 463.17 1881.31 477.772 1920 494.513V495.535C1881 478.61 1840.55 463.861 1798.94 451.396C1642.74 404.905 1489.59 393.065 1343.72 416.205C1318.61 420.165 1293.79 425.172 1269.35 431.207C1191.55 450.538 1117.84 477.761 1046.56 504.082C998.517 521.823 953.14 538.58 907.206 552.835C877.887 561.931 847.08 569.172 819.903 575.56C696.99 604.441 590.166 614.911 473.532 609.512C405.738 606.374 306.147 595.734 216.733 562.871C163.621 543.352 116.371 518.207 76.3852 488.15C47.9656 466.789 23.3953 444.614 0.0183072 422.805L-6.96096e-05 421.064Z" fill="url(#paint23_linear_950_2)"/>
<path d="M-6.96096e-05 431.554C17.649 448.292 36.5036 464.981 57.8121 481.116C97.449 511.13 145.06 535.967 199.317 554.936C291.845 587.288 392.807 595.503 461.237 596.698C576.029 598.709 682.707 584.902 807.125 551.938C835.239 544.49 864.313 536.786 892.298 527.391C932.89 513.767 972.974 498.326 1015.41 481.979C1090.07 453.233 1167.24 423.504 1249.8 403.271C1274.42 397.271 1299.45 392.368 1324.78 388.587C1401.7 377.046 1481.94 375.836 1563.28 384.991C1634.88 393.051 1707.82 409.162 1780.14 432.885C1827.34 448.369 1874.32 467.464 1920 489.572V490.705C1873.98 468.375 1826.63 449.082 1779.05 433.473C1623.26 382.373 1470.62 367.506 1325.4 389.296C1300.18 393.063 1275.24 397.948 1250.71 403.927C1168.3 424.116 1091.19 453.816 1016.62 482.538C974.155 498.895 934.047 514.355 893.412 527.984C865.354 537.399 836.236 545.117 808.08 552.569C683.343 585.62 576.354 599.461 461.182 597.446C392.489 596.245 291.111 587.992 198.19 555.505C143.726 536.473 95.9925 511.559 56.2516 481.463C35.5672 465.806 17.1961 449.646 -6.96096e-05 433.396V431.554Z" fill="url(#paint24_linear_950_2)"/>
<path d="M-6.96096e-05 442.642C11.7068 453.411 24.1725 464.055 37.7581 474.42C77.138 504.468 125.269 529.063 180.799 547.531C276.877 579.469 379.546 585.316 448.759 584.593C562.254 583.412 669.066 566.246 795.161 528.938L795.877 528.726C823.165 520.651 851.376 512.301 878.376 502.52C913.87 489.673 948.881 475.572 985.947 460.642C1063.67 429.351 1144 397.008 1231.11 375.951C1255.84 370.003 1281 365.223 1306.46 361.639C1383.33 350.763 1463.63 350.802 1545.12 361.754C1616.36 371.323 1688.76 389.233 1760.34 414.956C1813.66 434.123 1867.23 458.208 1920 486.588V487.836C1866.84 459.167 1812.86 434.851 1759.16 415.525C1604.04 359.759 1451.95 341.869 1307.09 362.362C1281.74 365.93 1256.69 370.687 1232.07 376.607C1145.17 397.606 1064.88 429.934 987.281 461.192C950.196 476.136 915.167 490.237 879.637 503.099C852.57 512.899 824.315 521.263 797.022 529.348L796.306 529.56C669.923 566.964 562.774 584.169 448.894 585.36C379.369 586.083 276.234 580.206 179.709 548.12C123.972 529.589 75.6753 504.906 36.1792 474.767C23.2178 464.875 11.2845 454.742 0.0732884 444.488L-6.96096e-05 442.642Z" fill="url(#paint25_linear_950_2)"/>
<path d="M-6.96096e-05 453.349C5.67896 458.169 11.5538 462.99 17.704 467.729C56.8269 497.815 105.472 522.17 162.274 540.122C240.061 564.708 337.382 576.196 436.306 572.493C548.754 568.28 655.744 547.758 783.222 505.938L783.785 505.75C810.485 496.996 838.097 487.914 864.485 477.655C895.04 465.748 925.149 453.04 957.026 439.571C1037.55 405.59 1120.85 370.432 1212.44 348.623C1237.28 342.732 1262.56 338.079 1288.15 334.691C1365.02 324.471 1445.39 325.734 1527.03 338.509C1597.98 349.597 1669.84 369.285 1740.57 397.028C1799.44 420.119 1858.96 449.444 1920 485.493V486.882C1858.49 450.456 1798.55 420.867 1739.26 397.616C1633.24 356.032 1469.02 311.498 1288.77 335.467C1263.31 338.846 1238.14 343.485 1213.42 349.356C1122.06 371.112 1038.86 406.24 958.415 440.188C926.525 453.648 896.405 466.36 865.819 478.272C839.376 488.579 811.727 497.647 785.003 506.416L784.434 506.603C656.656 548.52 549.354 569.095 436.52 573.323C337.113 577.044 239.315 565.489 161.136 540.783C104.101 522.763 55.2663 498.317 16.0089 468.124C10.5012 463.868 5.15267 459.553 -6.96096e-05 455.195V453.349Z" fill="url(#paint26_linear_950_2)"/>
<path d="M-6.96096e-05 462.802C38.4986 492.103 86.8314 515.628 143.756 532.703C224.419 556.913 323.894 566.743 423.846 560.384C535.554 553.273 642.703 529.387 771.283 482.929C796.183 473.934 824.401 463.738 850.587 452.775C876.363 441.991 901.729 430.74 928.588 418.832C1011.76 381.954 1097.76 343.817 1193.76 321.294C1218.71 315.457 1244.13 310.926 1269.84 307.734C1451.16 285.153 1615.15 334.079 1720.79 379.081C1791.74 409.336 1858.24 446.735 1920 486.125V487.644C1857.84 447.926 1790.88 410.145 1719.37 379.688C1614.12 334.855 1450.81 286.093 1270.45 308.548C1244.87 311.728 1219.59 316.237 1194.77 322.046C1099.03 344.511 1013.13 382.6 930.063 419.425C903.197 431.337 877.819 442.565 852.025 453.383C825.79 464.364 797.56 474.594 772.617 483.58C643.743 530.143 536.282 554.088 424.189 561.223C323.71 567.615 223.709 557.733 142.606 533.388C86.3052 516.486 38.364 493.313 0.0183072 464.514L-6.96096e-05 462.802Z" fill="url(#paint27_linear_950_2)"/>
<path d="M-6.96096e-05 470.323C34.8084 493.057 76.7952 511.506 125.232 525.303C208.814 549.118 310.443 557.284 411.387 548.293C522.691 538.382 630.005 511.135 759.343 459.944C787.126 448.948 812.119 438.949 836.695 427.919C857.845 418.432 879.594 408.275 900.627 398.455C986.216 358.501 1074.72 317.182 1175.09 293.975C1200.15 288.196 1225.69 283.791 1251.53 280.79C1433.28 259.69 1596.27 312.853 1701.01 361.181C1779.06 397.187 1851.01 441.866 1920 488.492V490.122C1850.54 443.119 1778.08 398.045 1699.48 361.76C1595.15 313.62 1432.88 260.654 1252.13 281.634C1226.44 284.615 1201.05 288.997 1176.13 294.746C1076.05 317.886 987.648 359.142 902.194 399.048C881.148 408.868 859.393 419.03 838.238 428.522C813.618 439.571 788.595 449.579 760.793 460.585C631.167 511.887 523.553 539.201 411.864 549.147C310.357 558.186 208.153 549.976 124.088 526.007C76.2139 512.369 34.6187 494.19 -6.96096e-05 471.889V470.323Z" fill="url(#paint28_linear_950_2)"/>
<path d="M-6.96096e-05 475.77C30.5981 492.86 66.3 506.975 106.702 517.894C193.246 541.279 297.023 547.782 398.933 536.213C510.194 523.563 617.667 492.956 747.41 436.968C770.469 427.013 797.218 415.366 822.804 403.073C839.272 395.153 856.211 386.803 872.581 378.762C960.587 335.438 1051.59 290.644 1156.42 266.665C1181.6 260.954 1207.27 256.674 1233.22 253.857C1310.27 245.546 1390.88 250.574 1472.8 268.801C1543.41 284.507 1613.55 309.565 1681.23 343.281C1767.24 386.095 1844.98 439.585 1920 492.05V493.785C1844.45 440.95 1766.2 386.957 1679.6 343.826C1576.31 292.384 1415.13 235.162 1233.8 254.72C1208.01 257.517 1182.51 261.772 1157.49 267.451C1053.01 291.348 962.123 336.079 874.239 379.341C857.863 387.401 840.93 395.731 824.444 403.656C798.827 415.964 772.06 427.625 748.976 437.585C618.959 493.694 511.192 524.358 399.545 537.066C297.041 548.722 192.64 542.181 105.57 518.651C65.6943 507.876 30.3962 494.002 0.00605601 477.25L-6.96096e-05 475.77Z" fill="url(#paint29_linear_950_2)"/>
<path d="M0.000117396 479.28C26.1432 491.695 55.5357 502.096 88.1779 510.484C176.405 533.079 285.126 538.04 386.474 524.098C498.065 508.744 605.697 474.772 735.471 413.954C765.628 399.815 788.277 388.785 808.906 378.189C821.072 371.922 833.538 365.447 845.624 359.166C935.583 312.318 1028.6 263.874 1137.78 239.327C1163.06 233.664 1188.84 229.513 1214.92 226.909C1292.03 219.167 1372.7 225.424 1454.72 245.502C1525.33 262.785 1594.86 289.646 1661.45 325.344C1736.5 365.578 1804.23 413.853 1869.73 460.537C1886.26 472.309 1903.01 484.24 1920 496.138V497.936C1902.35 485.59 1884.96 473.21 1867.82 460.995C1802.34 414.339 1734.67 366.093 1659.71 325.898C1576 281.007 1406.97 208.576 1215.48 227.805C1189.57 230.394 1163.95 234.523 1138.83 240.156C1030.08 264.617 937.186 312.988 847.35 359.764C835.288 366.031 822.816 372.539 810.632 378.791C789.984 389.397 767.317 400.436 737.135 414.585C607.099 475.529 499.173 509.583 387.196 524.98C285.236 539.009 175.83 534.01 87.0336 511.27C54.93 503.049 25.9147 492.85 -0.0121338 480.673L0.000117396 479.28Z" fill="url(#paint30_linear_950_2)"/>
<path d="M-6.96096e-05 481.044C22.3689 489.951 45.6711 497.321 69.6476 503.075C161.008 525.158 271.944 528.412 374.014 512.003C517.917 488.863 636.393 435.16 723.531 390.958C748.946 378.068 772.99 365.409 795.008 353.323C803.029 348.923 811.085 344.487 819.175 340.013C910.859 289.395 1005.67 237.075 1119.08 212.003C1144.48 206.391 1170.41 202.361 1196.62 199.951C1390.61 182.114 1558.72 259.632 1641.67 307.415C1705.38 344.11 1762.88 386.437 1818.49 427.374C1851.29 451.526 1884.86 476.228 1920 500.018V501.84C1884.13 477.631 1849.92 452.442 1816.49 427.837C1760.89 386.924 1703.46 344.622 1639.82 307.965C1557.2 260.379 1389.85 183.189 1197.15 200.886C1171.13 203.283 1145.39 207.287 1120.16 212.861C1007.19 237.832 912.53 290.08 820.992 340.611C812.902 345.075 804.847 349.511 796.826 353.921C774.795 366.011 750.727 378.685 725.3 391.58C637.985 435.873 519.245 489.687 374.852 512.904C272.134 529.42 160.475 526.142 68.5031 503.909C44.9338 498.249 22.0071 491.046 -0.0368233 482.374L-6.96096e-05 481.044Z" fill="url(#paint31_linear_950_2)"/>
<path d="M-6.96096e-05 481.444C110.765 518.911 252.827 519.822 361.56 499.893C523.67 470.178 659.012 399.93 781.123 328.443L793.27 321.323C906.9 254.71 1024.39 185.817 1178.3 172.993C1255.75 166.543 1336.63 175.307 1418.69 199.025C1488.51 219.239 1558.77 250.53 1621.89 289.487C1677.05 323.565 1726.77 361.692 1774.82 398.561C1820.64 433.719 1867.8 469.874 1920 502.756V504.545C1866.95 471.282 1819.16 434.644 1772.74 399.024C1724.72 362.174 1675.06 324.071 1619.93 290.031C1556.99 251.162 1486.95 219.986 1417.37 199.859C1335.86 176.286 1255.6 167.56 1178.81 173.972C1025.82 186.723 908.558 255.443 795.198 321.925L783.044 329.051C660.762 400.648 525.169 471.012 362.552 500.823C279.325 516.076 188.142 518.178 105.864 506.729C67.2731 501.363 31.7792 493.231 -0.00619523 482.591L-6.96096e-05 481.444Z" fill="url(#paint32_linear_950_2)"/>
<path d="M0.000117396 458.685C112.504 498.856 261.431 500.076 373.665 479.79C452.792 465.535 531.889 441.147 615.471 405.276C683.399 376.27 746.523 342.746 793.956 316.777L806.874 309.695C859.503 280.8 913.968 250.921 972.753 226.296C1047.3 194.822 1118.16 176.956 1189.35 171.682C1279.81 164.933 1374.69 178.378 1471.34 211.598C1526.81 230.606 1580.81 255.351 1631.83 285.148C1687.39 317.538 1737.71 353.569 1786.39 388.403C1828.95 418.866 1872.65 450.109 1920 479.033V480.774C1871.84 451.497 1827.51 419.791 1784.35 388.885C1735.7 354.08 1685.4 318.078 1629.93 285.721C1579.04 255.982 1525.2 231.315 1469.89 212.393C1373.81 179.366 1279.57 166.008 1189.84 172.694C1119.14 177.93 1048.69 195.709 974.479 227.039C915.816 251.624 861.413 281.46 808.796 310.331L795.822 317.413C748.346 343.402 685.136 376.959 617.129 405.999C533.327 441.943 453.992 466.379 374.583 480.721C292.09 495.626 201.856 498.075 120.514 487.629C75.9693 481.907 35.4511 472.569 -0.0427619 459.987L0.000117396 458.685Z" fill="url(#paint33_linear_950_2)"/>
<path d="M-6.96096e-05 436.312C112.981 479.395 266.204 480.972 385.77 459.678C463.96 445.79 543.044 422.414 627.532 388.211C695.13 361.065 756.081 330.979 806.795 305.135L816.684 300.088C870.427 272.638 926.005 244.264 985.531 220.849C1061.35 191.023 1129.63 175.004 1200.4 170.434C1289.23 164.615 1383.37 177.973 1480.21 210.137C1536.05 228.688 1590.41 252.468 1641.76 280.814C1697.55 311.479 1748.41 345.359 1797.61 378.121C1836.89 404.312 1877.13 431.096 1920 456.299V457.986C1876.37 432.436 1835.49 405.223 1795.59 378.642C1746.43 345.894 1695.61 312.038 1639.88 281.407C1588.65 253.129 1534.46 229.411 1478.77 210.914C1382.49 178.933 1288.98 165.647 1200.83 171.417C1130.52 175.958 1062.64 191.901 987.165 221.606C927.756 244.972 872.232 273.333 818.532 300.753L808.643 305.8C757.887 331.668 696.874 361.779 629.197 388.963C544.501 423.243 465.19 446.682 386.737 460.619C304.978 475.182 215.674 477.973 135.281 468.529C84.6162 462.566 39.0187 452.023 -6.96096e-05 437.426V436.312Z" fill="url(#paint34_linear_950_2)"/>
<path d="M-6.96096e-05 413.655C114.143 459.413 274.576 461.192 397.874 439.561C475.135 426.063 551.942 404.317 639.6 371.107C709.235 344.737 772.396 315.75 819.652 293.445L827.755 289.588C882.146 263.855 938.385 237.244 998.303 215.349C1074.03 187.649 1141.75 172.96 1211.44 169.127C1298.82 164.21 1392.22 177.501 1489.06 208.624C1545.96 226.993 1600.43 249.711 1651.7 276.451C1707.54 305.362 1758.77 337.048 1808.32 367.674C1844.42 389.994 1881.26 412.792 1920 434.519V436.158C1880.54 414.098 1843.05 390.915 1806.36 368.219C1756.84 337.612 1705.65 305.969 1649.85 277.093C1598.72 250.415 1544.38 227.754 1487.63 209.433C1391.32 178.479 1298.53 165.261 1211.79 170.14C1142.58 173.943 1075.24 188.56 999.875 216.129C940.068 238.011 883.878 264.597 829.535 290.306L821.433 294.163C774.146 316.488 710.918 345.504 641.204 371.902C553.356 405.165 476.34 426.96 398.829 440.506C317.805 454.723 229.425 457.885 149.986 449.405C93.0245 443.331 42.2805 431.602 -6.96096e-05 414.937V413.655Z" fill="url(#paint35_linear_950_2)"/>
<path d="M-0.00175649 391.065C102.331 433.718 259.697 445.409 409.977 419.444C485.592 406.452 562.356 385.67 651.654 354.046C721.944 329.142 785.215 302.353 832.483 281.802L838.126 279.349C893.368 255.269 950.488 230.375 1011.07 209.896C1086.7 184.346 1153.87 170.969 1222.46 167.869C1308.36 163.848 1401.05 177.067 1497.9 207.143C1553.58 224.436 1608.66 246.298 1661.62 272.127C1716.78 299.017 1767.82 328.226 1817.18 356.49C1850.58 375.6 1884.62 395.056 1919.99 413.828V415.4C1883.92 396.329 1849.27 376.501 1815.27 357.069C1765.94 328.838 1714.91 299.649 1659.83 272.783C1606.98 247.011 1552.03 225.197 1496.52 207.953C1400.16 178.021 1308.03 164.866 1222.78 168.862C1154.65 171.938 1087.86 185.252 1012.58 210.677C952.122 231.117 895.051 255.992 839.864 280.048L834.221 282.506C786.904 303.076 723.609 329.88 653.233 354.813C563.776 386.504 486.779 407.335 410.944 420.375C330.655 434.244 243.205 437.753 164.696 430.257C101.266 424.202 45.302 411.331 0.022746 392.559L-0.00175649 391.065Z" fill="url(#paint36_linear_950_2)"/>
<path d="M-6.96096e-05 368.966C102.345 414.146 263.787 426.242 422.084 399.337C496.743 386.716 571.293 367.482 663.718 336.966C719.088 318.681 775.095 298.073 845.342 270.146L847.545 269.264C903.944 246.77 962.276 223.534 1023.85 204.415C1099.17 181.059 1165.82 169.041 1233.51 166.587C1318.14 163.526 1410.07 176.672 1506.75 205.669C1562.44 222.368 1617.89 243.27 1671.55 267.803C1726.11 292.741 1776.93 319.578 1826.08 345.533C1857.76 362.266 1888.6 378.54 1920 394.189V395.722C1887.96 379.813 1856.53 363.206 1824.23 346.145C1775.11 320.205 1724.31 293.382 1669.82 268.473C1616.28 243.998 1560.95 223.158 1505.39 206.478C1409.2 177.626 1317.82 164.538 1233.77 167.585C1166.5 170.024 1100.26 181.975 1025.31 205.215C963.837 224.277 905.572 247.513 849.228 269.982L847.019 270.864C776.729 298.825 720.667 319.443 665.266 337.742C572.663 368.32 497.967 387.599 423.069 400.248C343.514 413.775 256.988 417.632 179.409 411.114C109.309 405.218 48.0206 391.248 0.0549115 370.379L-6.96096e-05 368.966Z" fill="url(#paint37_linear_950_2)"/>
<path d="M0.000117396 347.022C101.439 393.938 270.176 406.645 434.188 379.215C526.815 363.842 611.958 339.43 675.78 319.877C731.707 302.744 787.971 283.808 858.2 258.475C912.267 238.898 973.549 216.713 1036.63 198.939C1111.86 177.727 1177.93 167.049 1244.56 165.309C1327.68 163.13 1418.88 176.209 1515.6 204.174C1572.64 220.759 1628.08 240.576 1681.48 263.469C1735.03 286.363 1785.26 310.756 1833.83 334.334C1862.92 348.464 1891.32 362.256 1920 375.571V377.046C1890.71 363.471 1861.73 349.399 1832.04 334.98C1783.5 311.402 1733.3 287.028 1679.8 264.154C1626.51 241.309 1571.19 221.537 1514.27 204.994C1418 177.159 1327.32 164.143 1244.75 166.302C1178.56 168.033 1112.85 178.667 1037.97 199.768C975.011 217.513 913.785 239.674 859.76 259.232C789.482 284.584 733.176 303.539 677.193 320.687C613.261 340.273 527.966 364.729 435.094 380.141C271.088 407.571 102.296 395.056 -0.0121338 348.483L0.000117396 347.022Z" fill="url(#paint38_linear_950_2)"/>
<path d="M-6.96096e-05 325.498C2.16016 326.51 4.36931 327.537 6.68253 328.588C107.479 374.462 280.035 386.437 446.293 359.099C534.275 344.762 614.381 323.565 687.847 302.797C744.393 286.811 800.895 269.534 871.057 246.809C933.031 226.639 989.227 208.725 1049.41 193.463C1124.59 174.425 1190.1 165.073 1255.6 164.027C1338.32 162.711 1426.26 175.356 1524.45 202.685C1581.58 218.669 1637.34 237.523 1691.41 259.131C1743.42 279.86 1792.58 301.727 1840.11 322.866C1867.07 334.894 1893.48 346.622 1920 358.033V359.436C1892.91 347.813 1865.93 335.814 1838.38 323.56C1790.88 302.411 1741.78 280.564 1689.79 259.844C1635.84 238.279 1580.18 219.462 1523.17 203.509C1425.42 176.301 1337.94 163.714 1255.74 165.025C1190.66 166.061 1125.49 175.37 1050.67 194.316C990.586 209.53 934.45 227.449 872.532 247.599C802.327 270.349 745.788 287.612 689.2 303.626C615.623 324.423 535.383 345.653 447.193 360.029C367.998 373.045 285.506 377.475 208.649 372.823C127.184 367.896 56.7472 352.832 4.9445 329.258C3.24732 328.484 1.59715 327.724 -0.00619523 326.978L-6.96096e-05 325.498Z" fill="url(#paint39_linear_950_2)"/>
<path d="M-6.96096e-05 304.947C6.46227 307.839 13.7385 310.958 22.2754 314.444C125.085 356.428 292.219 365.833 458.398 338.981C545.297 325.078 625.366 305.043 699.915 285.712C756.461 271.047 814.964 254.98 883.933 235.138C939.885 218.964 999.747 202 1062.2 187.981C1138.39 170.887 1201.44 163.106 1266.64 162.749C1347.73 162.311 1434.96 174.878 1533.29 201.195C1590.53 216.585 1646.62 234.478 1701.33 254.792C1751.1 273.236 1798.48 292.471 1844.28 311.036C1869.82 321.395 1894.91 331.577 1920 341.474V342.823C1894.37 332.724 1868.76 322.359 1842.65 311.754C1796.87 293.179 1749.54 273.969 1699.78 255.539C1645.17 235.262 1589.18 217.398 1532.05 202.029C1434.1 175.809 1347.34 163.304 1266.72 163.757C1201.92 164.114 1139.21 171.861 1063.37 188.878C1001.01 202.858 941.213 219.817 885.285 235.981C816.256 255.828 757.758 271.906 701.182 286.599C626.522 305.954 546.355 326.018 459.273 339.955C380.831 352.624 299.214 357.382 223.244 353.709C142.881 349.818 72.8175 336.499 20.6231 315.186C12.8022 311.995 6.03388 309.126 -0.0184465 306.427L-6.96096e-05 304.947Z" fill="url(#paint40_linear_950_2)"/>
<path d="M-6.96096e-05 285.5C12.0373 290.803 25.3107 295.749 37.8559 300.295C141.119 337.709 306.9 344.824 470.514 318.869C556.189 305.424 635.396 286.715 712.008 268.628C769.887 254.961 828.611 240.614 896.821 223.472C952.473 209.4 1012.58 194.697 1075.02 182.495C1151.23 167.614 1213.73 161.135 1277.68 161.467C1357.07 161.882 1443.57 174.387 1542.14 199.705C1597.83 214.009 1654.74 231.084 1711.25 250.453C1757.83 266.439 1802.43 282.854 1845.57 298.738C1870.69 307.999 1895.37 317.091 1920 325.941V327.238C1894.85 318.209 1869.67 308.919 1844.03 299.49C1800.9 283.582 1756.3 267.191 1709.77 251.22C1653.35 231.879 1596.55 214.828 1540.94 200.549C1442.75 175.332 1356.64 162.875 1277.71 162.465C1214.12 162.133 1151.94 168.592 1076.05 183.411C1013.71 195.584 953.654 210.272 898.057 224.33C829.835 241.472 771.093 255.833 713.207 269.495C636.522 287.607 557.224 306.331 471.396 319.8C306.979 345.885 140.274 338.702 36.3383 301.047C24.3254 296.708 11.664 291.974 0.0121816 286.913L-6.96096e-05 285.5Z" fill="url(#paint41_linear_950_2)"/>
<path d="M-6.96096e-05 267.307C4.85076 269.277 9.80156 271.221 14.8523 273.14C26.4796 277.551 39.2084 281.639 53.4365 286.156C157.048 319.014 321.477 323.844 482.607 298.757C557.56 287.221 628.658 271.988 697.406 257.251L724.063 251.548C793.307 236.786 854.026 223.79 909.678 211.81C957.485 201.446 1020.93 188.126 1087.8 177.033C1139.18 168.51 1208.44 158.898 1288.72 160.194C1366.3 161.438 1452.09 173.881 1550.99 198.211C1606.59 211.892 1663.84 228.008 1721.15 246.115C1763.03 259.343 1803.49 272.802 1842.6 285.818C1868.72 294.496 1894.4 303.048 1920 311.368V312.617C1893.92 304.152 1867.77 295.45 1841.16 286.585C1802.05 273.569 1761.61 260.119 1719.76 246.896C1662.52 228.813 1605.32 212.721 1549.82 199.059C1451.3 174.811 1365.86 162.422 1288.69 161.173C1208.85 159.886 1139.89 169.46 1088.73 177.944C1021.95 189.032 958.568 202.328 910.81 212.683C855.122 224.662 794.433 237.664 725.183 252.425C716.334 254.311 707.451 256.212 698.532 258.128C629.717 272.884 558.558 288.132 483.476 299.702C321.618 324.905 156.296 320.021 52.0414 286.956C37.7642 282.429 24.9925 278.322 13.2918 273.887C8.77548 272.176 4.36324 270.44 0.00605601 268.681L-6.96096e-05 267.307Z" fill="url(#paint42_linear_950_2)"/>
<path d="M-6.96096e-05 250.675C9.63224 254.146 19.5031 257.53 29.7474 260.799C40.7628 264.308 52.4329 267.49 64.8069 270.855L69.005 272.002C172.868 300.329 335.986 302.855 494.718 278.63C559.053 268.926 620.905 256.86 680.755 245.184C698.991 241.626 717.852 237.953 736.18 234.458C806.507 221.061 869.888 209.593 922.603 200.139C988.738 188.164 1045.31 179.082 1100.65 171.547C1152.16 164.533 1221.35 156.762 1299.81 158.902C1376.48 160.999 1459.12 173.013 1559.89 196.716C1615.34 209.761 1672.96 224.923 1731.13 241.776C1766.05 251.899 1800.14 262.081 1833.11 271.939C1862.41 280.718 1891.24 289.342 1920 297.711V298.916C1890.81 290.417 1861.51 281.663 1831.71 272.749C1798.75 262.896 1764.67 252.709 1729.76 242.595C1671.62 225.761 1614.1 210.619 1558.71 197.589C1458.29 173.967 1375.98 161.988 1299.68 159.905C1221.61 157.77 1152.71 165.517 1101.4 172.502C1046.13 180.027 989.619 189.1 923.551 201.06C870.843 210.509 807.48 221.977 737.172 235.369C718.856 238.859 700.001 242.538 681.764 246.095C621.902 257.776 559.984 269.857 495.568 279.575C336.158 303.915 172.225 301.336 67.7443 272.826L63.5462 271.684C51.1294 268.309 39.4043 265.113 28.3339 261.56C18.5853 258.446 9.17939 255.235 -6.96096e-05 251.919V250.675Z" fill="url(#paint43_linear_950_2)"/>
<path d="M-6.96096e-05 235.711C14.4117 240.146 29.1906 244.389 44.6243 248.462C54.2994 250.998 64.4335 253.283 75.1674 255.722C78.2721 256.426 81.4033 257.138 84.5611 257.858C190.119 282.048 347.975 282.294 506.816 258.523C560.559 250.583 612.882 241.241 663.479 232.211C692.7 226.995 720.306 222.088 748.218 217.378C821.353 205.095 886.699 195.482 935.479 188.453C995.72 179.699 1053.93 172.371 1113.44 166.051C1168.37 160.223 1234.77 154.66 1310.83 157.605C1385.34 160.498 1467.28 172.439 1568.69 195.207C1623.81 207.626 1681.77 221.803 1740.99 237.442C1765.36 243.878 1789.47 250.328 1812.78 256.561C1849.01 266.26 1884.57 275.762 1920 284.926V286.083C1884.16 276.823 1848.19 267.21 1811.53 257.4C1788.23 251.162 1764.12 244.716 1739.76 238.281C1680.58 222.657 1622.66 208.464 1567.6 196.104C1466.48 173.398 1384.84 161.496 1310.66 158.623C1234.96 155.687 1168.8 161.231 1114.06 167.045C1054.62 173.355 996.473 180.673 936.292 189.422C887.556 196.422 822.241 206.03 749.154 218.304C721.267 222.989 693.673 227.916 664.464 233.127C613.824 242.166 561.471 251.514 507.661 259.463C432.212 270.753 353.923 276.818 281.234 277.035C205.045 277.252 136.645 270.922 83.4411 258.716C80.2915 257.993 77.1625 257.282 74.0537 256.585C63.2892 254.146 53.1183 251.841 43.382 249.291C28.3766 245.353 14.0078 241.212 -0.0184465 236.916L-6.96096e-05 235.711Z" fill="url(#paint44_linear_950_2)"/>
<path d="M-6.96096e-05 222.406C19.2401 227.256 38.878 231.84 59.495 236.126C68.0625 237.905 76.9116 239.501 86.293 241.198C90.8337 242.017 95.4723 242.846 100.111 243.714C205.142 263.277 361.707 261.295 518.927 238.411C561.501 232.212 603.482 225.323 644.055 218.665C684.206 212.075 722.136 205.857 760.292 200.298C834.474 189.495 899.764 182.076 948.348 176.816C1002.87 170.824 1059.4 165.676 1126.23 160.604C1181.51 156.41 1248.01 152.626 1321.84 156.352C1394.93 160.035 1473.77 171.567 1577.53 193.742C1632.61 205.505 1689.3 218.381 1750.9 233.103L1773.13 238.43C1822.88 250.328 1871.53 261.956 1920 272.971V274.089C1871.15 263.002 1822.13 251.283 1772.01 239.288L1749.76 233.986C1688.19 219.253 1631.51 206.382 1576.49 194.61C1472.99 172.497 1394.39 160.995 1321.63 157.326C1248.09 153.619 1181.84 157.389 1126.72 161.573C1059.95 166.635 1003.49 171.784 949.021 177.766C900.468 183.021 835.239 190.43 761.148 201.224C723.041 206.777 685.13 212.996 644.998 219.576C604.382 226.239 562.382 233.132 519.759 239.342C361.989 262.312 204.775 264.284 99.1992 244.644C94.5483 243.777 89.9403 242.947 85.4057 242.128C75.9998 240.431 67.1018 238.826 58.4792 237.037C38.2232 232.824 18.9157 228.326 -6.96096e-05 223.573V222.406Z" fill="url(#paint45_linear_950_2)"/>
<path d="M0.00268224 210.716C25.3441 215.691 49.3637 219.875 74.3563 223.794C81.9753 224.98 89.79 226.036 98.0577 227.169C103.816 227.94 109.685 228.736 115.658 229.579C220.304 244.658 375.565 240.44 531.034 218.294C562.483 213.815 593.816 209.043 624.114 204.425C675.415 196.605 723.864 189.22 772.405 183.213C847.438 173.943 912.759 168.688 961.282 165.155C1017.26 160.975 1072.84 158.126 1139.08 155.128C1197.73 152.476 1261.8 150.63 1332.92 155.07C1422.29 160.647 1511.21 176.995 1586.38 192.247C1639.33 202.993 1694.76 214.596 1760.79 228.769C1813.86 240.156 1866.66 251.316 1919.98 261.84V262.929C1866.29 252.323 1813.16 241.115 1759.75 229.666C1693.71 215.498 1638.3 203.894 1585.34 193.154C1510.32 177.935 1421.63 161.626 1332.6 156.068C1261.75 151.647 1197.85 153.489 1139.36 156.135C1073.17 159.129 1017.64 161.978 961.722 166.148C913.255 169.681 848.019 174.926 773.097 184.182C724.629 190.174 676.211 197.55 624.952 205.365C594.636 209.983 563.291 214.76 531.818 219.244C375.871 241.458 220.016 245.671 114.905 230.524C108.957 229.666 103.094 228.88 97.3538 228.114C89.0556 226.995 81.2164 225.944 73.5423 224.739C48.8129 220.883 25.0259 216.722 -0.0218202 211.815L0.00268224 210.716Z" fill="url(#paint46_linear_950_2)"/>
<path d="M-6.96096e-05 200.457C29.0805 204.593 58.2344 208.17 89.1937 211.468C96.0171 212.191 102.957 212.813 110.294 213.468C117.062 214.076 124.063 214.702 131.187 215.435C234.994 226.089 388.989 219.639 543.136 198.177C563.276 195.371 583.526 192.469 603.109 189.663C665.927 180.663 725.257 172.164 784.501 166.138C843.629 160.127 902.139 156.227 974.21 153.503C1027.08 151.416 1078.62 150.693 1133.18 149.931L1151.92 149.666C1207.42 148.87 1272.61 148.47 1343.98 153.797C1428.56 160.107 1514.71 175.293 1595.24 190.758L1642.15 199.777C1687.03 208.406 1729.42 216.558 1770.73 224.435C1824.44 234.68 1873.69 243.583 1920 251.403V252.458C1873.42 244.601 1823.86 235.644 1769.77 225.332C1728.46 217.455 1686.06 209.303 1641.18 200.669L1594.27 191.654C1513.9 176.228 1427.91 161.057 1343.6 154.766C1272.46 149.463 1207.42 149.859 1152.05 150.654L1133.31 150.914C1078.78 151.681 1027.29 152.399 974.479 154.486C902.53 157.205 844.131 161.096 785.113 167.098C725.973 173.109 666.692 181.608 603.929 190.599C584.346 193.404 564.096 196.306 543.956 199.112C389.411 220.632 234.915 227.072 130.691 216.394C123.611 215.667 116.616 215.04 109.884 214.432C102.541 213.772 95.5642 213.15 88.6979 212.422C57.9284 209.163 28.9336 205.596 0.0366841 201.494L-6.96096e-05 200.457Z" fill="url(#paint47_linear_950_2)"/>
<path d="M-6.96096e-05 191.549C31.7486 194.441 65.4066 196.9 104.034 199.142C110.153 199.498 116.334 199.783 122.87 200.106C130.575 200.458 138.549 200.819 146.737 201.325C250.569 207.742 399.478 199.272 555.265 178.084L580.925 174.585C655.664 164.365 726.26 154.714 796.599 149.083C856.272 144.31 915.033 142.088 987.128 141.876C1031.59 141.673 1074.55 142.507 1120.02 143.394C1134.76 143.679 1149.65 143.968 1164.76 144.224C1226.81 145.279 1288.06 146.706 1355.03 152.544C1437.39 159.722 1523.23 174.633 1604.1 189.293C1665.68 200.458 1725.08 210.832 1780.66 220.145C1828.7 228.143 1874.94 235.302 1920 241.675V242.716C1874.67 236.314 1828.16 229.117 1779.77 221.023C1724.18 211.728 1664.76 201.349 1603.16 190.17C1522.38 175.529 1436.71 160.638 1354.58 153.479C1287.77 147.656 1226.64 146.248 1164.69 145.183C1149.57 144.927 1134.7 144.638 1119.94 144.349C1074.5 143.467 1031.58 142.628 987.183 142.83C915.229 143.042 856.596 145.241 797.071 150.023C726.878 155.644 656.35 165.285 581.659 175.491C573.133 176.658 564.58 177.826 556 178.996C399.876 200.207 250.581 208.711 146.4 202.27C138.279 201.788 130.33 201.407 122.65 201.055C116.096 200.756 109.903 200.472 103.746 200.115C65.2353 197.878 31.6568 195.444 -0.0184465 192.547L-6.96096e-05 191.549Z" fill="url(#paint48_linear_950_2)"/>
<path d="M-6.96096e-05 183.835C37.4582 185.518 75.4184 186.299 118.88 186.829C124.388 186.896 130.024 186.911 135.764 186.925C144.332 186.949 153.132 186.973 162.238 187.171C264.252 189.369 411.919 178.72 567.358 157.943C646.778 147.477 728.916 136.654 808.674 131.983C868.86 128.459 927.878 127.91 1000.03 130.2C1039.81 131.405 1078.07 133.473 1118.56 135.657C1137.73 136.693 1157.56 137.768 1177.57 138.737L1184.46 139.074C1241.57 141.837 1300.63 144.7 1366.06 151.242C1444.89 159.124 1526.94 173.119 1606.29 186.65L1612.91 187.778C1672.54 197.945 1732.3 207.36 1790.52 215.768C1834.23 222.088 1877.2 227.68 1920 232.631V233.658C1876.95 228.687 1833.75 223.052 1789.79 216.708C1731.52 208.296 1671.73 198.871 1612.05 188.699L1605.45 187.571C1526.19 174.073 1444.23 160.093 1365.56 152.211C1300.27 145.684 1241.28 142.825 1184.24 140.063L1177.35 139.73C1157.32 138.766 1137.49 137.681 1118.3 136.645C1077.85 134.461 1039.65 132.393 999.9 131.193C927.927 128.908 869.068 129.457 809.053 132.971C729.498 137.628 647.445 148.441 568.117 158.893C412.421 179.704 264.46 190.372 162.176 188.164C153.119 187.971 144.319 187.947 135.807 187.923C130.048 187.923 124.406 187.889 118.874 187.822C75.4245 187.296 37.4827 186.515 0.00605601 184.838L-6.96096e-05 183.835Z" fill="url(#paint49_linear_950_2)"/>
<path d="M-6.96096e-05 177.163C47.678 177.26 92.6696 175.828 133.726 174.517C138.695 174.358 143.738 174.165 148.866 173.962C158.168 173.601 167.788 173.225 177.763 173.046C276.143 171.268 418.803 158.763 579.456 137.855C653.314 128.363 738.952 117.979 820.76 114.932C881.436 112.671 940.705 113.795 1012.92 118.577C1049.9 120.987 1085.27 124.13 1122.72 127.471C1144.68 129.428 1167.39 131.453 1190.37 133.304C1199.68 134.053 1209.11 134.802 1218.67 135.551C1268.85 139.513 1320.68 143.606 1377.08 150.013C1443.18 157.49 1512.27 168.66 1579.08 179.468C1593.29 181.762 1607.51 184.051 1621.73 186.332C1680.73 195.752 1740.84 204.213 1800.42 211.477C1840.05 216.269 1879.74 220.497 1920 224.161V225.178C1879.53 221.495 1839.63 217.253 1799.8 212.389C1740.18 205.119 1680.01 196.649 1620.94 187.219C1606.72 184.947 1592.51 182.657 1578.29 180.35C1511.54 169.556 1442.52 158.391 1376.53 150.943C1320.23 144.57 1268.41 140.478 1218.3 136.52C1208.73 135.768 1199.29 135.019 1189.99 134.273C1166.98 132.417 1144.26 130.393 1122.3 128.435C1084.88 125.099 1049.54 121.947 1012.62 119.551C940.588 114.783 881.497 113.66 821.023 115.916C739.442 118.953 653.957 129.318 580.209 138.795C419.36 159.751 276.497 172.275 177.922 174.054C167.996 174.232 158.407 174.608 149.16 174.97C144.02 175.168 138.965 175.365 133.989 175.524C92.8654 176.84 47.8066 178.272 0.0244329 178.176L-6.96096e-05 177.163Z" fill="url(#paint50_linear_950_2)"/>
<path d="M0.000117396 171.47C48.1678 169.672 94.1446 166.249 142.104 162.682L148.585 162.2C153.028 161.879 157.516 161.528 162.048 161.149C172.091 160.354 182.469 159.529 193.258 158.907C313.118 152.057 477.962 132.109 591.53 117.7C663.987 108.627 749.319 99.1688 832.816 97.819C894.012 96.8308 953.513 99.6268 1025.8 106.896C1061.04 110.392 1094.62 114.576 1130.17 119.006C1153.85 121.956 1178.34 125.008 1203.18 127.809C1221.46 129.872 1239.99 131.868 1259.61 133.979C1300.61 138.4 1343.02 142.965 1388.12 148.678C1440.4 155.297 1495.08 163.834 1547.95 172.087C1574.99 176.31 1602.95 180.678 1630.57 184.785C1689.31 193.525 1749.77 201.031 1810.29 207.091C1846.48 210.726 1882.82 213.782 1920 216.303V217.306C1882.67 214.77 1846.15 211.699 1809.81 208.065C1749.23 201.995 1688.64 194.48 1629.84 185.725C1602.21 181.618 1574.24 177.25 1547.22 173.027C1494.38 164.774 1439.74 156.246 1387.54 149.637C1342.47 143.939 1300.08 139.374 1259.08 134.958C1239.45 132.847 1220.91 130.846 1202.61 128.783C1177.75 125.977 1153.24 122.925 1129.54 119.975C1094.05 115.55 1060.48 111.37 1025.31 107.88C953.238 100.649 893.914 97.8431 832.969 98.8265C749.741 100.176 664.581 109.615 592.265 118.669C478.623 133.088 313.662 153.05 193.638 159.91C182.885 160.527 172.537 161.356 162.532 162.142C157.966 162.505 153.462 162.856 149.019 163.193L142.539 163.675C94.4322 167.257 48.2963 170.689 -0.0488875 172.488L0.000117396 171.47Z" fill="url(#paint51_linear_950_2)"/>
<path d="M-6.96096e-05 166.649C51.1418 162.894 99.4685 157.321 150.004 151.483L163.468 149.931C167.388 149.478 171.348 149.012 175.346 148.533C186.104 147.255 197.236 145.939 208.851 144.826C291.074 136.949 391.32 124.309 497.447 110.921C532.329 106.52 568.398 101.974 603.69 97.6162C701.898 85.6463 776.307 80.4543 844.963 80.7773C906.624 81.0666 966.395 85.5451 1038.77 95.2926C1072.89 99.8434 1106.82 105.276 1139.64 110.531C1164.41 114.498 1190.04 118.601 1216.05 122.385C1246.89 126.868 1279.04 131.169 1313.09 135.719C1340.86 139.431 1369.56 143.269 1399.22 147.434C1436.03 152.587 1472.7 158.256 1511.52 164.239C1553.27 170.694 1596.45 177.366 1639.42 183.295C1698.04 191.385 1758.86 197.931 1820.2 202.757C1854 205.427 1887.26 207.494 1920 208.956V209.954C1887.18 208.447 1853.79 206.385 1819.82 203.769C1758.38 198.948 1697.43 192.373 1638.73 184.269C1595.71 178.32 1552.52 171.644 1510.74 165.203C1471.94 159.206 1435.29 153.542 1398.49 148.374C1368.85 144.209 1340.15 140.376 1312.4 136.664C1278.34 132.113 1246.17 127.809 1215.3 123.32C1189.25 119.531 1163.61 115.429 1138.8 111.457C1106.02 106.207 1072.1 100.779 1038.06 96.2327C965.93 86.5188 906.374 82.0597 844.963 81.7704C776.552 81.4474 702.375 86.6297 604.382 98.5707C569.102 102.909 533.033 107.47 498.151 111.871C391.987 125.263 291.705 137.903 209.402 145.79C197.848 146.899 186.759 148.2 176.013 149.487C172.011 149.966 168.047 150.432 164.123 150.885L150.659 152.438C99.9091 158.3 51.3926 163.897 -0.0245721 167.662L-6.96096e-05 166.649Z" fill="url(#paint52_linear_950_2)"/>
<path d="M-6.96096e-05 162.537C55.7866 156.588 107.92 148.518 162.586 140.048L178.351 137.609L188.436 136.038C199.99 134.23 211.935 132.359 224.395 130.691C262.985 125.528 305.462 119.507 350.429 113.129C432.585 101.482 525.701 88.2832 615.795 77.4848C710.264 66.2862 786.918 61.9041 857.055 63.6878C919.188 65.2642 979.21 71.401 1051.66 83.6312C1085.12 89.2426 1118.32 95.7361 1150.41 102.018C1175.86 106.997 1202.17 112.141 1228.87 116.914C1279.47 125.948 1334.49 134.442 1392.73 143.428L1410.23 146.142C1429.2 149.078 1448.82 152.177 1467.76 155.176C1526.44 164.451 1587.09 174.039 1648.29 181.82C1706.86 189.268 1768.04 194.865 1830.11 198.466C1860.36 200.198 1890.33 201.425 1920 202.144V203.142C1890.25 202.387 1860.19 201.15 1829.83 199.43C1767.65 195.844 1706.34 190.237 1647.62 182.775C1586.36 174.984 1525.68 165.386 1467 156.106C1448.03 153.108 1428.45 150.008 1409.48 147.072L1391.94 144.368C1333.67 135.367 1278.63 126.873 1227.97 117.854C1201.23 113.081 1174.9 107.928 1149.44 102.943C1117.37 96.6761 1084.21 90.1778 1050.8 84.5809C978.591 72.4085 918.809 66.2621 856.945 64.705C787.083 62.9261 710.686 67.2985 616.443 78.4634C526.405 89.257 433.319 102.456 351.188 114.098C306.208 120.476 263.72 126.497 225.123 131.665C212.712 133.323 200.791 135.189 189.268 136.997L179.171 138.573L163.431 141.008C108.489 149.521 56.1109 157.625 -0.0245721 163.593L-6.96096e-05 162.537Z" fill="url(#paint53_linear_950_2)"/>
<path d="M-6.96096e-05 159.124C62.2183 150.553 121.297 139.176 178.626 128.127L201.097 123.788C213.581 121.378 226.488 118.876 239.927 116.557L252.251 114.445C360.642 95.8615 495.532 72.7364 627.887 57.3485C720.373 46.7188 797.046 43.3009 869.123 46.6127C931.733 49.5052 992 57.3196 1064.54 71.9988C1097.67 78.6707 1130.46 86.2586 1162.16 93.5909C1187.96 99.5638 1214.64 105.734 1241.67 111.461C1290.56 121.816 1345.98 132.123 1421.3 144.864C1489.13 156.338 1573.55 170.617 1657.11 180.331C1715.74 187.147 1777.28 191.785 1840 194.118C1866.85 195.117 1893.52 195.678 1920 195.8V196.798C1893.48 196.638 1866.76 196.075 1839.83 195.111C1776.95 192.773 1715.27 188.121 1656.5 181.29C1572.81 171.562 1488.33 157.273 1420.44 145.79C1345.03 133.034 1289.57 122.723 1240.62 112.348C1213.55 106.612 1186.85 100.436 1161.06 94.4635C1129.39 87.1359 1096.63 79.5577 1063.56 72.8906C991.277 58.2645 931.256 50.4693 868.952 47.6058C797.162 44.3084 720.783 47.7119 628.597 58.3272C496.376 73.7005 361.554 96.816 253.225 115.39L240.899 117.502C227.51 119.796 214.622 122.289 202.162 124.699L179.685 129.038C122.056 140.126 62.6589 151.584 0.0305585 160.185L-6.96096e-05 159.124Z" fill="url(#paint54_linear_950_2)"/>
<path d="M-6.96096e-05 156.347C69.1519 144.845 134.516 129.877 197.842 115.371L213 111.9C226.678 108.767 240.82 105.527 255.489 102.471C362.044 80.2663 502.043 52.788 639.992 37.2508C729.577 27.2429 808.484 24.7168 881.216 29.5376C944.285 33.7172 1004.8 43.2237 1077.42 60.3566C1110.47 68.1277 1143.08 76.8387 1174.63 85.2654C1200.56 92.188 1227.37 99.3468 1254.47 105.995C1307.35 118.987 1365.53 131.275 1432.34 143.572C1495.3 155.176 1578.71 169.648 1665.94 178.841C1724.62 185.026 1786.5 188.709 1849.91 189.794C1873.38 190.195 1896.75 190.24 1920 189.929V190.926C1896.75 191.209 1873.36 191.163 1849.86 190.787C1786.3 189.702 1724.25 186.009 1665.41 179.81C1578 170.597 1494.45 156.101 1431.43 144.503C1364.53 132.191 1306.27 119.888 1253.31 106.872C1226.17 100.205 1199.34 93.0413 1173.39 86.109C1141.87 77.692 1109.28 68.9906 1076.29 61.2292C1003.93 44.1589 943.667 34.7151 880.898 30.5355C808.502 25.7147 729.914 28.2504 640.653 38.2198C502.906 53.7329 363.041 81.1822 256.584 103.367C241.952 106.414 227.822 109.634 214.175 112.782L199.017 116.253C135.342 130.836 69.6292 145.886 -6.96096e-05 157.432V156.347Z" fill="url(#paint55_linear_950_2)"/>
<path d="M-6.96096e-05 154.115C77.2849 139.171 149.931 120.023 220.227 101.458L223.024 100.721C238.439 96.6521 254.375 92.4436 271.057 88.3605C364.908 65.3751 506.51 32.9894 652.102 17.1388C740.268 7.59369 819.169 6.05105 893.302 12.4771C956.83 17.9679 1017.59 29.1472 1090.3 48.7243C1123.43 57.633 1156.09 67.5252 1187.67 77.0799C1213.55 84.9136 1240.3 93.0125 1267.27 100.562C1321.5 115.742 1380.76 129.79 1443.39 142.319C1528.51 159.225 1604.2 170.684 1674.78 177.351C1733.9 182.939 1794.42 185.595 1859.8 185.45C1879.98 185.392 1900.05 185.071 1920 184.486V185.45C1900.07 186.038 1880.02 186.373 1859.87 186.453C1794.31 186.578 1733.61 183.917 1674.31 178.316C1603.55 171.629 1527.69 160.146 1442.41 143.206C1379.67 130.672 1320.32 116.586 1265.99 101.376C1238.98 93.8175 1212.2 85.7139 1186.31 77.8753C1154.75 68.3206 1122.13 58.4429 1089.04 49.5535C1016.59 30.0439 956.096 18.908 892.874 13.4413C819.077 7.08269 740.556 8.5964 652.745 18.1029C507.434 33.9246 366.022 66.267 272.293 89.2234C255.642 93.2969 239.718 97.5006 224.327 101.569L221.525 102.307C150.855 120.968 77.805 140.246 -0.00619523 155.224L-6.96096e-05 154.115Z" fill="url(#paint56_linear_950_2)"/>
<path d="M-6.96096e-05 152.423L3.70847 151.618C83.9737 133.926 160.31 111.63 237.944 88.4232C253.432 83.8194 269.956 78.936 286.638 74.2502C432.358 33.3173 552.334 8.77968 664.219 -2.97812C750.898 -12.0604 829.786 -12.5907 905.364 -4.59307C969.62 2.26203 1030.59 15.1382 1103.17 37.0919C1136.56 47.1866 1169.41 58.3032 1201.18 69.0535C1226.88 77.7308 1253.41 86.7311 1280.07 95.1144C1337.05 112.988 1395.27 128.323 1454.44 141.046C1533.28 157.967 1610.38 169.682 1683.62 175.867C1742.73 180.755 1805.34 182.534 1869.7 181.141C1886.51 180.765 1903.27 180.186 1920 179.405V180.408C1903.32 181.173 1886.61 181.75 1869.88 182.138C1805.32 183.532 1742.51 181.748 1683.23 176.836C1609.8 170.636 1532.46 158.888 1453.43 141.924C1394.12 129.179 1335.77 113.815 1278.66 95.905C1251.96 87.5121 1225.42 78.5166 1199.72 69.8248C1167.98 59.0793 1135.15 47.9723 1101.8 37.897C1029.49 16.0204 968.745 3.22618 904.856 -3.62892C829.646 -11.5832 751.131 -11.0529 664.831 -2.01397C553.227 9.71972 433.509 34.2139 287.99 75.0794C271.326 79.7603 254.828 84.6437 239.351 89.2427C161.632 112.464 85.2403 134.784 4.84664 152.501L-6.96096e-05 153.556V152.423Z" fill="url(#paint57_linear_950_2)"/>
<path d="M651.199 -20.3955H660.078C516.15 -3.9423 378.097 35.9735 254.346 76.9161C169.711 104.92 85.4441 131.53 -0.0228315 152.259V151.093C84.9239 130.441 168.696 103.975 252.847 76.1255C374.456 35.8963 509.865 -3.34453 651.199 -20.3955Z" fill="url(#paint58_linear_950_2)"/>
<path d="M927.021 -20.3955C1037.53 -5.21498 1127.75 28.5399 1215.1 61.2197C1240.44 70.7021 1266.65 80.5027 1292.86 89.6621C1426.35 136.308 1560.78 164.813 1692.45 174.363C1768.5 179.902 1844.94 179.232 1920 174.676V175.688C1844.84 180.234 1768.29 180.895 1692.1 175.36C1560.01 165.762 1425.18 137.185 1291.36 90.4238C1265.13 81.2644 1238.9 71.4445 1213.55 61.9814C1124.52 28.67 1032.47 -5.75973 919.194 -20.3714L927.021 -20.3955Z" fill="url(#paint59_linear_950_2)"/>
</g>
<defs>
<linearGradient id="paint0_linear_950_2" x1="678.635" y1="592.145" x2="-1.95832" y2="592.145" gradientUnits="userSpaceOnUse">
<stop stop-color="#FFEAE4"/>
<stop offset="0.695" stop-color="#FFECE7"/>
<stop offset="1" stop-color="#FFE0D8"/>
</linearGradient>
<linearGradient id="paint1_linear_950_2" x1="681.636" y1="586.071" x2="-1.96078" y2="586.071" gradientUnits="userSpaceOnUse">
<stop stop-color="#FFEAE4"/>
<stop offset="0.695" stop-color="#FFECE7"/>
<stop offset="1" stop-color="#FFE0D8"/>
</linearGradient>
<linearGradient id="paint2_linear_950_2" x1="687.939" y1="580.083" x2="-1.95721" y2="580.083" gradientUnits="userSpaceOnUse">
<stop stop-color="#FFEAE4"/>
<stop offset="0.695" stop-color="#FFECE7"/>
<stop offset="1" stop-color="#FFE0D8"/>
</linearGradient>
<linearGradient id="paint3_linear_950_2" x1="1924.98" y1="763.165" x2="1687.49" y2="763.165" gradientUnits="userSpaceOnUse">
<stop stop-color="#FFEAE4"/>
<stop offset="0.695" stop-color="#FFECE7"/>
<stop offset="1" stop-color="#FFE0D8"/>
</linearGradient>
<linearGradient id="paint4_linear_950_2" x1="698.53" y1="574.386" x2="-2.01183" y2="574.386" gradientUnits="userSpaceOnUse">
<stop stop-color="#FFEAE4"/>
<stop offset="0.695" stop-color="#FFECE7"/>
<stop offset="1" stop-color="#FFE0D8"/>
</linearGradient>
<linearGradient id="paint5_linear_950_2" x1="1927.35" y1="747.63" x2="1576.72" y2="747.63" gradientUnits="userSpaceOnUse">
<stop stop-color="#FFEAE4"/>
<stop offset="0.695" stop-color="#FFECE7"/>
<stop offset="1" stop-color="#FFE0D8"/>
</linearGradient>
<linearGradient id="paint6_linear_950_2" x1="715.04" y1="568.971" x2="-2.03264" y2="568.971" gradientUnits="userSpaceOnUse">
<stop stop-color="#FFEAE4"/>
<stop offset="0.695" stop-color="#FFECE7"/>
<stop offset="1" stop-color="#FFE0D8"/>
</linearGradient>
<linearGradient id="paint7_linear_950_2" x1="1929.76" y1="732.718" x2="1464.15" y2="732.718" gradientUnits="userSpaceOnUse">
<stop stop-color="#FFEAE4"/>
<stop offset="0.695" stop-color="#FFECE7"/>
<stop offset="1" stop-color="#FFE0D8"/>
</linearGradient>
<linearGradient id="paint8_linear_950_2" x1="740.53" y1="563.953" x2="-2.16409" y2="563.953" gradientUnits="userSpaceOnUse">
<stop stop-color="#FFEAE4"/>
<stop offset="0.695" stop-color="#FFECE7"/>
<stop offset="1" stop-color="#FFE0D8"/>
</linearGradient>
<linearGradient id="paint9_linear_950_2" x1="1932.26" y1="718.4" x2="1346.95" y2="718.4" gradientUnits="userSpaceOnUse">
<stop stop-color="#FFEAE4"/>
<stop offset="0.695" stop-color="#FFECE7"/>
<stop offset="1" stop-color="#FFE0D8"/>
</linearGradient>
<linearGradient id="paint10_linear_950_2" x1="782.035" y1="559.364" x2="-2.26687" y2="559.364" gradientUnits="userSpaceOnUse">
<stop stop-color="#FFEAE4"/>
<stop offset="0.695" stop-color="#FFECE7"/>
<stop offset="1" stop-color="#FFE0D8"/>
</linearGradient>
<linearGradient id="paint11_linear_950_2" x1="1934.98" y1="704.778" x2="1220.02" y2="704.778" gradientUnits="userSpaceOnUse">
<stop stop-color="#FFEAE4"/>
<stop offset="0.695" stop-color="#FFECE7"/>
<stop offset="1" stop-color="#FFE0D8"/>
</linearGradient>
<linearGradient id="paint12_linear_950_2" x1="870.104" y1="555.31" x2="-2.50291" y2="555.31" gradientUnits="userSpaceOnUse">
<stop stop-color="#FFEAE4"/>
<stop offset="0.695" stop-color="#FFECE7"/>
<stop offset="1" stop-color="#FFE0D8"/>
</linearGradient>
<linearGradient id="paint13_linear_950_2" x1="1938.43" y1="691.855" x2="1058.83" y2="691.855" gradientUnits="userSpaceOnUse">
<stop stop-color="#FFEAE4"/>
<stop offset="0.695" stop-color="#FFECE7"/>
<stop offset="1" stop-color="#FFE0D8"/>
</linearGradient>
<linearGradient id="paint14_linear_950_2" x1="1961.2" y1="545.654" x2="-5.66477" y2="545.654" gradientUnits="userSpaceOnUse">
<stop stop-color="#FFEAE4"/>
<stop offset="0.695" stop-color="#FFECE7"/>
<stop offset="1" stop-color="#FFE0D8"/>
</linearGradient>
<linearGradient id="paint15_linear_950_2" x1="1961.21" y1="534.364" x2="-5.67376" y2="534.364" gradientUnits="userSpaceOnUse">
<stop stop-color="#FFEAE4"/>
<stop offset="0.695" stop-color="#FFECE7"/>
<stop offset="1" stop-color="#FFE0D8"/>
</linearGradient>
<linearGradient id="paint16_linear_950_2" x1="1961.21" y1="524.061" x2="-5.64915" y2="524.061" gradientUnits="userSpaceOnUse">
<stop stop-color="#FFEAE4"/>
<stop offset="0.695" stop-color="#FFECE7"/>
<stop offset="1" stop-color="#FFE0D8"/>
</linearGradient>
<linearGradient id="paint17_linear_950_2" x1="1961.21" y1="514.812" x2="-5.64915" y2="514.812" gradientUnits="userSpaceOnUse">
<stop stop-color="#FFEAE4"/>
<stop offset="0.695" stop-color="#FFECE7"/>
<stop offset="1" stop-color="#FFE0D8"/>
</linearGradient>
<linearGradient id="paint18_linear_950_2" x1="1961.21" y1="506.811" x2="-5.64915" y2="506.811" gradientUnits="userSpaceOnUse">
<stop stop-color="#FFEAE4"/>
<stop offset="0.695" stop-color="#FFECE7"/>
<stop offset="1" stop-color="#FFE0D8"/>
</linearGradient>
<linearGradient id="paint19_linear_950_2" x1="1961.21" y1="500.213" x2="-5.64915" y2="500.213" gradientUnits="userSpaceOnUse">
<stop stop-color="#FFEAE4"/>
<stop offset="0.695" stop-color="#FFECE7"/>
<stop offset="1" stop-color="#FFE0D8"/>
</linearGradient>
<linearGradient id="paint20_linear_950_2" x1="1961.21" y1="495.259" x2="-5.64915" y2="495.259" gradientUnits="userSpaceOnUse">
<stop stop-color="#FFEAE4"/>
<stop offset="0.695" stop-color="#FFECE7"/>
<stop offset="1" stop-color="#FFE0D8"/>
</linearGradient>
<linearGradient id="paint21_linear_950_2" x1="1961.21" y1="492.079" x2="-5.64915" y2="492.079" gradientUnits="userSpaceOnUse">
<stop stop-color="#FFEAE4"/>
<stop offset="0.695" stop-color="#FFECE7"/>
<stop offset="1" stop-color="#FFE0D8"/>
</linearGradient>
<linearGradient id="paint22_linear_950_2" x1="1961.21" y1="490.759" x2="-5.66139" y2="490.759" gradientUnits="userSpaceOnUse">
<stop stop-color="#FFEAE4"/>
<stop offset="0.695" stop-color="#FFECE7"/>
<stop offset="1" stop-color="#FFE0D8"/>
</linearGradient>
<linearGradient id="paint23_linear_950_2" x1="1961.21" y1="480.414" x2="-5.64915" y2="480.414" gradientUnits="userSpaceOnUse">
<stop stop-color="#FFEAE4"/>
<stop offset="0.695" stop-color="#FFECE7"/>
<stop offset="1" stop-color="#FFE0D8"/>
</linearGradient>
<linearGradient id="paint24_linear_950_2" x1="1961.21" y1="459.655" x2="-5.64915" y2="459.655" gradientUnits="userSpaceOnUse">
<stop stop-color="#FFEAE4"/>
<stop offset="0.695" stop-color="#FFECE7"/>
<stop offset="1" stop-color="#FFE0D8"/>
</linearGradient>
<linearGradient id="paint25_linear_950_2" x1="1961.21" y1="439.112" x2="-5.64915" y2="439.112" gradientUnits="userSpaceOnUse">
<stop stop-color="#FFEAE4"/>
<stop offset="0.695" stop-color="#FFECE7"/>
<stop offset="1" stop-color="#FFE0D8"/>
</linearGradient>
<linearGradient id="paint26_linear_950_2" x1="1961.21" y1="418.725" x2="-5.64915" y2="418.725" gradientUnits="userSpaceOnUse">
<stop stop-color="#FFEAE4"/>
<stop offset="0.695" stop-color="#FFECE7"/>
<stop offset="1" stop-color="#FFE0D8"/>
</linearGradient>
<linearGradient id="paint27_linear_950_2" x1="1961.21" y1="398.413" x2="-5.64915" y2="398.413" gradientUnits="userSpaceOnUse">
<stop stop-color="#FFEAE4"/>
<stop offset="0.695" stop-color="#FFECE7"/>
<stop offset="1" stop-color="#FFE0D8"/>
</linearGradient>
<linearGradient id="paint28_linear_950_2" x1="1961.21" y1="378.169" x2="-5.64915" y2="378.169" gradientUnits="userSpaceOnUse">
<stop stop-color="#FFEAE4"/>
<stop offset="0.695" stop-color="#FFECE7"/>
<stop offset="1" stop-color="#FFE0D8"/>
</linearGradient>
<linearGradient id="paint29_linear_950_2" x1="1961.21" y1="358.024" x2="-5.64915" y2="358.024" gradientUnits="userSpaceOnUse">
<stop stop-color="#FFEAE4"/>
<stop offset="0.695" stop-color="#FFECE7"/>
<stop offset="1" stop-color="#FFE0D8"/>
</linearGradient>
<linearGradient id="paint30_linear_950_2" x1="1961.21" y1="337.793" x2="-5.66139" y2="337.793" gradientUnits="userSpaceOnUse">
<stop stop-color="#FFEAE4"/>
<stop offset="0.695" stop-color="#FFECE7"/>
<stop offset="1" stop-color="#FFE0D8"/>
</linearGradient>
<linearGradient id="paint31_linear_950_2" x1="1961.21" y1="317.657" x2="-5.686" y2="317.657" gradientUnits="userSpaceOnUse">
<stop stop-color="#FFEAE4"/>
<stop offset="0.695" stop-color="#FFECE7"/>
<stop offset="1" stop-color="#FFE0D8"/>
</linearGradient>
<linearGradient id="paint32_linear_950_2" x1="1961.21" y1="297.576" x2="-5.65527" y2="297.576" gradientUnits="userSpaceOnUse">
<stop stop-color="#FFEAE4"/>
<stop offset="0.695" stop-color="#FFECE7"/>
<stop offset="1" stop-color="#FFE0D8"/>
</linearGradient>
<linearGradient id="paint33_linear_950_2" x1="1961.21" y1="289.59" x2="-5.69212" y2="289.59" gradientUnits="userSpaceOnUse">
<stop stop-color="#FFEAE4"/>
<stop offset="0.695" stop-color="#FFECE7"/>
<stop offset="1" stop-color="#FFE0D8"/>
</linearGradient>
<linearGradient id="paint34_linear_950_2" x1="1961.21" y1="281.659" x2="-5.64915" y2="281.659" gradientUnits="userSpaceOnUse">
<stop stop-color="#FFEAE4"/>
<stop offset="0.695" stop-color="#FFECE7"/>
<stop offset="1" stop-color="#FFE0D8"/>
</linearGradient>
<linearGradient id="paint35_linear_950_2" x1="1961.21" y1="273.676" x2="-5.64915" y2="273.676" gradientUnits="userSpaceOnUse">
<stop stop-color="#FFEAE4"/>
<stop offset="0.695" stop-color="#FFECE7"/>
<stop offset="1" stop-color="#FFE0D8"/>
</linearGradient>
<linearGradient id="paint36_linear_950_2" x1="1961.2" y1="265.701" x2="-5.65084" y2="265.701" gradientUnits="userSpaceOnUse">
<stop stop-color="#FFEAE4"/>
<stop offset="0.695" stop-color="#FFECE7"/>
<stop offset="1" stop-color="#FFE0D8"/>
</linearGradient>
<linearGradient id="paint37_linear_950_2" x1="1961.21" y1="257.715" x2="-5.64915" y2="257.715" gradientUnits="userSpaceOnUse">
<stop stop-color="#FFEAE4"/>
<stop offset="0.695" stop-color="#FFECE7"/>
<stop offset="1" stop-color="#FFE0D8"/>
</linearGradient>
<linearGradient id="paint38_linear_950_2" x1="1961.21" y1="249.767" x2="-5.66139" y2="249.767" gradientUnits="userSpaceOnUse">
<stop stop-color="#FFEAE4"/>
<stop offset="0.695" stop-color="#FFECE7"/>
<stop offset="1" stop-color="#FFE0D8"/>
</linearGradient>
<linearGradient id="paint39_linear_950_2" x1="1961.21" y1="241.702" x2="-5.65527" y2="241.702" gradientUnits="userSpaceOnUse">
<stop stop-color="#FFEAE4"/>
<stop offset="0.695" stop-color="#FFECE7"/>
<stop offset="1" stop-color="#FFE0D8"/>
</linearGradient>
<linearGradient id="paint40_linear_950_2" x1="1961.21" y1="233.675" x2="-5.66764" y2="233.675" gradientUnits="userSpaceOnUse">
<stop stop-color="#FFEAE4"/>
<stop offset="0.695" stop-color="#FFECE7"/>
<stop offset="1" stop-color="#FFE0D8"/>
</linearGradient>
<linearGradient id="paint41_linear_950_2" x1="1961.21" y1="225.63" x2="-5.64915" y2="225.63" gradientUnits="userSpaceOnUse">
<stop stop-color="#FFEAE4"/>
<stop offset="0.695" stop-color="#FFECE7"/>
<stop offset="1" stop-color="#FFE0D8"/>
</linearGradient>
<linearGradient id="paint42_linear_950_2" x1="1961.21" y1="217.513" x2="-5.64915" y2="217.513" gradientUnits="userSpaceOnUse">
<stop stop-color="#FFEAE4"/>
<stop offset="0.695" stop-color="#FFECE7"/>
<stop offset="1" stop-color="#FFE0D8"/>
</linearGradient>
<linearGradient id="paint43_linear_950_2" x1="1961.21" y1="210.357" x2="-5.64915" y2="210.357" gradientUnits="userSpaceOnUse">
<stop stop-color="#FFEAE4"/>
<stop offset="0.695" stop-color="#FFECE7"/>
<stop offset="1" stop-color="#FFE0D8"/>
</linearGradient>
<linearGradient id="paint44_linear_950_2" x1="1961.21" y1="204.516" x2="-5.66764" y2="204.516" gradientUnits="userSpaceOnUse">
<stop stop-color="#FFEAE4"/>
<stop offset="0.695" stop-color="#FFECE7"/>
<stop offset="1" stop-color="#FFE0D8"/>
</linearGradient>
<linearGradient id="paint45_linear_950_2" x1="1961.21" y1="198.853" x2="-5.64915" y2="198.853" gradientUnits="userSpaceOnUse">
<stop stop-color="#FFEAE4"/>
<stop offset="0.695" stop-color="#FFECE7"/>
<stop offset="1" stop-color="#FFE0D8"/>
</linearGradient>
<linearGradient id="paint46_linear_950_2" x1="1961.2" y1="193.194" x2="-5.6709" y2="193.194" gradientUnits="userSpaceOnUse">
<stop stop-color="#FFEAE4"/>
<stop offset="0.695" stop-color="#FFECE7"/>
<stop offset="1" stop-color="#FFE0D8"/>
</linearGradient>
<linearGradient id="paint47_linear_950_2" x1="1961.21" y1="187.314" x2="-5.64915" y2="187.314" gradientUnits="userSpaceOnUse">
<stop stop-color="#FFEAE4"/>
<stop offset="0.695" stop-color="#FFECE7"/>
<stop offset="1" stop-color="#FFE0D8"/>
</linearGradient>
<linearGradient id="paint48_linear_950_2" x1="1961.21" y1="179.079" x2="-5.66764" y2="179.079" gradientUnits="userSpaceOnUse">
<stop stop-color="#FFEAE4"/>
<stop offset="0.695" stop-color="#FFECE7"/>
<stop offset="1" stop-color="#FFE0D8"/>
</linearGradient>
<linearGradient id="paint49_linear_950_2" x1="1961.21" y1="167.52" x2="-5.64915" y2="167.52" gradientUnits="userSpaceOnUse">
<stop stop-color="#FFEAE4"/>
<stop offset="0.695" stop-color="#FFECE7"/>
<stop offset="1" stop-color="#FFE0D8"/>
</linearGradient>
<linearGradient id="paint50_linear_950_2" x1="1961.21" y1="154.918" x2="-5.64915" y2="154.918" gradientUnits="userSpaceOnUse">
<stop stop-color="#FFEAE4"/>
<stop offset="0.695" stop-color="#FFECE7"/>
<stop offset="1" stop-color="#FFE0D8"/>
</linearGradient>
<linearGradient id="paint51_linear_950_2" x1="1961.21" y1="141.803" x2="-5.69824" y2="141.803" gradientUnits="userSpaceOnUse">
<stop stop-color="#FFEAE4"/>
<stop offset="0.695" stop-color="#FFECE7"/>
<stop offset="1" stop-color="#FFE0D8"/>
</linearGradient>
<linearGradient id="paint52_linear_950_2" x1="1961.21" y1="128.45" x2="-5.67376" y2="128.45" gradientUnits="userSpaceOnUse">
<stop stop-color="#FFEAE4"/>
<stop offset="0.695" stop-color="#FFECE7"/>
<stop offset="1" stop-color="#FFE0D8"/>
</linearGradient>
<linearGradient id="paint53_linear_950_2" x1="1961.21" y1="114.921" x2="-5.67376" y2="114.921" gradientUnits="userSpaceOnUse">
<stop stop-color="#FFEAE4"/>
<stop offset="0.695" stop-color="#FFECE7"/>
<stop offset="1" stop-color="#FFE0D8"/>
</linearGradient>
<linearGradient id="paint54_linear_950_2" x1="1961.21" y1="101.283" x2="-5.64915" y2="101.283" gradientUnits="userSpaceOnUse">
<stop stop-color="#FFEAE4"/>
<stop offset="0.695" stop-color="#FFECE7"/>
<stop offset="1" stop-color="#FFE0D8"/>
</linearGradient>
<linearGradient id="paint55_linear_950_2" x1="1961.21" y1="87.6833" x2="-5.64915" y2="87.6833" gradientUnits="userSpaceOnUse">
<stop stop-color="#FFEAE4"/>
<stop offset="0.695" stop-color="#FFECE7"/>
<stop offset="1" stop-color="#FFE0D8"/>
</linearGradient>
<linearGradient id="paint56_linear_950_2" x1="1961.21" y1="74.2464" x2="-5.65527" y2="74.2464" gradientUnits="userSpaceOnUse">
<stop stop-color="#FFEAE4"/>
<stop offset="0.695" stop-color="#FFECE7"/>
<stop offset="1" stop-color="#FFE0D8"/>
</linearGradient>
<linearGradient id="paint57_linear_950_2" x1="1961.21" y1="60.9557" x2="-5.64915" y2="60.9557" gradientUnits="userSpaceOnUse">
<stop stop-color="#FFEAE4"/>
<stop offset="0.695" stop-color="#FFECE7"/>
<stop offset="1" stop-color="#FFE0D8"/>
</linearGradient>
<linearGradient id="paint58_linear_950_2" x1="674.247" y1="43.3352" x2="-1.96502" y2="43.3352" gradientUnits="userSpaceOnUse">
<stop stop-color="#FFEAE4"/>
<stop offset="0.695" stop-color="#FFECE7"/>
<stop offset="1" stop-color="#FFE0D8"/>
</linearGradient>
<linearGradient id="paint59_linear_950_2" x1="1941.48" y1="53.3185" x2="916.25" y2="53.3185" gradientUnits="userSpaceOnUse">
<stop stop-color="#FFEAE4"/>
<stop offset="0.695" stop-color="#FFECE7"/>
<stop offset="1" stop-color="#FFE0D8"/>
</linearGradient>
<clipPath id="clip0_950_2">
<rect width="1920" height="750" fill="white" transform="matrix(-1 0 0 1 1920 0)"/>
</clipPath>
</defs>
</svg>
