<svg width="41" height="36" viewBox="0 0 41 36" fill="none" xmlns="http://www.w3.org/2000/svg">
<g clip-path="url(#clip0_864_9167)">
<path d="M2.38281 11.7236C2.38281 1.97559 12.038 1.97559 20.3138 1.97559C28.5897 1.97559 38.2449 1.97559 38.2449 11.7236C38.2449 22.8642 28.5897 10.331 28.5897 10.331H12.038C12.038 10.331 2.38281 22.8642 2.38281 11.7236ZM13.4173 14.5087C13.4173 14.5087 6.52074 21.4716 6.52074 34.0048H34.1069C34.1069 21.4716 27.2104 14.5087 27.2104 14.5087H13.4173Z" stroke="white" stroke-width="3.5" stroke-linecap="round" stroke-linejoin="round"/>
<path d="M20.3171 27.8899C22.3044 27.8899 23.9155 26.2634 23.9155 24.257C23.9155 22.2506 22.3044 20.624 20.3171 20.624C18.3298 20.624 16.7188 22.2506 16.7188 24.257C16.7188 26.2634 18.3298 27.8899 20.3171 27.8899Z" stroke="white" stroke-width="3" stroke-linecap="round" stroke-linejoin="round"/>
</g>
<defs>
<clipPath id="clip0_864_9167">
<rect width="39.8276" height="35" fill="white" transform="translate(0.773438 0.583008)"/>
</clipPath>
</defs>
</svg>
