<svg width="30" height="31" viewBox="0 0 30 31" fill="none" xmlns="http://www.w3.org/2000/svg">
<g clip-path="url(#clip0_864_8991)">
<path fill-rule="evenodd" clip-rule="evenodd" d="M6.33954 3.6084H23.6472C25.1773 3.6084 26.6448 4.21623 27.7267 5.29817C28.8086 6.38011 29.4165 7.84753 29.4165 9.37763V23.8007C29.4165 25.3308 28.8086 26.7982 27.7267 27.8802C26.6448 28.9621 25.1773 29.5699 23.6472 29.5699H6.33954C4.80945 29.5699 3.34202 28.9621 2.26008 27.8802C1.17814 26.7982 0.570313 25.3308 0.570312 23.8007V9.37763C0.570312 7.84753 1.17814 6.38011 2.26008 5.29817C3.34202 4.21623 4.80945 3.6084 6.33954 3.6084ZM6.33954 6.49301C5.5745 6.49301 4.84078 6.79693 4.29981 7.3379C3.75884 7.87887 3.45493 8.61258 3.45493 9.37763V23.8007C3.45493 24.5658 3.75884 25.2995 4.29981 25.8404C4.84078 26.3814 5.5745 26.6853 6.33954 26.6853H23.6472C24.4123 26.6853 25.146 26.3814 25.687 25.8404C26.2279 25.2995 26.5319 24.5658 26.5319 23.8007V9.37763C26.5319 8.61258 26.2279 7.87887 25.687 7.3379C25.146 6.79693 24.4123 6.49301 23.6472 6.49301H6.33954Z" fill="black"/>
<path fill-rule="evenodd" clip-rule="evenodd" d="M2.01562 12.2621C2.01562 11.8796 2.16758 11.5127 2.43807 11.2422C2.70855 10.9717 3.07541 10.8198 3.45793 10.8198H26.5349C26.9174 10.8198 27.2842 10.9717 27.5547 11.2422C27.8252 11.5127 27.9772 11.8796 27.9772 12.2621C27.9772 12.6446 27.8252 13.0115 27.5547 13.282C27.2842 13.5524 26.9174 13.7044 26.5349 13.7044H3.45793C3.07541 13.7044 2.70855 13.5524 2.43807 13.282C2.16758 13.0115 2.01563 12.6446 2.01562 12.2621ZM9.22716 0.723633C9.60969 0.723633 9.97654 0.87559 10.247 1.14607C10.5175 1.41656 10.6695 1.78342 10.6695 2.16594V7.93517C10.6695 8.3177 10.5175 8.68455 10.247 8.95504C9.97654 9.22552 9.60969 9.37748 9.22716 9.37748C8.84464 9.37748 8.47778 9.22552 8.2073 8.95504C7.93681 8.68455 7.78486 8.3177 7.78486 7.93517V2.16594C7.78486 1.78342 7.93681 1.41656 8.2073 1.14607C8.47778 0.87559 8.84464 0.723633 9.22716 0.723633ZM20.7656 0.723633C21.1482 0.723633 21.515 0.87559 21.7855 1.14607C22.056 1.41656 22.2079 1.78342 22.2079 2.16594V7.93517C22.2079 8.3177 22.056 8.68455 21.7855 8.95504C21.515 9.22552 21.1482 9.37748 20.7656 9.37748C20.3831 9.37748 20.0162 9.22552 19.7458 8.95504C19.4753 8.68455 19.3233 8.3177 19.3233 7.93517V2.16594C19.3233 1.78342 19.4753 1.41656 19.7458 1.14607C20.0162 0.87559 20.3831 0.723633 20.7656 0.723633Z" fill="black"/>
<path d="M9.22055 16.5888C9.22055 16.9713 9.0686 17.3382 8.79811 17.6087C8.52763 17.8791 8.16077 18.0311 7.77825 18.0311C7.39572 18.0311 7.02887 17.8791 6.75838 17.6087C6.48789 17.3382 6.33594 16.9713 6.33594 16.5888C6.33594 16.2063 6.48789 15.8394 6.75838 15.5689C7.02887 15.2984 7.39572 15.1465 7.77825 15.1465C8.16077 15.1465 8.52763 15.2984 8.79811 15.5689C9.0686 15.8394 9.22055 16.2063 9.22055 16.5888ZM9.22055 22.358C9.22055 22.7405 9.0686 23.1074 8.79811 23.3779C8.52763 23.6484 8.16077 23.8003 7.77825 23.8003C7.39572 23.8003 7.02887 23.6484 6.75838 23.3779C6.48789 23.1074 6.33594 22.7405 6.33594 22.358C6.33594 21.9755 6.48789 21.6086 6.75838 21.3382C7.02887 21.0677 7.39572 20.9157 7.77825 20.9157C8.16077 20.9157 8.52763 21.0677 8.79811 21.3382C9.0686 21.6086 9.22055 21.9755 9.22055 22.358ZM16.4321 16.5888C16.4321 16.9713 16.2801 17.3382 16.0096 17.6087C15.7392 17.8791 15.3723 18.0311 14.9898 18.0311C14.6073 18.0311 14.2404 17.8791 13.9699 17.6087C13.6994 17.3382 13.5475 16.9713 13.5475 16.5888C13.5475 16.2063 13.6994 15.8394 13.9699 15.5689C14.2404 15.2984 14.6073 15.1465 14.9898 15.1465C15.3723 15.1465 15.7392 15.2984 16.0096 15.5689C16.2801 15.8394 16.4321 16.2063 16.4321 16.5888ZM16.4321 22.358C16.4321 22.7405 16.2801 23.1074 16.0096 23.3779C15.7392 23.6484 15.3723 23.8003 14.9898 23.8003C14.6073 23.8003 14.2404 23.6484 13.9699 23.3779C13.6994 23.1074 13.5475 22.7405 13.5475 22.358C13.5475 21.9755 13.6994 21.6086 13.9699 21.3382C14.2404 21.0677 14.6073 20.9157 14.9898 20.9157C15.3723 20.9157 15.7392 21.0677 16.0096 21.3382C16.2801 21.6086 16.4321 21.9755 16.4321 22.358ZM23.6436 16.5888C23.6436 16.9713 23.4917 17.3382 23.2212 17.6087C22.9507 17.8791 22.5838 18.0311 22.2013 18.0311C21.8188 18.0311 21.4519 17.8791 21.1815 17.6087C20.911 17.3382 20.759 16.9713 20.759 16.5888C20.759 16.2063 20.911 15.8394 21.1815 15.5689C21.4519 15.2984 21.8188 15.1465 22.2013 15.1465C22.5838 15.1465 22.9507 15.2984 23.2212 15.5689C23.4917 15.8394 23.6436 16.2063 23.6436 16.5888ZM23.6436 22.358C23.6436 22.7405 23.4917 23.1074 23.2212 23.3779C22.9507 23.6484 22.5838 23.8003 22.2013 23.8003C21.8188 23.8003 21.4519 23.6484 21.1815 23.3779C20.911 23.1074 20.759 22.7405 20.759 22.358C20.759 21.9755 20.911 21.6086 21.1815 21.3382C21.4519 21.0677 21.8188 20.9157 22.2013 20.9157C22.5838 20.9157 22.9507 21.0677 23.2212 21.3382C23.4917 21.6086 23.6436 21.9755 23.6436 22.358Z" fill="black"/>
</g>
<defs>
<clipPath id="clip0_864_8991">
<rect width="30" height="30" fill="white" transform="translate(-0.0078125 0.146484)"/>
</clipPath>
</defs>
</svg>
