<svg width="111" height="111" viewBox="0 0 111 111" fill="none" xmlns="http://www.w3.org/2000/svg">
<g clip-path="url(#clip0_451_516)">
<path d="M0.639591 87.9075C0.926565 86.6649 1.15327 85.4051 1.51486 84.1768C5.60711 70.3475 22.7796 64.7601 33.9802 73.6104C34.4079 73.923 34.7471 74.3413 34.9645 74.8243C35.1133 75.1798 35.1315 75.5765 35.0159 75.9441C34.9004 76.3117 34.6586 76.6266 34.3332 76.8331C33.567 77.3755 32.7807 77.3153 32.0374 76.7413C30.2727 75.3338 28.2527 74.2805 26.0884 73.6391C16.6527 70.8756 6.65457 77.0283 4.60557 86.8744C2.65128 96.2785 9.4583 105.645 19.1064 106.865C22.4983 107.309 25.9449 106.708 28.9869 105.143C29.2739 105 29.5321 104.83 29.9597 104.569C29.6876 104.521 29.4191 104.454 29.1562 104.368C28.3096 104.004 27.8332 103.361 27.948 102.431C28.0628 101.501 28.6597 100.859 29.5723 100.847C31.5811 100.816 33.5899 100.847 35.5758 101.008C36.5027 101.077 37.0107 101.823 36.9619 102.758C36.8471 104.65 36.6854 106.539 36.4769 108.423C36.4183 108.855 36.2044 109.25 35.8754 109.535C35.5463 109.821 35.1245 109.976 34.6891 109.973C34.2368 109.962 33.8037 109.788 33.4702 109.483C33.1366 109.177 32.9253 108.761 32.8754 108.311C32.8569 108.017 32.8569 107.722 32.8754 107.427C30.7259 108.288 28.6396 109.189 26.5046 109.961C25.5145 110.32 24.4383 110.435 23.4024 110.662H19.0978C18.9117 110.581 18.7198 110.515 18.5238 110.464C9.88016 108.968 4.17511 104.078 1.47756 95.716C1.08727 94.5021 0.903605 93.2222 0.636719 91.9854L0.639591 87.9075Z" fill="white"/>
<path d="M59.3815 34.9375C68.6479 35.0695 77.2514 37.2907 84.7815 42.858C93.7409 49.4842 99.0068 58.4694 101.139 69.3199C102.319 75.3033 102.27 81.2867 100.278 87.1122C98.2693 93.0526 94.6563 97.5495 88.3917 99.3746C84.2765 100.574 80.1469 100.195 76.1235 98.9413C73.1935 98.0316 70.3841 96.7173 67.4627 95.8075C61.1091 93.8332 54.8358 94.2349 48.686 96.7833C46.9641 97.4911 45.2289 98.1521 43.4802 98.7662C42.1831 99.2139 41.1471 98.7662 40.82 97.7274C40.467 96.6139 41.0639 95.7415 42.4098 95.2508C45.1303 94.2608 47.7849 93.0756 50.5513 92.2491C58.3197 89.9217 65.8786 90.6908 73.2222 94.0513C75.9521 95.3313 78.9016 96.0774 81.9118 96.2495C89.1177 96.6053 94.4124 92.9981 96.8545 86.1107C98.8174 80.575 98.7744 74.9187 97.4744 69.2883C94.8916 58.1164 88.9168 49.3206 78.8756 43.5525C71.8993 39.5348 64.2744 38.2951 56.3195 38.803C50.3848 39.1818 44.7487 40.6569 39.5889 43.6816C31.5536 48.3794 26.2905 55.3614 22.996 63.9477C22.8956 64.2146 22.8239 64.4929 22.7091 64.7541C22.2585 65.7757 21.3 66.2263 20.3588 65.8676C19.4175 65.5088 18.9239 64.5733 19.2883 63.5086C20.6631 59.319 22.6985 55.376 25.3177 51.8288C32.2739 42.4074 41.6293 37.0381 53.1943 35.4713C55.2376 35.2044 57.3153 35.1126 59.3815 34.9375Z" fill="white"/>
<path d="M66.7495 74.7868C66.7495 75.9576 66.7495 76.9907 66.7495 78.021C66.695 81.4273 64.4021 83.7346 61.0101 83.7949C59.9368 83.815 58.8635 83.8264 57.7902 83.7949C54.5704 83.6887 52.2975 81.3757 52.2373 78.1587C52.2172 77.0883 52.2373 76.0207 52.2373 74.7954C51.1496 74.7954 50.128 74.7954 49.1064 74.7954C45.5823 74.7781 43.2722 72.4766 43.2349 68.9382C43.2349 67.9711 43.2205 67.004 43.2349 66.0398C43.2894 62.6277 45.5651 60.3491 48.9916 60.2831C50.0218 60.263 51.0549 60.2831 52.2315 60.2831C52.2315 59.2069 52.2315 58.2169 52.2315 57.2297C52.2516 53.5995 54.5044 51.3381 58.1288 51.3094C59.1304 51.3094 60.1377 51.2922 61.1335 51.3094C64.3877 51.3783 66.6462 53.6052 66.7524 56.8537C66.7897 57.9529 66.7524 59.0548 66.7524 60.2773C67.8659 60.2773 68.8559 60.2773 69.8489 60.2773C73.4188 60.3175 75.6859 62.5531 75.7433 66.1087C75.7883 67.2891 75.773 68.4711 75.6974 69.6499C75.442 72.6832 73.1778 74.7466 70.133 74.7925C69.0568 74.8068 67.9864 74.7868 66.7495 74.7868ZM51.3534 71.125C52.177 71.125 53.0006 71.1106 53.8242 71.125C55.2132 71.1537 55.8589 71.785 55.879 73.1653C55.8991 74.7408 55.879 76.3221 55.879 77.8889C55.879 79.4558 56.5792 80.0958 58.1288 80.1273C59.0242 80.1446 59.9196 80.1446 60.8149 80.1273C62.3646 80.0958 63.0418 79.4357 63.0677 77.8947C63.0935 76.3536 63.0677 74.8155 63.0677 73.2773C63.0677 71.7391 63.7048 71.1393 65.2286 71.125C66.8041 71.1106 68.3853 71.1393 69.9522 71.125C71.3182 71.1049 71.9839 70.4448 72.0327 69.0731C72.0672 68.1089 72.0586 67.1418 72.0327 66.1747C72.0012 64.6049 71.3727 63.9764 69.7972 63.9535C68.2935 63.9334 66.7897 63.9535 65.286 63.9535C63.6875 63.9334 63.0763 63.325 63.0591 61.7438C63.0418 60.2429 63.0591 58.7392 63.0591 57.2354C63.039 55.637 62.4191 55.0114 60.858 54.9884C59.9282 54.975 58.9974 54.975 58.0657 54.9884C56.5189 55.0114 55.8847 55.6571 55.8704 57.244C55.8704 58.7105 55.8704 60.1769 55.8704 61.6462C55.8704 63.3681 55.2734 63.942 53.5286 63.942C51.9905 63.942 50.4523 63.9162 48.9141 63.9564C47.5969 63.9908 46.9369 64.6537 46.8881 65.9652C46.8479 67.0385 46.8422 68.1146 46.8881 69.185C46.9455 70.419 47.6399 71.079 48.8711 71.1278C49.7119 71.1508 50.5326 71.125 51.3534 71.125Z" fill="white"/>
<path d="M55.8751 14.6312C55.9124 17.7679 55.4245 20.5687 54.0385 23.1429C52.1014 26.7473 49.1599 28.9885 44.9701 28.9713C40.8319 28.9512 37.7957 26.7846 36.0222 23.1515C33.4165 17.8453 33.3821 12.3527 35.8099 6.99199C37.6178 3.00018 40.7975 0.601082 45.3317 0.741699C49.8659 0.882317 52.7528 3.55691 54.5148 7.54011C55.4865 9.77433 55.951 12.1961 55.8751 14.6312ZM52.2162 14.8752C52.2162 12.1403 51.7226 9.87034 50.6694 8.04806C49.4124 5.87279 47.6447 4.37479 45.0189 4.37766C42.3931 4.38053 40.5076 5.81253 39.3884 8.05667C37.1529 12.5249 37.1673 17.1078 39.3597 21.5875C40.4847 23.8833 42.4131 25.344 45.0677 25.3182C47.7222 25.2923 49.5157 23.7541 50.7411 21.5043C51.8689 19.4409 52.2219 17.1968 52.2162 14.8752Z" fill="white"/>
<path d="M63.0924 15.2113C63.0924 11.5093 63.6951 8.32391 65.5547 5.45417C69.6584 -0.85926 78.3078 -0.982659 82.2508 5.41686C85.8896 11.3228 85.8208 17.6046 82.6181 23.7C80.8159 27.1437 77.7396 29.0406 73.7793 28.9631C69.7301 28.8827 66.8747 26.6989 64.9692 23.2236C63.5372 20.6408 63.0723 17.7969 63.0924 15.2113ZM66.7599 14.864C66.737 17.2603 67.1129 19.5733 68.3211 21.6825C69.5522 23.8349 71.3257 25.2955 73.8855 25.3214C76.497 25.3472 78.4082 23.941 79.5446 21.6883C81.8175 17.1857 81.8117 12.5769 79.5819 8.06563C78.4714 5.81862 76.5859 4.38088 73.9601 4.37515C71.3343 4.36941 69.5551 5.86167 68.3039 8.0398C67.0957 10.1491 66.7341 12.4678 66.7599 14.864Z" fill="white"/>
<path d="M87.7617 34.5246C88.5222 28.148 91.3604 23.0456 97.2319 20.1759C104.059 16.8183 111.365 22.0039 110.55 29.5858C109.922 35.4056 106.94 39.9714 101.846 42.8813C95.9347 46.2561 89.2195 43.108 87.9597 36.5478C87.859 35.8772 87.7929 35.202 87.7617 34.5246ZM96.8244 40.5941C97.5624 40.4893 98.2928 40.3369 99.0111 40.1378C103.118 38.7403 107.115 32.8056 106.929 28.4494C106.759 24.492 103.669 22.0986 99.938 23.0399C95.2776 24.2136 90.7749 31.0752 91.544 35.816C91.9975 38.6197 94.0952 40.4937 96.8244 40.5941Z" fill="white"/>
<path d="M31.1639 33.5287C31.1639 41.8251 24.443 46.3277 17.9631 43.26C12.2667 40.5624 9.16737 35.7269 8.42984 29.5455C7.98503 25.8148 9.38834 22.5978 12.6742 20.5402C15.96 18.4826 19.4841 18.6548 22.7183 20.6522C27.901 23.8433 30.6502 28.6042 31.1639 33.5287ZM27.4964 34.0165C27.3213 30.9373 25.611 27.8983 22.9679 25.4073C21.927 24.4356 20.7012 23.6831 19.3636 23.1947C15.9199 21.9636 12.8492 23.872 12.1605 27.4534C11.334 31.7581 15.191 38.2523 19.6218 40.02C23.737 41.6644 27.4763 39.1362 27.4964 34.0165Z" fill="white"/>
<path d="M12.8285 95.4003C15.0095 95.4003 17.0471 95.4003 19.0846 95.4003C20.5194 95.4003 21.2684 96.0202 21.2914 97.1652C21.3144 98.3102 20.508 99.0477 19.0616 99.0563C16.4138 99.0678 13.765 99.0678 11.1153 99.0563C9.47669 99.0563 8.77072 98.2815 8.8396 96.6486C8.97448 93.4316 10.4036 91.0584 13.3652 89.6752C14.3696 89.2074 15.397 88.7827 16.3641 88.2403C17.5521 87.586 17.8793 86.7365 17.5407 85.5513C17.395 85.0296 17.0793 84.5715 16.6436 84.2497C16.208 83.9279 15.6773 83.7608 15.1358 83.775C13.8903 83.7606 12.9491 84.4207 12.6334 85.5513C12.5665 85.8293 12.5167 86.111 12.4842 86.395C12.3091 87.5429 11.5888 88.1829 10.55 88.1169C9.51112 88.0509 8.82812 87.2129 8.82812 86.0392C8.83649 84.6092 9.36071 83.2302 10.3044 82.1557C11.2481 81.0813 12.548 80.3835 13.965 80.1907C18.5565 79.4933 22.0662 83.1465 21.2082 87.7123C20.8925 89.3824 19.9082 90.559 18.4274 91.3195C17.2192 91.9365 15.9566 92.4473 14.757 93.0815C13.8875 93.5608 13.0725 94.1491 12.8285 95.4003Z" fill="white"/>
<path d="M33.2552 90.8773C34.2137 91.2274 34.9024 91.7555 34.8795 92.8173C34.8565 93.8791 34.1878 94.3956 33.2523 94.6711C33.2523 95.4976 33.2781 96.2466 33.2523 96.9927C33.2007 98.2353 32.4201 99.0274 31.3353 98.9815C30.2936 98.9356 29.6278 98.1665 29.5991 96.9411C29.5819 96.2007 29.5991 95.4603 29.5991 94.6051C27.7654 94.6051 26.0579 94.5879 24.3533 94.6051C23.455 94.6051 22.6314 94.5334 22.1522 93.6294C21.6729 92.7254 22.0488 91.9994 22.574 91.2676C24.9425 87.9559 27.3014 84.6366 29.6508 81.3096C30.2391 80.4745 30.925 79.9264 31.9839 80.2851C33.0428 80.6438 33.2781 81.4933 33.2695 82.5092C33.2437 85.2555 33.2552 88.0076 33.2552 90.8773ZM29.5073 90.9032V87.844L27.3406 90.8917L29.5073 90.9032Z" fill="white"/>
</g>
<defs>
<clipPath id="clip0_451_516">
<rect width="109.968" height="110" fill="white" transform="translate(0.638672 0.678711)"/>
</clipPath>
</defs>
</svg>
