<svg width="111" height="111" viewBox="0 0 111 111" fill="none" xmlns="http://www.w3.org/2000/svg">
<g clip-path="url(#clip0_451_503)">
<path d="M110.941 30.1505C110.859 30.3027 110.788 30.4601 110.726 30.6216C109.635 34.0894 106.335 35.7845 102.902 34.6444C102.734 34.5884 102.571 34.5239 102.293 34.4293L101.459 35.6038C108.084 42.5264 111.365 50.9462 110.709 60.7386C110.053 70.5309 105.585 78.329 97.9479 84.4449C98.7417 88.8162 98.1092 93.2649 98.419 97.7351C99.3354 97.7803 100.189 97.8061 101.041 97.8706C106.273 98.2793 110.541 102.676 110.763 107.919C110.847 109.898 110.117 110.672 108.119 110.675C99.2989 110.675 90.4789 110.675 81.6589 110.675C75.7431 110.675 69.828 110.675 63.9136 110.675C63.4477 110.694 62.9811 110.663 62.5218 110.582C61.5752 110.367 60.9772 109.507 60.9966 108.392C61.0568 104.735 62.6616 101.868 65.5958 99.7206C65.9131 99.5253 66.1875 99.2677 66.4025 98.9634H65.2689C59.7116 98.9634 54.155 98.9634 48.5991 98.9634C48.1353 98.9778 47.6718 98.9264 47.2224 98.8107C46.752 98.6758 46.3456 98.3768 46.0768 97.9679C45.808 97.559 45.6947 97.0673 45.7574 96.582C45.8014 96.0958 46.0149 95.6404 46.3605 95.2956C46.7061 94.9508 47.1619 94.7383 47.6483 94.6954C48.0413 94.6664 48.4355 94.6577 48.8293 94.6696H73.338V90.6705C67.4852 89.7716 61.9886 87.2926 57.4406 83.5005C53.0672 83.5005 48.6959 83.5156 44.3182 83.4855C43.5322 83.4919 42.7494 83.3832 41.9949 83.1628C40.5464 82.6995 39.3097 81.7364 38.5058 80.4454C37.7019 79.1545 37.3831 77.6197 37.6064 76.1154C37.8357 74.5937 38.6012 73.204 39.7648 72.197C40.9285 71.1899 42.4136 70.6318 43.9525 70.6234C48.541 70.5889 53.1296 70.6234 57.7203 70.6234H59.0691C58.8109 70.32 58.656 70.1114 58.4753 69.9307C55.967 67.4181 53.4573 64.9083 50.9461 62.4014C49.5543 61.0053 49.5586 59.9598 50.9633 58.5508C53.3425 56.1672 55.7304 53.7923 58.1591 51.3679C57.944 51.1162 57.7762 50.8968 57.589 50.6967C56.3585 49.406 56.365 48.3648 57.645 47.0676C59.1056 45.5897 60.5835 44.1248 62.0528 42.6533C65.882 38.827 69.7097 34.9993 73.536 31.1702C73.7382 30.968 73.9296 30.755 74.1254 30.5442V20.4528H72.9788C70.2554 20.4528 67.5298 20.4528 64.8042 20.4528C61.1149 20.4528 58.6818 18.0069 58.6689 14.3154C58.6689 11.5898 58.6689 8.86427 58.6689 6.14083V4.98133H7.40774C7.15675 4.97201 6.90544 4.9756 6.65482 4.99209C6.25673 5.01616 5.88099 5.18416 5.59761 5.46477C5.31422 5.74539 5.14254 6.11947 5.11456 6.51729C5.09232 6.83876 5.08729 7.16119 5.0995 7.48319V92.1355C5.0995 92.3872 5.0995 92.6389 5.0995 92.8884C5.15758 93.9812 5.75776 94.5879 6.85703 94.661C7.14314 94.6804 7.43141 94.661 7.71752 94.661H27.6141C27.9733 94.661 28.3347 94.6481 28.6897 94.6804C29.1954 94.7125 29.673 94.9241 30.0367 95.277C30.4003 95.63 30.6259 96.1011 30.6731 96.6057C30.7152 97.1108 30.5756 97.6144 30.2795 98.0257C29.9833 98.4371 29.5499 98.7292 29.0575 98.8494C28.674 98.9327 28.2817 98.9689 27.8894 98.957C21.0055 98.957 14.1217 98.957 7.2378 98.957C3.97872 98.957 1.95442 97.4511 0.956263 94.3147C0.91408 94.2165 0.859886 94.1241 0.794922 94.0393V5.62454C1.29615 4.6522 1.70274 3.61531 2.31798 2.72256C3.12469 1.5566 4.45198 1.11345 5.74271 0.676758H61.4591C61.8384 0.935658 62.2013 1.21802 62.5454 1.52218C67.5735 6.53307 72.593 11.549 77.6039 16.5699C77.8858 16.8454 78.1062 17.1773 78.2508 17.544C78.3954 17.9106 78.4608 18.3037 78.4429 18.6974C78.4235 20.7045 78.4429 22.7116 78.4429 24.7208V25.9126L86.1872 18.222C86.1184 18.0069 85.9958 17.667 85.9119 17.3228C85.4149 15.2727 85.7699 13.4033 87.1854 11.805C89.5324 9.15038 93.3744 9.04927 95.9645 11.6092C100.035 15.6169 104.021 19.6827 108.082 23.6797C109.354 24.9317 110.479 26.2331 110.941 27.9993V30.1505ZM62.2163 48.8381L71.7913 58.4432L98.7073 31.5294L89.1193 21.9372L62.2163 48.8381ZM78.4923 76.5069C85.8667 76.3413 92.813 71.9162 95.4267 64.0708C97.8834 56.705 94.9147 49.1113 90.9995 45.8844L78.4859 58.4023L78.4923 76.5069ZM94.1639 42.7329C98.8406 47.6807 101.065 53.5169 100.525 60.2847C99.9786 67.0889 96.7561 72.4885 91.5029 76.522L96.0677 80.3425C109.977 69.2724 109.231 48.7821 98.2663 38.6865C96.9175 40.0267 95.5708 41.3669 94.1639 42.7415V42.7329ZM77.8147 97.7157H93.9488C93.9918 97.5652 94.0213 97.4111 94.037 97.2554C94.037 93.921 94.1252 90.5866 93.9682 87.2565C93.8219 84.1308 92.1289 81.8677 89.3301 80.5275C86.5314 79.1873 83.7736 79.5853 81.2588 81.2245C78.9893 82.7046 77.804 84.9332 77.7609 87.6653C77.7093 90.8211 77.7416 93.9769 77.7416 97.1306C77.7518 97.3309 77.7726 97.5305 77.804 97.7286L77.8147 97.7157ZM106.114 106.293C105.899 105.862 105.785 105.538 105.606 105.245C104.264 103.072 102.278 102.085 99.7549 102.085C90.509 102.085 81.2631 102.085 72.0172 102.085C71.5128 102.085 71.0093 102.125 70.5114 102.205C68.3171 102.556 66.2563 104.341 65.8131 106.293H106.114ZM54.7473 79.1873H64.744C65.0667 79.1978 65.3898 79.192 65.712 79.1701C66.2353 79.1309 66.7262 78.9016 67.0923 78.5256C67.4584 78.1497 67.6744 77.6528 67.6997 77.1286C67.7144 76.6039 67.5383 76.0917 67.204 75.687C66.8697 75.2823 66.4 75.0126 65.8819 74.9279C65.5969 74.8894 65.3089 74.8757 65.0215 74.8871C58.1763 74.8871 51.3319 74.8871 44.4882 74.8871C44.0958 74.877 43.7041 74.9264 43.3265 75.0334C42.8581 75.1732 42.4552 75.4761 42.1908 75.8873C41.9264 76.2984 41.818 76.7907 41.8852 77.2749C41.9315 77.7421 42.1325 78.1805 42.4564 78.5203C42.7803 78.8602 43.2084 79.0821 43.6729 79.1508C43.9936 79.1853 44.3164 79.196 44.6387 79.183L54.7473 79.1873ZM61.5279 70.6105C62.8939 70.6105 64.2728 70.561 65.6475 70.6212C68.3128 70.7395 70.2532 72.0131 71.417 74.431C71.5547 74.7171 71.673 75.0118 71.8279 75.3646L74.0544 76.0444V62.651C73.3101 63.4727 72.6238 64.2128 71.6537 63.9417C70.8405 63.7137 70.1177 63.163 69.3712 62.7628L61.5279 70.6105ZM91.8858 14.0336C91.0253 14.1283 90.438 14.3972 90.1648 15.0576C89.8464 15.8342 90.0465 16.5097 90.6445 17.1056C94.9785 21.4252 99.3082 25.7498 103.634 30.0795C104.455 30.897 105.398 30.94 106.112 30.2559C106.826 29.5718 106.832 28.5457 105.991 27.7003C101.672 23.3591 97.342 19.0323 93.0023 14.7199C92.6645 14.3864 92.1784 14.2057 91.8815 14.0272L91.8858 14.0336ZM61.2525 54.5839L55.4228 60.4245L60.3211 65.3163L66.1552 59.4866C64.5396 57.8753 62.881 56.2103 61.2525 54.5839ZM75.4376 80.7341L71.658 79.8972C70.6985 80.833 69.937 81.8333 68.9539 82.4593C67.9708 83.0853 66.7338 83.3435 65.6195 83.7501C68.0296 84.9796 70.6137 85.8328 73.2821 86.2799L75.4376 80.7341ZM70.6576 16.1569L62.9735 8.46629C62.9735 10.4239 62.9499 12.5256 62.9735 14.6274C62.9886 15.5782 63.5716 16.1332 64.5611 16.1461C66.6435 16.1784 68.7172 16.1569 70.6576 16.1569Z" fill="white"/>
<path d="M39.6217 26.476H59.4989C59.8216 26.476 60.1442 26.476 60.4669 26.476C60.9907 26.4944 61.4894 26.7046 61.8682 27.0668C62.247 27.4289 62.4794 27.9177 62.5213 28.44C62.5564 28.964 62.3986 29.4828 62.0776 29.8985C61.7566 30.3141 61.2947 30.598 60.7788 30.6967C60.4237 30.7568 60.0632 30.7798 59.7032 30.7655C46.3069 30.7655 32.9114 30.7655 19.5165 30.7655C19.0885 30.778 18.6608 30.7324 18.2451 30.63C17.756 30.4968 17.332 30.1903 17.0521 29.7675C16.7723 29.3448 16.6558 28.8348 16.7242 28.3325C16.7851 27.8487 17.0109 27.4008 17.3636 27.0642C17.7163 26.7275 18.1743 26.5228 18.6603 26.4846C19.0153 26.4523 19.3767 26.4674 19.7359 26.4674L39.6217 26.476Z" fill="white"/>
<path d="M37.8132 36.7909H55.8834C56.2405 36.7909 56.6019 36.7758 56.959 36.8102C57.4473 36.8429 57.9087 37.0461 58.2625 37.3842C58.6164 37.7223 58.8402 38.1739 58.8951 38.6603C58.9645 39.1625 58.8477 39.6728 58.5667 40.0949C58.2858 40.517 57.86 40.8216 57.3699 40.9513C56.9892 41.0493 56.5969 41.0949 56.2039 41.0868C43.9463 41.0868 31.6895 41.0868 19.4333 41.0868C19.111 41.0964 18.7886 41.0711 18.4717 41.0116C17.9572 40.9126 17.4973 40.6276 17.1798 40.2109C16.8623 39.7941 16.7096 39.275 16.7507 38.7528C16.8325 37.6664 17.6607 36.8748 18.8094 36.7995C19.13 36.778 19.4548 36.7995 19.7753 36.7995L37.8132 36.7909Z" fill="white"/>
<path d="M34.907 47.1062H49.7309C49.9805 47.1062 50.2322 47.1213 50.4817 47.1062C52.2866 46.9836 53.0072 48.2787 53.0094 49.2575C53.0094 50.5482 52.0048 51.4087 50.443 51.4087C40.0584 51.4173 29.6745 51.4173 19.2913 51.4087C18.8981 51.4132 18.5067 51.3551 18.1318 51.2366C17.6702 51.0787 17.278 50.7649 17.0228 50.3491C16.7675 49.9333 16.6653 49.4415 16.7335 48.9584C16.7928 48.4926 17.0075 48.0605 17.3428 47.7318C17.6781 47.4031 18.1145 47.1971 18.5814 47.1471C18.9734 47.1137 19.367 47.103 19.7603 47.1149C24.8027 47.1062 29.8516 47.1034 34.907 47.1062Z" fill="white"/>
<path d="M29.3111 57.4168C32.6778 57.4168 36.0444 57.4168 39.4111 57.4168C40.3877 57.4168 41.1729 57.7201 41.6225 58.63C41.7597 58.9031 41.8353 59.2029 41.844 59.5084C41.8527 59.8139 41.7943 60.1175 41.6728 60.3979C41.5514 60.6784 41.3699 60.9287 41.1412 61.1314C40.9124 61.334 40.642 61.484 40.349 61.5707C39.9702 61.6755 39.5782 61.7248 39.1852 61.717C32.5881 61.7256 25.9976 61.7256 19.4134 61.717C19.0562 61.7233 18.6995 61.6872 18.3507 61.6095C17.8569 61.498 17.4202 61.2115 17.1212 60.803C16.8223 60.3945 16.6813 59.8916 16.7244 59.3873C16.7511 58.8802 16.9654 58.4012 17.3256 58.0434C17.6858 57.6856 18.1662 57.4745 18.6734 57.4512C19.7103 57.3909 20.7515 57.4189 21.7883 57.4168C24.2967 57.4139 26.8043 57.4139 29.3111 57.4168Z" fill="white"/>
<path d="M25.3228 67.7339C27.3987 67.7339 29.4746 67.7059 31.5505 67.7446C32.8606 67.7683 33.7018 68.5901 33.7469 69.7603C33.7851 70.2651 33.6353 70.7662 33.3263 71.1673C33.0174 71.5684 32.5711 71.8411 32.0733 71.933C31.7226 72.001 31.3656 72.0313 31.0084 72.0234C27.1793 72.0234 23.3501 72.0234 19.521 72.0234C19.1606 72.0326 18.8002 72.0052 18.4454 71.9417C17.9307 71.8506 17.4687 71.5704 17.1503 71.156C16.8318 70.7415 16.6799 70.223 16.7244 69.7022C16.7426 69.1945 16.9524 68.7126 17.3116 68.3534C17.6708 67.9941 18.1528 67.7843 18.6605 67.7662C20.8762 67.7081 23.0963 67.7489 25.3142 67.7489L25.3228 67.7339Z" fill="white"/>
<path d="M40.3565 96.9474C40.3503 97.5086 40.123 98.0448 39.7238 98.4395C39.3247 98.8342 38.786 99.0556 38.2247 99.0555C37.9382 99.0616 37.6534 99.0091 37.3879 98.9013C37.1223 98.7936 36.8815 98.6328 36.6801 98.4289C36.4788 98.2249 36.3212 97.9821 36.2169 97.7151C36.1126 97.4482 36.0638 97.1628 36.0735 96.8764C36.0804 96.5987 36.1421 96.3252 36.2549 96.0714C36.3677 95.8176 36.5294 95.5886 36.7308 95.3974C36.9322 95.2062 37.1693 95.0565 37.4286 94.9571C37.6879 94.8576 37.9643 94.8102 38.2419 94.8177C38.8024 94.8272 39.337 95.0551 39.732 95.4528C40.1269 95.8506 40.351 96.3868 40.3565 96.9474Z" fill="white"/>
<path d="M88.0148 88.7577C88.0188 89.0351 87.968 89.3106 87.8653 89.5683C87.7626 89.826 87.6101 90.061 87.4165 90.2596C87.2228 90.4583 86.9918 90.6167 86.7368 90.7259C86.4818 90.8352 86.2077 90.893 85.9303 90.896C85.6448 90.9052 85.3605 90.856 85.0947 90.7513C84.829 90.6466 84.5874 90.4886 84.385 90.2871C84.1825 90.0857 84.0233 89.8449 83.9173 89.5797C83.8113 89.3145 83.7606 89.0304 83.7684 88.7448C83.7694 88.4677 83.8256 88.1935 83.9336 87.9383C84.0416 87.683 84.1993 87.4518 84.3975 87.258C84.5956 87.0643 84.8304 86.9118 85.088 86.8096C85.3456 86.7073 85.6209 86.6573 85.8981 86.6625C86.1747 86.6608 86.449 86.7136 86.7052 86.8181C86.9613 86.9225 87.1944 87.0764 87.391 87.2711C87.5877 87.4657 87.744 87.6972 87.851 87.9523C87.958 88.2074 88.0137 88.4811 88.0148 88.7577Z" fill="white"/>
</g>
<defs>
<clipPath id="clip0_451_503">
<rect width="110.142" height="110" fill="white" transform="translate(0.798828 0.678711)"/>
</clipPath>
</defs>
</svg>
