<svg width="111" height="111" viewBox="0 0 111 111" fill="none" xmlns="http://www.w3.org/2000/svg">
<g clip-path="url(#clip0_451_528)">
<path d="M59.9796 89.5957V70.0454H35.7096C35.6766 70.3791 35.6179 70.7239 35.6142 71.0722C35.6142 72.8142 35.6142 74.5562 35.6142 76.2981C35.5922 77.809 34.7194 78.7662 33.4138 78.7699C32.1083 78.7735 31.2135 77.8127 31.2135 76.3091C31.2135 67.7827 31.2135 59.2563 31.2135 50.7299C31.2135 49.5527 31.7966 48.8962 32.8087 48.4305C39.0236 45.548 45.2347 42.6521 51.4422 39.7427C52.0686 39.4699 52.6806 39.1651 53.2758 38.8295C54.2476 38.2538 54.4603 37.1939 53.8883 36.0644C53.3565 35.0156 52.4213 34.5572 51.4165 34.9642C49.6525 35.716 47.9106 36.5228 46.1723 37.3333C41.1237 39.6926 36.0787 42.0629 31.0375 44.4441C30.3254 44.7571 29.5297 44.8254 28.7747 44.6385C24.6747 43.8607 20.4728 43.7813 16.3463 44.4038C13.8625 44.7737 11.4149 45.3552 9.03011 46.1421C6.46302 47.0039 5.1538 49.0759 4.87509 51.7714C4.84696 52.1839 4.84083 52.5977 4.85675 53.0109V73.9144C4.85675 74.2371 4.85675 74.5562 4.85675 74.8789C4.92643 76.2504 5.67822 76.9472 7.05711 76.9399C8.43601 76.9326 9.1658 76.2321 9.23181 74.8459C9.23181 74.4791 9.23181 74.1124 9.23181 73.7457V55.5927C9.21405 55.1805 9.22385 54.7676 9.26115 54.3568C9.32325 53.8275 9.57533 53.3388 9.97057 52.9813C10.3658 52.6238 10.8773 52.4219 11.4102 52.4131C11.9431 52.4138 12.4576 52.6079 12.8582 52.9593C13.2589 53.3107 13.5184 53.7955 13.5885 54.3238C13.6326 54.7796 13.6436 55.238 13.6215 55.6953C13.6215 71.005 13.6215 86.3159 13.6215 101.628C13.6215 101.995 13.6215 102.361 13.6215 102.728C13.5849 103.96 13.9333 105.024 15.0885 105.625C15.6726 105.949 16.332 106.113 16.9998 106.1C17.6676 106.087 18.3202 105.898 18.8914 105.552C19.2707 105.332 19.5886 105.02 19.8161 104.645C20.0436 104.271 20.1733 103.845 20.1933 103.407C20.2373 102.952 20.2226 102.49 20.2226 102.031V75.902C20.2048 75.4899 20.2146 75.077 20.252 74.6662C20.3121 74.1374 20.564 73.649 20.9601 73.2935C21.3562 72.938 21.8688 72.7401 22.401 72.7372C22.9336 72.7303 23.4502 72.9198 23.852 73.2695C24.2538 73.6192 24.5127 74.1047 24.5794 74.6332C24.6228 75.089 24.6351 75.5472 24.616 76.0047V101.72C24.616 102.042 24.616 102.365 24.616 102.684C24.4584 105.523 26.9118 106.502 29.0938 105.9C30.4837 105.515 31.1805 104.507 31.1988 102.893C31.2245 100.326 31.1988 97.759 31.1988 95.1919C31.1988 94.8252 31.1805 94.4585 31.1988 94.0917C31.2245 93.5374 31.4587 93.0132 31.8545 92.6242C32.2503 92.2352 32.7784 92.0101 33.3332 91.9941C34.5287 91.9684 35.4528 92.8449 35.5665 94.1394C35.5922 94.4108 35.5665 94.6895 35.5665 94.9646C35.5665 97.5317 35.5665 100.099 35.5665 102.666C35.5849 105.713 34.4663 108.167 31.6829 109.56C28.8994 110.954 26.0389 110.84 23.3362 109.139C23.0281 108.944 22.7421 108.721 22.3863 108.467C20.7314 109.869 18.6036 110.585 16.438 110.47C12.261 110.272 9.23182 107.199 9.21715 103.011C9.19148 96.2298 9.21715 89.4416 9.21715 82.6608V81.293C8.08029 81.293 7.07912 81.3736 6.08896 81.293C4.56262 81.1788 3.1351 80.4945 2.09011 79.3762C1.04512 78.2578 0.459156 76.7872 0.448684 75.2566C0.40101 67.4196 0.379006 59.579 0.448684 51.742C0.492692 47.0992 3.85925 42.9406 8.39201 41.6533C10.0019 41.1949 11.6265 40.7842 13.2732 40.3478C5.13547 31.1209 11.6265 20.0347 20.1896 18.4505V16.0484C20.1896 14.6292 20.1896 13.2063 20.1896 11.787C20.1768 10.9035 20.3414 10.0263 20.6739 9.20756C21.0063 8.38881 21.4997 7.64514 22.1249 7.02064C22.7501 6.39613 23.4943 5.90351 24.3134 5.57198C25.1325 5.24044 26.0099 5.07674 26.8934 5.09058C38.3842 5.09058 49.8665 5.09058 61.3402 5.09058H63.0124C63.0124 4.39013 62.9941 3.76669 63.0124 3.14326C63.0601 1.64334 63.9366 0.686181 65.2128 0.70085C66.489 0.715519 67.3435 1.66534 67.3838 3.19093C67.3838 3.77403 67.3838 4.36079 67.3838 5.09058H68.9644C80.355 5.09058 91.7456 5.15293 103.136 5.05758C104.075 5.02674 105.01 5.18666 105.886 5.52767C106.761 5.86868 107.558 6.38369 108.228 7.04155C108.899 7.69941 109.429 8.48644 109.787 9.35506C110.144 10.2237 110.322 11.1558 110.309 12.0951C110.207 20.0677 110.276 28.0441 110.276 36.0204C110.295 36.4326 110.284 36.8456 110.243 37.2563C110.172 37.7832 109.913 38.2667 109.513 38.6173C109.114 38.9679 108.6 39.1618 108.069 39.1633C107.537 39.1557 107.026 38.9557 106.63 38.6004C106.234 38.2451 105.981 37.7585 105.916 37.2306C105.877 36.8199 105.867 36.4069 105.887 35.9947C105.887 28.203 105.887 20.4112 105.887 12.6195C105.902 12.2108 105.889 11.8015 105.846 11.3946C105.786 10.9128 105.565 10.4653 105.22 10.1236C104.875 9.78189 104.425 9.56572 103.943 9.50965C103.532 9.47235 103.119 9.46255 102.707 9.48031H27.7736C27.5022 9.48031 27.2271 9.48031 26.9521 9.48031C25.4852 9.56099 24.6747 10.3568 24.6417 11.8274C24.6014 13.5693 24.6417 15.3113 24.6417 17.0532V18.3991C29.0791 19.47 32.4163 21.9711 34.2426 26.2141C36.069 30.4571 35.4565 34.6012 32.7757 38.7122C33.3222 38.4811 33.6045 38.3748 33.8759 38.2464C38.927 35.8823 43.9732 33.5144 49.0144 31.1429C51.5815 29.9474 54.0239 30.0427 56.1656 31.9717C58.3073 33.9007 59.0995 36.3725 58.3 39.1999C57.7572 41.1326 56.3453 42.3538 54.574 43.1789L36.6814 51.511C36.3513 51.6613 36.0286 51.8227 35.6656 51.9951V65.586H102.938C103.774 65.586 104.592 65.586 105.23 64.9222C105.788 64.3538 105.894 63.6533 105.89 62.8942C105.89 60.3271 105.89 57.76 105.89 55.1929C105.89 53.429 106.664 52.4315 108.021 52.3911C109.378 52.3508 110.273 53.3886 110.28 55.2076C110.28 57.8187 110.214 60.4335 110.28 63.0446C110.302 63.9597 110.139 64.8698 109.801 65.7204C109.463 66.571 108.956 67.3447 108.312 67.9952C107.668 68.6457 106.9 69.1596 106.053 69.5062C105.205 69.8528 104.297 70.025 103.382 70.0124C90.9828 69.9537 78.5837 69.9904 66.1883 69.9904H64.5014V89.603C66.4743 91.3266 68.5354 93.1346 70.6074 94.9352L83.7582 106.377C84.0421 106.609 84.3014 106.87 84.532 107.155C84.8529 107.552 85.019 108.052 84.9994 108.563C84.9799 109.073 84.776 109.559 84.4257 109.931C84.0931 110.316 83.6329 110.569 83.1292 110.643C82.6255 110.717 82.112 110.608 81.6825 110.334C81.3766 110.133 81.0894 109.905 80.8244 109.652L65.6162 96.3728C65.3118 96.1088 64.9891 95.863 64.439 95.4193V98.1441C64.439 99.2919 64.439 100.436 64.439 101.584C64.4133 103.113 63.5809 104.052 62.279 104.067C60.9771 104.081 60.0786 103.139 60.0603 101.635C60.0309 99.666 60.0603 97.6967 60.0603 95.4303C59.4992 95.8961 59.0995 96.2151 58.7144 96.5525L43.7006 109.637C43.4369 109.891 43.1509 110.121 42.8461 110.323C42.3988 110.613 41.8587 110.724 41.3333 110.634C40.8079 110.543 40.3359 110.258 40.0113 109.835C39.6778 109.448 39.4981 108.952 39.5062 108.441C39.5143 107.93 39.7097 107.439 40.0553 107.063C40.3656 106.727 40.7002 106.415 41.0564 106.128C47.1221 100.825 53.1902 95.5244 59.2608 90.2264C59.4882 90.0321 59.7266 89.8194 59.9796 89.5957ZM22.3643 39.5007C26.3653 39.8124 30.8284 36.2514 30.8834 31.1209C30.9348 26.5882 27.0291 22.6862 22.5 22.6862C17.9013 22.6605 13.9406 26.5442 13.9809 31.1209C14.0249 36.2478 18.51 39.7647 22.3643 39.5007Z" fill="white"/>
<path d="M65.2581 22.6715H45.3594C44.9484 22.6899 44.5366 22.6789 44.1272 22.6385C43.6002 22.5694 43.1159 22.3118 42.764 21.9134C42.4121 21.515 42.2164 21.0027 42.2129 20.4711C42.2152 19.94 42.4096 19.4277 42.7601 19.0287C43.1105 18.6297 43.5935 18.3709 44.1199 18.3001C44.4855 18.2644 44.8531 18.2546 45.2201 18.2707H85.3107C85.6777 18.2546 86.0453 18.2644 86.4109 18.3001C86.9386 18.3683 87.4237 18.6255 87.7764 19.024C88.129 19.4225 88.3253 19.9353 88.3289 20.4674C88.3263 20.9996 88.131 21.5128 87.779 21.912C87.427 22.3112 86.9423 22.5693 86.4146 22.6385C86.0052 22.6789 85.5934 22.6899 85.1824 22.6715H65.2581Z" fill="white"/>
<path d="M78.0375 44.6751H93.9351C94.3461 44.6573 94.7577 44.6671 95.1673 44.7044C95.6939 44.7716 96.1784 45.0269 96.5315 45.4232C96.8847 45.8194 97.0827 46.33 97.089 46.8608C97.0897 47.3921 96.8981 47.9057 96.5496 48.3068C96.2011 48.7079 95.7192 48.9693 95.193 49.0428C94.8276 49.0816 94.4599 49.0926 94.0928 49.0758H61.6191C61.2987 49.0887 60.9778 49.0814 60.6583 49.0538C60.1072 48.9995 59.5969 48.7394 59.2292 48.3254C58.8614 47.9115 58.6633 47.3741 58.6743 46.8204C58.6851 46.2888 58.8903 45.7796 59.2512 45.389C59.612 44.9984 60.1035 44.7536 60.6326 44.7008C61.0424 44.6665 61.4539 44.6579 61.8648 44.6751H78.0375Z" fill="white"/>
<path d="M78.8326 31.4729H63.7528C63.386 31.4853 63.0188 31.4792 62.6526 31.4546C62.0983 31.4292 61.5748 31.1923 61.19 30.7924C60.8052 30.3926 60.5884 29.8605 60.5843 29.3056C60.5659 28.0917 61.4277 27.1932 62.7223 27.0832C62.9937 27.0575 63.2724 27.0832 63.5438 27.0832H94.1105C94.4297 27.0703 94.7494 27.0777 95.0677 27.1052C95.6183 27.1522 96.131 27.4046 96.504 27.8122C96.877 28.2199 97.083 28.753 97.081 29.3056C97.0698 29.8611 96.8488 30.3918 96.4624 30.7911C96.076 31.1904 95.5529 31.4287 94.998 31.4583C94.6313 31.4913 94.2645 31.4583 93.8978 31.4583L78.8326 31.4729Z" fill="white"/>
<path d="M80.224 35.8734H93.9359C94.3469 35.8556 94.7585 35.8654 95.1681 35.9027C95.6953 35.97 96.1803 36.2258 96.5335 36.6228C96.8867 37.0199 97.0843 37.5313 97.0898 38.0627C97.0895 38.594 96.8969 39.1072 96.5478 39.5076C96.1986 39.9079 95.7164 40.1685 95.1901 40.2411C94.8248 40.2799 94.457 40.2909 94.09 40.2741H65.9839C65.6647 40.287 65.345 40.2796 65.0268 40.2521C64.4737 40.2027 63.9606 39.9433 63.593 39.5272C63.2253 39.1111 63.031 38.57 63.0501 38.0151C63.0585 37.4837 63.2626 36.974 63.6232 36.5836C63.9838 36.1932 64.4757 35.9495 65.0048 35.899C65.3705 35.8664 65.7381 35.8578 66.105 35.8734H80.224Z" fill="white"/>
<path d="M108.073 47.9647C107.494 47.958 106.941 47.7232 106.534 47.3112C106.127 46.8993 105.898 46.3435 105.898 45.7644C105.898 45.4768 105.955 45.192 106.066 44.9267C106.176 44.6613 106.339 44.4207 106.544 44.2189C106.749 44.0171 106.992 43.8582 107.259 43.7514C107.526 43.6446 107.811 43.5921 108.099 43.597C108.385 43.5955 108.669 43.6509 108.934 43.7598C109.199 43.8688 109.44 44.0292 109.642 44.2318C109.845 44.4343 110.005 44.6751 110.114 44.94C110.223 45.205 110.279 45.4889 110.277 45.7754C110.274 46.3577 110.041 46.9151 109.628 47.3254C109.214 47.7358 108.655 47.9657 108.073 47.9647Z" fill="white"/>
<path d="M35.5997 85.393C35.5939 85.9727 35.3595 86.5268 34.9475 86.9347C34.5355 87.3426 33.9791 87.5714 33.3993 87.5713C32.8202 87.5646 32.2671 87.3298 31.86 86.9179C31.4529 86.5059 31.2246 85.9501 31.2246 85.371C31.2251 85.0839 31.2826 84.7997 31.3938 84.535C31.505 84.2703 31.6676 84.0303 31.8723 83.829C32.0771 83.6277 32.3197 83.4691 32.5863 83.3623C32.8528 83.2556 33.1379 83.2029 33.425 83.2073C33.7116 83.2068 33.9955 83.2631 34.2603 83.3729C34.5251 83.4827 34.7655 83.6438 34.9677 83.847C35.1699 84.0502 35.3298 84.2915 35.4383 84.5568C35.5468 84.8221 35.6016 85.1063 35.5997 85.393Z" fill="white"/>
</g>
<defs>
<clipPath id="clip0_451_528">
<rect width="109.861" height="110" fill="white" transform="translate(0.445312 0.678711)"/>
</clipPath>
</defs>
</svg>
