<svg width="111" height="111" viewBox="0 0 111 111" fill="none" xmlns="http://www.w3.org/2000/svg">
<g clip-path="url(#clip0_451_539)">
<path d="M110.238 39.9499C109.606 41.7242 108.545 43.0873 106.575 43.6884V44.8387C106.575 50.9736 106.575 57.1085 106.575 63.2434C106.575 68.4197 103.193 71.8246 98.0394 71.8361C90.5769 71.8562 83.1172 71.8361 75.6547 71.8361H74.2398V73.182C74.2398 82.833 74.2398 92.483 74.2398 102.132C74.2398 106.339 71.8213 109.52 67.9649 110.426C67.1582 110.6 66.3342 110.681 65.509 110.667C47.8252 110.683 30.1413 110.683 12.4574 110.667C8.20701 110.667 5.07533 108.49 4.05157 104.818C3.80985 103.879 3.69476 102.912 3.70936 101.942C3.68635 92.2913 3.68155 82.6412 3.69497 72.9922V71.6607C0.99465 70.5909 0.0571579 68.4974 0.244081 65.751C0.31885 64.5806 0.244081 63.4016 0.244081 62.1132H23.6843V39.5214H5.54695C1.95802 39.5214 0.0312791 37.5889 0.0312791 34.0086C0.0312791 24.718 0.0312791 15.4275 0.0312791 6.13692C0.0226518 2.59401 1.93502 0.698895 5.48656 0.681641C7.02508 0.681641 8.56361 0.681641 10.197 0.681641V3.90822H6.29752C3.44766 3.90822 3.26937 4.08939 3.26937 6.97376C3.26937 15.9403 3.26937 24.9078 3.26937 33.8763C3.26937 35.8146 3.72948 36.2747 5.68211 36.2747H43.9927C45.9482 36.2747 46.394 35.8318 46.394 33.8706C46.394 24.6874 46.394 15.5042 46.394 6.32097C46.394 4.30795 45.9943 3.9111 44.0158 3.90822H13.5962V0.744907C13.9758 0.724777 14.3525 0.690269 14.7321 0.690269C24.5959 0.690269 34.4606 0.690269 44.3263 0.690269C47.6593 0.690269 49.6004 2.62277 49.6177 5.9615C49.6349 9.69997 49.6177 13.4384 49.6177 17.1539V18.4595H76.2586C81.6103 18.4595 85.0123 21.8471 85.0209 27.1816C85.0209 29.4391 85.0209 31.6965 85.0209 34.0834H97.0272V37.3358H60.2349C60.2349 37.9915 60.1947 38.5523 60.2349 39.1073C60.3126 39.97 60.8647 40.4445 61.7016 40.5653C62.0581 40.5989 62.4166 40.6066 62.7742 40.5883H104.217C106.77 40.5883 107.173 40.1368 106.931 37.3761H100.386V34.138H110.23L110.238 39.9499ZM6.92443 71.8936V101.87C6.92443 105.531 8.81667 107.421 12.5005 107.421H65.4487C69.1123 107.421 71.0046 105.514 71.0046 101.836C71.0046 92.2596 71.0046 82.6815 71.0046 73.1014V71.8936H6.92443ZM81.7972 34.1294V27.3772C81.7972 23.5754 79.9108 21.6832 76.1205 21.6803H49.6838C49.6608 22.1548 49.6292 22.543 49.6292 22.9255C49.6292 26.6208 49.6292 30.3162 49.6292 34.0086C49.6292 37.6033 47.7053 39.5099 44.1049 39.5128H27.0259V62.142H47.1216V65.429H3.52243C3.34126 68.2271 3.67772 68.5923 6.28602 68.5923H71.9306C72.2872 68.5923 72.6466 68.5923 73.0061 68.5923C73.9896 68.5549 74.5216 67.9999 74.6367 67.0624C74.6692 66.4877 74.6692 65.9116 74.6367 65.3369H50.5034V62.1161H60.3557V43.6251C58.6303 42.9148 57.2988 41.7674 57.1004 39.9096C56.9019 38.0519 57.0544 36.1338 57.0544 34.1265L81.7972 34.1294ZM103.348 43.8782H63.7405V62.1765H77.8316V68.5463C78.0444 68.5606 78.2888 68.5952 78.5362 68.5952C85.135 68.5952 91.7358 68.5952 98.3385 68.5952C101.286 68.5952 103.322 66.5304 103.351 63.5684C103.371 61.6675 103.351 59.7666 103.351 57.8658L103.348 43.8782Z" fill="white"/>
<path d="M6.53906 32.9734V7.21826H43.061V32.9734H6.53906ZM19.8652 29.7439V23.3886H23.0976V29.7439H26.5485V18.4682H29.8182V29.7181H33.2691V13.7174H36.4985V29.7267H39.8315V10.4765H9.81453V29.7439H13.2079V18.4394H16.4287V29.7439H19.8652Z" fill="white"/>
<path d="M58.7285 98.9572C55.4271 102.172 51.8842 104.956 46.9379 104.246C42.2217 103.567 38.9865 100.553 36.1855 96.8493C38.9836 93.2 42.1815 90.1114 46.9725 89.4874C51.8612 88.849 55.4703 91.3882 58.7112 94.7615L65.4318 90.839L67.0595 93.6055L61.5956 96.8579L67.0595 100.102L65.4318 102.874L58.7285 98.9572ZM40.4359 96.8493C45.1435 102.109 50.7656 102.937 56.0972 96.8234C50.8317 91.1611 45.7273 91.1812 40.4359 96.8493Z" fill="white"/>
<path d="M38.452 85.2283L36.4763 82.7063L39.122 80.561L36.4648 78.4387L38.4434 75.9167L41.5578 78.3237C43.6513 76.5062 45.9347 75.1603 48.8478 75.9425C51.436 76.6356 53.2419 78.3812 54.8006 80.5437C53.239 82.7465 51.4158 84.541 48.7126 85.1938C45.8685 85.8782 43.6369 84.6417 41.5808 82.7724L38.452 85.2283ZM44.1316 80.561C45.9922 82.6804 48.5171 82.6804 50.4179 80.561C48.4797 78.4473 46.1015 78.4473 44.1316 80.561Z" fill="white"/>
<path d="M17.2784 75.4683C21.2584 75.4683 24.2492 78.4418 24.3067 82.4649C24.3613 86.2034 21.1146 89.4329 17.3042 89.4444C15.4574 89.4392 13.687 88.7063 12.3768 87.4047C11.0666 86.1031 10.3221 84.3376 10.3047 82.4908C10.3076 78.4533 13.2811 75.4683 17.2784 75.4683ZM13.5399 82.3413C13.5194 82.8364 13.5989 83.3306 13.7738 83.7943C13.9486 84.258 14.2151 84.6817 14.5573 85.04C14.8996 85.3984 15.3106 85.6841 15.7658 85.88C16.2209 86.076 16.7109 86.1781 17.2065 86.1804C17.7104 86.1939 18.2119 86.1059 18.6811 85.9216C19.1504 85.7374 19.5777 85.4606 19.9378 85.1078C20.2978 84.7549 20.5833 84.3333 20.777 83.8679C20.9708 83.4025 21.069 82.9029 21.0657 82.3988C21.0547 81.4198 20.6626 80.4836 19.9727 79.7888C19.2828 79.0941 18.3493 78.6955 17.3704 78.6776C16.8777 78.6595 16.3864 78.7402 15.9254 78.9149C15.4644 79.0897 15.043 79.3549 14.686 79.6949C14.3291 80.035 14.0438 80.4431 13.8469 80.8951C13.6501 81.3471 13.5457 81.8339 13.5399 82.3269V82.3413Z" fill="white"/>
<path d="M24.0998 93.3842C24.1343 90.5746 26.2393 88.5415 29.0547 88.5933C29.6922 88.6013 30.3216 88.7365 30.9062 88.9908C31.4908 89.2451 32.0189 89.6135 32.4594 90.0743C32.8999 90.5352 33.244 91.0793 33.4717 91.6748C33.6994 92.2703 33.806 92.9052 33.7853 93.5424C33.7364 94.8082 33.2006 96.0062 32.2897 96.8866C31.3789 97.7669 30.1633 98.2615 28.8965 98.2672C27.6131 98.2551 26.387 97.734 25.4876 96.8184C24.5882 95.9028 24.0891 94.6676 24.0998 93.3842ZM28.954 95.0234C29.3878 95.0062 29.7974 94.8187 30.0939 94.5017C30.3905 94.1847 30.5502 93.7636 30.5386 93.3296C30.5134 92.9146 30.3287 92.5255 30.0232 92.2436C29.7177 91.9616 29.315 91.8088 28.8994 91.817C28.6848 91.8168 28.4724 91.8609 28.2756 91.9464C28.0788 92.032 27.9018 92.1572 27.7555 92.3143C27.6092 92.4713 27.4969 92.6568 27.4256 92.8592C27.3542 93.0616 27.3253 93.2766 27.3407 93.4906C27.355 93.9066 27.5321 94.3004 27.8338 94.587C28.1356 94.8737 28.5379 95.0304 28.954 95.0234Z" fill="white"/>
<path d="M57.7285 78.7437H60.8343V81.8638H57.7285V78.7437Z" fill="white"/>
<path d="M64.207 78.7524H67.2956V81.8554H64.207V78.7524Z" fill="white"/>
<path d="M94.6011 56.799L97.7156 54.3575L99.7286 56.8795L97.0714 59.0047L99.72 61.1558L97.7242 63.6778L94.6126 61.2593C92.6312 62.9847 90.4946 64.299 87.7109 63.7238C84.9271 63.1487 83.0004 61.3024 81.3555 59.0306C82.9314 56.8307 84.7632 55.0333 87.4635 54.3805C90.322 53.676 92.5507 54.9557 94.6011 56.799ZM85.7208 59.0018C87.5153 60.9056 89.4909 61.1126 91.4321 59.6345C92.0072 59.1916 92.0532 58.8696 91.4522 58.4008C89.5485 56.9198 87.6131 57.1067 85.7208 59.0018Z" fill="white"/>
<path d="M75.256 58.0471C74.6187 58.0541 73.9864 57.9333 73.3966 57.6917C72.8068 57.4502 72.2714 57.0929 71.822 56.6408C71.3727 56.1888 71.0186 55.6513 70.7805 55.0601C70.5425 54.4688 70.4254 53.8359 70.4362 53.1986C70.461 51.9159 70.986 50.6936 71.8994 49.7926C72.8127 48.8916 74.042 48.3832 75.325 48.376C76.5908 48.3916 77.8003 48.9014 78.6954 49.7965C79.5905 50.6917 80.1003 51.9012 80.116 53.167C80.1304 55.9909 78.0627 58.0615 75.256 58.0471ZM75.3192 51.6256C75.104 51.6248 74.8908 51.6666 74.6917 51.7485C74.4927 51.8305 74.3118 51.9509 74.1595 52.103C74.0072 52.255 73.8864 52.4357 73.8041 52.6346C73.7218 52.8334 73.6797 53.0466 73.6801 53.2619C73.694 53.6763 73.8664 54.0696 74.1617 54.3607C74.4571 54.6518 74.8529 54.8184 75.2675 54.8263C75.682 54.8402 76.085 54.689 76.3881 54.4059C76.6911 54.1228 76.8694 53.731 76.8836 53.3165C76.8973 53.1015 76.8671 52.886 76.795 52.683C76.7228 52.48 76.6102 52.2938 76.4639 52.1357C76.3176 51.9776 76.1407 51.8508 75.9439 51.7631C75.7472 51.6754 75.5346 51.6286 75.3192 51.6256Z" fill="white"/>
</g>
<defs>
<clipPath id="clip0_451_539">
<rect width="110.213" height="110" fill="white" transform="translate(0.0234375 0.678711)"/>
</clipPath>
</defs>
</svg>
