<svg width="23" height="25" viewBox="0 0 23 25" fill="none" xmlns="http://www.w3.org/2000/svg">
<g clip-path="url(#clip0_1087_13)">
<path d="M15.5392 6.5104H16.8635C17.2144 6.51085 17.551 6.64817 17.7993 6.89226C18.0475 7.13635 18.1872 7.46728 18.1876 7.81247V9.11454C18.1876 9.45986 18.3272 9.79106 18.5755 10.0352C18.8239 10.2794 19.1607 10.4166 19.5119 10.4166C19.863 10.4166 20.1999 10.2794 20.4482 10.0352C20.6965 9.79106 20.8361 9.45986 20.8361 9.11454V7.81247C20.835 6.77682 20.416 5.78392 19.6712 5.05161C18.9265 4.31929 17.9167 3.90739 16.8635 3.90625H15.5392C15.1879 3.90625 14.8511 4.04344 14.6028 4.28762C14.3544 4.53181 14.215 4.863 14.215 5.20833C14.215 5.55365 14.3544 5.88485 14.6028 6.12903C14.8511 6.37321 15.1879 6.5104 15.5392 6.5104ZM10.2422 18.229H8.91801C8.56694 18.2286 8.23038 18.0912 7.98213 17.8472C7.7339 17.603 7.59423 17.2722 7.59377 16.9269V15.6248C7.59377 15.2796 7.45426 14.9483 7.20591 14.7041C6.95758 14.46 6.62074 14.3228 6.26954 14.3228C5.91833 14.3228 5.58151 14.46 5.33316 14.7041C5.08483 14.9483 4.94531 15.2796 4.94531 15.6248V16.9269C4.94645 17.9626 5.36538 18.9555 6.11016 19.6878C6.85492 20.4201 7.86473 20.8321 8.91801 20.8332H10.2422C10.5935 20.8332 10.9303 20.6959 11.1786 20.4518C11.427 20.2076 11.5665 19.8764 11.5665 19.5311C11.5665 19.1858 11.427 18.8546 11.1786 18.6104C10.9303 18.3662 10.5935 18.229 10.2422 18.229Z" fill="#F15929"/>
<path d="M22.1467 23.7444C22.3492 24.1908 22.1179 24.721 21.6551 24.9162C21.5394 24.9721 21.4235 25 21.3079 25C20.9319 25 20.5847 24.7768 20.4401 24.4419L19.5144 22.3214H13.8155L12.8898 24.4419C12.6873 24.8883 12.1666 25.1117 11.6748 24.9162C11.212 24.721 10.9806 24.2188 11.1831 23.7444L15.8116 13.0301C15.9562 12.6953 16.3033 12.5 16.6794 12.5C17.0266 12.5 17.3737 12.6953 17.5183 13.0301L22.1467 23.7444ZM14.5677 20.5078H18.7622L16.6794 15.7087L14.5677 20.5078Z" fill="#F15929"/>
<path d="M8.32856 12.8698C6.48323 12.8698 5.0859 12.4272 4.13656 11.5418C3.19256 10.6565 2.72056 9.35518 2.72056 7.63785V6.22985C2.72056 5.69651 2.75523 5.18718 2.82456 4.70185C2.89923 4.21651 3.0139 3.74451 3.16856 3.28585C3.32323 2.82185 3.52056 2.36585 3.76056 1.91785H5.68856C5.44323 2.40851 5.24323 2.87518 5.08856 3.31785C4.93923 3.76051 4.82723 4.20851 4.75256 4.66185C4.68323 5.10985 4.64856 5.59518 4.64856 6.11785V7.55785C4.64856 8.69918 4.9499 9.58185 5.55256 10.2058C6.16056 10.8298 7.09123 11.1418 8.34456 11.1418C9.27256 11.1418 9.95256 10.9845 10.3846 10.6698C10.8219 10.3498 11.0406 9.92585 11.0406 9.39785V9.28585C11.0406 8.95518 10.9632 8.68585 10.8086 8.47785C10.6539 8.26451 10.4352 8.09918 10.1526 7.98185L11.4966 7.04585C11.9819 7.24851 12.3579 7.54451 12.6246 7.93385C12.8966 8.31785 13.0326 8.80318 13.0326 9.38985V9.55785C13.0326 10.5872 12.6299 11.3978 11.8246 11.9898C11.0246 12.5765 9.85923 12.8698 8.32856 12.8698ZM8.21656 8.46985V6.89385H8.78456C9.2379 6.89385 9.61923 6.83518 9.92856 6.71785C10.2432 6.59518 10.4806 6.41118 10.6406 6.16585C10.8006 5.92051 10.8806 5.61118 10.8806 5.23785V4.57385C10.8806 4.12585 10.7659 3.78718 10.5366 3.55785C10.3072 3.32318 9.98456 3.20585 9.56856 3.20585C9.1419 3.20585 8.8219 3.32051 8.60856 3.54985C8.40056 3.77918 8.29656 4.11518 8.29656 4.55785V4.77385C8.29656 4.93385 8.3099 5.08851 8.33656 5.23785C8.36856 5.38718 8.40856 5.54185 8.45656 5.70185L6.64856 5.61385C6.59523 5.46451 6.55256 5.30451 6.52056 5.13385C6.48856 4.96318 6.47256 4.77918 6.47256 4.58185V4.39785C6.47256 3.52851 6.73656 2.85385 7.26456 2.37385C7.7979 1.89385 8.57123 1.65385 9.58456 1.65385C10.6299 1.65385 11.4219 1.90451 11.9606 2.40585C12.5046 2.90185 12.7766 3.62985 12.7766 4.58985V5.18985C12.7766 5.74451 12.6806 6.21918 12.4886 6.61385C12.2966 7.00318 11.9926 7.33651 11.5766 7.61385L10.8886 8.08585C10.6166 8.21385 10.2886 8.30985 9.90456 8.37385C9.52056 8.43785 9.1339 8.46985 8.74456 8.46985H8.21656Z" fill="#F15929"/>
</g>
<defs>
<clipPath id="clip0_1087_13">
<rect width="22.2222" height="25" fill="white"/>
</clipPath>
</defs>
</svg>
