<svg width="23" height="26" viewBox="0 0 23 26" fill="none" xmlns="http://www.w3.org/2000/svg">
<g clip-path="url(#clip0_451_9)">
<path d="M11.5832 0.306365H8.93477C8.58356 0.306365 8.24674 0.443547 7.99839 0.687733C7.75005 0.931918 7.61053 1.26311 7.61053 1.60844C7.61053 1.95376 7.75005 2.28496 7.99839 2.52914C8.24674 2.77332 8.58356 2.9105 8.93477 2.9105V5.51465H7.36649C7.52349 5.09768 7.60606 4.65718 7.61053 4.21257C7.61059 3.35265 7.32203 2.51674 6.78964 1.83449C6.25727 1.15225 5.5108 0.661813 4.66603 0.43925C3.82127 0.216688 2.92541 0.274439 2.11742 0.603547C1.30944 0.932654 0.634487 1.51472 0.197251 2.25947C0.110195 2.40758 0.0536724 2.57112 0.0309125 2.74072C0.00815259 2.91033 0.0196014 3.08268 0.0646047 3.24793C0.109608 3.41318 0.187284 3.5681 0.293195 3.70382C0.399105 3.83954 0.531176 3.95343 0.681859 4.03894C0.832544 4.12447 0.998888 4.17996 1.17139 4.20225C1.34389 4.22456 1.51917 4.21321 1.68721 4.16887C1.85525 4.12453 2.01277 4.04808 2.15075 3.94387C2.28873 3.83967 2.40448 3.70975 2.49138 3.56154C2.60775 3.36381 2.77489 3.1996 2.9761 3.08533C3.1773 2.97108 3.40549 2.91079 3.63784 2.9105C3.98905 2.9105 4.32587 3.04769 4.57421 3.29187C4.82255 3.53606 4.96207 3.86725 4.96207 4.21257C4.96207 4.5579 4.82255 4.8891 4.57421 5.13328C4.32587 5.37746 3.98905 5.51465 3.63784 5.51465C3.28663 5.51465 2.9498 5.65183 2.70146 5.89601C2.45311 6.14019 2.3136 6.47139 2.3136 6.81672C2.3136 7.16204 2.45311 7.49324 2.70146 7.73742C2.9498 7.9816 3.28663 8.11879 3.63784 8.11879C3.98905 8.11879 4.32587 8.25597 4.57421 8.50015C4.82255 8.74433 4.96207 9.07553 4.96207 9.42086C4.96207 9.76618 4.82255 10.0974 4.57421 10.3416C4.32587 10.5858 3.98905 10.7229 3.63784 10.7229C3.40549 10.7226 3.17731 10.6623 2.97611 10.5481C2.77493 10.4338 2.60778 10.2696 2.49142 10.0719C2.40452 9.92368 2.28877 9.79376 2.15078 9.68956C2.01281 9.58535 1.8553 9.5089 1.68725 9.46456C1.51921 9.42022 1.34393 9.40888 1.17143 9.43118C0.998929 9.45347 0.832583 9.50896 0.681899 9.59449C0.531215 9.68 0.399145 9.79389 0.293234 9.92961C0.187323 10.0653 0.109648 10.2203 0.0646442 10.3855C0.0196409 10.5507 0.00819238 10.7231 0.0309523 10.8927C0.0537122 11.0623 0.110235 11.2258 0.197291 11.374C0.634535 12.1187 1.30949 12.7007 2.11746 13.0298C2.92543 13.3589 3.82128 13.4167 4.66603 13.1941C5.5108 12.9716 6.25724 12.4811 6.78963 11.7989C7.32202 11.1167 7.61057 10.2808 7.61053 9.42086C7.60606 8.97625 7.52352 8.53575 7.36653 8.11879H8.93477V12.025C8.93477 12.3703 9.07428 12.7015 9.32263 12.9457C9.57096 13.1899 9.9078 13.3271 10.259 13.3271C10.6102 13.3271 10.947 13.1899 11.1954 12.9457C11.4437 12.7015 11.5832 12.3703 11.5832 12.025V2.9105C11.9344 2.9105 12.2713 2.77332 12.5196 2.52914C12.768 2.28496 12.9075 1.95376 12.9075 1.60844C12.9075 1.26311 12.768 0.931918 12.5196 0.687733C12.2713 0.443547 11.9344 0.306365 11.5832 0.306365ZM15.5559 6.81672H16.8802C17.2312 6.81717 17.5677 6.95449 17.8161 7.19858C18.0643 7.44267 18.204 7.7736 18.2044 8.11879V9.42086C18.2044 9.76618 18.344 10.0974 18.5923 10.3416C18.8406 10.5858 19.1775 10.7229 19.5287 10.7229C19.8798 10.7229 20.2166 10.5858 20.465 10.3416C20.7133 10.0974 20.8529 9.76618 20.8529 9.42086V8.11879C20.8518 7.08314 20.4327 6.09024 19.688 5.35793C18.9433 4.62561 17.9334 4.21371 16.8802 4.21257H15.5559C15.2047 4.21257 14.8679 4.34976 14.6195 4.59394C14.3712 4.83812 14.2318 5.16932 14.2318 5.51465C14.2318 5.85997 14.3712 6.19117 14.6195 6.43535C14.8679 6.67953 15.2047 6.81672 15.5559 6.81672ZM10.259 18.5353H8.93477C8.5837 18.5349 8.24714 18.3975 7.99889 18.1535C7.75066 17.9093 7.61099 17.5785 7.61053 17.2332V15.9312C7.61053 15.5859 7.47102 15.2546 7.22267 15.0105C6.97434 14.7663 6.6375 14.6291 6.2863 14.6291C5.93509 14.6291 5.59827 14.7663 5.34992 15.0105C5.10159 15.2546 4.96207 15.5859 4.96207 15.9312V17.2332C4.96321 18.2689 5.38214 19.2618 6.12692 19.9941C6.87168 20.7264 7.88149 21.1384 8.93477 21.1395H10.259C10.6102 21.1395 10.947 21.0023 11.1954 20.7581C11.4437 20.5139 11.5832 20.1827 11.5832 19.8374C11.5832 19.4921 11.4437 19.1609 11.1954 18.9167C10.947 18.6725 10.6102 18.5353 10.259 18.5353Z" fill="#F15929"/>
<path d="M22.1682 24.0506C22.3707 24.497 22.1393 25.0271 21.6766 25.2224C21.5609 25.2782 21.445 25.3062 21.3293 25.3062C20.9534 25.3062 20.6061 25.083 20.4616 24.7481L19.5359 22.6275H13.837L12.9113 24.7481C12.7088 25.1945 12.1881 25.4178 11.6963 25.2224C11.2335 25.0271 11.002 24.5249 11.2045 24.0506L15.8331 13.3363C15.9777 13.0015 16.3248 12.8062 16.7009 12.8062C17.0481 12.8062 17.3952 13.0015 17.5398 13.3363L22.1682 24.0506ZM14.5892 20.8139H18.7836L16.7009 16.0149L14.5892 20.8139Z" fill="#F15929"/>
<path fill-rule="evenodd" clip-rule="evenodd" d="M13.3137 24.6224C13.0657 25.1721 12.4261 25.4462 11.829 25.2077L11.8239 25.2056C11.2626 24.9674 10.9709 24.3437 11.2213 23.7539L15.6395 13.4672C15.8231 13.0396 16.2561 12.8062 16.7002 12.8062C17.121 12.8062 17.5511 13.0433 17.7332 13.4672L22.1502 23.751C22.4028 24.3145 22.111 24.9632 21.5546 25.2031C21.4153 25.2698 21.2691 25.3062 21.1179 25.3062C20.6602 25.3062 20.2361 25.0342 20.0574 24.6187C20.0574 24.6185 20.0575 24.6188 20.0574 24.6187L19.2397 22.7348H14.1329L13.3137 24.6224ZM13.9667 22.4848H19.406L20.2896 24.5205C20.4277 24.8418 20.7591 25.0562 21.1179 25.0562C21.2284 25.0562 21.3388 25.0293 21.4493 24.9757C21.891 24.7882 22.112 24.2793 21.9186 23.8507L17.5009 13.5651C17.3628 13.2437 17.0316 13.0562 16.7002 13.0562C16.3413 13.0562 16.0099 13.2437 15.8718 13.5651L11.454 23.8507C11.2608 24.3062 11.4817 24.7882 11.9234 24.9757C12.3928 25.1632 12.8898 24.9491 13.0831 24.5205L13.9667 22.4848ZM18.6882 20.7437L16.7002 16.1366L14.6846 20.7437H18.6882ZM15.0691 20.4937H18.3057L16.6985 16.7692L15.0691 20.4937Z" fill="#F15929"/>
</g>
<defs>
<clipPath id="clip0_451_9">
<rect width="22.2222" height="25" fill="white" transform="translate(0.0195312 0.306152)"/>
</clipPath>
</defs>
</svg>
