<svg width="110" height="110" viewBox="0 0 110 110" fill="none" xmlns="http://www.w3.org/2000/svg">
<rect width="110" height="110" rx="55" fill="#D9D9D9"/>
<path d="M28.3 64V46.425H31.7V64H28.3ZM30.8 64V60.975H39.75V64H30.8ZM47.1992 64.25C45.9826 64.25 44.8826 63.975 43.8992 63.425C42.9326 62.8583 42.1576 62.1 41.5742 61.15C41.0076 60.1833 40.7242 59.1083 40.7242 57.925C40.7242 56.7417 41.0076 55.6833 41.5742 54.75C42.1409 53.8 42.9159 53.05 43.8992 52.5C44.8826 51.9333 45.9742 51.65 47.1742 51.65C48.4076 51.65 49.5076 51.9333 50.4742 52.5C51.4576 53.05 52.2326 53.8 52.7992 54.75C53.3659 55.6833 53.6492 56.7417 53.6492 57.925C53.6492 59.1083 53.3659 60.1833 52.7992 61.15C52.2326 62.1 51.4576 62.8583 50.4742 63.425C49.5076 63.975 48.4159 64.25 47.1992 64.25ZM47.1742 61.2C47.7909 61.2 48.3326 61.0667 48.7992 60.8C49.2826 60.5167 49.6492 60.1333 49.8992 59.65C50.1659 59.15 50.2992 58.5833 50.2992 57.95C50.2992 57.3167 50.1659 56.7583 49.8992 56.275C49.6326 55.7917 49.2659 55.4167 48.7992 55.15C48.3326 54.8667 47.7909 54.725 47.1742 54.725C46.5742 54.725 46.0409 54.8667 45.5742 55.15C45.1076 55.4167 44.7409 55.7917 44.4742 56.275C44.2076 56.7583 44.0742 57.3167 44.0742 57.95C44.0742 58.5833 44.2076 59.15 44.4742 59.65C44.7409 60.1333 45.1076 60.5167 45.5742 60.8C46.0409 61.0667 46.5742 61.2 47.1742 61.2ZM60.8076 69.35C59.5243 69.35 58.391 69.1167 57.4076 68.65C56.4243 68.2 55.641 67.5583 55.0576 66.725L57.1326 64.65C57.5993 65.2 58.116 65.6167 58.6826 65.9C59.266 66.2 59.966 66.35 60.7826 66.35C61.7993 66.35 62.5993 66.0917 63.1826 65.575C63.7826 65.0583 64.0826 64.3417 64.0826 63.425V60.4L64.6326 57.75L64.1076 55.1V51.925H67.3576V63.375C67.3576 64.575 67.0743 65.6167 66.5076 66.5C65.9576 67.4 65.191 68.1 64.2076 68.6C63.2243 69.1 62.091 69.35 60.8076 69.35ZM60.6576 63.675C59.5743 63.675 58.5993 63.4167 57.7326 62.9C56.866 62.3667 56.1826 61.6417 55.6826 60.725C55.1993 59.8083 54.9576 58.7833 54.9576 57.65C54.9576 56.5167 55.1993 55.5 55.6826 54.6C56.1826 53.7 56.866 52.9917 57.7326 52.475C58.5993 51.9417 59.5743 51.675 60.6576 51.675C61.5576 51.675 62.3493 51.85 63.0326 52.2C63.7326 52.55 64.2826 53.0333 64.6826 53.65C65.0826 54.25 65.2993 54.9583 65.3326 55.775V59.575C65.2993 60.375 65.0743 61.0917 64.6576 61.725C64.2576 62.3417 63.7076 62.825 63.0076 63.175C62.3243 63.5083 61.541 63.675 60.6576 63.675ZM61.3076 60.7C61.9076 60.7 62.4243 60.575 62.8576 60.325C63.3076 60.0583 63.6576 59.7 63.9076 59.25C64.1576 58.7833 64.2826 58.2583 64.2826 57.675C64.2826 57.075 64.1576 56.55 63.9076 56.1C63.6576 55.65 63.3076 55.3 62.8576 55.05C62.4243 54.7833 61.9076 54.65 61.3076 54.65C60.7076 54.65 60.1826 54.7833 59.7326 55.05C59.2826 55.3 58.9326 55.6583 58.6826 56.125C58.4326 56.575 58.3076 57.0917 58.3076 57.675C58.3076 58.2417 58.4326 58.7583 58.6826 59.225C58.9326 59.675 59.2826 60.0333 59.7326 60.3C60.1826 60.5667 60.7076 60.7 61.3076 60.7ZM75.9102 64.25C74.6935 64.25 73.5935 63.975 72.6102 63.425C71.6435 62.8583 70.8685 62.1 70.2852 61.15C69.7185 60.1833 69.4352 59.1083 69.4352 57.925C69.4352 56.7417 69.7185 55.6833 70.2852 54.75C70.8518 53.8 71.6268 53.05 72.6102 52.5C73.5935 51.9333 74.6852 51.65 75.8852 51.65C77.1185 51.65 78.2185 51.9333 79.1852 52.5C80.1685 53.05 80.9435 53.8 81.5102 54.75C82.0768 55.6833 82.3602 56.7417 82.3602 57.925C82.3602 59.1083 82.0768 60.1833 81.5102 61.15C80.9435 62.1 80.1685 62.8583 79.1852 63.425C78.2185 63.975 77.1268 64.25 75.9102 64.25ZM75.8852 61.2C76.5018 61.2 77.0435 61.0667 77.5102 60.8C77.9935 60.5167 78.3602 60.1333 78.6102 59.65C78.8768 59.15 79.0102 58.5833 79.0102 57.95C79.0102 57.3167 78.8768 56.7583 78.6102 56.275C78.3435 55.7917 77.9768 55.4167 77.5102 55.15C77.0435 54.8667 76.5018 54.725 75.8852 54.725C75.2852 54.725 74.7518 54.8667 74.2852 55.15C73.8185 55.4167 73.4518 55.7917 73.1852 56.275C72.9185 56.7583 72.7852 57.3167 72.7852 57.95C72.7852 58.5833 72.9185 59.15 73.1852 59.65C73.4518 60.1333 73.8185 60.5167 74.2852 60.8C74.7518 61.0667 75.2852 61.2 75.8852 61.2Z" fill="black" fill-opacity="0.2"/>
</svg>
