<svg width="40" height="32" viewBox="0 0 40 32" fill="none" xmlns="http://www.w3.org/2000/svg">
<g clip-path="url(#clip0_864_9165)">
<path d="M4.48437 31.5478C3.45312 31.5478 2.57063 31.181 1.83688 30.4472C1.10313 29.7135 0.735625 28.8303 0.734375 27.7978V5.29785C0.734375 4.2666 1.10188 3.3841 1.83688 2.65035C2.57187 1.9166 3.45437 1.5491 4.48437 1.54785H34.4844C35.5156 1.54785 36.3987 1.91535 37.1337 2.65035C37.8687 3.38535 38.2356 4.26785 38.2344 5.29785V27.7978C38.2344 28.8291 37.8675 29.7122 37.1337 30.4472C36.4 31.1822 35.5169 31.5491 34.4844 31.5478H4.48437ZM34.4844 9.04785L20.4687 17.8135C20.3125 17.9072 20.1487 17.9778 19.9775 18.0254C19.8062 18.0728 19.6419 18.096 19.4844 18.0947C19.3269 18.0935 19.1631 18.0703 18.9931 18.0254C18.8231 17.9804 18.6588 17.9097 18.5 17.8135L4.48437 9.04785V27.7978H34.4844V9.04785ZM19.4844 14.6728L34.4844 5.29785H4.48437L19.4844 14.6728ZM4.48437 9.5166V6.75098V6.79785V6.77535V9.5166Z" fill="white"/>
</g>
<defs>
<clipPath id="clip0_864_9165">
<rect width="39" height="31" fill="white" transform="translate(0.1875 0.849121)"/>
</clipPath>
</defs>
</svg>
