<svg width="626" height="427" viewBox="0 0 626 427" fill="none" xmlns="http://www.w3.org/2000/svg">
<g clip-path="url(#clip0_2824_506)">
<path opacity="0.2" d="M567.02 317.41C567.057 348.906 561.459 380.155 550.49 409.68H54.11C43.1333 380.157 37.5315 348.907 37.57 317.41C37.57 171.21 156.09 52.69 302.29 52.69C448.49 52.69 567.02 171.21 567.02 317.41Z" fill="#FFF0E6"/>
<path opacity="0.2" d="M231.916 48.7066C233.428 42.2653 229.432 35.818 222.99 34.306C216.549 32.794 210.102 36.79 208.59 43.2313C207.078 49.6726 211.074 56.12 217.515 57.632C223.956 59.1439 230.404 55.1479 231.916 48.7066Z" fill="#B6C5FD"/>
<path opacity="0.2" d="M614.748 227.86C620.567 213.951 614.008 197.958 600.098 192.14C586.189 186.321 570.196 192.881 564.378 206.79C558.559 220.699 565.118 236.692 579.028 242.51C592.937 248.329 608.93 241.77 614.748 227.86Z" fill="#B6C5FD"/>
<path opacity="0.2" d="M41.4821 248.011C42.276 243.104 38.9418 238.483 34.035 237.689C29.1283 236.895 24.507 240.229 23.7132 245.136C22.9194 250.043 26.2535 254.664 31.1603 255.458C36.067 256.252 40.6883 252.918 41.4821 248.011Z" fill="#B6C5FD"/>
<path d="M286.42 232.53H335.66" stroke="#0F0E13" stroke-width="0.75" stroke-linecap="round" stroke-linejoin="round"/>
<path d="M160.66 58.51H194.23" stroke="#0F0E13" stroke-width="0.75" stroke-linecap="round" stroke-linejoin="round"/>
<path d="M43.83 196.29H93.07" stroke="#0F0E13" stroke-width="0.75" stroke-linecap="round" stroke-linejoin="round"/>
<path d="M436.34 137.6H485.58" stroke="#0F0E13" stroke-width="0.75" stroke-linecap="round" stroke-linejoin="round"/>
<path d="M161.24 386.07H189.87" stroke="#0F0E13" stroke-width="0.75" stroke-linecap="round" stroke-linejoin="round"/>
<path d="M200.08 386.07H244.22" stroke="#0F0E13" stroke-width="0.75" stroke-linecap="round" stroke-linejoin="round"/>
<path d="M243.86 78.48H293.11" stroke="#0F0E13" stroke-width="0.75" stroke-linecap="round" stroke-linejoin="round"/>
<path d="M298.76 78.48H315.23" stroke="#0F0E13" stroke-width="0.75" stroke-linecap="round" stroke-linejoin="round"/>
<path d="M148.04 296.72L116.82 397.06H81.13L112.35 296.72" fill="#759DEB"/>
<path d="M154.17 296.72L122.94 397.06H87.25L118.48 296.72" fill="black"/>
<path d="M43.8 409.96L50.69 403.19L81.13 397.06H122.94L163.67 403.19L169.6 409.96H43.8Z" fill="black"/>
<path d="M244.22 373.88H24.52L0 214.9H219.7L244.22 373.88Z" fill="black"/>
<path d="M252.52 367.88H32.82L8.29999 208.9H228L252.52 367.88Z" fill="#759DEB"/>
<path d="M252.52 367.88H32.82L8.29999 208.9H228L252.52 367.88Z" fill="#759DEB"/>
<path d="M38.23 360.45L15.56 213.48H223.12L245.79 360.45H38.23Z" fill="white"/>
<path d="M139.02 347.11H59.43C57.4079 347.044 55.4698 346.285 53.9392 344.962C52.4086 343.639 51.3782 341.831 51.02 339.84L43.89 294.68C43.6969 293.785 43.7113 292.857 43.9323 291.968C44.1532 291.079 44.5747 290.252 45.1645 289.552C45.7543 288.851 46.4968 288.294 47.335 287.925C48.1731 287.555 49.0848 287.383 50 287.42H129.59C131.611 287.486 133.548 288.243 135.078 289.564C136.608 290.885 137.64 292.691 138 294.68L145.13 339.84C145.325 340.736 145.312 341.665 145.092 342.555C144.872 343.445 144.45 344.273 143.86 344.975C143.27 345.677 142.527 346.235 141.688 346.605C140.849 346.975 139.936 347.148 139.02 347.11Z" fill="#B9D0F8"/>
<path d="M202.81 256.98H167.58C166.685 256.95 165.827 256.615 165.15 256.028C164.473 255.442 164.018 254.642 163.86 253.76L160.7 233.76C160.62 233.364 160.63 232.955 160.731 232.564C160.831 232.172 161.018 231.809 161.279 231.5C161.54 231.191 161.867 230.945 162.236 230.781C162.605 230.616 163.006 230.537 163.41 230.55H198.63C199.525 230.579 200.383 230.913 201.061 231.497C201.74 232.081 202.198 232.879 202.36 233.76L205.51 253.76C205.592 254.156 205.583 254.565 205.484 254.957C205.385 255.349 205.198 255.713 204.939 256.023C204.679 256.333 204.353 256.58 203.984 256.745C203.615 256.911 203.214 256.991 202.81 256.98Z" fill="#B9D0F8"/>
<path d="M120.94 240.81C104.94 243.11 76.13 255.94 69.8 281.93C62.16 313.28 88.3 336.62 116.28 334.24C142.28 332.03 152.34 311.24 177.23 302.09C207.63 290.87 196.22 229.98 120.94 240.81Z" fill="#FF7139"/>
<path d="M112.35 329.41C106.331 329.448 100.381 328.132 94.9399 325.558C89.4991 322.984 84.7074 319.218 80.92 314.54C74.07 305.82 71.85 294.66 74.66 283.12C80.29 260 106.48 247.94 121.66 245.76C127.061 244.97 132.511 244.562 137.97 244.54C170.59 244.54 185.03 260.59 187.49 274.34C189.36 284.8 184.55 294.06 175.49 297.4C164.16 301.58 155.58 308.11 148.02 313.86C137.96 321.51 129.28 328.11 115.85 329.26C114.7 329.35 113.52 329.41 112.35 329.41ZM112.35 327.41C113.46 327.41 114.58 327.36 115.69 327.26C128.54 326.17 134.11 312.93 143.92 305.47C148.15 302.25 155.6 305.59 160.78 302.41C165.209 299.659 169.898 297.351 174.78 295.52C182.87 292.52 187.17 284.16 185.48 274.69C183.63 264.36 174.48 252.69 155.04 248.29C150.04 247.17 144.76 251.92 138.33 251.92C133.33 251.92 127.48 246.92 121.9 247.74C107.24 249.84 81.96 261.43 76.57 283.59C75.72 287.07 77.43 290.32 77.57 293.66C77.66 296.57 76.03 299.59 76.82 302.3C77.9889 306.298 79.9174 310.032 82.5 313.3C86.0966 317.74 90.6462 321.314 95.8117 323.756C100.977 326.199 106.626 327.447 112.34 327.41H112.35Z" fill="white"/>
<path d="M185.76 280.42C183.83 286.42 168.64 288.36 154.36 289.16C152.45 289.27 152.07 287.7 153.69 286.67C164.83 279.6 168.46 270.36 173.05 261.81C174.9 258.37 178.46 260.91 178.46 260.91C172.98 252.37 163.27 250.79 163.27 250.79C167.35 253.11 170.27 261.2 165.51 269.15C158.4 281.06 142.86 290.08 133.51 289.85C133.223 289.849 132.936 289.832 132.65 289.8H132.76C121.11 289.16 116.61 285.02 116.06 284.46L116.01 284.41C115.3 283.703 114.487 283.106 113.6 282.64C112.459 281.87 111.517 280.841 110.851 279.636C110.185 278.431 109.815 277.086 109.77 275.71C109.55 273.09 107.92 261.89 107.47 257.1C107.309 255.781 107.558 254.444 108.185 253.272C108.811 252.1 109.784 251.149 110.97 250.55C105.44 251.08 99.53 255.83 99.53 255.83C105.97 253.56 107.2 271.27 106.64 276.57C106.16 281.07 103.64 282.87 103.64 282.87C101.395 284.185 99.7415 286.311 99.0195 288.811C98.2975 291.31 98.5625 293.991 99.76 296.3C99.76 296.3 100.52 298.18 98.17 300.8C94.69 304.69 80.35 313.87 77.17 303.48C77.17 303.48 80.1 315.96 85.56 316.75C84.13 314.8 95.49 304.06 99.56 306.61C103.23 309.51 98.13 323.98 93.62 322.67C94.2462 323.689 95.1692 324.492 96.2649 324.971C97.3607 325.45 98.5768 325.582 99.75 325.35C99.75 325.35 98.75 324.35 99.31 322.22C100.08 319.41 102.61 314.88 103.66 310.89C105.53 303.83 109.17 301.89 110.28 301.71C112.14 301.449 113.891 300.678 115.34 299.483C116.789 298.288 117.879 296.716 118.49 294.94C121.71 290.34 141.49 292.73 160.8 293.05C172.32 293.24 167.99 298.47 167.99 298.47C187.88 295.29 185.76 280.42 185.76 280.42Z" fill="white"/>
<path d="M108.84 298.7C112.75 298.7 115.92 295.53 115.92 291.62C115.92 287.71 112.75 284.54 108.84 284.54C104.93 284.54 101.76 287.71 101.76 291.62C101.76 295.53 104.93 298.7 108.84 298.7Z" fill="#FF7139"/>
<path d="M39.33 235.19C39.4048 235.669 39.3736 236.158 39.2385 236.624C39.1034 237.089 38.8678 237.519 38.5483 237.883C38.2288 238.248 37.8331 238.537 37.3894 238.732C36.9456 238.927 36.4645 239.022 35.98 239.01C34.93 238.982 33.9238 238.583 33.1402 237.884C32.3566 237.185 31.8463 236.23 31.7 235.19C31.625 234.712 31.6562 234.223 31.7913 233.758C31.9264 233.293 32.1622 232.863 32.4819 232.5C32.8016 232.136 33.1974 231.847 33.6412 231.654C34.085 231.46 34.566 231.367 35.05 231.38C36.0985 231.407 37.1035 231.805 37.8869 232.502C38.6703 233.2 39.1815 234.152 39.33 235.19Z" fill="#B9D0F8"/>
<path d="M51.76 235.19C51.8348 235.669 51.8036 236.158 51.6685 236.624C51.5334 237.089 51.2978 237.519 50.9783 237.883C50.6588 238.248 50.2631 238.537 49.8194 238.732C49.3756 238.927 48.8945 239.022 48.41 239.01C47.36 238.982 46.3538 238.583 45.5702 237.884C44.7866 237.185 44.2763 236.23 44.13 235.19C44.0552 234.713 44.0861 234.224 44.2207 233.76C44.3553 233.296 44.5901 232.867 44.9087 232.504C45.2273 232.14 45.6219 231.851 46.0644 231.657C46.507 231.463 46.9868 231.368 47.47 231.38C48.5196 231.407 49.526 231.804 50.311 232.501C51.0961 233.199 51.6093 234.151 51.76 235.19Z" fill="#B9D0F8"/>
<path d="M64.22 235.19C64.2965 235.668 64.2667 236.157 64.1329 236.623C63.9991 237.088 63.7645 237.519 63.4457 237.883C63.1269 238.248 62.7318 238.538 62.2884 238.732C61.845 238.927 61.3641 239.022 60.88 239.01C59.8289 238.983 58.8214 238.584 58.0361 237.885C57.2508 237.186 56.7385 236.231 56.59 235.19C56.5168 234.712 56.5493 234.224 56.6851 233.76C56.8209 233.295 57.0568 232.867 57.3761 232.503C57.6954 232.14 58.0905 231.851 58.5335 231.657C58.9764 231.463 59.4565 231.369 59.94 231.38C60.9885 231.407 61.9935 231.805 62.7769 232.502C63.5603 233.2 64.0715 234.152 64.22 235.19Z" fill="#B9D0F8"/>
<path d="M75.8153 237.959C77.1736 236.514 76.9505 234.098 75.317 232.562C73.6835 231.026 71.2582 230.952 69.9 232.396C68.5417 233.841 68.7648 236.257 70.3983 237.793C72.0318 239.329 74.457 239.403 75.8153 237.959Z" fill="#B9D0F8"/>
<path d="M228.89 350.31H180.63C179.405 350.27 178.231 349.812 177.302 349.011C176.374 348.211 175.749 347.116 175.53 345.91L171.21 318.53C171.096 317.987 171.107 317.424 171.242 316.886C171.378 316.347 171.634 315.847 171.991 315.422C172.349 314.997 172.798 314.659 173.305 314.433C173.813 314.208 174.365 314.101 174.92 314.12H223.17C224.397 314.158 225.573 314.618 226.502 315.421C227.431 316.223 228.055 317.321 228.27 318.53L232.6 345.91C232.71 346.452 232.697 347.013 232.56 347.549C232.423 348.086 232.166 348.584 231.809 349.007C231.453 349.431 231.005 349.768 230.499 349.993C229.993 350.219 229.443 350.327 228.89 350.31Z" fill="#B9D0F8"/>
<path d="M221.89 321.75H178.61C178.168 321.726 177.747 321.555 177.412 321.266C177.077 320.976 176.848 320.584 176.76 320.15C176.721 319.953 176.726 319.75 176.777 319.556C176.827 319.362 176.92 319.181 177.05 319.028C177.18 318.875 177.343 318.754 177.526 318.673C177.71 318.592 177.909 318.553 178.11 318.56H221.38C221.824 318.573 222.249 318.738 222.586 319.028C222.923 319.317 223.15 319.713 223.23 320.15C223.271 320.347 223.267 320.55 223.218 320.745C223.169 320.939 223.076 321.121 222.947 321.275C222.819 321.428 222.656 321.551 222.473 321.634C222.29 321.716 222.091 321.756 221.89 321.75Z" fill="white"/>
<path d="M208.29 329.79H179.88C179.436 329.777 179.011 329.612 178.674 329.322C178.337 329.033 178.11 328.637 178.03 328.2C177.989 328.003 177.993 327.798 178.043 327.603C178.092 327.407 178.186 327.226 178.316 327.071C178.446 326.917 178.609 326.795 178.794 326.713C178.978 326.631 179.178 326.593 179.38 326.6H207.76C208.205 326.614 208.632 326.78 208.969 327.072C209.306 327.363 209.532 327.761 209.61 328.2C209.651 328.394 209.647 328.596 209.599 328.788C209.551 328.981 209.46 329.161 209.334 329.313C209.207 329.466 209.047 329.589 208.866 329.671C208.686 329.754 208.489 329.794 208.29 329.79Z" fill="white"/>
<path d="M223.16 329.79H213.9C213.456 329.777 213.03 329.612 212.694 329.322C212.357 329.033 212.13 328.637 212.05 328.2C212.011 328.003 212.017 327.799 212.067 327.605C212.117 327.41 212.211 327.229 212.34 327.075C212.47 326.922 212.632 326.799 212.816 326.717C212.999 326.635 213.199 326.595 213.4 326.6H222.65C223.095 326.614 223.522 326.78 223.859 327.072C224.196 327.363 224.422 327.761 224.5 328.2C224.541 328.396 224.537 328.599 224.488 328.793C224.439 328.988 224.347 329.168 224.217 329.322C224.088 329.475 223.926 329.597 223.743 329.678C223.56 329.759 223.36 329.797 223.16 329.79Z" fill="white"/>
<path d="M224.43 337.83H181.15C180.706 337.817 180.28 337.652 179.944 337.362C179.607 337.073 179.38 336.677 179.3 336.24C179.261 336.043 179.267 335.839 179.317 335.645C179.367 335.45 179.461 335.269 179.59 335.115C179.72 334.962 179.882 334.839 180.066 334.757C180.249 334.675 180.449 334.635 180.65 334.64H223.92C224.365 334.654 224.792 334.82 225.129 335.112C225.466 335.403 225.692 335.802 225.77 336.24C225.811 336.436 225.807 336.639 225.758 336.833C225.709 337.028 225.617 337.208 225.487 337.362C225.358 337.515 225.196 337.637 225.013 337.718C224.83 337.799 224.63 337.837 224.43 337.83Z" fill="white"/>
<path d="M202.47 345.88H182.47C182.028 345.856 181.607 345.685 181.272 345.396C180.937 345.106 180.708 344.714 180.62 344.28C180.581 344.083 180.586 343.88 180.637 343.686C180.687 343.492 180.78 343.311 180.91 343.158C181.04 343.005 181.203 342.884 181.386 342.803C181.57 342.722 181.769 342.683 181.97 342.69H201.97C202.414 342.703 202.839 342.868 203.176 343.158C203.513 343.447 203.74 343.843 203.82 344.28C203.861 344.477 203.857 344.682 203.807 344.877C203.758 345.073 203.664 345.254 203.534 345.409C203.404 345.563 203.241 345.685 203.057 345.767C202.872 345.849 202.672 345.887 202.47 345.88Z" fill="white"/>
<path d="M150.6 322.44L152.17 332.36H183.11" stroke="#B9D0F8" stroke-linecap="round" stroke-linejoin="round"/>
<path d="M250.64 261.4L289.04 299.8L312.29 275.51L342.56 309.4C342.56 309.4 299.09 347.4 286.26 348.53C269.76 349.98 232.32 278.16 232.32 278.16L250.64 261.4Z" fill="#E89B87"/>
<path d="M227.85 258.91L214.39 253.43V235.19C214.39 235.19 201.76 221.43 197.04 220.42C194.49 219.88 192.23 223.42 193.68 225.99C195.007 227.937 196.457 229.797 198.02 231.56C197.701 231.409 197.365 231.294 197.02 231.22C194.47 230.68 192.21 234.22 193.66 236.79C194.988 238.733 196.437 240.59 198 242.35C197.679 242.206 197.344 242.095 197 242.02C194.45 241.47 192.19 245.02 193.64 247.58C195.64 251.19 210.96 266.73 210.96 266.73C216.21 271.014 222.684 273.521 229.45 273.89L227.85 258.91Z" fill="#486DC3"/>
<path d="M198.99 232.53L211.36 244.44" stroke="black" stroke-width="0.75" stroke-linecap="round" stroke-linejoin="round"/>
<path d="M198.99 243.74L211.36 255.66" stroke="black" stroke-width="0.75" stroke-linecap="round" stroke-linejoin="round"/>
<path d="M218.94 275.51C216.574 275.51 214.305 274.57 212.633 272.897C210.96 271.225 210.02 268.956 210.02 266.59V203.98H227.86V266.62C227.852 268.981 226.909 271.242 225.237 272.908C223.565 274.574 221.301 275.51 218.94 275.51Z" fill="#FF7139"/>
<g style="mix-blend-mode:multiply">
<path d="M227.86 205.88H210.02V209.59H227.86V205.88Z" fill="#FF7139"/>
</g>
<path d="M218.94 272.9C218.096 272.9 217.26 272.734 216.481 272.41C215.701 272.087 214.993 271.613 214.397 271.016C213.801 270.419 213.328 269.71 213.006 268.93C212.684 268.15 212.519 267.314 212.52 266.47V235.19H225.37V266.47C225.37 268.175 224.693 269.811 223.487 271.017C222.281 272.223 220.645 272.9 218.94 272.9Z" fill="#FF7139"/>
<path d="M228.33 205.89H209.55C208.654 205.89 207.794 205.534 207.16 204.9C206.526 204.266 206.17 203.406 206.17 202.51C206.17 201.614 206.526 200.754 207.16 200.12C207.794 199.486 208.654 199.13 209.55 199.13H228.33C229.226 199.13 230.086 199.486 230.72 200.12C231.354 200.754 231.71 201.614 231.71 202.51C231.71 203.406 231.354 204.266 230.72 204.9C230.086 205.534 229.226 205.89 228.33 205.89Z" fill="#FF7139"/>
<path d="M254.98 265.33L241.47 249.54C241.47 249.54 240.07 238.54 238.29 234.02C237.29 231.46 230.12 224.74 227.36 221.52C225.67 219.52 220.03 221.95 222.01 228.83C223.612 233.665 225.564 238.378 227.85 242.93V273.38L235.64 288.78C246.46 283.04 254.1 270.34 254.98 265.33Z" fill="#486DC3"/>
<path d="M210.02 235.19C210.02 235.19 201.43 231.9 201.92 224.89C202.01 223.61 205.04 214.49 205.92 213.49C207.08 212.15 211.92 212.32 212.02 216.8C212.12 221.28 210.02 227.7 210.02 227.7V235.19Z" fill="#486DC3"/>
<path d="M453.53 331.7C456.58 361.23 459.39 390.38 463.16 409.97H333.69C334.69 389.71 337.43 349.52 338.69 326.33C335.85 329.33 333.69 331.49 330.69 334.48C320.08 328.39 295.82 301.58 292.5 295.07C308.82 277.13 341.44 241.73 352.68 232.84C354.115 231.639 355.845 230.843 357.691 230.534C359.537 230.224 361.431 230.413 363.18 231.08C366.13 232.083 369.135 232.918 372.18 233.58L419.26 231.24C419.26 231.24 441.04 224.24 450.71 232C461.18 240.41 488.36 306.74 488.36 306.74C481.12 321.98 463.27 326.85 453.53 331.7Z" fill="#83B3FF"/>
<path d="M377.89 227.15C377.89 227.15 371.22 228.57 368.62 232.71C366.02 236.85 370.04 255.37 388.83 255.11C407.62 254.85 421.43 230.63 421.43 230.63C420.349 228.777 418.814 227.231 416.97 226.135C415.126 225.04 413.034 224.433 410.89 224.37" fill="#83B3FF"/>
<path d="M374.04 234.45C374.04 234.45 374.31 286 382.48 322L410.27 237.47" fill="white"/>
<path d="M370.61 154.64C370.61 154.64 363.44 148.3 363 156.82C362.5 166.23 369.84 171.88 369.84 171.88L377.63 159.49L370.61 154.64Z" fill="black"/>
<path d="M410.27 237.47C405.97 242.63 373.2 242.79 374.04 234.47C376.39 228.37 377.58 224.7 378.93 220.47C372.93 221.38 367.54 220.47 363.43 216.96C352.07 207.17 362.51 174.61 369 163.4C377.45 148.81 394.83 155.16 406.86 163.4C418.38 171.3 422.73 193.49 409.77 205.13C409.63 206.84 410.27 237.47 410.27 237.47Z" fill="#E89B87"/>
<path d="M433.37 184.68C432.94 178.38 426.53 174.1 426.53 174.1C427.9 156.37 408.3 135.86 405.95 134.04C396.69 126.87 389.03 130.58 388.83 138.47C378.35 128.15 369.7 124.41 365.57 137.75C363.35 144.88 363.16 166.44 397.93 175.07C397.93 175.07 394.23 180.62 393.72 186.43C393.44 189.53 396.52 192.75 396.52 192.75C403.23 183.24 410.82 187.83 410.22 193.99C409.67 199.54 405.64 203.9 403.39 205.86L407.81 211.86C414.94 209.07 434.31 198.56 433.37 184.68Z" fill="black"/>
<path d="M534.03 213.4C533.03 212.03 529.61 211.52 527.97 213.58C527.81 213.78 527.3 214.74 526.64 216C527.05 214.19 527.23 212.74 526.91 212.28C525.91 210.91 522.48 210.4 520.85 212.46C520.28 213.18 515.16 223.46 515.16 223.46C513.352 224.343 511.684 225.489 510.21 226.86C510.298 226.671 510.365 226.473 510.41 226.27C510.76 223.57 511.66 212.35 510.35 211.27C509.04 210.19 505.59 210.56 504.53 212.97C504.16 213.82 501.8 225.09 501.8 225.09C500.135 226.319 498.668 227.796 497.45 229.47C494.23 230.47 487.31 232.93 484.59 236.17C482.844 238.355 481.99 241.121 482.2 243.91L465.37 326.39L455.37 330.76C455.37 330.76 467.31 352.01 482.98 354.24C487.51 354.88 492.79 353.62 497.48 348.88C506.66 339.6 504.83 274.16 503.68 249.23C509.895 246.813 515.965 244.039 521.86 240.92C524.86 239.24 529.79 232.43 530.86 229.83C533.81 222.64 534.76 214.44 534.03 213.4Z" fill="#E89B87"/>
<path d="M477.46 262.12L481.19 243.82C481.008 240.821 481.949 237.863 483.83 235.52C486.57 232.27 493.04 229.83 496.83 228.61C497.98 227.07 499.324 225.685 500.83 224.49C501.47 221.49 503.18 213.4 503.55 212.57C503.988 211.681 504.673 210.938 505.522 210.427C506.371 209.916 507.35 209.661 508.34 209.69C509.27 209.649 510.184 209.94 510.92 210.51C512.54 211.89 511.92 220.56 511.54 224.51C512.413 223.814 513.358 223.213 514.36 222.72C515.74 219.95 519.44 212.56 520 211.85C520.474 211.28 521.071 210.825 521.747 210.52C522.423 210.215 523.159 210.068 523.9 210.09C524.609 210.054 525.317 210.181 525.969 210.462C526.621 210.743 527.199 211.17 527.66 211.71C527.768 211.862 527.849 212.031 527.9 212.21C528.8 211.54 529.898 211.188 531.02 211.21C531.729 211.174 532.437 211.301 533.089 211.582C533.741 211.863 534.319 212.29 534.78 212.83C536 214.58 534.41 223.68 531.78 230.22C530.68 232.92 525.62 239.99 522.35 241.81C516.624 244.833 510.735 247.537 504.71 249.91C504.9 254.05 505.31 267.63 505.31 267.63C495.13 269.61 482.76 265.8 477.46 262.12Z" fill="#486DC3"/>
<path d="M437.02 301.29C426.47 299.98 414.62 299 405.02 298.64C405.02 298.64 403.4 317.03 403.4 323.41C407.2 326.91 417.18 334.92 417.18 334.92C426.84 330.13 434.73 325.43 434.73 325.43C435.84 313.39 437.02 301.29 437.02 301.29Z" fill="white"/>
<path d="M526.24 217.09C526.24 217.09 523.71 225.18 522.87 227.18C522.03 229.18 515.44 235.09 515.44 235.09" stroke="black" stroke-width="0.75" stroke-linecap="round" stroke-linejoin="round"/>
<path d="M509.76 227.81C509.76 227.81 507.45 230.7 506.29 231.81" stroke="black" stroke-width="0.75" stroke-linecap="round" stroke-linejoin="round"/>
<path d="M380.68 219.88C383.95 218.72 391.15 215.64 396.32 209.43" stroke="#0F0E13" stroke-width="0.75" stroke-linecap="round" stroke-linejoin="round"/>
<path d="M360.68 173.09L401.37 187.38L397.37 198.87C397.37 198.87 386.74 200.92 380.53 199.87C377.46 199.36 374.12 195.95 372.32 192.53C372.198 192.247 372.013 191.995 371.778 191.796C371.543 191.596 371.265 191.453 370.966 191.379C370.667 191.304 370.354 191.3 370.053 191.366C369.752 191.432 369.47 191.567 369.23 191.76C367.381 192.973 365.247 193.683 363.04 193.82C359.54 193.94 356.89 187.67 356.31 185.65C355.73 183.63 360.68 173.09 360.68 173.09Z" fill="#83B3FF"/>
<path d="M367.9 236.22C367.9 236.22 360.96 256.9 355.76 275.73L367.9 279.98L355.61 285.03C366.371 300.977 375.219 318.135 381.97 336.15" stroke="#0F0E13" stroke-width="0.75" stroke-linecap="round" stroke-linejoin="round"/>
<path d="M419.76 239.54C419.76 239.54 418.61 266.18 416.89 276.62L405.01 279.98L416.31 283.69C416.31 283.69 394.76 300.98 384.33 337.32C379.22 355.06 381.08 387.47 381.08 404.92" stroke="#0F0E13" stroke-width="0.75" stroke-linecap="round" stroke-linejoin="round"/>
<path d="M391.04 357.05C391.04 360.22 389.54 362.79 387.68 362.79C385.82 362.79 384.33 360.22 384.33 357.05C384.33 353.88 385.83 351.3 387.68 351.3C389.53 351.3 391.04 353.87 391.04 357.05Z" fill="#0F0E13"/>
<path d="M391.04 387.47C391.04 390.64 389.54 393.21 387.68 393.21C385.82 393.21 384.33 390.64 384.33 387.47C384.33 384.3 385.83 381.72 387.68 381.72C389.53 381.72 391.04 384.29 391.04 387.47Z" fill="#0F0E13"/>
<path d="M433.97 282.54L449.24 332.85C454.863 331.371 460.281 329.201 465.37 326.39" stroke="#0F0E13" stroke-width="0.75" stroke-linecap="round" stroke-linejoin="round"/>
<path d="M338.82 325.45C338.82 325.45 341.08 302.45 343.42 285.11" stroke="#0F0E13" stroke-width="0.75" stroke-linecap="round" stroke-linejoin="round"/>
<path d="M471.22 345.09H499.56C500.228 345.09 500.77 344.548 500.77 343.88V337.87C500.77 337.202 500.228 336.66 499.56 336.66H471.22C470.552 336.66 470.01 337.202 470.01 337.87V343.88C470.01 344.548 470.552 345.09 471.22 345.09Z" fill="#FF7139"/>
<path d="M464.99 320.11H505.78V314.4H464.99V320.11Z" fill="#FF7139"/>
<path d="M486.7 409.96H559.62V387.46H486.7V409.96Z" fill="#83B3FF"/>
<path d="M512.49 409.98H534.07V351.83C534.07 348.967 532.934 346.222 530.91 344.197C528.887 342.172 526.143 341.033 523.28 341.03C520.417 341.033 517.673 342.172 515.65 344.197C513.626 346.222 512.49 348.967 512.49 351.83V409.98Z" fill="#83B3FF"/>
<path d="M508.76 359.67L509.99 358.45L492.06 340.53C491.98 340.45 491.885 340.386 491.78 340.342C491.676 340.299 491.563 340.276 491.45 340.276C491.337 340.276 491.224 340.299 491.12 340.342C491.015 340.386 490.92 340.45 490.84 340.53C490.682 340.694 490.594 340.913 490.594 341.14C490.594 341.367 490.682 341.586 490.84 341.75L508.76 359.67Z" fill="#FF7139"/>
<path d="M581.953 210.172L555.974 236.151L570.038 250.216L596.017 224.236L581.953 210.172Z" fill="#83B3FF"/>
<path d="M598.76 228.23C599.649 227.338 600.148 226.13 600.148 224.87C600.148 223.61 599.649 222.402 598.76 221.51L584.9 207.65C584.008 206.761 582.8 206.262 581.54 206.262C580.28 206.262 579.072 206.761 578.18 207.65C577.291 208.542 576.792 209.75 576.792 211.01C576.792 212.27 577.291 213.478 578.18 214.37L592.04 228.23C592.932 229.119 594.14 229.618 595.4 229.618C596.66 229.618 597.868 229.119 598.76 228.23Z" fill="#FF7139"/>
<path d="M523.27 365.66H524.63C537.244 365.373 549.439 361.081 559.452 353.405C569.466 345.728 576.778 335.066 580.331 322.959C583.884 310.853 583.493 297.93 579.217 286.06C574.94 274.19 566.998 263.988 556.54 256.93L549.26 266.41C558.573 272.498 565.456 281.66 568.71 292.301C571.963 302.942 571.382 314.386 567.066 324.642C562.75 334.898 554.973 343.315 545.09 348.427C535.207 353.539 523.844 355.023 512.98 352.62C512.583 352.532 512.177 352.489 511.77 352.49C510.32 352.563 508.945 353.159 507.9 354.168C506.856 355.177 506.213 356.531 506.091 357.978C505.969 359.425 506.376 360.867 507.236 362.037C508.097 363.207 509.352 364.025 510.77 364.34C514.878 365.225 519.068 365.667 523.27 365.66Z" fill="#FF7139"/>
<path d="M556.91 259.28C566.755 266.335 574.131 276.308 577.996 287.787C581.86 299.266 582.016 311.669 578.441 323.242C574.867 334.814 567.743 344.969 558.079 352.27C548.414 359.57 536.699 363.646 524.59 363.92H523.27C519.179 363.922 515.099 363.486 511.1 362.62C510.082 362.413 509.174 361.84 508.548 361.01C507.923 360.18 507.622 359.15 507.703 358.113C507.785 357.077 508.242 356.106 508.989 355.384C509.736 354.661 510.722 354.236 511.76 354.19C512.046 354.19 512.331 354.22 512.61 354.28C523.718 356.753 535.34 355.304 545.501 350.178C555.662 345.053 563.734 336.567 568.347 326.163C572.96 315.76 573.828 304.08 570.804 293.109C567.781 282.137 561.051 272.552 551.76 265.98L556.93 259.26M556.17 254.57C555 256.1 551.17 261.05 546.74 266.84C556.078 272.42 563.125 281.141 566.621 291.442C570.117 301.742 569.834 312.951 565.821 323.062C561.809 333.173 554.329 341.526 544.721 346.626C535.113 351.727 524.003 353.242 513.38 350.9C512.854 350.79 512.318 350.733 511.78 350.73C509.903 350.794 508.113 351.54 506.746 352.828C505.38 354.117 504.53 355.86 504.356 357.73C504.181 359.6 504.695 361.47 505.8 362.988C506.906 364.507 508.527 365.571 510.36 365.98C514.602 366.895 518.93 367.354 523.27 367.35H524.67C537.791 367.053 550.469 362.545 560.833 354.492C571.196 346.439 578.695 335.267 582.224 322.625C585.752 309.984 585.122 296.543 580.427 284.287C575.732 272.031 567.221 261.609 556.15 254.56L556.17 254.57Z" fill="#83B3FF"/>
<path d="M512.483 275.076L531.122 293.715L583.279 241.559L564.639 222.919L512.483 275.076Z" fill="#FF7139"/>
<path d="M564.14 227.01L516.81 274.34" stroke="white" stroke-miterlimit="10"/>
<path d="M517.399 280.002L501.241 296.16L509.988 304.907L526.146 288.749L517.399 280.002Z" fill="#FF7139"/>
<path d="M459.01 333.5H511.77C512.83 333.5 513.69 332.64 513.69 331.58V322.04C513.69 320.98 512.83 320.12 511.77 320.12H459.01C457.95 320.12 457.09 320.98 457.09 322.04V331.58C457.09 332.64 457.95 333.5 459.01 333.5Z" fill="#FF7139"/>
<path d="M531.12 293.72L519.99 294.89L511.24 286.14L512.49 275.08L531.12 293.72Z" fill="white"/>
<path d="M516.23 359.67C516.23 361.041 516.636 362.38 517.398 363.52C518.159 364.66 519.242 365.548 520.508 366.073C521.774 366.597 523.168 366.734 524.512 366.467C525.856 366.199 527.091 365.539 528.06 364.57C529.029 363.601 529.689 362.366 529.957 361.022C530.224 359.678 530.087 358.284 529.563 357.018C529.038 355.752 528.15 354.669 527.01 353.908C525.871 353.146 524.531 352.74 523.16 352.74C522.25 352.739 521.348 352.917 520.506 353.265C519.665 353.613 518.901 354.123 518.257 354.767C517.613 355.411 517.103 356.175 516.755 357.016C516.407 357.858 516.229 358.76 516.23 359.67Z" fill="white"/>
<path d="M542.36 264.81C542.36 267.957 543.293 271.033 545.041 273.649C546.79 276.266 549.274 278.305 552.182 279.509C555.089 280.713 558.288 281.028 561.374 280.414C564.46 279.8 567.295 278.285 569.52 276.06C571.745 273.835 573.26 271 573.874 267.914C574.488 264.828 574.173 261.629 572.969 258.722C571.765 255.814 569.726 253.33 567.109 251.581C564.493 249.833 561.417 248.9 558.27 248.9C554.05 248.9 550.004 250.576 547.02 253.56C544.036 256.544 542.36 260.59 542.36 264.81Z" fill="white"/>
<path d="M551.76 264.81C551.76 266.105 552.144 267.372 552.864 268.449C553.584 269.526 554.607 270.366 555.803 270.861C557 271.357 558.317 271.487 559.588 271.234C560.858 270.981 562.026 270.358 562.942 269.442C563.858 268.526 564.481 267.358 564.734 266.088C564.987 264.817 564.857 263.5 564.361 262.303C563.866 261.107 563.026 260.084 561.949 259.364C560.872 258.644 559.605 258.26 558.31 258.26C556.573 258.26 554.907 258.95 553.678 260.178C552.45 261.407 551.76 263.073 551.76 264.81Z" fill="#FF7139"/>
<path d="M519.33 349.34C519.843 349.341 520.344 349.191 520.771 348.907C521.198 348.623 521.531 348.219 521.728 347.745C521.925 347.272 521.977 346.751 521.878 346.248C521.779 345.745 521.532 345.283 521.17 344.92L502.64 326.38C502.144 325.942 501.5 325.709 500.838 325.729C500.177 325.75 499.548 326.022 499.08 326.49C498.612 326.958 498.34 327.587 498.319 328.248C498.299 328.91 498.532 329.554 498.97 330.05L517.5 348.58C517.74 348.822 518.025 349.013 518.339 349.143C518.653 349.274 518.99 349.341 519.33 349.34Z" fill="#FF7139"/>
<path d="M514.05 286.69L504.47 296.27" stroke="white" stroke-miterlimit="10"/>
<path d="M306.22 347.18C305.278 346.603 304.5 345.795 303.959 344.832C303.418 343.869 303.133 342.784 303.13 341.68V340.54H304.41C304.528 340.541 304.645 340.519 304.754 340.475C304.863 340.431 304.962 340.366 305.046 340.283C305.13 340.2 305.196 340.102 305.241 339.993C305.287 339.884 305.31 339.768 305.31 339.65V337.26C305.31 337.021 305.215 336.792 305.046 336.624C304.878 336.455 304.649 336.36 304.41 336.36H284.89C284.651 336.36 284.422 336.455 284.254 336.624C284.085 336.792 283.99 337.021 283.99 337.26V339.65C283.99 339.768 284.013 339.884 284.059 339.993C284.104 340.102 284.171 340.2 284.254 340.283C284.338 340.366 284.437 340.431 284.546 340.475C284.655 340.519 284.772 340.541 284.89 340.54H286.17V341.68C286.167 342.784 285.882 343.869 285.341 344.832C284.8 345.795 284.022 346.603 283.08 347.18C280.16 348.99 276.2 351.98 276.2 354.87V390.08C276.2 391.377 276.715 392.621 277.632 393.538C278.549 394.455 279.793 394.97 281.09 394.97H308.21C309.507 394.97 310.751 394.455 311.668 393.538C312.585 392.621 313.1 391.377 313.1 390.08V354.87C313.1 351.98 309.14 348.98 306.22 347.18Z" fill="#B6C5FD"/>
<path d="M311.1 373.64V390.08C311.097 390.846 310.792 391.579 310.251 392.121C309.709 392.662 308.976 392.967 308.21 392.97H281.09C280.324 392.967 279.591 392.662 279.049 392.121C278.508 391.579 278.203 390.846 278.2 390.08V373.64H311.1Z" fill="#C9C936"/>
<path d="M276.2 365.66L263.41 409.97" stroke="#0F0E13" stroke-linecap="round" stroke-linejoin="round"/>
<path d="M313.1 365.66L325.89 409.97" stroke="#0F0E13" stroke-linecap="round" stroke-linejoin="round"/>
<path d="M273.3 369.87H316" stroke="#0F0E13" stroke-width="2" stroke-linecap="round" stroke-linejoin="round"/>
<path d="M303.58 403.96H285.71V409.97H303.58V403.96Z" fill="#FF7139"/>
<path d="M586 375.97H556.75V410.27H586V375.97Z" fill="#FF7139"/>
<path d="M584.76 358.98C586.25 348.796 588.674 338.77 592 329.03C579.17 340.43 575.19 362.37 575.19 362.37C570.06 337.01 548.41 312.79 548.41 312.79C556.67 328.79 565.21 367.79 565.21 367.79C554.39 334.74 528.81 334.46 528.81 334.46C549.54 341.58 560.08 375.98 560.08 375.98H583.45C584.595 365.647 588.602 355.839 595.02 347.66C590.65 350.448 587.107 354.357 584.76 358.98Z" fill="#C9C936"/>
<path d="M501.86 151.8C501.86 152.886 501.538 153.947 500.935 154.85C500.332 155.753 499.474 156.457 498.471 156.872C497.468 157.288 496.364 157.396 495.299 157.185C494.234 156.973 493.256 156.45 492.488 155.682C491.72 154.914 491.197 153.936 490.985 152.871C490.774 151.806 490.882 150.702 491.298 149.699C491.713 148.696 492.417 147.838 493.32 147.235C494.223 146.632 495.284 146.31 496.37 146.31C497.091 146.31 497.805 146.452 498.471 146.728C499.137 147.004 499.742 147.408 500.252 147.918C500.762 148.428 501.166 149.033 501.442 149.699C501.718 150.365 501.86 151.079 501.86 151.8Z" fill="#FF7139"/>
<path d="M509.96 165.27L498.81 154.92" stroke="black" stroke-width="2" stroke-linecap="round" stroke-linejoin="round"/>
<path d="M515.23 180.46C521.167 180.46 525.98 175.647 525.98 169.71C525.98 163.773 521.167 158.96 515.23 158.96C509.293 158.96 504.48 163.773 504.48 169.71C504.48 175.647 509.293 180.46 515.23 180.46Z" fill="#FF7139"/>
<path d="M497.64 185.11L509.96 174.25" stroke="black" stroke-width="2" stroke-linecap="round" stroke-linejoin="round"/>
<path d="M503.13 185.12C503.13 186.208 502.807 187.272 502.202 188.177C501.598 189.081 500.738 189.786 499.732 190.202C498.727 190.618 497.62 190.727 496.553 190.514C495.486 190.301 494.506 189.776 493.737 189.006C492.969 188.235 492.446 187.254 492.234 186.187C492.023 185.119 492.134 184.013 492.552 183.008C492.969 182.003 493.676 181.145 494.582 180.542C495.487 179.939 496.552 179.618 497.64 179.62C498.362 179.62 499.076 179.762 499.743 180.039C500.41 180.315 501.016 180.721 501.526 181.232C502.035 181.742 502.44 182.349 502.715 183.016C502.99 183.683 503.131 184.398 503.13 185.12Z" fill="#FF7139"/>
<path d="M521.46 169.17L539.43 166.36" stroke="black" stroke-width="2" stroke-linecap="round" stroke-linejoin="round"/>
<path d="M547.131 168.178C548.129 163.936 545.5 159.688 541.258 158.69C537.016 157.692 532.769 160.322 531.771 164.564C530.773 168.805 533.402 173.053 537.644 174.051C541.886 175.049 546.133 172.419 547.131 168.178Z" fill="#FF7139"/>
<path d="M516.1 205.28C509.057 205.272 502.174 203.176 496.322 199.258C490.469 195.339 485.91 189.773 483.22 183.263C480.53 176.754 479.83 169.593 481.209 162.686C482.588 155.779 485.984 149.436 490.967 144.459C495.95 139.481 502.297 136.093 509.206 134.722C516.114 133.35 523.274 134.058 529.78 136.755C536.287 139.452 541.847 144.018 545.76 149.875C549.672 155.732 551.76 162.617 551.76 169.66C551.749 179.111 547.988 188.171 541.301 194.85C534.615 201.528 525.551 205.28 516.1 205.28ZM516.1 135.39C509.322 135.39 502.696 137.4 497.061 141.166C491.425 144.931 487.032 150.283 484.439 156.545C481.845 162.807 481.166 169.698 482.489 176.346C483.811 182.993 487.075 189.1 491.867 193.893C496.66 198.685 502.767 201.949 509.414 203.272C516.062 204.594 522.953 203.915 529.215 201.321C535.477 198.728 540.829 194.335 544.594 188.699C548.36 183.064 550.37 176.438 550.37 169.66C550.359 160.574 546.745 151.864 540.321 145.439C533.896 139.015 525.186 135.401 516.1 135.39Z" fill="#CCF2FF"/>
<path d="M258.04 153.7C256.803 153.745 255.59 153.356 254.61 152.6C250.12 148.96 253.48 137.6 262.25 126.83C271.02 116.02 281.41 110.4 285.89 114.05C290.37 117.7 287.02 129.05 278.25 139.81C274.6 144.491 270.11 148.452 265.01 151.49C262.903 152.787 260.509 153.546 258.04 153.7ZM262.91 127.37C254.58 137.63 251.09 148.66 255.14 151.94C257.02 153.47 260.46 153.04 264.6 150.75C269.605 147.763 274.013 143.874 277.6 139.28C285.93 129.01 289.42 117.99 285.37 114.7C281.32 111.41 271.25 117.1 262.92 127.37H262.91Z" fill="#FF7139"/>
<path d="M277.48 156.8C275.15 156.8 272.43 155.23 269.62 152.22C265.704 147.755 262.652 142.601 260.62 137.02C255.62 124.02 255.92 112.23 261.31 110.15C263.95 109.15 267.31 110.65 270.86 114.42C274.775 118.886 277.826 124.04 279.86 129.62C282.098 135.118 283.295 140.985 283.39 146.92C283.3 152.08 281.8 155.48 279.17 156.49C278.631 156.698 278.058 156.804 277.48 156.8ZM263 110.7C262.536 110.696 262.075 110.778 261.64 110.94C256.77 112.82 256.64 124.38 261.43 136.72C263.42 142.198 266.407 147.26 270.24 151.65C273.46 155.09 276.6 156.57 278.86 155.7C281.12 154.83 282.46 151.63 282.54 146.91C282.448 141.077 281.272 135.312 279.07 129.91C277.083 124.431 274.095 119.369 270.26 114.98C267.64 112.2 265.08 110.7 263 110.7Z" fill="#FF7139"/>
<path d="M277.82 144.26C274.734 144.248 271.655 143.99 268.61 143.49C254.87 141.28 244.82 135.07 245.74 129.37C246.66 123.67 258.15 120.94 271.89 123.15C285.63 125.36 295.68 131.57 294.76 137.27C294.06 141.64 287.17 144.26 277.82 144.26ZM262.71 123.26C253.85 123.26 247.21 125.62 246.58 129.52C245.75 134.67 255.69 140.52 268.74 142.68C281.79 144.84 293.09 142.3 293.92 137.16C294.75 132.02 284.81 126.16 271.76 124.01C268.785 123.516 265.776 123.259 262.76 123.24L262.71 123.26Z" fill="#FF7139"/>
<path d="M272.39 133.38C271.999 133.864 271.759 134.453 271.702 135.073C271.645 135.693 271.773 136.316 272.07 136.863C272.367 137.41 272.819 137.857 273.37 138.147C273.92 138.438 274.545 138.558 275.164 138.494C275.783 138.43 276.369 138.184 276.848 137.787C277.328 137.39 277.679 136.86 277.857 136.263C278.035 135.667 278.033 135.031 277.85 134.436C277.667 133.841 277.312 133.313 276.83 132.92C276.509 132.658 276.139 132.462 275.741 132.343C275.344 132.224 274.927 132.185 274.514 132.228C274.102 132.271 273.702 132.394 273.337 132.592C272.973 132.79 272.651 133.058 272.39 133.38Z" fill="#FF7139"/>
<path d="M264.47 132.69C264.077 133.174 263.837 133.763 263.779 134.383C263.721 135.004 263.848 135.627 264.145 136.175C264.441 136.723 264.894 137.171 265.445 137.462C265.996 137.753 266.621 137.873 267.24 137.809C267.86 137.745 268.447 137.498 268.926 137.1C269.406 136.702 269.757 136.171 269.934 135.574C270.112 134.977 270.109 134.34 269.924 133.745C269.74 133.15 269.384 132.623 268.9 132.23C268.25 131.706 267.42 131.461 266.59 131.547C265.76 131.633 264.998 132.044 264.47 132.69Z" fill="#FF7139"/>
<path d="M268.35 126.87C268.111 127.163 267.965 127.521 267.929 127.897C267.894 128.274 267.971 128.652 268.15 128.985C268.33 129.317 268.605 129.589 268.939 129.766C269.274 129.942 269.653 130.015 270.029 129.976C270.405 129.937 270.761 129.787 271.052 129.545C271.343 129.303 271.555 128.981 271.662 128.618C271.77 128.255 271.767 127.869 271.654 127.508C271.541 127.147 271.324 126.827 271.03 126.59C270.637 126.273 270.134 126.124 269.632 126.177C269.13 126.229 268.669 126.479 268.35 126.87Z" fill="#FF7139"/>
<path d="M270.25 167.76C263.438 167.76 256.78 165.74 251.116 161.956C245.453 158.172 241.038 152.793 238.432 146.5C235.825 140.207 235.143 133.282 236.472 126.601C237.801 119.92 241.081 113.784 245.897 108.967C250.714 104.151 256.85 100.871 263.531 99.5418C270.212 98.2129 277.137 98.8949 283.43 101.502C289.723 104.108 295.102 108.523 298.886 114.186C302.67 119.85 304.69 126.508 304.69 133.32C304.679 142.451 301.048 151.205 294.591 157.661C288.135 164.118 279.381 167.749 270.25 167.76ZM270.25 100.47C263.75 100.468 257.396 102.394 251.99 106.004C246.585 109.614 242.372 114.746 239.883 120.75C237.395 126.755 236.743 133.363 238.011 139.738C239.279 146.113 242.408 151.969 247.004 156.566C251.601 161.162 257.457 164.292 263.832 165.559C270.207 166.827 276.815 166.175 282.82 163.687C288.824 161.198 293.956 156.985 297.566 151.58C301.176 146.174 303.102 139.82 303.1 133.32C303.089 124.611 299.625 116.262 293.467 110.103C287.308 103.945 278.959 100.481 270.25 100.47Z" fill="#FF7139"/>
<path d="M222.54 177.91C222.538 178.719 222.776 179.511 223.224 180.185C223.673 180.859 224.311 181.385 225.058 181.696C225.805 182.007 226.628 182.089 227.422 181.933C228.216 181.776 228.946 181.387 229.519 180.816C230.092 180.244 230.482 179.515 230.641 178.722C230.799 177.928 230.719 177.105 230.41 176.357C230.1 175.609 229.576 174.97 228.903 174.52C228.23 174.07 227.439 173.83 226.63 173.83C225.547 173.83 224.508 174.26 223.741 175.024C222.975 175.789 222.543 176.827 222.54 177.91Z" fill="#FF7139"/>
<path d="M210.31 186.09C210.31 186.899 210.55 187.691 211 188.363C211.45 189.036 212.089 189.56 212.837 189.87C213.585 190.179 214.408 190.259 215.202 190.101C215.995 189.942 216.724 189.552 217.296 188.979C217.867 188.406 218.256 187.676 218.413 186.882C218.569 186.088 218.487 185.265 218.176 184.518C217.865 183.771 217.339 183.133 216.665 182.684C215.991 182.236 215.199 181.998 214.39 182C213.853 182 213.322 182.106 212.826 182.312C212.331 182.517 211.88 182.819 211.501 183.199C211.122 183.578 210.822 184.029 210.618 184.526C210.413 185.022 210.309 185.553 210.31 186.09Z" fill="#FF7139"/>
<path d="M220.14 191.66C220.14 192.069 220.261 192.47 220.489 192.81C220.716 193.15 221.04 193.416 221.418 193.572C221.796 193.729 222.212 193.77 222.614 193.69C223.015 193.61 223.384 193.413 223.674 193.124C223.963 192.834 224.16 192.465 224.24 192.064C224.32 191.662 224.279 191.246 224.122 190.868C223.966 190.49 223.7 190.166 223.36 189.939C223.02 189.711 222.619 189.59 222.21 189.59C221.661 189.59 221.135 189.808 220.746 190.196C220.358 190.584 220.14 191.111 220.14 191.66Z" fill="#FF7139"/>
<path d="M213.15 172.98C213.148 173.392 213.269 173.796 213.496 174.139C213.724 174.483 214.049 174.751 214.429 174.91C214.81 175.068 215.229 175.11 215.633 175.03C216.038 174.951 216.409 174.752 216.701 174.461C216.992 174.169 217.191 173.798 217.27 173.393C217.35 172.989 217.308 172.57 217.15 172.189C216.991 171.809 216.723 171.484 216.379 171.256C216.036 171.029 215.632 170.908 215.22 170.91C214.671 170.91 214.144 171.128 213.756 171.516C213.368 171.904 213.15 172.431 213.15 172.98Z" fill="#FF7139"/>
<path d="M254.82 176.63H284.82C285.239 176.63 285.641 176.464 285.937 176.167C286.234 175.871 286.4 175.469 286.4 175.05C286.4 174.631 286.234 174.229 285.937 173.933C285.641 173.636 285.239 173.47 284.82 173.47H254.82C254.401 173.47 253.999 173.636 253.703 173.933C253.406 174.229 253.24 174.631 253.24 175.05C253.24 175.469 253.406 175.871 253.703 176.167C253.999 176.464 254.401 176.63 254.82 176.63Z" fill="#FF7139"/>
<path d="M254.82 182.98H284.82C285.239 182.98 285.641 182.814 285.937 182.517C286.234 182.221 286.4 181.819 286.4 181.4C286.4 180.981 286.234 180.579 285.937 180.283C285.641 179.986 285.239 179.82 284.82 179.82H254.82C254.401 179.82 253.999 179.986 253.703 180.283C253.406 180.579 253.24 180.981 253.24 181.4C253.24 181.819 253.406 182.221 253.703 182.517C253.999 182.814 254.401 182.98 254.82 182.98Z" fill="#FF7139"/>
<path d="M270.06 189.24H284.84C285.259 189.24 285.661 189.074 285.957 188.777C286.254 188.481 286.42 188.079 286.42 187.66C286.42 187.453 286.379 187.248 286.3 187.057C286.22 186.866 286.103 186.692 285.957 186.546C285.81 186.4 285.636 186.285 285.444 186.207C285.252 186.128 285.047 186.089 284.84 186.09H270.06C269.644 186.09 269.244 186.255 268.95 186.55C268.655 186.844 268.49 187.244 268.49 187.66C268.489 187.867 268.528 188.072 268.607 188.264C268.685 188.456 268.8 188.63 268.946 188.777C269.092 188.923 269.266 189.04 269.457 189.12C269.648 189.199 269.853 189.24 270.06 189.24Z" fill="#FF7139"/>
<path d="M226.63 177.91L246.53 157.45" stroke="#FF7139" stroke-width="1.08" stroke-miterlimit="10"/>
<path d="M105.84 33.62V13.59L88.5 3.58002L71.16 13.59V33.62L88.5 43.64L105.84 33.62Z" stroke="#B9D0F8" stroke-miterlimit="10"/>
<path d="M88.5 63.66V43.64L71.16 33.62L53.81 43.64V63.66" stroke="#B9D0F8" stroke-miterlimit="10"/>
<path d="M53.81 63.66V43.64L36.47 33.62L19.12 43.64V63.66L36.47 73.68L53.81 63.66Z" stroke="#B9D0F8" stroke-miterlimit="10"/>
<path d="M123.19 63.66V43.64L105.84 33.62L88.5 43.64V63.66L105.84 73.68L123.19 63.66Z" stroke="#B9D0F8" stroke-miterlimit="10"/>
<path d="M157.88 43.64L140.53 33.62L123.19 43.64V63.66L140.53 73.68" stroke="#B9D0F8" stroke-miterlimit="10"/>
<path d="M105.84 13.59V33.62L123.19 43.64L140.53 33.62V13.59" stroke="#B9D0F8" stroke-miterlimit="10"/>
<path d="M105.84 93.65V73.62L88.5 63.6L71.16 73.62V93.65" stroke="#B9D0F8" stroke-miterlimit="10"/>
<path d="M140.53 93.65V73.62L123.19 63.6L105.84 73.62V93.65L123.19 103.66L140.53 93.65Z" stroke="#B9D0F8" stroke-miterlimit="10"/>
<path d="M88.5 6.54998C90.1403 6.54998 91.47 5.22027 91.47 3.57999C91.47 1.9397 90.1403 0.609985 88.5 0.609985C86.8597 0.609985 85.53 1.9397 85.53 3.57999C85.53 5.22027 86.8597 6.54998 88.5 6.54998Z" fill="#FF7139"/>
<path d="M88.5 46.21C90.1403 46.21 91.47 44.8803 91.47 43.24C91.47 41.5997 90.1403 40.27 88.5 40.27C86.8597 40.27 85.53 41.5997 85.53 43.24C85.53 44.8803 86.8597 46.21 88.5 46.21Z" fill="#FF7139"/>
<path d="M143.5 13.6C143.5 14.1933 143.324 14.7733 142.994 15.2667C142.665 15.76 142.196 16.1445 141.648 16.3716C141.1 16.5987 140.497 16.6581 139.915 16.5423C139.333 16.4266 138.798 16.1408 138.379 15.7213C137.959 15.3017 137.673 14.7672 137.558 14.1852C137.442 13.6033 137.501 13.0001 137.728 12.4519C137.955 11.9037 138.34 11.4352 138.833 11.1056C139.327 10.7759 139.907 10.6 140.5 10.6C141.296 10.6 142.059 10.916 142.621 11.4787C143.184 12.0413 143.5 12.8043 143.5 13.6Z" fill="#FF7139"/>
<path d="M19.12 46.21C20.7603 46.21 22.09 44.8803 22.09 43.24C22.09 41.5997 20.7603 40.27 19.12 40.27C17.4797 40.27 16.15 41.5997 16.15 43.24C16.15 44.8803 17.4797 46.21 19.12 46.21Z" fill="#FF7139"/>
<path d="M74.12 93.65C74.12 94.2434 73.9441 94.8234 73.6144 95.3167C73.2848 95.8101 72.8162 96.1946 72.268 96.4217C71.7199 96.6487 71.1167 96.7081 70.5347 96.5924C69.9528 96.4766 69.4182 96.1909 68.9987 95.7713C68.5791 95.3518 68.2934 94.8172 68.1776 94.2353C68.0619 93.6533 68.1213 93.0501 68.3484 92.502C68.5754 91.9538 68.9599 91.4853 69.4533 91.1556C69.9466 90.826 70.5266 90.65 71.12 90.65C71.9156 90.65 72.6787 90.9661 73.2413 91.5287C73.8039 92.0913 74.12 92.8544 74.12 93.65Z" fill="#FF7139"/>
<path d="M123.19 46.61C124.83 46.61 126.16 45.2803 126.16 43.64C126.16 41.9997 124.83 40.67 123.19 40.67C121.55 40.67 120.22 41.9997 120.22 43.64C120.22 45.2803 121.55 46.61 123.19 46.61Z" fill="#FF7139"/>
<path d="M445.35 59.61V22.69L413.38 4.22998L381.41 22.69V59.61L413.38 78.06L445.35 59.61Z" fill="#FF7139"/>
<path d="M439.21 44.44C439.21 44.44 435.81 44.23 435.82 41.63C435.82 41.63 439.97 39.33 438.18 35.91C437.687 36.4429 437.088 36.8675 436.422 37.1567C435.755 37.4459 435.036 37.5934 434.31 37.59C434.31 37.59 431.22 31.06 420.55 29.15C414.55 28.09 398.15 24.6 391.98 32.83C391.82 33.03 391.68 33.23 391.55 33.43C390.879 33.1714 390.152 33.0888 389.44 33.19C389.229 33.2256 389.024 33.2895 388.83 33.38C388.317 33.1766 387.755 33.1356 387.218 33.2626C386.682 33.3896 386.197 33.6784 385.83 34.09C385.782 34.1364 385.755 34.1999 385.754 34.2664C385.753 34.333 385.779 34.3972 385.825 34.445C385.871 34.4927 385.935 34.5201 386.001 34.521C386.068 34.5219 386.132 34.4964 386.18 34.45C386.585 34.0374 387.124 33.7822 387.7 33.73C387.863 33.7099 388.027 33.7099 388.19 33.73C387.725 34.0036 387.37 34.4314 387.187 34.9392C387.005 35.447 387.006 36.0028 387.19 36.51C387.421 36.8649 387.784 37.1136 388.198 37.2017C388.612 37.2898 389.044 37.2101 389.4 36.98C389.807 36.613 390.059 36.1052 390.105 35.5593C390.152 35.0135 389.989 34.4704 389.65 34.04C390.116 34.0087 390.583 34.0769 391.02 34.24C387.64 40.36 392.02 45.57 392.36 46.32C392.9 47.67 391.36 48.82 391.31 49.21C391.01 51.14 393.26 54.52 393.46 56.54H398.02C398.02 56.54 398.34 53.72 395.82 53.3L395.92 50.58C395.92 50.58 400.83 50.33 402.61 46.65C402.61 46.65 411.96 51.05 419.13 48.16C420.41 50.24 420.33 52.44 420.34 55.22L421.52 56.54H425.04C425.04 56.54 425.73 54.11 423.2 54.11C424.063 51.8214 424.588 49.4197 424.76 46.98C425.258 46.8966 425.728 46.6942 426.13 46.39C426.13 46.39 426.71 49.21 430.6 49.56C431.615 49.6697 432.642 49.543 433.6 49.19C434.66 49.19 436.82 49.13 437.39 48.31H437.93C438.84 48.37 439.65 45.36 439.21 44.44ZM389.08 34.36C389.325 34.6513 389.453 35.023 389.44 35.4034C389.428 35.7838 389.274 36.146 389.01 36.42C388.823 36.5292 388.601 36.5621 388.391 36.5118C388.18 36.4615 387.997 36.3319 387.88 36.15C387.59 35.48 388.31 34.7 388.88 34.35L389.03 34.27C389.051 34.2973 389.068 34.3276 389.08 34.36Z" fill="white"/>
<path d="M516.1 59.61V22.69L484.13 4.22998L452.16 22.69V59.61L484.13 78.06L516.1 59.61Z" fill="#FF7139"/>
<path d="M504.09 22.98L496.76 30.33C496.398 30.6899 495.964 30.9695 495.487 31.1504C495.01 31.3313 494.5 31.4096 493.99 31.38C492.901 31.263 491.803 31.4795 490.84 32.001C489.878 32.5225 489.097 33.3243 488.6 34.3C486.96 37.54 482.76 38.42 480.72 36.37C478.68 34.32 479.55 30.13 482.77 28.49C483.747 27.9932 484.55 27.2124 485.075 26.2504C485.6 25.2884 485.821 24.1902 485.71 23.1C485.672 22.5924 485.741 22.0824 485.913 21.6033C486.086 21.1243 486.357 20.687 486.71 20.32L491.4 15.63L504.09 22.98Z" fill="white"/>
<path d="M484.13 43.98C484.13 43.98 476.92 51.8 477.35 57.55C477.74 62.81 484.13 62.81 484.13 62.81C484.13 62.81 490.53 62.81 490.91 57.55C491.34 51.75 484.13 43.98 484.13 43.98Z" fill="white"/>
<path d="M595.08 409.96H12.43V417.93H595.08V409.96Z" fill="black"/>
<path d="M530.25 417.93H76.72V426.19H530.25V417.93Z" fill="#B9D0F8"/>
</g>
<defs>
<clipPath id="clip0_2824_506">
<rect width="625.284" height="427" fill="white"/>
</clipPath>
</defs>
</svg>
