<svg width="25" height="30" viewBox="0 0 25 30" fill="none" xmlns="http://www.w3.org/2000/svg">
<g clip-path="url(#clip0_451_94)">
<path d="M22.3423 12.8519L5.35864 1.52943C4.93225 1.24495 4.43661 1.08159 3.92462 1.05678C3.41264 1.03198 2.90353 1.14666 2.45164 1.38859C1.99974 1.63053 1.62202 1.99062 1.35879 2.43046C1.09556 2.87029 0.956699 3.37334 0.957032 3.88592V26.5309C0.956699 27.0434 1.09556 27.5465 1.35879 27.9863C1.62202 28.4261 1.99974 28.7862 2.45164 29.0282C2.90353 29.2701 3.41264 29.3848 3.92462 29.36C4.43661 29.3352 4.93225 29.1718 5.35864 28.8873L22.3423 17.5649C22.7306 17.3065 23.049 16.9562 23.2692 16.545C23.4895 16.1339 23.6047 15.6748 23.6047 15.2084C23.6047 14.742 23.4895 14.2828 23.2692 13.8717C23.049 13.4606 22.7306 13.1103 22.3423 12.8519Z" fill="white"/>
</g>
<defs>
<clipPath id="clip0_451_94">
<rect width="24" height="29" fill="white" transform="translate(0.101562 0.603271)"/>
</clipPath>
</defs>
</svg>
