<svg width="42" height="30" viewBox="0 0 42 30" fill="none" xmlns="http://www.w3.org/2000/svg">
<g clip-path="url(#clip0_864_234)">
<path d="M0.757812 15.0037C1.11651 14.2301 1.72748 14.0005 2.55965 14.0065C6.49453 14.0352 10.4294 14.0196 14.3655 14.0196H14.9298C14.7828 13.8558 14.6907 13.747 14.5938 13.6478C13.7103 12.7606 12.8147 11.8842 11.9419 10.9875C11.1564 10.1816 11.4732 8.96206 12.5254 8.69423C13.0718 8.55554 13.513 8.76119 13.8968 9.14619C15.5077 10.7603 17.1202 12.3728 18.7344 13.9838C18.8396 14.089 18.946 14.193 19.05 14.3006C19.7184 14.9845 19.7244 15.7426 19.05 16.4217C17.6105 17.8692 16.1669 19.3136 14.7194 20.7547C14.4241 21.0501 14.1347 21.3526 13.831 21.6383C13.2332 22.2098 12.4046 22.2146 11.8737 21.6598C11.3429 21.1051 11.3692 20.3147 11.9407 19.736C12.914 18.7496 13.9016 17.7776 14.8676 16.7039H14.4097C10.4641 16.7039 6.51007 16.6883 2.55965 16.717C1.7227 16.717 1.11531 16.4922 0.757812 15.7199V15.0037Z" fill="white"/>
<path d="M26.3728 4.622H13.1358C12.1135 4.622 11.4905 4.10309 11.5001 3.26374C11.5097 2.4244 12.1254 1.93657 13.1214 1.93657H39.5966C39.7753 1.9281 39.9544 1.93771 40.1311 1.96527C40.449 2.02893 40.7332 2.20505 40.9318 2.46134C41.1303 2.71762 41.2298 3.03689 41.2119 3.36059C41.1884 3.69096 41.0446 4.00125 40.8077 4.2328C40.5709 4.46434 40.2574 4.6011 39.9266 4.61722C39.7927 4.62559 39.6588 4.61722 39.5249 4.61722L26.3728 4.622Z" fill="white"/>
<path d="M26.3067 28.7861C21.9227 28.7861 17.5386 28.7861 13.1546 28.7861C12.9758 28.7941 12.7967 28.7877 12.619 28.7669C12.2924 28.7115 11.9976 28.5382 11.7903 28.2799C11.5829 28.0217 11.4775 27.6964 11.4938 27.3656C11.517 27.0353 11.66 26.7247 11.8961 26.4924C12.1321 26.2601 12.4449 26.1221 12.7756 26.1042C12.8641 26.0982 12.9537 26.1042 13.0434 26.1042C21.9127 26.1042 30.7824 26.1042 39.6525 26.1042C40.2922 26.1042 40.798 26.3027 41.0778 26.8993C41.1662 27.0933 41.207 27.3057 41.1967 27.5187C41.1863 27.7317 41.1252 27.9391 41.0184 28.1237C40.9115 28.3082 40.7621 28.4646 40.5825 28.5796C40.4029 28.6946 40.1984 28.765 39.9861 28.7849C39.8377 28.795 39.6888 28.7974 39.5401 28.792C35.1298 28.7896 30.7187 28.7877 26.3067 28.7861Z" fill="white"/>
<path d="M31.7626 9.99154C34.5147 9.99154 37.2677 9.98197 40.0197 10.0071C40.3166 10.0154 40.6048 10.1365 40.848 10.355C41.188 10.6754 41.2905 11.1764 41.1563 11.7192C41.0977 11.9791 40.9787 12.2099 40.8153 12.3808C40.6518 12.5517 40.4517 12.6546 40.2415 12.6758C40.1371 12.6877 40.0328 12.6758 39.9275 12.6758H23.5177C22.7211 12.6758 22.2357 12.158 22.2423 11.3187C22.2488 10.4794 22.7295 9.99034 23.5046 9.99034L31.7626 9.99154Z" fill="white"/>
<path d="M31.7057 20.7319C28.9648 20.7319 26.224 20.7319 23.4831 20.7319C23.3213 20.7388 23.1595 20.7171 23.0024 20.6673C22.7649 20.5843 22.5584 20.395 22.4202 20.1336C22.2819 19.8722 22.2211 19.556 22.2487 19.2421C22.2791 18.9287 22.3934 18.6385 22.5719 18.4211C22.7505 18.2037 22.9823 18.0726 23.2278 18.0501C23.2977 18.0429 23.3676 18.0501 23.4365 18.0501C28.9642 18.0501 34.4919 18.0501 40.0196 18.0501C40.5209 18.0501 40.9094 18.2725 41.118 18.8703C41.1839 19.0661 41.2123 19.2792 41.2008 19.492C41.1894 19.7047 41.1384 19.9108 41.0523 20.0932C40.9661 20.2755 40.8472 20.4287 40.7055 20.54C40.5638 20.6514 40.4034 20.7176 40.2376 20.7331C40.1221 20.7462 40.0057 20.7331 39.8892 20.7331L31.7057 20.7319Z" fill="white"/>
</g>
<defs>
<clipPath id="clip0_864_234">
<rect width="40.8148" height="29" fill="white" transform="translate(0.757812 0.862305)"/>
</clipPath>
</defs>
</svg>
