<svg width="43" height="30" viewBox="0 0 43 30" fill="none" xmlns="http://www.w3.org/2000/svg">
<path d="M41.9419 3.3834V26.6122C41.9419 27.5683 41.1578 28.3433 40.1905 28.3433H2.81392C1.84662 28.3433 1.0625 27.5683 1.0625 26.6122V3.3834C1.0625 2.42734 1.84662 1.65234 2.81392 1.65234H40.1905C41.1578 1.65234 41.9419 2.42744 41.9419 3.3834Z" fill="#F3F4F5"/>
<path d="M41.9419 7.24238V3.3834C41.9419 2.42734 41.1578 1.65234 40.1905 1.65234H2.81392C1.84662 1.65234 1.0625 2.42734 1.0625 3.3834V7.24238H41.9419Z" fill="#F67E20"/>
<path d="M16.6251 12.7885V23.2564C16.6251 23.5207 16.5201 23.7614 16.3578 23.9407C16.248 24.0587 16.1047 24.1531 15.9471 24.205C15.8421 24.2428 15.7275 24.2616 15.6081 24.2616H5.017C4.89764 24.2616 4.78303 24.2428 4.678 24.205C4.52041 24.153 4.37714 24.0587 4.26737 23.9407C4.10503 23.7614 4 23.5207 4 23.2564V12.7885C4 12.2315 4.45362 11.7832 5.0171 11.7832H15.6082C16.1715 11.7833 16.6251 12.2316 16.6251 12.7885Z" fill="#60E9AF"/>
<path d="M14.1419 21.2636V24.2604H6.49219V21.2636C6.49219 20.0307 7.50336 19.0312 8.75077 19.0312H11.8832C13.1307 19.0312 14.1419 20.0307 14.1419 21.2636Z" fill="#F3F4F5"/>
<path d="M12.3644 15.5821C12.3644 16.7007 11.4428 17.6068 10.3111 17.6068C9.17463 17.6068 8.25781 16.7007 8.25781 15.5821C8.25781 14.4589 9.17463 13.5527 10.3111 13.5527C11.4427 13.5527 12.3644 14.4589 12.3644 15.5821Z" fill="#F3F4F5"/>
<path d="M2.80997 28.7833H40.1897C41.3991 28.7833 42.3825 27.8069 42.3825 26.6116C42.3825 21.8444 42.3825 8.58486 42.3825 3.38408C42.3825 2.18877 41.3991 1.2168 40.1897 1.2168H2.80997C1.6006 1.2168 0.617188 2.18887 0.617188 3.38408V26.6116C0.617188 27.8069 1.6006 28.7833 2.80997 28.7833ZM40.1897 27.9076H2.80997C2.09235 27.9076 1.50317 27.3253 1.50317 26.6116V7.6793H41.4966V26.6116C41.4965 27.3253 40.9118 27.9076 40.1897 27.9076ZM1.50317 3.38408C1.50317 2.67041 2.09235 2.09248 2.80997 2.09248H40.1897C40.9118 2.09248 41.4965 2.67041 41.4965 3.38408V6.80361H1.50317V3.38408Z" fill="black"/>
<path d="M15.6119 11.3438H5.02442C4.21817 11.3438 3.5625 11.9918 3.5625 12.7887V23.2574C3.5625 24.0479 4.1995 24.6979 5.02442 24.6979C6.08114 24.6979 15.9416 24.6979 15.612 24.6979C16.4444 24.6979 17.0739 24.0428 17.0739 23.2574V12.7887C17.0738 11.9918 16.4181 11.3438 15.6119 11.3438ZM12.9581 23.8223V22.4865C12.9581 22.2447 12.7597 22.0486 12.515 22.0486C12.2704 22.0486 12.072 22.2447 12.072 22.4865V23.8223H8.5652V22.4865C8.5652 22.2447 8.3668 22.0486 8.12216 22.0486C7.87752 22.0486 7.67922 22.2447 7.67922 22.4865V23.8223H6.93818V21.2652C6.93818 20.2757 7.75322 19.47 8.75441 19.47H11.8863C12.8875 19.47 13.7027 20.2757 13.7027 21.2652V23.8223H12.9581ZM16.1878 23.2574C16.1878 23.5689 15.9407 23.8223 15.612 23.8223H14.5887V21.2652C14.5887 19.7897 13.3748 18.5943 11.8863 18.5943H8.75441C7.26157 18.5943 6.05219 19.7896 6.05219 21.2652V23.8223H5.02442C4.68335 23.8223 4.44858 23.5508 4.44858 23.2574V12.7887C4.44858 12.4734 4.70558 12.2194 5.02442 12.2194H15.612C15.9309 12.2194 16.1878 12.4733 16.1878 12.7887V23.2574Z" fill="black"/>
<path d="M10.3144 13.1133C8.93661 13.1133 7.82031 14.221 7.82031 15.5827C7.82031 16.94 8.93671 18.0435 10.3144 18.0435C11.692 18.0435 12.8128 16.9401 12.8128 15.5827C12.8128 14.221 11.692 13.1133 10.3144 13.1133ZM10.3144 17.1678C9.42837 17.1678 8.7063 16.4584 8.7063 15.5827C8.7063 14.7026 9.42837 13.989 10.3144 13.989C11.2048 13.989 11.9269 14.7026 11.9269 15.5827C11.9269 16.4584 11.2047 17.1678 10.3144 17.1678Z" fill="black"/>
<path d="M38.2062 11.1543H20.1851C19.9405 11.1543 19.7422 11.3504 19.7422 11.5922C19.7422 11.834 19.9405 12.03 20.1851 12.03H38.2062C38.4508 12.03 38.6492 11.834 38.6492 11.5922C38.6492 11.3504 38.4509 11.1543 38.2062 11.1543Z" fill="black"/>
<path d="M20.1851 15.2448H26.2453C26.49 15.2448 26.6884 15.0487 26.6884 14.807C26.6884 14.5652 26.49 14.3691 26.2453 14.3691H20.1851C19.9405 14.3691 19.7422 14.5652 19.7422 14.807C19.7421 15.0487 19.9405 15.2448 20.1851 15.2448Z" fill="black"/>
<path d="M38.2118 14.3691H28.4039C28.1592 14.3691 27.9609 14.5652 27.9609 14.807C27.9609 15.0488 28.1593 15.2448 28.4039 15.2448H38.2118C38.4564 15.2448 38.6548 15.0487 38.6548 14.807C38.6548 14.5651 38.4565 14.3691 38.2118 14.3691Z" fill="black"/>
<path d="M20.1851 21.6745H26.2453C26.49 21.6745 26.6884 21.4784 26.6884 21.2367C26.6884 20.9949 26.49 20.7988 26.2453 20.7988H20.1851C19.9405 20.7988 19.7422 20.9949 19.7422 21.2367C19.7421 21.4784 19.9405 21.6745 20.1851 21.6745Z" fill="black"/>
<path d="M38.2118 20.7988H28.4039C28.1592 20.7988 27.9609 20.9949 27.9609 21.2367C27.9609 21.4785 28.1593 21.6745 28.4039 21.6745H38.2118C38.4564 21.6745 38.6548 21.4784 38.6548 21.2367C38.6548 20.9948 38.4565 20.7988 38.2118 20.7988Z" fill="black"/>
<path d="M38.2064 17.584H32.1462C31.9015 17.584 31.7031 17.7801 31.7031 18.0218C31.7031 18.2636 31.9015 18.4597 32.1462 18.4597H38.2064C38.451 18.4597 38.6494 18.2636 38.6494 18.0218C38.6494 17.7801 38.4511 17.584 38.2064 17.584Z" fill="black"/>
<path d="M20.1851 18.4597H29.993C30.2377 18.4597 30.436 18.2636 30.436 18.0218C30.436 17.78 30.2376 17.584 29.993 17.584H20.1851C19.9405 17.584 19.7422 17.7801 19.7422 18.0218C19.7421 18.2637 19.9405 18.4597 20.1851 18.4597Z" fill="black"/>
<path d="M38.2064 24.0137H32.1462C31.9015 24.0137 31.7031 24.2098 31.7031 24.4515C31.7031 24.6933 31.9015 24.8894 32.1462 24.8894H38.2064C38.451 24.8894 38.6494 24.6933 38.6494 24.4515C38.6494 24.2098 38.4511 24.0137 38.2064 24.0137Z" fill="black"/>
<path d="M29.993 24.0137H20.1851C19.9405 24.0137 19.7422 24.2098 19.7422 24.4515C19.7422 24.6933 19.9405 24.8894 20.1851 24.8894H29.993C30.2377 24.8894 30.436 24.6933 30.436 24.4515C30.4361 24.2098 30.2377 24.0137 29.993 24.0137Z" fill="black"/>
</svg>
