<svg width="65" height="65" viewBox="0 0 65 65" fill="none" xmlns="http://www.w3.org/2000/svg">
<g clip-path="url(#clip0_50_4895)">
<path d="M0 25.4371C0.106261 25.0181 0.204503 24.5967 0.319953 24.1802C1.3849 20.3349 4.71308 17.7444 8.79712 17.5857C9.3184 17.5655 9.85255 17.5086 10.3595 17.5944C10.8522 17.6777 11.3865 17.8279 11.7815 18.1151C12.7081 18.789 13.5593 19.566 14.4467 20.2945C15.6147 21.2532 16.9241 21.2617 18.0993 20.3077C18.9907 19.5841 19.8526 18.8237 20.7577 18.1181C21.0581 17.8841 21.4434 17.6448 21.8039 17.6211C23.7921 17.4908 25.7688 17.5444 27.6501 18.3365C28.9164 18.8697 30.0351 19.618 31.0047 20.5914C31.874 21.4642 32.7318 22.3495 33.6296 23.1921C33.844 23.3933 34.195 23.5433 34.4874 23.5508C35.9062 23.5873 37.3284 23.5241 38.7457 23.5822C39.7116 23.6218 40.6716 23.8033 41.7997 23.9416C42.2573 23.4327 42.857 22.7701 43.4521 22.1034C45.4123 19.9074 47.3619 17.7016 49.3403 15.5221C49.6209 15.2128 50.0077 14.9328 50.3994 14.8063C51.0708 14.5895 51.7652 14.9275 52.1264 15.5097C52.5161 16.1376 52.4686 16.8534 51.9253 17.4756C50.6894 18.8907 49.4296 20.2851 48.1792 21.6876C46.9288 23.09 45.6772 24.4915 44.4273 25.8944C44.2902 26.0485 44.1602 26.2089 44.0386 26.3525C45.0171 28.5493 44.8554 30.5773 43.2772 32.3959C42.2147 33.6202 40.8148 34.1464 39.2129 34.151C36.7909 34.1581 34.369 34.1524 31.9468 34.1532C30.3394 34.1539 28.9814 33.5783 27.8628 32.4193C27.2105 31.7433 26.5372 31.0875 25.8704 30.4257C25.7282 30.2845 25.5728 30.1567 25.3052 29.9165C25.3052 40.3124 25.3052 50.5572 25.3052 60.904C25.5079 60.904 25.7469 60.904 25.986 60.904C34.2751 60.904 42.5641 60.9033 50.8531 60.9048C52.0096 60.905 52.7221 61.4799 52.7677 62.4347C52.8106 63.3333 52.1949 64.0554 51.2977 64.1461C51.0909 64.167 50.8805 64.1569 50.6719 64.1569C34.4904 64.1573 18.309 64.1521 2.12773 64.1698C1.11507 64.171 0.382774 63.8764 0 62.9042C0 62.6536 0 62.403 0 62.1524C0.377762 61.2197 1.07247 60.8254 2.06875 60.8984C2.50482 60.9304 2.94507 60.9038 3.38348 60.9038C4.67282 60.9038 5.96198 60.9038 7.2819 60.9038C7.2819 55.5526 7.2819 50.2653 7.2819 44.9406C7.0134 45.0077 6.7937 45.0634 6.57349 45.1175C3.76308 45.8085 0.964871 44.17 0.189466 41.3803C0.128482 41.1611 0.0633223 40.9432 0 40.7247C0 35.6288 0 30.533 0 25.4371ZM21.9727 60.869C21.9727 60.5456 21.9727 60.296 21.9727 60.0462C21.9727 56.0368 21.9727 52.0273 21.9727 48.018C21.9728 42.1292 21.9687 36.2402 21.976 30.3514C21.978 28.8079 22.6537 27.6556 24.089 27.0274C25.4003 26.4533 26.8253 26.7884 27.9326 27.8838C28.675 28.6179 29.427 29.3436 30.1442 30.1018C30.6679 30.6551 31.2837 30.9131 32.0364 30.9111C34.396 30.9047 36.7558 30.9149 39.1155 30.9017C39.4436 30.8999 39.7884 30.8516 40.0957 30.7413C41.0206 30.4093 41.5245 29.4692 41.3523 28.4781C41.1931 27.5619 40.3035 26.8342 39.2693 26.8255C37.3901 26.8098 35.5103 26.804 33.6311 26.8289C32.9318 26.8381 32.3913 26.6042 31.9091 26.1064C30.8775 25.0418 29.8149 24.0071 28.7695 22.9557C27.7726 21.9529 26.5989 21.2619 25.2074 20.9884C23.7408 20.7 22.3103 20.5885 21.2096 21.9367C20.9373 22.2702 20.5497 22.5111 20.2092 22.7871C17.7772 24.7578 14.7713 24.7563 12.3472 22.7803C11.6675 22.2262 11.003 21.6533 10.3192 21.1046C10.1655 20.9812 9.96633 20.8637 9.77703 20.8427C6.23115 20.4484 3.2692 23.0894 3.25951 26.6576C3.24898 30.5626 3.25517 34.4677 3.25433 38.3728C3.25416 38.9366 3.23913 39.501 3.26001 40.0641C3.30145 41.181 4.18679 42.0244 5.29234 42.0229C6.42278 42.0212 7.24113 41.2099 7.27521 40.0517C7.29493 39.3844 7.32049 38.7169 7.32166 38.0495C7.32667 35.0215 7.32249 31.9936 7.326 28.9656C7.32634 28.6743 7.32934 28.3784 7.37746 28.0923C7.50194 27.3523 8.10759 26.8334 8.85242 26.7965C9.89732 26.7447 10.5656 27.4441 10.568 28.6408C10.576 32.7735 10.5715 36.9063 10.5715 41.039C10.5715 47.4497 10.5711 53.8606 10.5726 60.2716C10.5726 60.4711 10.5902 60.6704 10.5994 60.8669C11.9816 60.8669 13.2893 60.8669 14.6564 60.8669C14.6564 60.5897 14.6564 60.3446 14.6564 60.0995C14.6564 53.8765 14.6562 47.6536 14.6569 41.4306C14.6569 41.201 14.645 40.969 14.6727 40.7422C14.7651 39.986 15.3871 39.3968 16.1318 39.341C16.9228 39.2818 17.5884 39.7072 17.8053 40.4602C17.89 40.7544 17.9062 41.0764 17.9065 41.3858C17.912 47.6297 17.9107 53.8735 17.9107 60.1174C17.9107 60.3608 17.9107 60.6042 17.9107 60.8695C19.2884 60.869 20.5939 60.869 21.9727 60.869Z" fill="url(#paint0_linear_50_4895)"/>
<path d="M59.7727 0C60.0106 0.064826 60.2481 0.13149 60.4865 0.194311C62.6683 0.769558 64.1428 2.64316 64.153 4.9246C64.1699 8.68367 64.1583 12.4427 64.1585 16.202C64.1587 23.2191 64.1592 30.236 64.1583 37.253C64.158 40.5481 62.1405 42.5806 58.8638 42.5813C49.4452 42.583 40.0265 42.5828 30.6079 42.5785C30.2975 42.5783 29.9772 42.5649 29.6784 42.4896C28.9095 42.2958 28.4117 41.556 28.4969 40.7936C28.5857 39.998 29.1844 39.4048 29.9755 39.343C30.2248 39.3235 30.4764 39.3315 30.7268 39.3315C40.0619 39.331 49.3971 39.3313 58.7322 39.331C60.365 39.331 60.9038 38.7903 60.9038 37.1541C60.904 26.566 60.904 15.9778 60.9037 5.38958C60.9037 3.8371 60.3476 3.28106 58.7933 3.28106C48.5602 3.28056 38.327 3.2809 28.0939 3.28056C27.8641 3.28056 27.6341 3.28507 27.4048 3.27505C26.5873 3.23896 25.9603 2.74424 25.8133 2.02598C25.6455 1.2068 26.0134 0.512259 26.807 0.14519C26.8969 0.103588 26.9806 0.0487866 27.0674 0C37.9691 0 48.8709 0 59.7727 0Z" fill="url(#paint1_linear_50_4895)"/>
<path d="M17.2897 0C17.8065 0.144188 18.3324 0.261643 18.8387 0.43674C22.4872 1.69884 24.6879 5.42316 24.0291 9.19977C23.3695 12.9816 19.9927 15.7936 16.2012 15.7186C12.2164 15.6398 9.01505 12.7951 8.49076 8.86712C7.93857 4.73046 10.7645 0.864959 14.8783 0.125308C15.0168 0.100413 15.1495 0.0426047 15.2848 0C15.9531 0 16.6214 0 17.2897 0ZM16.3004 3.25734C13.752 3.24213 11.6641 5.30971 11.6602 7.85196C11.6564 10.3698 13.6895 12.4322 16.2169 12.4745C18.7456 12.5168 20.8755 10.4363 20.8941 7.90593C20.9124 5.36518 18.8445 3.27254 16.3004 3.25734Z" fill="url(#paint2_linear_50_4895)"/>
<path d="M42.3177 7.38849C45.0937 7.38849 47.8697 7.37763 50.6457 7.393C51.9832 7.40035 52.7784 8.65226 52.1761 9.76767C51.8186 10.4298 51.2235 10.6462 50.5007 10.6438C47.8291 10.6355 45.1574 10.6406 42.4858 10.6406C39.6889 10.6406 36.8921 10.644 34.0952 10.6386C33.1462 10.6368 32.4889 10.1568 32.3227 9.3737C32.0943 8.29789 32.8326 7.39801 33.9898 7.39267C36.7658 7.37997 39.5417 7.38866 42.3177 7.38849Z" fill="url(#paint3_linear_50_4895)"/>
<path d="M38.1177 14.7459C39.4523 14.7458 40.7871 14.7369 42.1217 14.7486C43.2272 14.7583 43.9555 15.4201 43.9448 16.3751C43.9343 17.3069 43.2247 17.9767 42.1573 17.9834C39.4464 18.0004 36.7351 18.0018 34.0243 17.9824C32.9563 17.9747 32.2665 17.2955 32.2735 16.3482C32.2805 15.4002 32.9757 14.7603 34.0512 14.7493C35.4065 14.7356 36.7622 14.7459 38.1177 14.7459Z" fill="url(#paint4_linear_50_4895)"/>
</g>
<defs>
<linearGradient id="paint0_linear_50_4895" x1="26.3849" y1="14.7402" x2="26.3849" y2="64.1698" gradientUnits="userSpaceOnUse">
<stop stop-color="#092199"/>
<stop offset="1" stop-color="#DD57FF"/>
</linearGradient>
<linearGradient id="paint1_linear_50_4895" x1="44.9678" y1="0" x2="44.9678" y2="42.5823" gradientUnits="userSpaceOnUse">
<stop stop-color="#092199"/>
<stop offset="1" stop-color="#DD57FF"/>
</linearGradient>
<linearGradient id="paint2_linear_50_4895" x1="16.2835" y1="0" x2="16.2835" y2="15.7201" gradientUnits="userSpaceOnUse">
<stop stop-color="#092199"/>
<stop offset="1" stop-color="#DD57FF"/>
</linearGradient>
<linearGradient id="paint3_linear_50_4895" x1="42.3308" y1="7.38477" x2="42.3308" y2="10.6438" gradientUnits="userSpaceOnUse">
<stop stop-color="#092199"/>
<stop offset="1" stop-color="#DD57FF"/>
</linearGradient>
<linearGradient id="paint4_linear_50_4895" x1="38.1092" y1="14.7422" x2="38.1092" y2="17.9966" gradientUnits="userSpaceOnUse">
<stop stop-color="#092199"/>
<stop offset="1" stop-color="#DD57FF"/>
</linearGradient>
<clipPath id="clip0_50_4895">
<rect width="64.1613" height="64.1702" fill="white"/>
</clipPath>
</defs>
</svg>
