<svg width="36" height="35" viewBox="0 0 36 35" fill="none" xmlns="http://www.w3.org/2000/svg">
<g clip-path="url(#clip0_50_5094)">
<path fill-rule="evenodd" clip-rule="evenodd" d="M18.0025 14.4497C3.07582 14.3696 3.34127 23.4619 2.40625 33.8831H18.0025H33.5967C32.6645 23.4619 32.9299 14.3696 18.0025 14.4497Z" fill="#2F5274"/>
<path fill-rule="evenodd" clip-rule="evenodd" d="M18.0036 14.4497C13.9028 14.4288 10.9528 15.0988 8.80469 16.2973C9.26064 17.1835 9.96033 17.965 10.8876 18.612C12.8859 20.01 15.5943 20.5628 18.0036 20.5628C20.4115 20.5628 23.1199 20.0093 25.1181 18.612C26.0455 17.965 26.7473 17.1835 27.2011 16.2973C25.0544 15.0988 22.1023 14.4288 18.0036 14.4497Z" fill="#2A4A68"/>
<path fill-rule="evenodd" clip-rule="evenodd" d="M15.9711 1.70141C12.1512 4.20022 10.424 8.09066 9.43016 12.465C7.30308 21.8215 28.7021 21.8215 26.575 12.465C25.579 8.08996 23.8533 4.19952 20.0319 1.70141C18.8385 0.919841 17.1632 0.919841 15.9711 1.70141Z" fill="#2F5274"/>
<path fill-rule="evenodd" clip-rule="evenodd" d="M9.29688 13.9934C9.67929 21.2346 25.9857 21.3113 26.7008 14.2214C26.5412 14.1119 26.455 14.0338 26.4641 13.999C22.2758 10.6482 13.4922 10.6461 9.29688 13.9934Z" fill="#1F364D"/>
<path fill-rule="evenodd" clip-rule="evenodd" d="M23.5715 12.4244C20.2054 11.1994 15.8399 11.1722 12.4297 12.34C12.803 15.2697 15.157 17.5286 18.0055 17.5286C20.8267 17.5286 23.1631 15.3129 23.5715 12.4244Z" fill="#FBBD80"/>
<path fill-rule="evenodd" clip-rule="evenodd" d="M23.5715 12.4244C20.2054 11.1994 15.8399 11.1722 12.4297 12.34C12.541 13.2227 12.8338 14.0419 13.2646 14.7579C14.278 15.3017 15.2319 14.6471 16.1782 14.1932L16.8281 13.8829C17.5937 13.5155 18.4054 13.5155 19.1709 13.8829L19.8209 14.1932C20.7727 14.6492 21.733 15.3094 22.752 14.7503C23.1653 14.0572 23.4517 13.2701 23.5715 12.4244Z" fill="#231915"/>
<path fill-rule="evenodd" clip-rule="evenodd" d="M16.2743 11.5527C15.4296 11.6252 14.601 11.7556 13.8047 11.9453C13.8775 12.5637 14.407 13.0441 15.0472 13.0441C15.7378 13.0441 16.2974 12.487 16.2974 11.7995C16.2974 11.7152 16.2897 11.6329 16.2743 11.5527Z" fill="white"/>
<path fill-rule="evenodd" clip-rule="evenodd" d="M22.1803 12.0029C21.3882 11.8021 20.5589 11.6598 19.7163 11.5762C19.703 11.6508 19.6953 11.7254 19.6953 11.8021C19.6953 12.4895 20.2549 13.0466 20.9455 13.0466C21.5689 13.0459 22.0843 12.5941 22.1803 12.0029Z" fill="white"/>
<path fill-rule="evenodd" clip-rule="evenodd" d="M8.45422 21.2031H27.5489C27.8256 21.2031 28.0644 21.3063 28.2507 21.5092C28.437 21.7121 28.5218 21.9589 28.4965 22.2329L27.474 33.884H8.52706L7.50379 22.2336C7.48068 21.9596 7.56332 21.7128 7.75173 21.5099C7.93873 21.307 8.17686 21.2031 8.45422 21.2031Z" fill="#EBF5FC"/>
<path fill-rule="evenodd" clip-rule="evenodd" d="M18.003 22.9043C20.3129 22.9043 22.1865 24.7672 22.1865 27.0687C22.1865 28.4262 21.5323 29.6303 20.523 30.3903V31.6536C20.523 31.9443 20.2828 32.1842 19.99 32.1842H16.0146C15.7226 32.1842 15.4837 31.945 15.4837 31.6536V30.3903C14.4724 29.6303 13.8203 28.4262 13.8203 27.0687C13.8203 24.7672 15.6932 22.9043 18.003 22.9043Z" fill="#FF4646"/>
<path fill-rule="evenodd" clip-rule="evenodd" d="M16.2852 27.7732C16.8259 27.7732 17.2658 27.3347 17.2658 26.7964C17.2658 26.2582 16.8252 25.8203 16.2852 25.8203C15.7452 25.8203 15.3047 26.2589 15.3047 26.7964C15.3047 27.3347 15.7445 27.7732 16.2852 27.7732Z" fill="white"/>
<path fill-rule="evenodd" clip-rule="evenodd" d="M19.7149 27.7732C20.257 27.7732 20.6976 27.3347 20.6976 26.7964C20.6976 26.2582 20.257 25.8203 19.7149 25.8203C19.1742 25.8203 18.7344 26.2589 18.7344 26.7964C18.7337 27.3347 19.1742 27.7732 19.7149 27.7732Z" fill="white"/>
<path fill-rule="evenodd" clip-rule="evenodd" d="M9.4964 33.343L8.52145 22.2329C8.49624 21.9589 8.58099 21.7121 8.76729 21.5092C8.95359 21.3063 9.19243 21.2031 9.46908 21.2031H8.45352C8.17686 21.2031 7.93803 21.3063 7.75173 21.5092C7.56332 21.7121 7.48068 21.9589 7.50379 22.2329L8.48083 33.343H9.4964Z" fill="#D4DDE3"/>
<path fill-rule="evenodd" clip-rule="evenodd" d="M14.3841 27.0687C14.3841 24.8635 16.1057 23.0577 18.2846 22.9141C18.1921 22.9064 18.0983 22.9043 18.0037 22.9043C15.6939 22.9043 13.8203 24.7672 13.8203 27.0687C13.8203 28.4262 14.4724 29.6303 15.4837 30.3903V31.6536C15.4837 31.9443 15.7226 32.1842 16.0146 32.1842H16.5784C16.2864 32.1842 16.0454 31.945 16.0454 31.6536V30.3903C15.0362 29.6303 14.3841 28.4255 14.3841 27.0687Z" fill="#E63F3F"/>
<path fill-rule="evenodd" clip-rule="evenodd" d="M15.6045 26.7971C15.6045 26.3091 15.9645 25.9033 16.4351 25.8301C16.3868 25.8245 16.3371 25.8203 16.2852 25.8203C15.7431 25.8203 15.3047 26.2568 15.3047 26.7964C15.3047 27.336 15.7431 27.7732 16.2852 27.7732C16.3371 27.7732 16.3875 27.7697 16.4351 27.762C15.9645 27.6909 15.6045 27.2852 15.6045 26.7971Z" fill="#E6E6E6"/>
<path fill-rule="evenodd" clip-rule="evenodd" d="M19.0341 26.7971C19.0341 26.3091 19.3955 25.9033 19.8669 25.8301C19.8172 25.8245 19.7667 25.8203 19.7149 25.8203C19.1742 25.8203 18.7344 26.2568 18.7344 26.7964C18.7344 27.336 19.1749 27.7732 19.7149 27.7732C19.7667 27.7732 19.8172 27.7697 19.8669 27.762C19.3955 27.6909 19.0341 27.2852 19.0341 26.7971Z" fill="#E6E6E6"/>
<path d="M18.001 22.5189C15.3108 22.5189 13.1221 24.6977 13.1221 27.3757C13.1221 28.8161 13.7447 30.1485 14.8394 31.0723V32.109C14.8394 32.7191 15.3367 33.2148 15.9481 33.2148H20.0517C20.6646 33.2148 21.1625 32.7191 21.1625 32.109V31.0723C22.2572 30.1471 22.8799 28.8147 22.8799 27.3757C22.8799 24.6977 20.6912 22.5189 18.001 22.5189ZM20.2632 30.3597C20.1232 30.465 20.0405 30.6302 20.0405 30.8052V32.0986H19.4452V31.5499C19.4452 31.2417 19.1944 30.9914 18.8842 30.9914C18.5739 30.9914 18.3232 31.241 18.3232 31.5499V32.0986H17.676V31.5499C17.676 31.2417 17.4253 30.9914 17.115 30.9914C16.8047 30.9914 16.554 31.241 16.554 31.5499V32.0986H15.96V30.8052C15.96 30.6302 15.8774 30.465 15.7373 30.3597C14.7876 29.6465 14.2427 28.5588 14.2427 27.3764C14.2427 25.314 15.9285 23.6358 18.0003 23.6358C20.072 23.6358 21.7579 25.314 21.7579 27.3764C21.7586 28.5567 21.2137 29.6444 20.2632 30.3597ZM18.9591 29.3592C19.1468 29.6046 19.0999 29.9546 18.8533 30.1415C18.7518 30.2189 18.632 30.2558 18.5137 30.2558C18.3449 30.2558 18.1775 30.1805 18.0675 30.0362L18.001 29.9498L17.9344 30.0362C17.7467 30.2816 17.3944 30.3284 17.1486 30.1415C16.9021 29.9546 16.8551 29.604 17.0428 29.3592L17.414 28.8747C17.5478 28.6976 17.7628 28.5937 18.001 28.5937C18.2391 28.5937 18.4541 28.6976 18.5907 28.8782L18.9591 29.3592ZM17.8014 27.0954C17.8014 26.2315 17.0954 25.5294 16.2283 25.5294C15.3605 25.5294 14.6552 26.2322 14.6552 27.0954C14.6552 27.9585 15.3612 28.6613 16.2283 28.6613C17.0954 28.6613 17.8014 27.9585 17.8014 27.0954ZM16.2283 27.5451C15.9789 27.5451 15.7765 27.3436 15.7765 27.0954C15.7765 26.8472 15.9789 26.6457 16.2283 26.6457C16.4776 26.6457 16.68 26.8472 16.68 27.0954C16.68 27.3436 16.4769 27.5451 16.2283 27.5451ZM18.1985 27.0954C18.1985 27.9592 18.9045 28.6613 19.7716 28.6613C20.64 28.6613 21.3467 27.9585 21.3467 27.0954C21.3467 26.2322 20.64 25.5294 19.7716 25.5294C18.9045 25.5288 18.1985 26.2315 18.1985 27.0954ZM20.2254 27.0954C20.2254 27.3436 20.0216 27.5451 19.7716 27.5451C19.5222 27.5451 19.3198 27.3436 19.3198 27.0954C19.3198 26.8472 19.5222 26.6457 19.7716 26.6457C20.0223 26.6457 20.2254 26.8472 20.2254 27.0954ZM35.3706 33.8535H34.6121C34.5673 33.3389 34.5253 32.8258 34.4832 32.3259C34.1751 28.6069 33.8837 25.0944 32.8646 22.1431C31.7643 18.9568 29.9636 16.8283 27.2216 15.4847C27.6012 14.4835 27.6663 13.3666 27.396 12.1785C26.8098 9.60375 26.0435 7.49957 25.0546 5.74678C23.8625 3.63423 22.3413 1.9916 20.4033 0.724765C18.9878 -0.202526 17.0113 -0.202526 15.5958 0.724765C13.6579 1.9923 12.1366 3.63492 10.9453 5.74678C9.9556 7.50096 9.19008 9.60514 8.60455 12.1785C8.3349 13.3659 8.39934 14.4821 8.77895 15.4833C6.03623 16.8269 4.23483 18.9561 3.13451 22.1424C2.11545 25.093 1.82409 28.6062 1.51592 32.3252C1.47459 32.8251 1.43187 33.3382 1.38704 33.8528H0.631324C0.321752 33.8528 0.0703125 34.1024 0.0703125 34.4112C0.0703125 34.7201 0.321052 34.9697 0.631324 34.9697H1.90183H8.22144H27.7791H34.0987H35.3706C35.6802 34.9697 35.9316 34.7201 35.9316 34.4112C35.9316 34.1024 35.6809 33.8535 35.3706 33.8535ZM9.5942 14.1419C10.2274 13.6748 10.9775 13.2697 11.813 12.935C11.9762 13.6441 12.2445 14.3064 12.5989 14.9053C12.6157 14.9409 12.6353 14.9744 12.6591 15.0057C13.8056 16.8694 15.7905 18.0881 18.0003 18.0881C19.5418 18.0881 21.0295 17.4969 22.1893 16.4225C22.6474 15.9979 23.0417 15.5091 23.3646 14.9737C23.3772 14.9548 23.3891 14.936 23.3989 14.9165C23.7428 14.3343 24.0026 13.6985 24.1658 13.0312C25.0091 13.3889 25.7592 13.8205 26.3804 14.3169C26.1388 15.7643 25.1898 16.7292 24.3003 17.3323C21.0617 19.5272 14.9375 19.5272 11.6989 17.3323C10.7758 16.7048 9.78541 15.6869 9.5942 14.1419ZM13.2916 12.4421C13.5976 13.0501 14.2294 13.4593 14.9473 13.4593C15.8781 13.4593 16.6499 12.7726 16.7795 11.8808C17.1409 11.8592 17.5065 11.8481 17.8742 11.8481H17.8798C18.3288 11.8481 18.7735 11.8648 19.2126 11.8969C19.3485 12.7802 20.1175 13.4593 21.0428 13.4593C21.7404 13.4593 22.3532 13.0793 22.6684 12.5014C22.8169 12.5446 22.9632 12.5899 23.1082 12.6366C22.9807 13.2097 22.7713 13.748 22.494 14.2367C21.9274 14.4689 21.3684 14.2144 20.5385 13.7926C20.4012 13.7229 20.2597 13.6511 20.1168 13.5827L19.4459 13.2627C18.4961 12.8088 17.4918 12.8088 16.5428 13.2627L15.8704 13.5834C15.7296 13.6511 15.5888 13.7222 15.453 13.7912C14.6244 14.2123 14.0599 14.4598 13.5052 14.2388C13.2173 13.7278 13.003 13.163 12.8776 12.5606C13.0149 12.5202 13.1529 12.4797 13.2916 12.4421ZM14.4724 12.1674C14.8317 12.0984 15.198 12.0398 15.5706 11.9931C15.4425 12.2023 15.2113 12.3431 14.948 12.3431C14.7673 12.3424 14.6006 12.2769 14.4724 12.1674ZM20.4418 12.028C20.7906 12.0775 21.1338 12.1374 21.47 12.2064C21.3495 12.2929 21.2011 12.3424 21.0421 12.3424C20.7934 12.3424 20.5742 12.2176 20.4418 12.028ZM21.6206 15.4018C20.6688 16.3758 19.3842 16.9719 18.001 16.9719C16.6093 16.9719 15.3241 16.3772 14.3744 15.4011C14.9522 15.3014 15.4901 15.0281 15.9642 14.7868C16.1001 14.7178 16.229 14.6523 16.3572 14.5909L17.0281 14.2709C17.6697 13.9648 18.3197 13.9648 18.9612 14.2709L19.6315 14.5909C19.7618 14.653 19.8913 14.7192 20.0286 14.7889C20.5042 15.0294 21.0428 15.3021 21.6206 15.4018ZM16.2122 1.65763C16.2129 1.65763 16.2129 1.65763 16.2122 1.65763C16.7305 1.31809 17.365 1.14867 17.9996 1.14867C18.6341 1.14867 19.2694 1.31809 19.7877 1.65763C23.0893 3.8162 25.0987 7.13702 26.3027 12.4254C26.3433 12.6045 26.3734 12.7782 26.3958 12.9476C24.2456 11.5329 21.1996 10.7325 17.8798 10.7311C17.8777 10.7311 17.8756 10.7311 17.8735 10.7311C14.6944 10.7311 11.764 11.4653 9.63202 12.7698C9.65093 12.6568 9.67195 12.5425 9.69856 12.4247C10.9004 7.13911 12.9091 3.81829 16.2122 1.65763ZM8.73483 33.8535L7.72346 22.339C7.71226 22.21 7.74588 22.1103 7.83413 22.0155C7.91957 21.9221 8.01553 21.8809 8.1451 21.8809H27.8554C27.985 21.8809 28.081 21.9228 28.1664 22.0155C28.2533 22.1103 28.2876 22.2086 28.2757 22.3369L27.2643 33.8535H8.73483ZM28.3905 33.8535L29.3935 22.4366C29.4334 21.996 29.2961 21.5895 28.9943 21.2618C28.6952 20.9362 28.3016 20.764 27.8561 20.764H8.1458C7.70035 20.764 7.30673 20.9362 7.00907 21.2597C6.7079 21.5839 6.56852 21.9897 6.60634 22.4345L7.6093 33.8535H2.51397C2.55599 33.3689 2.59592 32.8878 2.63444 32.4179C3.22066 25.3447 3.72985 19.2113 9.28673 16.4817C9.72027 17.1476 10.3163 17.7451 11.0692 18.2554C12.8832 19.4853 15.4418 20.0996 18.001 20.0996C20.5595 20.0996 23.1194 19.4846 24.9327 18.2554C25.6856 17.7451 26.2817 17.1483 26.7152 16.4824C32.27 19.2127 32.7792 25.3454 33.3654 32.4179C33.4046 32.8878 33.4446 33.3696 33.4859 33.8535H28.3905Z" fill="black"/>
</g>
<defs>
<clipPath id="clip0_50_5094">
<rect width="36" height="35" fill="white"/>
</clipPath>
</defs>
</svg>
