<svg width="712" height="14" viewBox="0 0 712 14" fill="none" xmlns="http://www.w3.org/2000/svg">
<g clip-path="url(#clip0_50_4861)">
<path d="M113.273 7.94727C112.559 8.31558 111.809 8.63968 111.029 8.91652C107.562 10.1445 103.743 10.6493 99.9483 10.3811C96.4587 10.2277 93.0757 9.39043 90.1141 7.94727C89.1168 8.48573 88.0918 9.06728 87.0114 9.71344L86.4297 10.0581C86.8175 10.2734 87.15 10.5104 87.5655 10.7257C91.1805 12.6809 95.4376 13.7941 99.8375 13.935C105.914 14.3376 111.965 12.9714 116.819 10.1011L116.348 9.8211C115.351 9.19649 114.298 8.57188 113.273 7.94727Z" fill="white"/>
<path d="M54.8745 5.98802C55.1793 5.83725 55.484 5.6434 55.7887 5.51417C59.0678 3.93945 62.8492 3.11121 66.7034 3.12343C70.5469 2.98789 74.3687 3.64161 77.7842 5.01882C78.4711 5.31358 79.137 5.63709 79.7787 5.98802C80.6375 5.47109 81.524 4.93261 82.549 4.35107L83.1584 3.96339C81.9473 3.28934 80.669 2.69157 79.3355 2.17573C75.4465 0.760061 71.1494 0.158681 66.8696 0.431121C62.5626 0.566943 58.3896 1.63351 54.8191 3.51111C54.1266 3.87726 53.4617 4.26497 52.7969 4.6742L54.8745 5.98802Z" fill="white"/>
<path d="M181.058 7.94727C180.041 8.46068 178.965 8.90044 177.844 9.26108C174.316 10.3082 170.515 10.6776 166.764 10.338C163.608 10.0956 160.57 9.27646 157.899 7.94727L157.4 8.18416C156.541 8.658 155.683 9.19649 154.796 9.75649C154.6 9.85936 154.414 9.97463 154.242 10.1011C157.76 12.1749 161.953 13.4431 166.348 13.7627C170.636 14.1513 174.981 13.7225 179.008 12.5134C180.981 11.8718 182.842 11.0396 184.548 10.0365H184.354C183.302 9.30419 182.166 8.61496 181.058 7.94727Z" fill="white"/>
<path d="M47.0928 8.05469C46.2828 8.52012 45.4413 8.95152 44.5719 9.34701C41.1838 10.8054 37.3633 11.548 33.4911 11.5009C29.5408 11.6023 25.6308 10.8571 22.1886 9.34701C21.3289 8.96627 20.4966 8.54927 19.6954 8.09781L18.7812 8.63627C19.7231 9.19627 20.665 9.75627 21.5515 10.2517C25.0876 11.9939 29.1673 12.9544 33.3526 13.0301C37.5465 13.2312 41.7339 12.5622 45.4861 11.0916C46.7347 10.5844 47.9297 10.0011 49.0597 9.34701L47.0928 8.05469Z" fill="white"/>
<path d="M124.022 6.0098C126.843 4.58757 130.085 3.74975 133.44 3.57594C137.213 3.27007 141.023 3.70707 144.521 4.84671C145.484 5.16625 146.411 5.5481 147.291 5.98824C148.372 5.4067 149.425 4.76054 150.533 4.09285L150.92 3.85595C149.374 2.96296 147.712 2.1978 145.962 1.57288C141.965 0.269553 137.615 -0.241142 133.302 0.0867237C128.902 0.318742 124.677 1.51345 121.113 3.53289L120.531 3.85595L121.03 4.15746C121.999 4.82515 122.997 5.4498 124.022 6.0098Z" fill="white"/>
<path d="M327.47 6.00849C329.376 5.00753 331.496 4.27822 333.731 3.85464C337.391 3.27198 341.171 3.30868 344.811 3.96231C346.836 4.38419 348.762 5.05304 350.518 5.94387C351.626 5.36234 352.679 4.71619 353.704 4.07004L354.147 3.79003C351.604 2.30075 348.717 1.20407 345.643 0.559258C341.47 -0.226207 337.124 -0.270373 332.927 0.430032C329.609 1.04352 326.488 2.17975 323.758 3.76847L324.727 4.37154C325.725 5.03923 326.611 5.55618 327.47 6.00849Z" fill="white"/>
<path d="M257.876 4.99705C258.485 5.36321 259.067 5.68626 259.649 5.9878C261.882 4.90521 264.367 4.17347 266.962 3.83396C270.656 3.34212 274.446 3.51157 278.043 4.32937C279.7 4.7305 281.276 5.3105 282.725 6.05242C283.888 5.44934 285.079 4.71703 286.381 3.89857C284.176 2.59468 281.704 1.58977 279.068 0.926252C274.94 -0.0103092 270.591 -0.201796 266.353 0.366297C262.59 0.880737 259.038 2.0841 255.992 3.87701L257.128 4.58782L257.876 4.99705Z" fill="white"/>
<path d="M190.981 5.51357C191.266 5.68374 191.561 5.84192 191.868 5.98742C194.375 4.73219 197.217 3.93677 200.178 3.6613C203.908 3.26792 207.704 3.56306 211.259 4.52282C212.557 4.9056 213.794 5.40433 214.943 6.00898C216.135 5.36283 217.326 4.65206 218.6 3.85514C216.726 2.7569 214.666 1.86536 212.478 1.20588C208.41 0.0985263 204.065 -0.255433 199.79 0.172078C195.581 0.586849 191.587 1.85723 188.211 3.85514L188.876 4.24281C189.568 4.69512 190.261 5.10434 190.981 5.51357Z" fill="white"/>
<path d="M657.118 7.94727L656.204 8.44267C652.923 10.0142 649.143 10.8422 645.29 10.8334C641.447 10.9599 637.628 10.3067 634.209 8.93802C633.497 8.64406 632.813 8.31307 632.159 7.94727L629.389 9.64882L628.945 9.95033C630.161 10.6362 631.449 11.2414 632.796 11.7595C636.687 13.1688 640.984 13.7628 645.262 13.4827C649.56 13.3463 653.724 12.2796 657.285 10.4027C657.977 10.0365 658.642 9.64877 659.279 9.26108L657.118 7.94727Z" fill="white"/>
<path d="M244.667 9.60531C241.092 10.5025 237.298 10.7385 233.586 10.2946C230.807 10.0122 228.136 9.2783 225.746 8.14071L224.416 8.85152L222.948 9.75609L222.117 10.273C225.37 12.1684 229.178 13.4045 233.198 13.8699C237.459 14.3683 241.81 14.0956 245.913 13.073C248.321 12.4053 250.582 11.4536 252.617 10.2515C251.343 9.47612 250.152 8.74381 248.961 8.09766C247.618 8.74125 246.175 9.24793 244.667 9.60531Z" fill="white"/>
<path d="M454.091 9.04575C453.454 8.65806 452.873 8.33496 452.263 8.01188C450.059 9.09367 447.602 9.82568 445.033 10.1657C441.34 10.6512 437.554 10.4893 433.952 9.69188C432.286 9.28323 430.701 8.69605 429.243 7.94727C428.051 8.57188 426.86 9.30419 425.586 10.1011C427.811 11.4051 430.302 12.4098 432.955 13.0734C437.078 13.9914 441.415 14.1754 445.642 13.6119C449.327 13.0716 452.799 11.8694 455.781 10.1011L454.618 9.36881L454.091 9.04575Z" fill="white"/>
<path d="M395.282 5.9874C396.89 5.15808 398.658 4.53287 400.518 4.13513C404.139 3.40291 407.924 3.30725 411.599 3.85512C413.988 4.23882 416.262 4.96955 418.303 6.00896C419.088 5.60083 419.846 5.1623 420.574 4.69508L421.96 3.83356C419.084 2.14753 415.763 0.977966 412.236 0.408948C408.029 -0.226948 403.693 -0.116525 399.548 0.732012C396.664 1.38118 393.959 2.44008 391.57 3.85512C392.928 4.69512 394.119 5.36279 395.282 5.9874Z" fill="white"/>
<path d="M587.953 7.94727C585.151 9.34991 581.942 10.1865 578.618 10.3811C574.848 10.6873 571.04 10.2579 567.537 9.13185C566.572 8.80779 565.645 8.41866 564.767 7.96883C563.686 8.55036 562.606 9.21804 561.498 9.90727L561.055 10.1011C562.6 11.0128 564.273 11.7859 566.041 12.4057C570.034 13.6921 574.372 14.1951 578.673 13.8703C583.082 13.6245 587.314 12.4232 590.89 10.4027L591.527 10.1011L591.028 9.79954C589.948 9.19646 588.951 8.57188 587.953 7.94727Z" fill="white"/>
<path d="M384.451 7.94727C382.567 8.95092 380.464 9.68067 378.245 10.1011C374.596 10.7302 370.814 10.7302 367.164 10.1011C365.115 9.69448 363.168 9.02473 361.402 8.11954C360.322 8.70108 359.269 9.34727 358.272 9.97189L357.773 10.295C360.339 11.7828 363.243 12.8791 366.333 13.5257C370.518 14.2686 374.864 14.2686 379.049 13.5257C382.347 12.9167 385.449 11.7877 388.163 10.2088L387.248 9.64882C386.224 8.98113 385.337 8.46419 384.451 7.94727Z" fill="white"/>
<path d="M311.481 9.86406C309.674 10.2465 307.813 10.4562 305.941 10.4886C304.084 10.5403 302.226 10.432 300.4 10.1656C297.989 9.79529 295.693 9.06375 293.641 8.01172C292.902 8.39941 292.154 8.83019 291.397 9.30404L289.984 10.1871C292.864 11.8823 296.196 13.0527 299.736 13.6117C301.824 13.9315 303.953 14.0616 306.079 13.9994C308.235 13.9705 310.377 13.7244 312.451 13.2671C315.304 12.6158 317.979 11.5647 320.346 10.1656C319.044 9.3471 317.853 8.65787 316.689 8.01172C315.082 8.82786 313.326 9.45225 311.481 9.86406Z" fill="white"/>
<path d="M521.022 8.5072L520.081 8.01179C517.575 9.26976 514.732 10.0654 511.77 10.3379C508.042 10.7254 504.25 10.438 500.689 9.49795C499.381 9.10777 498.136 8.60185 496.977 7.99023C495.786 8.63639 494.595 9.3687 493.32 10.1441C495.203 11.2619 497.283 12.1616 499.498 12.8149C503.558 13.9163 507.894 14.263 512.158 13.8272C516.343 13.4046 520.314 12.1428 523.682 10.1656L523.017 9.7564L521.022 8.5072Z" fill="white"/>
<path d="M467.305 4.3726C470.884 3.49421 474.675 3.26579 478.386 3.70492C481.172 4.01608 483.838 4.79514 486.198 5.98799C486.641 5.72953 487.112 5.51413 487.555 5.23413L488.968 4.3726L489.827 3.8557C486.622 1.96561 482.861 0.729036 478.884 0.258749C476.785 0.011924 474.658 -0.0530811 472.541 0.0649104C470.383 0.169859 468.251 0.48833 466.197 1.01261C463.768 1.68299 461.488 2.64209 459.438 3.8557C460.684 4.63108 461.903 5.36339 463.066 6.00955C464.388 5.33141 465.811 4.78165 467.305 4.3726Z" fill="white"/>
<path d="M14.5159 5.94439L15.1808 5.5136C14.0801 4.89397 12.9331 4.32576 11.7457 3.81204C8.14823 2.30053 4.08305 1.5924 0 1.76593C4.05236 1.77426 8.0258 2.6378 11.4964 4.26439C12.5487 4.77288 13.5573 5.33406 14.5159 5.94439Z" fill="white"/>
<path d="M697.457 8.07617L696.82 8.46385C697.914 9.09788 699.062 9.6736 700.255 10.187C703.853 11.6985 707.918 12.4066 712.001 12.2331C707.951 12.2323 703.977 11.3762 700.505 9.75617C699.448 9.24263 698.43 8.68168 697.457 8.07617Z" fill="white"/>
<path d="M664.821 5.94405C665.659 5.47117 666.528 5.03259 667.425 4.63017C670.854 3.1534 674.725 2.41018 678.644 2.47632C682.596 2.36479 686.509 3.11056 689.946 4.63017C690.81 5.00591 691.643 5.42317 692.44 5.87944L693.326 5.38403C692.444 4.79755 691.519 4.25099 690.556 3.74708C687.025 1.99576 682.942 1.03449 678.755 0.96867C674.563 0.761957 670.376 1.42339 666.621 2.88556C665.366 3.41566 664.154 4.00551 662.992 4.65173L664.821 5.94405Z" fill="white"/>
<path d="M598.672 5.98858C599.407 5.61667 600.175 5.28561 600.971 4.99783C604.39 3.79648 608.148 3.29948 611.886 3.55473C615.408 3.69717 618.823 4.54285 621.803 6.01014C622.856 5.47168 623.936 4.84705 625.044 4.17936L625.487 3.92091L624.379 3.27471C620.764 1.30041 616.494 0.178659 612.079 0.043945C607.759 -0.200418 603.429 0.391632 599.475 1.76706C597.919 2.37098 596.444 3.0924 595.07 3.92091L595.514 4.17936C596.594 4.80397 597.619 5.42858 598.672 5.98858Z" fill="white"/>
<path d="M530.881 6.00927C531.897 5.46952 532.983 5.01468 534.122 4.65233C537.656 3.62312 541.456 3.26855 545.203 3.61846C548.346 3.84605 551.37 4.66677 554.012 6.00927L554.539 5.72926C555.397 5.25541 556.228 4.7385 557.115 4.20004L557.697 3.85542C554.179 1.7752 549.989 0.49295 545.591 0.150802C541.305 -0.231853 536.964 0.189137 532.931 1.37851C530.962 2.03531 529.102 2.87412 527.391 3.87691H527.585C528.61 4.71691 529.745 5.40619 530.881 6.00927Z" fill="white"/>
<path d="M712 1.76531H711.114C707.316 1.74804 703.577 2.48971 700.254 3.91915C696.57 5.46992 693.467 7.86066 689.949 9.41143C686.576 10.8982 682.745 11.6428 678.868 11.5653H678.564C674.645 11.6314 670.773 10.8882 667.344 9.41143C663.881 7.92528 660.945 5.49147 657.316 3.59609C653.758 1.71259 649.594 0.63846 645.293 0.494544H643.382C639.736 0.444457 636.124 1.04879 632.827 2.26065C629.181 3.9318 625.674 5.78064 622.328 7.79605C619.21 9.44312 615.567 10.3897 611.801 10.5315H609.973C606.839 10.5739 603.733 10.0659 600.887 9.04532C597.36 7.46426 594.022 5.64056 590.914 3.59609C587.332 1.58466 583.104 0.384314 578.697 0.128361C577.866 0.128361 577.035 0.128361 576.177 0.128361C572.703 0.0837336 569.257 0.612284 566.065 1.67913C562.255 3.2286 558.694 5.12276 555.455 7.3222C552.443 9.1178 548.845 10.222 545.067 10.5099C544.153 10.5099 543.211 10.5099 542.297 10.5099C539.457 10.555 536.634 10.1672 533.986 9.36838C530.392 7.97889 527.056 6.21837 524.069 4.13455C520.597 1.99874 516.439 0.643018 512.046 0.214534C510.786 0.102847 509.519 0.045287 508.251 0.0421891C505.231 0.0165751 502.229 0.410466 499.386 1.20528C495.412 2.58517 491.739 4.43821 488.499 6.69763C485.576 8.61414 482.029 9.86624 478.25 10.3161C476.973 10.4537 475.687 10.5256 474.399 10.5315C471.943 10.5468 469.5 10.2484 467.169 9.64839C463.504 8.48489 460.136 6.82186 457.224 4.73762C453.851 2.52627 449.792 1.04101 445.45 0.429931C443.8 0.233251 442.133 0.132427 440.464 0.128361C437.856 0.116967 435.261 0.407312 432.763 0.989887C428.663 2.15213 424.898 3.93062 421.682 6.22378C418.806 8.21214 415.326 9.59825 411.57 10.2515C409.964 10.4916 408.331 10.6141 406.695 10.6176C404.582 10.6183 402.478 10.4084 400.434 9.99301C396.721 9.03023 393.313 7.46665 390.434 5.40531C387.138 3.12003 383.186 1.48061 378.91 0.62377C374.671 -0.164314 370.245 -0.116043 366.036 0.764169C361.827 1.64438 357.968 3.32861 354.809 5.66376C351.94 7.70726 348.51 9.21704 344.781 10.0791C342.868 10.4436 340.905 10.6244 338.936 10.6176C337.158 10.6151 335.385 10.4708 333.644 10.1869C329.905 9.43951 326.454 7.99831 323.589 5.98682C320.332 3.68489 316.491 1.9387 312.314 0.860661C310.24 0.403398 308.098 0.15725 305.942 0.128361H305.028C303.169 0.114744 301.313 0.244596 299.488 0.516038C295.171 1.2574 291.161 2.82722 287.825 5.08225C284.935 7.15727 281.559 8.78063 277.88 9.86379C275.678 10.3761 273.391 10.6301 271.093 10.6176C269.645 10.6108 268.201 10.5172 266.771 10.3376C263.003 9.79452 259.486 8.48682 256.577 6.54685C253.329 4.24926 249.576 2.42527 245.496 1.16223C242.818 0.46499 240.01 0.115671 237.186 0.128361C235.723 0.135909 234.261 0.207832 232.809 0.343759C228.443 0.88573 224.342 2.32036 220.924 4.50067C217.966 6.58276 214.611 8.29734 210.979 9.58378C208.496 10.2887 205.866 10.6319 203.223 10.5961C202.122 10.596 201.022 10.5529 199.926 10.4669C196.154 10.1064 192.585 8.93539 189.621 7.08531C186.382 4.85408 182.765 2.97726 178.873 1.50685C175.846 0.558849 172.606 0.0901722 169.343 0.128361C168.29 0.128361 167.265 0.128401 166.213 0.236093C161.818 0.574136 157.629 1.8486 154.107 3.91915C151.05 5.9802 147.716 7.77832 144.162 9.28221C141.388 10.2013 138.396 10.6563 135.38 10.6176H133.192C129.414 10.4178 125.785 9.39517 122.72 7.66682C119.445 5.52638 115.931 3.61632 112.221 1.95914C108.753 0.710737 104.962 0.0991131 101.14 0.17148H99.4783C95.0761 0.302739 90.8157 1.41685 87.2063 3.38069C84.0254 5.42731 80.7056 7.33981 77.2612 9.10993C74.0158 10.4256 70.3933 11.0778 66.7344 11.0053H66.2912C62.4395 11.0252 58.658 10.2043 55.3765 8.63608C52.0246 7.04223 48.8666 4.62991 45.0437 3.10068C41.6891 1.78049 37.9715 1.11519 34.2121 1.16223H33.3257C29.1408 1.22049 25.0576 2.17439 21.5245 3.91915C17.9233 5.70684 15.0146 8.22684 11.4964 9.84223C8.01415 11.4376 4.0418 12.2712 0 12.2545H0.914175C4.68993 12.3011 8.41837 11.5967 11.7457 10.2083C15.4301 8.65758 18.5327 6.26683 22.0509 4.71606C25.4224 3.22522 29.2545 2.48036 33.1317 2.56222H33.4365C37.3087 2.51508 41.1292 3.25769 44.5173 4.71606C47.9524 6.22376 50.8888 8.65758 54.5178 10.553C58.0924 12.427 62.2614 13.5 66.5682 13.6545H68.452C72.109 13.6973 75.7297 13.0857 79.0342 11.8668C82.6766 10.1938 86.1745 8.33753 89.5056 6.30989C92.6284 4.67246 96.2699 3.73372 100.032 3.59609C100.642 3.59609 101.251 3.59609 101.861 3.59609C105.003 3.55633 108.117 4.06414 110.975 5.08225C114.498 6.67643 117.835 8.50694 120.947 10.553C124.523 12.555 128.742 13.7478 133.136 13.9991C133.967 13.9991 134.771 13.9991 135.602 13.9991C139.104 14.0376 142.578 13.5019 145.796 12.4268C149.597 10.8571 153.157 8.9568 156.406 6.76224C159.439 4.97614 163.059 3.89341 166.85 3.63914C167.736 3.63914 168.651 3.53147 169.62 3.53147C172.461 3.49767 175.283 3.89261 177.931 4.6945C181.528 6.09923 184.872 7.86623 187.876 9.94989C191.342 12.0753 195.49 13.4234 199.871 13.8484C201.122 13.96 202.379 14.0176 203.638 14.0207C206.681 14.0453 209.705 13.6365 212.558 12.8145C216.533 11.4477 220.199 9.59324 223.418 7.3222C226.352 5.42376 229.895 4.18059 233.667 3.72531C234.935 3.59643 236.212 3.53169 237.49 3.53147C239.956 3.50576 242.41 3.80427 244.748 4.41449C248.408 5.59498 251.774 7.26428 254.693 9.34682C258.065 11.5599 262.125 13.0454 266.467 13.6545C268.108 13.8512 269.765 13.952 271.425 13.9561C274.052 13.9569 276.666 13.6594 279.182 13.073C283.281 11.8993 287.045 10.114 290.263 7.81761C293.147 5.83062 296.637 4.45133 300.402 3.81142C301.972 3.57643 303.568 3.46107 305.167 3.46686H306.025C307.9 3.47764 309.764 3.68774 311.566 4.09143C315.274 5.0479 318.675 6.61241 321.539 8.67913C324.829 10.9657 328.783 12.5989 333.063 13.4391C335.058 13.7625 337.091 13.9285 339.129 13.9345C341.37 13.9394 343.603 13.7296 345.778 13.3099C350.012 12.3594 353.907 10.6644 357.163 8.35607C360.045 6.3495 363.473 4.87672 367.192 4.04838C369.089 3.70166 371.032 3.5282 372.981 3.53147C374.778 3.53281 376.569 3.67711 378.328 3.9622C382.089 4.74009 385.55 6.21861 388.411 8.2699C391.66 10.5706 395.504 12.3039 399.686 13.353C402.017 13.8396 404.42 14.0858 406.833 14.0853C408.693 14.088 410.548 13.9509 412.374 13.6761C416.697 12.9363 420.709 11.3581 424.036 9.08837C426.92 7.01187 430.298 5.39476 433.982 4.32839C436.168 3.83362 438.436 3.58698 440.713 3.59609C442.189 3.59211 443.662 3.68572 445.118 3.87603C448.88 4.42794 452.387 5.74317 455.284 7.68838C458.539 9.9793 462.291 11.8025 466.365 13.073C468.416 13.6075 470.55 13.9263 472.709 14.0207H474.814C476.233 14.0168 477.649 13.9376 479.053 13.7837C483.428 13.2454 487.54 11.8106 490.965 9.62683C493.901 7.53221 497.249 5.81621 500.882 4.54379C503.359 3.84748 505.977 3.50455 508.611 3.53147C509.719 3.53147 510.827 3.53142 511.935 3.68219C515.717 4.05494 519.293 5.23264 522.268 7.08531C525.498 9.3164 529.105 11.1933 532.989 12.6638C536.015 13.5845 539.241 14.0451 542.491 14.0207C543.546 14.0206 544.6 13.9775 545.649 13.8915C550.044 13.5578 554.235 12.2828 557.755 10.2083C560.804 8.14033 564.14 6.34167 567.7 4.84529C570.467 3.93529 573.449 3.4877 576.454 3.53147C577.192 3.53147 577.94 3.53147 578.697 3.53147C582.469 3.73931 586.088 4.76941 589.141 6.50373C592.415 8.63908 595.929 10.5421 599.64 12.1899C603.052 13.4085 606.773 14.0122 610.527 13.9561H612.245C616.656 13.8106 620.923 12.6898 624.544 10.7253C627.699 8.65561 631.011 6.7352 634.462 4.97451C637.702 3.66859 641.312 3.01681 644.961 3.07912H645.46C649.315 3.05992 653.099 3.88876 656.374 5.46992C659.754 7.04223 662.884 9.45453 666.707 10.9838C670.052 12.3038 673.76 12.9692 677.511 12.9222H678.841C683.028 12.8564 687.111 11.8951 690.642 10.1437C694.215 8.37758 697.152 5.83606 700.67 4.24222C704.095 2.64553 708.007 1.79033 712 1.76531Z" fill="white"/>
</g>
<defs>
<clipPath id="clip0_50_4861">
<rect width="712" height="14" fill="white"/>
</clipPath>
</defs>
</svg>
