<svg width="31" height="30" viewBox="0 0 31 30" fill="none" xmlns="http://www.w3.org/2000/svg">
<g clip-path="url(#clip0_50_4962)">
<path d="M29.9637 15.9367C29.8401 15.9374 29.7175 15.9137 29.6031 15.8671C29.4886 15.8204 29.3845 15.7517 29.2967 15.6648L15.8728 2.25856L2.44887 15.6648C2.26916 15.8184 2.038 15.8986 1.80157 15.8895C1.56515 15.8804 1.34088 15.7826 1.17358 15.6156C1.00628 15.4487 0.90827 15.2249 0.899138 14.9889C0.890006 14.753 0.970424 14.5223 1.12432 14.3429L15.2152 0.280431C15.3912 0.10582 15.6293 0.0078125 15.8775 0.0078125C16.1257 0.0078125 16.3638 0.10582 16.5398 0.280431L30.6307 14.3429C30.76 14.4745 30.8475 14.6413 30.8823 14.8222C30.9172 15.0032 30.8978 15.1904 30.8267 15.3605C30.7555 15.5305 30.6357 15.6759 30.4822 15.7784C30.3287 15.8809 30.1484 15.9359 29.9637 15.9367Z" fill="white"/>
<path d="M15.8743 5.42773L4.60156 16.7152V28.1246C4.60156 28.6219 4.79951 29.0988 5.15185 29.4504C5.50419 29.8021 5.98206 29.9996 6.48035 29.9996H13.0561V20.6246H18.6925V29.9996H25.2682C25.7665 29.9996 26.2444 29.8021 26.5967 29.4504C26.9491 29.0988 27.147 28.6219 27.147 28.1246V16.6496L15.8743 5.42773Z" fill="white"/>
</g>
<defs>
<clipPath id="clip0_50_4962">
<rect width="31" height="30" fill="white"/>
</clipPath>
</defs>
</svg>
