<svg width="49" height="49" viewBox="0 0 49 49" fill="none" xmlns="http://www.w3.org/2000/svg">
<g clip-path="url(#clip0_50_6247)">
<path d="M7.07626 40.3842C6.19333 41.2313 6.19333 42.7556 7.07626 43.6026C7.92336 44.4857 9.44771 44.4856 10.2948 43.6027C11.1821 42.7154 11.1821 41.2715 10.2948 40.3842C9.4074 39.4969 7.96366 39.497 7.07626 40.3842ZM9.28906 41.39C9.62181 41.7228 9.62181 42.2641 9.28906 42.597C8.97139 42.928 8.39977 42.9281 8.0821 42.5969C7.75096 42.2794 7.75096 41.7076 8.0821 41.39C8.41485 41.0573 8.95631 41.0573 9.28906 41.39Z" fill="white"/>
<path d="M45.975 0.625338C45.1411 -0.208383 43.7842 -0.208478 42.9504 0.625244L40.7001 2.87455C40.6977 2.87692 40.6957 2.87948 40.6935 2.88185L33.5446 10.0307C33.2669 10.3085 33.2669 10.7588 33.5446 11.0365C33.8224 11.3142 34.2726 11.3142 34.5504 11.0365L40.7781 4.80874C41.0371 6.39453 41.2209 9.12196 39.8307 10.6512C39.0571 11.5022 38.4992 11.6945 37.8531 11.9173C37.0354 12.1992 36.1087 12.5188 34.8796 13.9933C33.6556 15.4622 33.7121 17.0507 33.762 18.4523C33.7917 19.2886 33.8198 20.0785 33.6189 20.8663C33.5218 21.2469 33.7515 21.6342 34.1322 21.7313C34.5127 21.8278 34.9 21.5985 34.9971 21.218C35.2487 20.2322 35.2155 19.3017 35.1834 18.4018C35.1367 17.0889 35.0964 15.955 35.9722 14.904C36.9473 13.7342 37.5819 13.5153 38.3167 13.2621C39.0423 13.0119 39.8648 12.7283 40.8832 11.6081C43.0849 9.18596 42.3246 4.98426 41.9927 3.59353L43.9559 1.63127C44.4007 1.15779 45.2469 1.55284 45.1773 2.19454C44.813 6.8517 43.6368 11.3655 41.6816 15.6105C39.9085 19.4578 37.5418 22.9752 34.6481 26.0634L34.6388 26.0733C33.5871 27.1914 33.0078 28.6504 33.0078 30.1815V31.8494C33.0078 32.2423 33.3262 32.5606 33.719 32.5606C34.1118 32.5606 34.4302 32.2423 34.4302 31.8494V30.1815C34.4302 29.0139 34.8723 27.9011 35.6739 27.0489L35.685 27.0371C38.6842 23.8361 41.1363 20.1918 42.9734 16.2056C44.9993 11.8073 46.2178 7.13068 46.5954 2.30407C46.6455 1.68058 46.4186 1.06714 45.975 0.625338Z" fill="white"/>
<path d="M28.8342 36.0698C28.7993 37.6112 30.1959 38.9555 31.7329 38.8653C33.2195 38.8124 34.429 37.5359 34.429 36.0197V35.1689C34.429 34.776 34.1105 34.4576 33.7178 34.4576C33.325 34.4576 33.0066 34.776 33.0066 35.1689V36.0197C33.0066 36.779 32.4126 37.4179 31.6824 37.4439C30.9244 37.4874 30.2403 36.8283 30.2566 36.0698V31.8026C30.2434 29.384 29.8303 27.1932 32.9533 24.3724C33.2488 24.1137 33.2789 23.6644 33.0202 23.3688C32.7615 23.0732 32.3122 23.0432 32.0167 23.3019C28.6734 26.227 28.7619 29.1872 28.8205 31.1463C28.829 31.4217 28.8354 31.6586 28.8342 31.9059L26.6587 34.0815C26.1226 34.6174 25.2502 34.6175 24.7142 34.0816C23.92 33.2537 22.491 33.2538 21.6968 34.0815L21.1939 34.5843L16.0979 29.4883L32.2022 13.384C32.48 13.1062 32.48 12.6559 32.2022 12.3782C31.9245 12.1005 31.4742 12.1005 31.1965 12.3782L14.5891 28.9854L3.62595 39.9485C1.66635 41.908 1.66635 45.0966 3.62595 47.0562C5.58556 49.0157 8.77394 49.0157 10.7335 47.0562L15.6877 42.1021C15.9654 41.8242 15.9654 41.374 15.6877 41.0962C15.4099 40.8186 14.9596 40.8186 14.682 41.0962L9.7278 46.0504C8.38647 47.4483 5.97302 47.4482 4.63179 46.0503C3.23384 44.7091 3.23394 42.2955 4.63179 40.9544L15.0921 30.4941L20.1881 35.5901L17.0288 38.7492C16.7511 39.0271 16.7511 39.4773 17.0288 39.7551C17.3066 40.0327 17.7569 40.0327 18.0346 39.7551L21.6968 36.0929L22.7026 35.0871C22.9674 34.8113 23.4436 34.8113 23.7084 35.0872C24.7991 36.1777 26.5738 36.1777 27.6645 35.0872L28.8342 33.9175V36.0698Z" fill="white"/>
<path d="M32.2287 40.591C31.9514 40.316 31.5043 40.316 31.227 40.591C30.9704 40.8454 28.7133 43.1301 28.4627 44.9834C28.1456 47.0124 29.7167 48.5631 31.7279 48.5399C33.7391 48.5632 35.3101 47.0123 34.9931 44.9834C34.7425 43.1301 32.4853 40.8453 32.2287 40.591ZM33.2467 46.5135C32.9112 46.8974 32.3577 47.1175 31.7279 47.1175C30.5539 47.1183 29.6871 46.3741 29.8724 45.174C29.9964 44.2573 31.0071 42.9461 31.727 42.1357C32.4377 42.9394 33.4606 44.2651 33.5835 45.174C33.6575 45.7222 33.5442 46.1729 33.2467 46.5135Z" fill="white"/>
</g>
<defs>
<clipPath id="clip0_50_6247">
<rect width="48.5393" height="48.5393" fill="white"/>
</clipPath>
</defs>
</svg>
