<svg width="38" height="45" viewBox="0 0 38 45" fill="none" xmlns="http://www.w3.org/2000/svg">
<g clip-path="url(#clip0_50_4973)">
<path d="M22.638 11.8501H25.3468C26.0647 11.851 26.753 12.1319 27.261 12.6312C27.7687 13.1305 28.0545 13.8074 28.0553 14.5134V17.1768C28.0553 17.8831 28.3408 18.5605 28.8488 19.06C29.3567 19.5595 30.0457 19.8401 30.7641 19.8401C31.4823 19.8401 32.1712 19.5595 32.6792 19.06C33.1871 18.5605 33.4726 17.8831 33.4726 17.1768V14.5134C33.4704 12.3951 32.6133 10.3641 31.09 8.86622C29.5667 7.36829 27.501 6.52577 25.3468 6.52344H22.638C21.9195 6.52344 21.2306 6.80406 20.7226 7.30352C20.2147 7.80298 19.9295 8.48042 19.9295 9.18679C19.9295 9.89312 20.2147 10.5706 20.7226 11.07C21.2306 11.5695 21.9195 11.8501 22.638 11.8501ZM11.8034 35.82H9.09472C8.37662 35.8191 7.68821 35.5382 7.18043 35.039C6.67267 34.5396 6.38699 33.8629 6.38605 33.1566V30.4933C6.38605 29.787 6.10068 29.1095 5.5927 28.61C5.08474 28.1106 4.39577 27.8299 3.67739 27.8299C2.95901 27.8299 2.27006 28.1106 1.76207 28.61C1.25412 29.1095 0.96875 29.787 0.96875 30.4933V33.1566C0.97108 35.2751 1.82798 37.3061 3.35139 38.8038C4.87477 40.3018 6.94028 41.1444 9.09472 41.1467H11.8034C12.5218 41.1467 13.2107 40.866 13.7187 40.3666C14.2266 39.8671 14.512 39.1896 14.512 38.4833C14.512 37.7771 14.2266 37.0995 13.7187 36.6001C13.2107 36.1007 12.5218 35.82 11.8034 35.82Z" fill="black"/>
<path d="M36.6671 39.8192C36.9758 40.3799 36.6231 41.0459 35.9177 41.2912C35.7414 41.3614 35.5648 41.3964 35.3885 41.3964C34.8154 41.3964 34.2862 41.1161 34.0658 40.6954L32.6548 38.0314H23.9685L22.5575 40.6954C22.2489 41.2562 21.4552 41.5367 20.7056 41.2912C20.0002 41.0459 19.6474 40.415 19.9561 39.8192L27.011 26.3593C27.2314 25.9387 27.7604 25.6934 28.3337 25.6934C28.8629 25.6934 29.3919 25.9387 29.6123 26.3593L36.6671 39.8192ZM25.115 35.7531H31.5083L28.3337 29.7243L25.115 35.7531Z" fill="black"/>
<path d="M9.67375 23.2232C7.22442 23.2232 5.37642 22.6329 4.12975 21.4522C2.89042 20.2715 2.27075 18.5519 2.27075 16.2932V14.1152C2.27075 13.3525 2.32208 12.6375 2.42475 11.9702C2.52742 11.3029 2.68508 10.6612 2.89775 10.0452C3.11775 9.42919 3.39642 8.81685 3.73375 8.20819H5.80175C5.45708 8.86085 5.17475 9.48785 4.95475 10.0892C4.73475 10.6905 4.57342 11.3065 4.47075 11.9372C4.36808 12.5679 4.31675 13.2572 4.31675 14.0052V16.2602C4.31675 17.8955 4.75675 19.1605 5.63675 20.0552C6.52408 20.9425 7.87708 21.3862 9.69575 21.3862C11.0744 21.3862 12.0864 21.1369 12.7318 20.6382C13.3771 20.1395 13.6998 19.4832 13.6998 18.6692V18.4822C13.6998 17.9395 13.5788 17.4959 13.3368 17.1512C13.0948 16.8065 12.7464 16.5315 12.2918 16.3262L13.7218 15.2812C14.3744 15.5745 14.8804 15.9925 15.2398 16.5352C15.5991 17.0705 15.7788 17.7379 15.7788 18.5372V18.7682C15.7788 20.1395 15.2618 21.2249 14.2278 22.0242C13.2011 22.8235 11.6831 23.2232 9.67375 23.2232ZM9.61875 17.0192V15.2702H10.2898C10.9498 15.2702 11.5108 15.1785 11.9728 14.9952C12.4421 14.8119 12.7978 14.5332 13.0398 14.1592C13.2818 13.7852 13.4028 13.3122 13.4028 12.7402V11.7612C13.4028 11.0645 13.2194 10.5365 12.8528 10.1772C12.4861 9.81785 11.9654 9.63819 11.2908 9.63819C10.6088 9.63819 10.0991 9.81785 9.76175 10.1772C9.43175 10.5292 9.26675 11.0425 9.26675 11.7172V12.0362C9.26675 12.2782 9.28508 12.5092 9.32175 12.7292C9.36575 12.9492 9.42442 13.1765 9.49775 13.4112L7.47375 13.3012C7.40042 13.0885 7.34175 12.8649 7.29775 12.6302C7.25375 12.3955 7.23175 12.1425 7.23175 11.8712V11.5522C7.23175 10.4009 7.58008 9.50252 8.27675 8.85719C8.97342 8.20452 9.98175 7.87819 11.3018 7.87819C12.6511 7.87819 13.6778 8.20819 14.3818 8.86819C15.0931 9.52819 15.4488 10.4889 15.4488 11.7502V12.7072C15.4488 13.4625 15.3204 14.1115 15.0638 14.6542C14.8071 15.1969 14.4111 15.6479 13.8758 16.0072L13.1938 16.4692C12.8271 16.6525 12.3834 16.7919 11.8628 16.8872C11.3421 16.9752 10.8214 17.0192 10.3008 17.0192H9.61875Z" fill="black"/>
</g>
<defs>
<clipPath id="clip0_50_4973">
<rect width="37.6874" height="45" fill="white"/>
</clipPath>
</defs>
</svg>
