<svg width="40" height="40" viewBox="0 0 40 40" fill="none" xmlns="http://www.w3.org/2000/svg">
<g clip-path="url(#clip0_50_4967)">
<path d="M40.0049 20.0224C39.9663 31.1091 31.0416 40.0023 20.0032 40.0001C17.3663 40.0058 14.7544 39.4889 12.3184 38.4794C9.88243 37.4698 7.67061 35.9876 5.81074 34.1183C3.95087 32.2491 2.47981 30.0298 1.48254 27.5887C0.485274 25.1477 -0.0184363 22.5332 0.000515574 19.8964C0.0483196 8.86887 8.98713 -0.0400633 20.076 0.000135505C31.1264 0.0408776 39.9945 8.97262 40.0049 20.0224ZM2.36192 20.0023C2.38963 29.7027 10.1447 37.4997 19.7365 37.6306C29.6374 37.7637 37.5044 29.8706 37.6304 20.2565C37.7602 10.3877 29.9166 2.53483 20.3297 2.36915C10.3115 2.1964 2.37333 10.2492 2.36192 20.0001V20.0023Z" fill="black"/>
<path d="M21.386 19.1144C21.5789 19.8999 21.7576 20.6838 21.9646 21.4601C22.7468 24.3935 23.7675 27.2438 25.1267 29.9654C25.3331 30.3782 25.5678 30.7764 25.7682 31.1914C26.0073 31.6858 25.8644 32.2964 25.4586 32.6201C25.0403 32.9531 24.4335 32.9852 24.0234 32.6527C23.8394 32.4938 23.6873 32.3014 23.5752 32.0856C22.4966 30.0967 21.5868 28.0208 20.8553 25.8798C20.5956 25.1279 20.3626 24.3663 20.117 23.6096C20.0872 23.5178 20.0562 23.4265 19.9981 23.2538C19.8351 23.7623 19.702 24.1952 19.5635 24.6271C18.7324 27.227 17.7024 29.7426 16.3992 32.1437C16.145 32.6125 15.7843 32.9075 15.2329 32.8782C14.3192 32.8304 13.8542 31.9112 14.2893 31.0589C14.7369 30.181 15.1965 29.3075 15.5996 28.409C16.9115 25.4854 17.8686 22.4433 18.5526 19.3143C18.5672 19.2453 18.5759 19.1752 18.5911 19.0862C18.0077 19.0487 17.4411 19.0183 16.8756 18.9748C14.4224 18.7863 12.0045 18.4191 9.68491 17.5559C9.5374 17.5033 9.40179 17.4219 9.28593 17.3166C9.17006 17.2112 9.07625 17.0839 9.00992 16.9421C8.94358 16.8002 8.90605 16.6466 8.89948 16.4901C8.89291 16.3336 8.91744 16.1774 8.97165 16.0305C9.02618 15.8834 9.10945 15.7487 9.2166 15.6342C9.32374 15.5196 9.45262 15.4276 9.59572 15.3633C9.73882 15.2991 9.89327 15.264 10.0501 15.2601C10.2069 15.2562 10.3629 15.2836 10.509 15.3406C12.269 15.9968 14.0986 16.3401 15.9592 16.5091C17.2369 16.6248 18.5205 16.722 19.802 16.7264C22.7588 16.7345 25.6944 16.5047 28.5479 15.6584C28.8516 15.5682 29.1504 15.4639 29.4481 15.3564C30.107 15.1173 30.7958 15.4031 31.0234 16.0153C31.2608 16.6558 30.9468 17.3158 30.2781 17.5684C28.5485 18.2203 26.7471 18.5804 24.9213 18.7955C23.7659 18.9308 22.6023 19.0063 21.386 19.1144Z" fill="black"/>
<path d="M24.2789 10.8202C24.2789 13.205 22.382 15.0857 20.0065 15.1079C17.6858 15.1291 15.6194 13.1719 15.7057 10.6535C15.7834 8.39527 17.7293 6.46192 20.1483 6.52494C22.3885 6.57926 24.28 8.49794 24.2789 10.8202ZM20.0315 12.7438C21.1081 12.7047 21.9789 11.7948 21.9284 10.7616C21.8741 9.70553 20.9664 8.84506 19.9467 8.88743C18.8901 8.93143 18.0145 9.8484 18.0644 10.8593C18.1171 11.9279 19.0064 12.7802 20.0315 12.7433V12.7438Z" fill="black"/>
</g>
<defs>
<clipPath id="clip0_50_4967">
<rect width="40.0049" height="40" fill="white"/>
</clipPath>
</defs>
</svg>
