<svg width="35" height="35" viewBox="0 0 35 35" fill="none" xmlns="http://www.w3.org/2000/svg">
<g clip-path="url(#clip0_50_4989)">
<path d="M34.4854 34.4849H0.507812L5.55308 22.2715H29.4402L34.4854 34.4849Z" fill="#A8EEFC"/>
<path d="M29.4418 22.2715H27.6016L32.6468 34.4849H34.4871L29.4418 22.2715Z" fill="#7EE5F2"/>
<path d="M32.2621 29.0892L31.1404 26.3741H17.8588L13.1675 22.2715H11.2666H10.1458L8.45108 26.3741H3.86383L2.74219 29.0892H7.32944L5.10059 34.4849H8.12228L11.8802 25.3879L22.5743 34.4849H27.1332L20.9634 29.0892H32.2621Z" fill="#FFDB56"/>
<path d="M30.4184 29.0902H32.2588L31.1371 26.375H29.2969L30.4184 29.0902Z" fill="#FFBB24"/>
<path d="M8.44663 26.3741H3.85938L5.55414 22.2715H10.1414L8.44663 26.3741Z" fill="#4CE166"/>
<path d="M31.137 26.3741H17.8554L13.1641 22.2715H29.4423L31.137 26.3741Z" fill="#4CE166"/>
<path d="M31.1366 26.3741L29.4418 22.2715H27.6016L29.2963 26.3741H31.1366Z" fill="#44C868"/>
<path d="M11.8751 25.3887L8.11719 34.4857H22.5692L11.8751 25.3887Z" fill="#4CE166"/>
<path d="M17.4988 0.515625C11.6832 0.515625 6.96875 5.26558 6.96875 11.1249C6.96875 20.0475 17.4988 28.2572 17.4988 28.2572C17.4988 28.2572 28.0288 20.0475 28.0288 11.1248C28.0288 5.26551 23.3143 0.515625 17.4988 0.515625ZM17.4988 15.3563C15.1793 15.3563 13.2989 13.4618 13.2989 11.1249C13.2989 8.78786 15.1793 6.89342 17.4988 6.89342C19.8183 6.89342 21.6986 8.78793 21.6986 11.1249C21.6986 13.4618 19.8183 15.3563 17.4988 15.3563Z" fill="#FF4A4A"/>
<path d="M17.4982 0.515625C17.1882 0.515625 16.8814 0.529912 16.5781 0.556367C21.9627 1.02613 26.188 5.57791 26.188 11.1248C26.188 18.4239 19.1425 25.2448 16.5781 27.4857C17.1485 27.9842 17.4982 28.2571 17.4982 28.2571C17.4982 28.2571 28.0283 20.0474 28.0283 11.1247C28.0283 5.26551 23.3138 0.515625 17.4982 0.515625Z" fill="#E7343F"/>
<path d="M17.5001 15.87C20.0978 15.87 22.2111 13.7407 22.2111 11.1234C22.2111 8.50621 20.0978 6.37695 17.5001 6.37695C16.5417 6.37695 15.6191 6.66529 14.8324 7.2108C14.5998 7.37206 14.541 7.69273 14.7011 7.92707C14.8612 8.16141 15.1795 8.22061 15.412 8.05941C16.0275 7.63265 16.7495 7.40706 17.5001 7.40706C19.5341 7.40706 21.1888 9.07421 21.1888 11.1234C21.1888 13.1726 19.5341 14.8398 17.5001 14.8398C15.4662 14.8398 13.8114 13.1726 13.8114 11.1234C13.8114 10.5189 13.9508 9.94265 14.2255 9.41067C14.3558 9.15829 14.2584 8.84732 14.008 8.71607C13.7574 8.58489 13.4489 8.68285 13.3186 8.93523C12.9722 9.60598 12.7891 10.3626 12.7891 11.1234C12.7891 13.7407 14.9025 15.87 17.5001 15.87Z" fill="black"/>
<path d="M34.9607 34.2871L29.9155 22.0737C29.8362 21.8816 29.6501 21.7565 29.4436 21.7565H24.416C25.3939 20.4237 26.2079 19.0961 26.8435 17.7925C27.9701 15.4824 28.5412 13.2389 28.5412 11.1243C28.5412 4.9903 23.5881 0 17.5 0C11.4118 0 6.45876 4.9903 6.45876 11.1242C6.45876 13.2388 7.02991 15.4824 8.15647 17.7924C8.79207 19.096 9.60603 20.4237 10.584 21.7565H5.55635C5.34991 21.7565 5.16369 21.8816 5.08447 22.0736L1.64654 30.3961C1.53805 30.6587 1.66137 30.9602 1.92203 31.0694C1.98628 31.0963 2.05273 31.1091 2.11822 31.1091C2.31851 31.1091 2.50862 30.9898 2.59031 30.7919L3.08085 29.6043H6.56076L4.75744 33.9699H1.2776L1.80035 32.7044C1.90883 32.4417 1.78551 32.1403 1.52486 32.031C1.26407 31.9216 0.964925 32.046 0.856507 32.3086L0.0392711 34.2871C-0.0264222 34.446 -0.00892222 34.6276 0.0859606 34.7707C0.180707 34.9139 0.340257 35 0.511156 35H34.4888C34.6596 35 34.8192 34.9139 34.914 34.7707C35.0089 34.6276 35.0264 34.446 34.9607 34.2871ZM7.48115 11.1242C7.48115 5.55823 11.9756 1.03004 17.5 1.03004C23.0244 1.03004 27.5188 5.5583 27.5188 11.1242C27.5188 13.4582 26.7139 17.1879 22.9903 21.9408C22.9866 21.9452 22.9832 21.9499 22.9797 21.9545C22.7895 22.197 22.5919 22.442 22.3862 22.6898C20.3401 25.155 18.2695 26.9551 17.4999 27.5947C16.7326 26.9573 14.6717 25.1662 12.627 22.7058C12.4162 22.4521 12.214 22.2013 12.0194 21.9531C12.0162 21.9492 12.0133 21.9451 12.01 21.9412C8.28662 17.1886 7.48115 13.4591 7.48115 11.1242ZM5.89726 22.7866H9.37723L8.10793 25.8592H4.62803L5.89726 22.7866ZM8.88648 33.97L12.0817 26.2352L21.1744 33.97H8.88648ZM22.7592 33.97L12.2078 24.9944C12.0832 24.8883 11.9159 24.8486 11.7577 24.8873C11.5994 24.9259 11.4687 25.0384 11.4061 25.19L7.77919 33.9699H5.86486L7.79915 29.2871C7.86485 29.1282 7.84735 28.9467 7.75246 28.8035C7.65772 28.6603 7.4981 28.5742 7.3272 28.5742H3.50653L4.20256 26.8892H8.44891C8.65536 26.8892 8.84157 26.764 8.92079 26.572L10.4846 22.7865H11.3718C11.5258 22.98 11.6823 23.1735 11.843 23.3669C14.4807 26.5409 17.0778 28.5786 17.1872 28.6638C17.2793 28.7357 17.3896 28.7715 17.5 28.7715C17.6103 28.7715 17.7207 28.7356 17.8128 28.6638C17.8729 28.617 18.6848 27.9796 19.8412 26.8892H25.6299C25.9123 26.8892 26.1411 26.6587 26.1411 26.3742C26.1411 26.0898 25.9123 25.8592 25.6299 25.8592H20.8948C21.6035 25.1412 22.3782 24.3041 23.157 23.367C23.3177 23.1736 23.4743 22.9801 23.6282 22.7866H29.1027L30.3719 25.8592H27.6746C27.3923 25.8592 27.1635 26.0898 27.1635 26.3742C27.1635 26.6587 27.3923 26.8892 27.6746 26.8892H30.7974L31.4934 28.5743H20.9613C20.7479 28.5743 20.5571 28.7077 20.4823 28.9091C20.4078 29.1105 20.4651 29.3374 20.6262 29.4783L25.7622 33.97H22.7592ZM27.3219 33.97L22.33 29.6044H31.919L33.7224 33.97H27.3219Z" fill="black"/>
</g>
<defs>
<clipPath id="clip0_50_4989">
<rect width="35" height="35" fill="white"/>
</clipPath>
</defs>
</svg>
