<svg width="35" height="35" viewBox="0 0 35 35" fill="none" xmlns="http://www.w3.org/2000/svg">
<g clip-path="url(#clip0_50_5052)">
<mask id="mask0_50_5052" style="mask-type:luminance" maskUnits="userSpaceOnUse" x="0" y="0" width="35" height="35">
<path d="M0 0H34.9829V35H0V0Z" fill="white"/>
</mask>
<g mask="url(#mask0_50_5052)">
<path d="M34.3597 12.2674L18.7559 27.8787C18.6047 28.03 18.3596 28.03 18.2085 27.8787L9.47273 19.1388C9.32159 18.9875 9.32159 18.7423 9.47273 18.5911L25.0765 2.97971C25.2277 2.82843 25.4728 2.82843 25.6239 2.97971L34.3597 11.7197C34.5108 11.8709 34.5108 12.1162 34.3597 12.2674Z" fill="#5CC45C"/>
<path d="M34.3637 11.7197L32.0106 9.36542L15.8594 25.5244L18.2125 27.8788C18.3637 28.03 18.6087 28.03 18.76 27.8788L34.3637 12.2673C34.5148 12.1161 34.5148 11.8709 34.3637 11.7197Z" fill="#4EAD4E"/>
<path d="M12.8237 19.8785C13.1642 19.2483 13.1642 18.4814 12.8238 17.8512C12.7781 17.7666 12.7912 17.6625 12.8593 17.5945L24.0783 6.36992C24.1463 6.30197 24.2504 6.28871 24.3349 6.33444C24.9646 6.67514 25.7312 6.67514 26.3612 6.33444C26.4457 6.28871 26.5499 6.3019 26.6178 6.36992L30.9689 10.723C31.0368 10.7911 31.05 10.8952 31.0043 10.9798C30.6638 11.6101 30.6638 12.3769 31.0043 13.0071C31.05 13.0917 31.0368 13.1958 30.9689 13.2638L19.7497 24.4885C19.6817 24.5565 19.5777 24.5696 19.4931 24.5239C18.8632 24.1833 18.0968 24.1833 17.4669 24.5238C17.3824 24.5696 17.2782 24.5565 17.2103 24.4884L12.8593 20.1352C12.7912 20.0672 12.778 19.963 12.8237 19.8785Z" fill="#A0E557"/>
<path d="M31.0103 13.0071C30.6698 12.3768 30.6698 11.61 31.0103 10.9798C31.056 10.8952 31.0428 10.7911 30.9749 10.7231L28.4695 8.21653C28.0195 8.91578 28.0195 9.82264 28.4695 10.522L17.0152 21.9819C16.3161 21.5316 15.4098 21.5316 14.7109 21.9819L17.2163 24.4884C17.2842 24.5564 17.3884 24.5696 17.4729 24.5239C18.1028 24.1833 18.8692 24.1832 19.4991 24.5239C19.5837 24.5697 19.6877 24.5564 19.7557 24.4885L30.9748 13.2638C31.0428 13.1958 31.056 13.0917 31.0103 13.0071Z" fill="#93CC4A"/>
<path d="M24.1668 13.1762C25.4095 14.4195 25.4095 16.4355 24.1668 17.6788C22.9241 18.9222 20.9092 18.9222 19.6665 17.6788C18.4237 16.4355 18.4237 14.4195 19.6665 13.1762C20.9092 11.9329 22.9241 11.9329 24.1668 13.1762Z" fill="#F3E8D7"/>
<path d="M18.1467 22.9881L22.9479 18.1845C23.5011 17.631 23.7364 16.9689 23.1831 16.4154C22.3111 15.332 19.1278 16.2007 17.6178 17.7116C16.8857 18.444 16.0543 19.2759 15.5961 19.7346C15.3719 19.9591 15.0678 20.0852 14.7468 20.0852H14.7303C14.2006 20.0852 13.5801 19.572 13.4435 19.0599L13.4432 14.6213L14.2354 13.8287L15.1058 12.9578L18.563 9.49913C17.1407 9.33965 15.7264 9.25338 15.1778 9.18762C14.5678 9.11454 14.0476 9.38798 13.5742 9.77968L9.14855 13.273C8.52392 13.7899 8.07365 14.4866 7.85794 15.2684C7.37481 17.0194 6.35702 20.1167 5.71114 21.3485L2.48438 24.5768L8.07078 30.166L9.62451 28.6116C9.91654 28.3194 10.2776 28.1059 10.6743 27.9908L13.9191 26.8976C14.9385 26.5477 15.8359 25.912 16.5043 25.0662L18.1467 22.9881Z" fill="#FCD7C3"/>
<path d="M16.4976 25.0662L18.14 22.9881L22.9412 18.1845C23.4944 17.631 23.7297 16.9689 23.1764 16.4153C22.8559 16.0171 22.223 15.8827 21.4757 15.947C20.3813 16.0412 19.3613 16.5417 18.5845 17.3189L15.5291 20.3759L13.8867 22.454C13.2182 23.2998 12.3208 23.9355 11.3015 24.2853L8.05662 25.3785C7.65992 25.4937 7.29888 25.7071 7.00686 25.9993L5.45312 27.5538L8.06407 30.166L9.6178 28.6115C9.90983 28.3194 10.2709 28.1059 10.6676 27.9908L13.9124 26.8975C14.9318 26.5477 15.8292 25.912 16.4976 25.0662Z" fill="#FFCDAC"/>
<path d="M7.16123 31.955L0.695339 25.4859C0.45572 25.2462 0.45572 24.8576 0.695339 24.6178L1.83324 23.4794C2.07279 23.2397 2.46129 23.2397 2.70098 23.4794L9.16681 29.9484C9.40636 30.1881 9.40636 30.5768 9.16681 30.8166L8.02898 31.955C7.78936 32.1947 7.40085 32.1947 7.16123 31.955Z" fill="#464C50"/>
<path d="M9.16725 29.9485L6.97426 27.7543L4.96875 29.7609L7.16167 31.955C7.40129 32.1947 7.78986 32.1947 8.02948 31.955L9.16725 30.8166C9.40687 30.5768 9.40687 30.1882 9.16725 29.9485Z" fill="#33393A"/>
<path d="M22.755 18.0362C22.1178 17.3986 21.0847 17.3986 20.4475 18.0362L19.7226 18.7614C19.3946 19.0896 19.3946 19.6217 19.7226 19.9499L20.4521 20.6797L22.9246 18.2058L22.755 18.0362Z" fill="#EFEFEF"/>
<path d="M7.16124 31.955L0.695339 25.4859C0.45572 25.2462 0.45572 24.8576 0.695339 24.6178L1.83324 23.4794C2.07279 23.2397 2.46129 23.2397 2.70098 23.4794L9.16681 29.9484C9.40636 30.1881 9.40636 30.5768 9.16681 30.8166L8.02898 31.955C7.78936 32.1947 7.40085 32.1947 7.16124 31.955Z" stroke="black" stroke-miterlimit="10" stroke-linecap="round" stroke-linejoin="round"/>
<path d="M22.6196 21.6172L30.9693 13.2635C31.0372 13.1954 31.0504 13.0913 31.0047 13.0067C30.6641 12.3764 30.6641 11.6096 31.0047 10.9794C31.0504 10.8948 31.0372 10.7907 30.9693 10.7227L26.6181 6.36949C26.5502 6.30147 26.4462 6.28835 26.3616 6.33408C25.7316 6.67472 24.9651 6.67472 24.3353 6.33408C24.2508 6.28835 24.1467 6.30154 24.0787 6.36949L13.4375 17.0159" stroke="black" stroke-miterlimit="10" stroke-linecap="round" stroke-linejoin="round"/>
<path d="M17.0703 24.3462L17.2124 24.4884C17.2804 24.5564 17.3845 24.5696 17.4691 24.5239C18.099 24.1833 18.8653 24.1832 19.4953 24.5239C19.5799 24.5697 19.6839 24.5564 19.7519 24.4885L20.927 23.3127" stroke="black" stroke-miterlimit="10" stroke-linecap="round" stroke-linejoin="round"/>
<path d="M22.9436 18.1846L22.5894 18.5391C23.1671 18.4144 23.7172 18.1284 24.1662 17.6791C25.4089 16.4358 25.4089 14.4199 24.1662 13.1765C22.9235 11.9332 20.9086 11.9332 19.6658 13.1765C18.7094 14.1334 18.4899 15.5475 19.0056 16.7152" stroke="black" stroke-miterlimit="10" stroke-linecap="round" stroke-linejoin="round"/>
<path d="M15.9766 25.6423L18.21 27.8768C18.3611 28.028 18.6062 28.028 18.7574 27.8768L34.3611 12.2654C34.5122 12.1142 34.5122 11.869 34.3611 11.7178L25.6254 2.97774C25.4742 2.82646 25.2291 2.82646 25.0779 2.97774L20.2739 7.78423" stroke="black" stroke-miterlimit="10" stroke-linecap="round" stroke-linejoin="round"/>
<path d="M22.755 18.0362C22.1178 17.3986 21.0847 17.3986 20.4475 18.0362L19.7226 18.7614C19.3946 19.0896 19.3946 19.6217 19.7226 19.9499L20.4521 20.6797L22.9246 18.2058L22.755 18.0362Z" stroke="black" stroke-miterlimit="10" stroke-linecap="round" stroke-linejoin="round"/>
<path d="M8.72716 29.5078L9.62217 28.6124C9.91419 28.3203 10.2753 28.1067 10.6719 27.9916L13.9168 26.8984C14.9362 26.5485 15.8335 25.9129 16.502 25.0671L18.1444 22.9889L22.9455 18.1854C23.4988 17.6318 23.7341 16.9697 23.1808 16.4162C22.3087 15.3328 19.1255 16.2016 17.6155 17.7123C16.8834 18.4448 16.052 19.2767 15.5937 19.7355C15.3695 19.9599 15.0656 20.086 14.7445 20.086H14.728C14.1982 20.086 13.5778 19.5728 13.4412 19.0608L13.4408 14.6221L14.2331 13.8295L15.1035 12.9587L18.5606 9.49991C17.1384 9.34043 15.724 9.25423 15.1754 9.18847C14.5655 9.11539 14.0453 9.38883 13.5719 9.78053L9.14621 13.2738C8.52157 13.7908 8.0713 14.4874 7.8556 15.2692C7.37247 17.0202 6.35468 20.1176 5.70879 21.3492L3.14062 23.9186" stroke="black" stroke-miterlimit="10" stroke-linecap="round" stroke-linejoin="round"/>
</g>
</g>
<defs>
<clipPath id="clip0_50_5052">
<rect width="35" height="35" fill="white"/>
</clipPath>
</defs>
</svg>
