<svg width="49" height="49" viewBox="0 0 49 49" fill="none" xmlns="http://www.w3.org/2000/svg">
<path d="M30.4535 9.57304C32.158 9.57304 33.5398 8.19124 33.5398 6.48671C33.5398 4.78219 32.158 3.40039 30.4535 3.40039C28.749 3.40039 27.3672 4.78219 27.3672 6.48671C27.3672 8.19124 28.749 9.57304 30.4535 9.57304Z" stroke="white" stroke-width="1.61798" stroke-miterlimit="10" stroke-linecap="round" stroke-linejoin="round"/>
<path d="M18.5179 17.2193C20.0681 17.2193 21.3248 15.9626 21.3248 14.4124C21.3248 12.8622 20.0681 11.6055 18.5179 11.6055C16.9676 11.6055 15.7109 12.8622 15.7109 14.4124C15.7109 15.9626 16.9676 17.2193 18.5179 17.2193Z" stroke="white" stroke-width="1.61798" stroke-miterlimit="10" stroke-linecap="round" stroke-linejoin="round"/>
<path d="M33.2825 14.6311L37.1342 12.5625L37.079 13.0706C36.9555 14.209 36.4752 15.4456 35.4778 16.0079C34.5897 16.5087 34.397 16.6132 34.397 16.6132L33.2734 14.6922" stroke="white" stroke-width="1.61798" stroke-miterlimit="10" stroke-linecap="round" stroke-linejoin="round"/>
<path d="M15.4222 15.9922L13.9808 16.8089C13.1659 17.2707 12.607 18.0799 12.4638 19.0056L10.0993 27.4895C9.68587 29.7411 11.001 31.5239 13.0982 31.2689L15.4436 30.9836L11.7514 38.1448C11.3161 38.9892 11.6584 40.0265 12.5108 40.4459C13.3516 40.8596 14.3686 40.5137 14.7829 39.6731L19.1555 31.0679C20.145 29.1207 18.5104 26.8723 16.3528 27.213L14.4134 27.5192" stroke="white" stroke-width="1.61798" stroke-miterlimit="10" stroke-linecap="round" stroke-linejoin="round"/>
<path d="M9.5436 32.3887L7.67095 36.6022L1.93686 42.5051C1.27931 43.1727 1.294 44.249 1.96947 44.8985C2.63708 45.5404 3.69783 45.5221 4.34288 44.8575L9.35636 39.692" stroke="white" stroke-width="1.61798" stroke-miterlimit="10" stroke-linecap="round" stroke-linejoin="round"/>
<path d="M33.3594 11.257L34.0877 11.166" stroke="white" stroke-width="1.61798" stroke-miterlimit="10" stroke-linecap="round" stroke-linejoin="round"/>
<path d="M36.0859 10.7301C36.0859 10.7301 41.3225 10.4645 42.0975 6.26758" stroke="white" stroke-width="1.61798" stroke-miterlimit="10" stroke-linecap="round" stroke-linejoin="round"/>
<path d="M28.7119 11.2578L27.7625 12.0264C27.1449 12.5264 26.7452 13.2463 26.6475 14.0349L25.7258 21.4753C25.6098 22.411 26.1846 23.294 27.087 23.5669L31.8537 25.008C32.673 25.2557 33.5339 24.7716 33.7478 23.9427C33.9393 23.2005 33.5429 22.4328 32.8267 22.1593L29.0762 20.7273L29.3493 16.6299" stroke="white" stroke-width="1.61798" stroke-miterlimit="10" stroke-linecap="round" stroke-linejoin="round"/>
<path d="M38.791 14.5323L40.2255 14.8397L45.5633 13.7721C46.3054 13.6236 47.0343 14.0805 47.2242 14.813C47.4298 15.6063 46.9265 16.4094 46.1229 16.5701L40.9428 17.6061L38.1875 17.3581" stroke="white" stroke-width="1.61798" stroke-miterlimit="10" stroke-linecap="round" stroke-linejoin="round"/>
<path d="M38.1812 19.3613L43.9494 30.8978C44.2733 31.5455 44.2733 32.3079 43.9494 32.9556L40.5858 39.6827C40.1574 40.5395 39.1309 40.9078 38.2556 40.5187C37.3222 40.1038 36.9239 38.9938 37.3808 38.0802L40.5486 31.7445L37.1797 25.4619" stroke="white" stroke-width="1.61798" stroke-miterlimit="10" stroke-linecap="round" stroke-linejoin="round"/>
<path d="M37.1794 25.4609L36.0626 33.3645C36.0184 33.6781 35.9252 33.9828 35.7867 34.2676L31.876 42.3062C31.4403 43.2019 30.3489 43.5582 29.4686 43.0921C28.6373 42.652 28.2986 41.6362 28.6995 40.7852L32.4447 32.8362L33.1732 27.0998" stroke="white" stroke-width="1.61798" stroke-miterlimit="10" stroke-linecap="round" stroke-linejoin="round"/>
<path d="M15.875 22.4563H20.4973C20.9301 22.4563 21.3565 22.352 21.7406 22.1523L25.674 20.5645" stroke="white" stroke-width="1.61798" stroke-miterlimit="10" stroke-linecap="round" stroke-linejoin="round"/>
<path d="M17.1484 19.18H20.7905L26.2414 17.248" stroke="white" stroke-width="1.61798" stroke-miterlimit="10" stroke-linecap="round" stroke-linejoin="round"/>
<path d="M17.7877 22.7305L16.4219 25.0068" stroke="white" stroke-width="1.61798" stroke-miterlimit="10" stroke-linecap="round" stroke-linejoin="round"/>
</svg>
