<svg width="65" height="65" viewBox="0 0 65 65" fill="none" xmlns="http://www.w3.org/2000/svg">
<g clip-path="url(#clip0_50_4912)">
<path d="M16.5397 33.119V30.3437C16.2883 30.3739 16.0658 30.4091 15.8408 30.4292C15.1604 30.5063 14.4737 30.3539 13.8898 29.9962C13.306 29.6384 12.8583 29.0958 12.6181 28.4546C12.3683 27.8156 12.3411 27.1111 12.5409 26.4548C12.7407 25.7985 13.1557 25.2286 13.7192 24.8372C15.9527 23.2208 18.2051 21.6283 20.4486 20.0245C23.6052 17.7713 26.7613 15.5176 29.9169 13.2636C30.2651 13.0122 30.6371 12.8023 31.0481 12.5396V11.8772C31.0481 8.38553 31.0481 4.89342 31.0481 1.40089C31.0481 0.335033 31.3762 0.00321003 32.4307 0.00195312C34.9747 0.00195312 37.5187 0.00195312 40.0627 0.00195312C41.0381 0.00195312 41.395 0.353888 41.3975 1.31794C41.3975 3.19324 41.3975 5.06855 41.3975 6.94386C41.3975 7.91922 41.0443 8.27744 40.0815 8.27869C37.9901 8.27869 35.8986 8.27869 33.8071 8.27869H33.1522V12.468C38.8837 16.5638 44.6006 20.6496 50.3027 24.7253C51.6413 25.6831 52.0875 27.1135 51.5219 28.5212C50.9211 30.0094 49.5385 30.6579 47.6092 30.3211V33.119H62.7423C63.8447 33.119 64.1664 33.4407 64.1677 34.5393C64.1677 35.6604 64.1677 36.7816 64.1677 37.9028C64.1677 39.0038 63.8484 39.3206 62.7461 39.3281C62.5563 39.3281 62.369 39.3281 62.1378 39.3281V62.0983C62.4759 62.0983 62.7939 62.0844 63.1094 62.0983C63.729 62.1322 64.1501 62.5432 64.1627 63.1038C64.1765 63.6895 63.7416 64.1194 63.0905 64.1583C62.8969 64.1696 62.7021 64.1583 62.5086 64.1583H1.64906C1.41189 64.1686 1.17431 64.1644 0.937653 64.1458C0.677239 64.1206 0.436191 63.9972 0.263614 63.8006C0.0910373 63.6039 -8.87136e-05 63.3489 0.0087956 63.0874C0.0158001 62.8367 0.115334 62.5975 0.288224 62.4157C0.461115 62.234 0.695133 62.1227 0.945194 62.1033C1.28582 62.0706 1.63272 62.097 2.02487 62.097V39.3281C1.78229 39.3281 1.53343 39.3281 1.2833 39.3281C0.363246 39.3155 0.00754145 38.9573 0.00377072 38.0209C-0.00125691 36.8143 -0.00125691 35.6072 0.00377072 34.3998C0.00377072 33.4784 0.370789 33.1202 1.30844 33.1202C5.94308 33.1202 10.5781 33.1202 15.2136 33.1202L16.5397 33.119ZM24.8415 62.0668V61.3127C24.8415 57.2177 24.8415 53.1222 24.8415 49.0264C24.8415 47.9266 25.162 47.6074 26.2656 47.6074H37.9058C39.0069 47.6074 39.3299 47.9291 39.3299 49.0277C39.3299 53.1453 39.3299 57.2621 39.3299 61.378V62.0429L45.0495 62.043V61.6659C45.0495 50.9319 45.0536 40.1975 45.062 29.4626C45.062 29.024 44.871 28.8103 44.5593 28.5828C40.7885 25.8955 37.5074 24.4875 33.7367 21.7918C33.1962 21.4059 32.6532 21.0238 32.1027 20.6342C31.9607 20.7234 31.8513 20.7838 31.747 20.8579C27.5037 23.8871 23.6966 25.6697 19.4508 28.6947C19.1126 28.9347 19.0611 29.1974 19.0611 29.5632C19.067 40.2109 19.067 50.8586 19.0611 61.5062V62.097L24.8415 62.0668ZM16.5158 62.0668V39.3809H4.17796V62.0681L16.5158 62.0668ZM60.0048 39.3733H47.6657V62.0605H59.9998L60.0048 39.3733ZM15.4889 28.5086C15.9049 28.2711 16.2317 28.1177 16.5208 27.9129C21.3976 24.4362 26.2719 20.9567 31.1437 17.4742C31.9594 16.891 32.2246 16.8885 33.0454 17.4742L43.0881 24.6499C44.7007 25.8025 46.2995 26.9765 47.9435 28.0813C48.2439 28.2849 48.7781 28.3327 49.125 28.2133C49.3764 28.1278 49.678 27.6275 49.6378 27.3611C49.5508 26.9536 49.319 26.5915 48.9855 26.3417C43.6503 22.4989 38.3055 18.6758 32.9511 14.8724C32.2095 14.3433 31.9594 14.3483 31.2141 14.88C25.8848 18.6842 20.5559 22.4893 15.2274 26.2952C15.0527 26.4209 14.8076 26.5466 14.7536 26.715C14.6455 27.0569 14.5248 27.483 14.6442 27.7809C14.7636 28.0788 15.1671 28.2522 15.4839 28.5099L15.4889 28.5086ZM31.0104 62.0681V49.7303H26.9506V62.0681H31.0104ZM33.1711 49.7064V62.0442H37.2309V49.7064H33.1711ZM2.12543 35.2117V37.2228H16.5233V35.2117H2.12543ZM47.6406 37.2127H62.0699V35.223H47.6406V37.2127ZM33.1723 2.10099V6.18343H39.2897V2.10099H33.1723Z" fill="url(#paint0_linear_50_4912)"/>
<path d="M25.8279 45.5383C24.5559 45.5383 23.2839 45.5383 22.0119 45.5383C21.0692 45.5383 20.7022 45.1814 20.6997 44.2651C20.6938 42.3454 20.6938 40.4265 20.6997 38.5084C20.6997 37.6286 21.0768 37.2628 21.9704 37.2616C24.579 37.2566 27.1875 37.2566 29.796 37.2616C30.6758 37.2616 31.0416 37.6387 31.0453 38.5323C31.0504 40.4504 31.0504 42.3692 31.0453 44.289C31.0453 45.1688 30.6683 45.5333 29.7733 45.5371C28.4573 45.5434 27.1426 45.5383 25.8279 45.5383ZM28.9475 39.3795H22.8201V43.438H28.9475V39.3795Z" fill="url(#paint1_linear_50_4912)"/>
<path d="M38.295 37.2587C39.6097 37.2587 40.9245 37.2524 42.2405 37.2587C43.0851 37.2587 43.4634 37.6357 43.4672 38.4854C43.4747 40.4261 43.4747 42.3663 43.4672 44.3061C43.4672 45.1508 43.0826 45.5316 42.2392 45.5329C39.6081 45.5404 36.9778 45.5404 34.3483 45.5329C33.5037 45.5329 33.1266 45.1558 33.1228 44.3049C33.1153 42.3659 33.1153 40.4256 33.1228 38.4841C33.1228 37.6382 33.4999 37.2649 34.3496 37.2587C35.6656 37.2536 36.9803 37.2587 38.295 37.2587ZM41.3506 43.4426V39.3602H35.2269V43.4426H41.3506Z" fill="url(#paint2_linear_50_4912)"/>
<path d="M32.1003 34.1523C30.7374 34.1537 29.4289 33.6181 28.4582 32.6615C27.4875 31.7049 26.9328 30.4044 26.9143 29.0417C26.908 28.3557 27.0378 27.6753 27.2962 27.0399C27.5546 26.4044 27.9365 25.8265 28.4197 25.3397C28.9029 24.8528 29.478 24.4666 30.1115 24.2035C30.745 23.9403 31.4244 23.8055 32.1103 23.8066C33.4737 23.8136 34.7793 24.3577 35.744 25.321C36.7087 26.2843 37.2548 27.5891 37.2637 28.9524C37.2666 29.6331 37.1354 30.3076 36.8774 30.9374C36.6194 31.5673 36.2398 32.14 35.7602 32.623C35.2806 33.106 34.7105 33.4896 34.0825 33.752C33.4545 34.0144 32.7809 34.1504 32.1003 34.1523Z" fill="url(#paint3_linear_50_4912)"/>
<path d="M6.21429 45.4745C6.21429 44.5268 6.20675 43.5779 6.21429 42.6289C6.22309 41.7817 6.59136 41.4059 7.43977 41.4021C9.38044 41.3946 11.3207 41.3946 13.2605 41.4021C14.1064 41.4021 14.486 41.7792 14.4898 42.6276C14.4973 44.5675 14.4973 46.5077 14.4898 48.4484C14.4898 49.293 14.1127 49.6726 13.263 49.6764C11.3224 49.6839 9.38212 49.6839 7.44229 49.6764C6.59764 49.6764 6.22309 49.2993 6.21429 48.4496C6.20675 47.4579 6.21429 46.4713 6.21429 45.4745ZM8.32966 43.4974V47.5572H12.3882V43.4974H8.32966Z" fill="url(#paint4_linear_50_4912)"/>
<path d="M14.4908 55.9504C14.4908 56.8993 14.4908 57.8483 14.4908 58.796C14.482 59.6407 14.1137 60.0203 13.2628 60.024C11.3238 60.0316 9.38358 60.0316 7.44208 60.024C6.59744 60.024 6.21911 59.647 6.21659 58.796C6.20905 56.8562 6.20905 54.9159 6.21659 52.9753C6.21659 52.1294 6.59367 51.7536 7.44208 51.7498C9.38275 51.7423 11.323 51.7423 13.2628 51.7498C14.1087 51.7498 14.4833 52.1269 14.4908 52.9753C14.4971 53.967 14.4908 54.9587 14.4908 55.9504ZM8.32066 53.83V57.9074H12.3692V53.83H8.32066Z" fill="url(#paint5_linear_50_4912)"/>
<path d="M57.9602 45.5637C57.9602 46.534 57.969 47.5044 57.9602 48.4747C57.9514 49.2816 57.5718 49.67 56.7712 49.6738C54.8096 49.6838 52.8479 49.6838 50.8863 49.6738C50.0769 49.6738 49.691 49.2879 49.6872 48.486C49.6772 46.5244 49.6772 44.5624 49.6872 42.5999C49.6872 41.7905 50.0643 41.4058 50.8738 41.4021C52.8354 41.392 54.7974 41.392 56.7599 41.4021C57.568 41.4021 57.9501 41.7879 57.9602 42.5899C57.969 43.579 57.9602 44.572 57.9602 45.5637ZM55.8473 47.5747V43.5175H51.7825V47.576L55.8473 47.5747Z" fill="url(#paint6_linear_50_4912)"/>
<path d="M57.9596 55.8825C57.9596 56.8528 57.9671 57.8232 57.9596 58.7922C57.952 59.6394 57.5825 60.0203 56.7366 60.024C54.7959 60.0316 52.8557 60.0316 50.9159 60.024C50.0687 60.024 49.6891 59.6469 49.6853 58.7998C49.6778 56.86 49.6778 54.9197 49.6853 52.979C49.6853 52.1306 50.0624 51.7536 50.9083 51.7498C52.8473 51.7423 54.7876 51.7423 56.7291 51.7498C57.5762 51.7498 57.952 52.1269 57.9596 52.9715C57.9671 53.9418 57.9596 54.9122 57.9596 55.8825ZM55.8354 57.9426V53.8601H51.7995V57.9426H55.8354Z" fill="url(#paint7_linear_50_4912)"/>
</g>
<defs>
<linearGradient id="paint0_linear_50_4912" x1="32.0838" y1="0.00195313" x2="32.0838" y2="64.1638" gradientUnits="userSpaceOnUse">
<stop stop-color="#DD57FF"/>
<stop offset="1" stop-color="#092199"/>
</linearGradient>
<linearGradient id="paint1_linear_50_4912" x1="25.8722" y1="37.2578" x2="25.8722" y2="45.5402" gradientUnits="userSpaceOnUse">
<stop stop-color="#DD57FF"/>
<stop offset="1" stop-color="#092199"/>
</linearGradient>
<linearGradient id="paint2_linear_50_4912" x1="38.295" y1="37.2559" x2="38.295" y2="45.5385" gradientUnits="userSpaceOnUse">
<stop stop-color="#DD57FF"/>
<stop offset="1" stop-color="#092199"/>
</linearGradient>
<linearGradient id="paint3_linear_50_4912" x1="32.0889" y1="23.8066" x2="32.0889" y2="34.1523" gradientUnits="userSpaceOnUse">
<stop stop-color="#DD57FF"/>
<stop offset="1" stop-color="#092199"/>
</linearGradient>
<linearGradient id="paint4_linear_50_4912" x1="10.3532" y1="41.3965" x2="10.3532" y2="49.682" gradientUnits="userSpaceOnUse">
<stop stop-color="#DD57FF"/>
<stop offset="1" stop-color="#092199"/>
</linearGradient>
<linearGradient id="paint5_linear_50_4912" x1="10.3523" y1="51.7441" x2="10.3523" y2="60.0297" gradientUnits="userSpaceOnUse">
<stop stop-color="#DD57FF"/>
<stop offset="1" stop-color="#092199"/>
</linearGradient>
<linearGradient id="paint6_linear_50_4912" x1="53.8219" y1="41.3945" x2="53.8219" y2="49.6813" gradientUnits="userSpaceOnUse">
<stop stop-color="#DD57FF"/>
<stop offset="1" stop-color="#092199"/>
</linearGradient>
<linearGradient id="paint7_linear_50_4912" x1="53.8213" y1="51.7441" x2="53.8213" y2="60.0297" gradientUnits="userSpaceOnUse">
<stop stop-color="#DD57FF"/>
<stop offset="1" stop-color="#092199"/>
</linearGradient>
<clipPath id="clip0_50_4912">
<rect width="64.1689" height="64.1702" fill="white"/>
</clipPath>
</defs>
</svg>
