<svg width="49" height="49" viewBox="0 0 49 49" fill="none" xmlns="http://www.w3.org/2000/svg">
<g clip-path="url(#clip0_50_6288)">
<path d="M12.8906 25.0278H14.4075C14.4075 24.6256 14.5673 24.2397 14.8518 23.9553C15.1362 23.6708 15.522 23.511 15.9243 23.511C16.3266 23.511 16.7124 23.6708 16.9969 23.9553C17.2814 24.2397 17.4412 24.6256 17.4412 25.0278H18.958C18.958 24.2233 18.6384 23.4516 18.0695 22.8827C17.5006 22.3138 16.7289 21.9941 15.9243 21.9941C15.1197 21.9941 14.3481 22.3138 13.7792 22.8827C13.2102 23.4516 12.8906 24.2233 12.8906 25.0278Z" fill="white"/>
<path d="M45.5047 34.8872H42.4414C42.3277 34.8875 42.2154 34.8619 42.1129 34.8125C42.0104 34.7631 41.9205 34.6912 41.8499 34.602C40.9763 33.5054 39.8663 32.6203 38.6026 32.0131C37.3389 31.4058 35.9543 31.092 34.5523 31.095H29.1022C29.0276 30.6131 28.8787 30.1457 28.6608 29.7094C28.3463 29.0813 28.2436 28.3682 28.3681 27.6768L30.5569 21.8422C31.2211 20.0602 31.2716 18.1075 30.7002 16.2936L28.5607 9.536C27.954 7.02604 26.5183 4.79413 24.4859 3.2012C22.4535 1.60827 19.9433 0.747452 17.361 0.757962H14.4911C11.917 0.744805 9.41344 1.59892 7.38409 3.18262C5.35473 4.76631 3.91785 6.98728 3.3051 9.48746L1.15193 16.2951C0.581131 18.1086 0.631574 20.0606 1.29527 21.8422L3.48788 27.6768C3.61233 28.3682 3.50963 29.0813 3.19513 29.7094C2.81727 30.4684 2.64819 31.3143 2.70524 32.1602C2.76228 33.0062 3.0434 33.8217 3.51974 34.5231C2.71724 35.4736 2.2762 36.6769 2.2744 37.9209V45.5052C2.2744 46.1086 2.51412 46.6873 2.94081 47.114C3.36751 47.5407 3.94624 47.7804 4.54968 47.7804H36.0896C37.0105 47.7831 37.9227 47.603 38.7735 47.2506C39.6243 46.8981 40.3967 46.3804 41.0459 45.7274C41.1881 45.5851 41.381 45.5052 41.5822 45.5052H45.5047C46.1082 45.5052 46.6869 45.2654 47.1136 44.8387C47.5403 44.412 47.78 43.8333 47.78 43.2299V37.1625C47.78 36.559 47.5403 35.9803 47.1136 35.5536C46.6869 35.1269 46.1082 34.8872 45.5047 34.8872ZM2.7158 21.3113C2.1708 19.8476 2.12917 18.244 2.59749 16.7539L4.76507 9.89549C5.29216 7.71607 6.53903 5.77818 8.30402 4.39526C10.069 3.01233 12.2489 2.26524 14.4911 2.27482H17.361C19.6114 2.26805 21.7981 3.02199 23.5661 4.41429C25.3341 5.80659 26.5797 7.75552 27.1007 9.94479L29.2547 16.7532C29.7228 18.2432 29.6812 19.8468 29.1364 21.3106L26.9233 27.2043C26.9094 27.2424 26.8982 27.2814 26.8899 27.3211C26.6829 28.3617 26.828 29.4415 27.3025 30.3905C27.4156 30.6145 27.5021 30.851 27.5604 31.095H27.3025C26.8269 31.0967 26.3637 31.2476 25.9785 31.5266C25.5933 31.8055 25.3053 32.1984 25.1554 32.6498L20.4766 31.2846V28.4565C21.5594 27.8519 22.5036 27.0272 23.2481 26.0354C23.9927 25.0437 24.5213 23.907 24.7997 22.6985C25.6847 22.576 26.4978 22.1442 27.0949 21.4796C27.692 20.8149 28.0346 19.9604 28.0618 19.0673C28.0891 18.1742 27.7993 17.3004 27.2438 16.6005C26.6884 15.9007 25.9031 15.4201 25.0272 15.2439V15.1681C25.0272 14.5646 24.7875 13.9859 24.3608 13.5592C23.9341 13.1325 23.3554 12.8928 22.7519 12.8928H21.9935C21.7924 12.8928 21.5994 12.8129 21.4572 12.6707C21.315 12.5284 21.2351 12.3355 21.2351 12.1344V10.6175C21.235 10.4675 21.1905 10.3209 21.1072 10.1962C21.0239 10.0715 20.9054 9.97436 20.7669 9.91697C20.6283 9.85958 20.4758 9.84456 20.3287 9.87381C20.1816 9.90306 20.0465 9.97527 19.9404 10.0813L17.7956 12.2261C17.5848 12.4382 17.334 12.6063 17.0577 12.7207C16.7815 12.8352 16.4852 12.8937 16.1862 12.8928H15.7312C16.0331 12.5958 16.273 12.2417 16.4366 11.851C16.6003 11.4604 16.6846 11.0411 16.6845 10.6175V9.85909H15.1677V10.6175C15.1677 12.1033 13.1957 12.7699 12.7862 12.8928H11.9383C12.2404 12.5959 12.4803 12.2417 12.6441 11.8511C12.808 11.4605 12.8923 11.0411 12.8924 10.6175V9.85909H11.3755V10.6175C11.3755 12.1882 9.17153 12.8443 8.9387 12.9087C8.36597 12.9482 7.82949 13.2033 7.43729 13.6225C7.04508 14.0417 6.82628 14.594 6.82496 15.1681V15.2439C5.94479 15.4218 5.15665 15.9071 4.60158 16.613C4.04651 17.3188 3.76074 18.1992 3.79541 19.0965C3.83007 19.9938 4.18291 20.8494 4.79079 21.5104C5.39866 22.1713 6.2219 22.5944 7.11316 22.7038C7.41404 23.8784 7.94592 24.9813 8.67775 25.948C9.40958 26.9147 10.3267 27.726 11.3755 28.3344V31.2846L6.02179 32.847C5.54161 32.998 5.08529 33.2163 4.66648 33.4955C4.38881 33.029 4.23262 32.5003 4.21222 31.9579C4.19181 31.4154 4.30784 30.8765 4.54968 30.3905C5.02442 29.4416 5.16984 28.3617 4.96302 27.3211C4.95447 27.2814 4.94306 27.2424 4.92889 27.2043L2.7158 21.3113ZM9.10024 14.4096H16.1862C16.6845 14.4109 17.1781 14.3134 17.6384 14.1227C18.0987 13.932 18.5167 13.6518 18.868 13.2986L19.7372 12.4294C19.8097 12.9767 20.0784 13.4791 20.4934 13.8433C20.9084 14.2075 21.4414 14.4087 21.9935 14.4096H22.7519C22.9531 14.4096 23.146 14.4896 23.2882 14.6318C23.4305 14.774 23.5104 14.9669 23.5104 15.1681V20.7273C23.5081 22.6718 22.7348 24.5359 21.3598 25.9108C19.9849 27.2857 18.1208 28.0591 16.1764 28.0613H15.967C13.9508 28.0646 12.0156 27.2678 10.5861 25.846C9.15657 24.4241 8.34945 22.4933 8.34181 20.4771V15.1681C8.34181 14.9669 8.42172 14.774 8.56395 14.6318C8.70619 14.4896 8.89909 14.4096 9.10024 14.4096ZM12.8924 29.0374C13.8786 29.393 14.9187 29.576 15.967 29.5782H16.1764C17.1226 29.577 18.0625 29.4233 18.9598 29.1231V31.8535C18.9598 32.5694 17.6621 33.3703 15.9261 33.3703C14.19 33.3703 12.8924 32.5694 12.8924 31.8535V29.0374ZM25.0272 20.7273V16.8245C25.4721 16.9794 25.8575 17.2694 26.1295 17.654C26.4016 18.0386 26.5467 18.4986 26.5446 18.9696C26.5425 19.4407 26.3933 19.8994 26.1179 20.2815C25.8424 20.6637 25.4545 20.9503 25.0082 21.1012C25.0136 20.9769 25.0272 20.8563 25.0272 20.7273ZM6.85681 21.1066C6.40858 20.9578 6.01817 20.6724 5.74036 20.2905C5.46255 19.9085 5.31128 19.4492 5.30777 18.9769C5.30425 18.5047 5.44868 18.0431 5.72077 17.6571C5.99287 17.2711 6.37899 16.9799 6.82496 16.8245V20.4771C6.82496 20.6894 6.8424 20.898 6.85681 21.1066ZM3.79125 45.5052V37.9209C3.78764 37.1109 4.04506 36.3214 4.52538 35.6692C5.00569 35.0171 5.68333 34.537 6.45788 34.3002L11.5962 32.8007C12.1802 34.0241 13.873 34.8872 15.9261 34.8872C17.9791 34.8872 19.672 34.0241 20.2559 32.8007L24.8065 34.1287H21.9935C21.6212 34.1275 21.2543 34.2179 20.9252 34.392C20.5961 34.5662 20.315 34.8187 20.1066 35.1272C19.8982 35.4357 19.769 35.7908 19.7304 36.1611C19.6917 36.5314 19.7449 36.9055 19.8851 37.2504C19.4023 37.378 18.9753 37.6617 18.6706 38.0574C18.3659 38.453 18.2007 38.9384 18.2007 39.4377C18.2007 39.9371 18.3659 40.4224 18.6706 40.8181C18.9753 41.2137 19.4023 41.4975 19.8851 41.625C19.7449 41.9699 19.6917 42.3441 19.7304 42.7144C19.769 43.0847 19.8982 43.4398 20.1066 43.7483C20.315 44.0568 20.5961 44.3093 20.9252 44.4834C21.2543 44.6576 21.6212 44.748 21.9935 44.7467H24.4083C24.2222 45.2352 24.2222 45.7751 24.4083 46.2636H9.10024V41.713H7.58339V46.2636H4.54968C4.34853 46.2636 4.15562 46.1837 4.01339 46.0414C3.87116 45.8992 3.79125 45.7063 3.79125 45.5052ZM46.2632 43.2299C46.2632 43.431 46.1833 43.6239 46.041 43.7662C45.8988 43.9084 45.7059 43.9883 45.5047 43.9883H41.5822C41.2832 43.9874 40.9871 44.0459 40.711 44.1604C40.4349 44.2748 40.1842 44.4429 39.9735 44.655C39.4647 45.1666 38.8594 45.5723 38.1927 45.8484C37.5261 46.1245 36.8112 46.2656 36.0896 46.2636H26.5441C26.3429 46.2636 26.15 46.1837 26.0078 46.0414C25.8655 45.8992 25.7856 45.7063 25.7856 45.5052C25.7856 45.304 25.8655 45.1111 26.0078 44.9689C26.15 44.8266 26.3429 44.7467 26.5441 44.7467H32.6115V43.2299H21.9935C21.7924 43.2299 21.5994 43.15 21.4572 43.0077C21.315 42.8655 21.2351 42.6726 21.2351 42.4714C21.2351 42.2703 21.315 42.0774 21.4572 41.9352C21.5994 41.7929 21.7924 41.713 21.9935 41.713H31.0946V40.1962H20.4766C20.2755 40.1962 20.0826 40.1163 19.9404 39.974C19.7981 39.8318 19.7182 39.6389 19.7182 39.4377C19.7182 39.2366 19.7981 39.0437 19.9404 38.9014C20.0826 38.7592 20.2755 38.6793 20.4766 38.6793H31.0946V37.1625H21.9935C21.7924 37.1625 21.5994 37.0826 21.4572 36.9403C21.315 36.7981 21.2351 36.6052 21.2351 36.404C21.2351 36.2029 21.315 36.01 21.4572 35.8677C21.5994 35.7255 21.7924 35.6456 21.9935 35.6456H33.3699V34.1287H27.3025C27.1013 34.1287 26.9084 34.0488 26.7662 33.9066C26.624 33.7644 26.5441 33.5715 26.5441 33.3703C26.5441 33.1692 26.624 32.9763 26.7662 32.834C26.9084 32.6918 27.1013 32.6119 27.3025 32.6119H34.5523C35.7268 32.6092 36.8867 32.8721 37.9452 33.3809C39.0038 33.8897 39.9336 34.6312 40.6652 35.55C40.8777 35.8172 41.1478 36.0327 41.4555 36.1806C41.7631 36.3285 42.1001 36.4049 42.4414 36.404H45.5047C45.7059 36.404 45.8988 36.4839 46.041 36.6262C46.1833 36.7684 46.2632 36.9613 46.2632 37.1625V43.2299Z" fill="white"/>
<path d="M12.1347 18.9608C12.7381 18.9608 13.3168 18.7211 13.7435 18.2944C14.1702 17.8677 14.4099 17.289 14.4099 16.6855H12.8931C12.8931 16.8867 12.8132 17.0796 12.6709 17.2218C12.5287 17.3641 12.3358 17.444 12.1347 17.444C11.9335 17.444 11.7406 17.3641 11.5984 17.2218C11.4561 17.0796 11.3762 16.8867 11.3762 16.6855H9.85938C9.85938 17.289 10.0991 17.8677 10.5258 18.2944C10.9525 18.7211 11.5312 18.9608 12.1347 18.9608Z" fill="white"/>
<path d="M19.7206 18.9608C20.324 18.9608 20.9028 18.7211 21.3295 18.2944C21.7562 17.8677 21.9959 17.289 21.9959 16.6855H20.479C20.479 16.8867 20.3991 17.0796 20.2569 17.2218C20.1147 17.3641 19.9217 17.444 19.7206 17.444C19.5194 17.444 19.3265 17.3641 19.1843 17.2218C19.0421 17.0796 18.9622 16.8867 18.9622 16.6855H17.4453C17.4453 17.289 17.685 17.8677 18.1117 18.2944C18.5384 18.7211 19.1172 18.9608 19.7206 18.9608Z" fill="white"/>
</g>
<defs>
<clipPath id="clip0_50_6288">
<rect width="48.5393" height="48.5393" fill="white"/>
</clipPath>
</defs>
</svg>
