<svg width="60" height="60" viewBox="0 0 60 60" fill="none" xmlns="http://www.w3.org/2000/svg">
<g clip-path="url(#clip0_50_4508)">
<path d="M59.0593 46.2266C34.778 46.2266 16.778 55.3034 11.8093 58.1107C11.3405 58.3914 11.2468 58.9529 11.4343 59.4207C11.7155 59.8886 12.278 60.0758 12.7468 59.7951C22.778 54.1805 40.2155 48.0981 59.0593 48.0981C59.6218 48.0981 59.9968 47.7238 59.9968 47.1623C59.9968 46.6009 59.6218 46.2266 59.0593 46.2266Z" fill="#C74318"/>
<path d="M59.0587 50.8125C43.3087 50.8125 30.09 54.7427 21.7462 58.0178C21.2775 58.205 20.9962 58.7664 21.1837 59.2343C21.3712 59.7022 21.9337 59.9829 22.4025 59.7958C30.5587 56.5206 43.59 52.684 59.0587 52.684C59.6212 52.684 59.9962 52.3097 59.9962 51.7483C59.9962 51.1868 59.6212 50.8125 59.0587 50.8125Z" fill="#C74318"/>
<path d="M59.0613 55.4902C51.8426 55.4902 44.4363 56.3324 37.0301 58.0168C36.5613 58.1104 36.1863 58.6718 36.2801 59.1397C36.3738 59.6076 36.9363 59.9819 37.4051 59.8883C44.6238 58.2039 51.9363 57.3618 58.9676 57.3618C59.5301 57.3618 59.9051 56.9874 59.9051 56.426C59.9051 55.8645 59.6238 55.4902 59.0613 55.4902Z" fill="#C74318"/>
<path d="M41.25 19.1838C40.9687 19.1838 40.7812 19.2774 40.5937 19.4646L26.9062 33.2202C26.625 33.5009 26.5312 33.8752 26.7187 34.2495C26.9062 34.6238 27.1875 34.811 27.5625 34.811H29.8125V45.6658C25.7812 44.4493 21.75 43.5135 17.625 42.8585L15 21.1489C16.0312 22.3654 17.7187 24.3305 19.0312 24.6112C19.3125 24.7048 19.5937 24.7048 19.9687 24.7048C23.8125 24.7048 31.125 20.9618 31.9687 20.4939C32.3437 20.3067 32.5312 19.9324 32.4375 19.4646C32.3437 18.9967 32.0625 18.716 31.5937 18.716L16.6875 17.4059C16.5 16.4701 15.9375 15.6279 15.0937 15.1601C15.6562 13.6629 16.5 11.1363 16.125 9.82625C15 6.45752 6.9375 1.31085 6 0.655824C5.625 0.468672 5.25 0.468672 4.875 0.749399C4.59375 1.03013 4.5 1.49801 4.6875 1.87231L11.0625 15.4408C10.3125 16.0958 9.9375 16.938 9.84375 17.9673C8.25 18.2481 5.625 18.716 4.6875 19.7453C2.34375 22.2718 1.875 31.9101 1.78125 33.033C1.78125 33.4073 2.0625 33.7817 2.4375 33.9688C2.53125 33.9688 2.625 34.0624 2.71875 34.0624C3 34.0624 3.28125 33.8752 3.46875 33.6881L11.3438 22.459L9 41.8292C6.28125 41.642 3.5625 41.4549 0.9375 41.4549C0.375 41.4549 0 41.8292 0 42.3906C0 42.9521 0.375 43.3264 0.9375 43.3264C9.5625 43.3264 18.375 44.5429 27.0937 46.9758C25.5 47.5373 24 48.0052 22.5937 48.5666C15.4687 46.7887 8.15625 46.0401 0.9375 46.0401C0.375 46.0401 0 46.4144 0 46.9758C0 47.5373 0.375 47.9116 0.9375 47.9116C7.125 47.9116 13.4062 48.5666 19.5937 49.7831C18 50.4381 16.5938 51.0932 15.1875 51.7482C10.3125 50.9996 5.53125 50.6253 0.9375 50.6253C0.375 50.6253 0 50.9996 0 51.561C0 52.1225 0.375 52.4968 0.9375 52.4968C4.59375 52.4968 8.4375 52.7775 12.2812 53.2454C10.7812 54.0876 9.46875 54.9298 8.34375 55.6784C5.8125 55.4912 3.375 55.3977 0.9375 55.3977C0.375 55.3977 0 55.772 0 56.3334C0 56.8949 0.375 57.2692 0.9375 57.2692C2.625 57.2692 4.40625 57.3628 6.1875 57.4563C5.625 58.0178 5.25 58.4857 5.15625 58.86C5.0625 59.3278 5.34375 59.8893 5.8125 59.9829C6.28125 60.0764 6.84375 59.7957 6.9375 59.3278C7.96875 56.8949 30.75 43.5135 58.9687 43.5135C59.5312 43.5135 59.9062 43.1392 59.9062 42.5778C59.9062 42.0163 59.5312 41.642 58.9687 41.642C56.8125 41.642 54.75 41.7356 52.6875 41.8292V34.9046H54.9375C55.3125 34.9046 55.6875 34.7174 55.7812 34.3431C55.9687 33.9688 55.875 33.5945 55.5937 33.3138L41.9062 19.4646C41.7187 19.2774 41.5312 19.1838 41.25 19.1838ZM13.2187 19.6517C12.375 19.6517 11.625 18.9031 11.625 18.0609C11.625 17.2187 12.2812 16.4701 13.2187 16.4701C14.0625 16.4701 14.8125 17.2187 14.8125 18.0609C14.8125 18.9031 14.0625 19.6517 13.2187 19.6517ZM19.4062 22.7397C18.8438 22.6461 17.4375 21.1489 16.2187 19.6517C16.3125 19.4646 16.4062 19.371 16.4062 19.1838L27.9375 20.2132C24.75 21.7104 20.9062 23.114 19.4062 22.7397ZM7.78125 4.2117C10.6875 6.27037 13.7812 8.89049 14.25 10.3877C14.4375 10.9492 13.875 12.9143 13.2187 14.5986C13.0312 14.5986 12.8438 14.5986 12.75 14.6922L7.78125 4.2117ZM6.09375 20.9618C6.46875 20.4939 8.4375 20.026 10.3125 19.7453C10.4062 19.9324 10.5 20.026 10.5937 20.2132L3.9375 29.6643C4.3125 26.1084 4.96875 22.1783 6.09375 20.9618ZM13.2187 22.459L15.6562 42.3906C14.0625 42.1099 12.4688 41.9227 10.875 41.8292L13.2187 22.459ZM43.5 42.8585C42 43.1392 40.5 43.42 39 43.7007V38.9283H43.5V42.8585ZM50.9062 41.9227C49.0312 42.1099 47.1562 42.297 45.375 42.5778V37.9926C45.375 37.4311 45 37.0568 44.4375 37.0568H38.0625C37.5 37.0568 37.125 37.4311 37.125 37.9926V44.075C35.25 44.5429 33.375 45.0107 31.5937 45.4786V34.811H50.9062V41.9227ZM29.8125 32.9395L41.25 21.5232L52.7812 33.033C53.4375 32.9395 42.8437 32.9395 29.8125 32.9395Z" fill="#C74318"/>
<path d="M48.2812 7.95414C48.2812 10.0128 49.9688 11.6036 51.9375 11.6036C53.9062 11.6036 55.5937 9.91923 55.5937 7.95414C55.5937 5.98905 53.9062 4.30469 51.9375 4.30469C49.9688 4.30469 48.2812 5.98905 48.2812 7.95414ZM52.0312 6.1762C53.0625 6.1762 53.8125 7.01839 53.8125 7.95414C53.8125 8.8899 52.9687 9.73208 52.0312 9.73208C51.0937 9.73208 50.25 8.8899 50.25 7.95414C50.25 7.01839 51 6.1762 52.0312 6.1762Z" fill="#C74318"/>
<path d="M52.9687 1.96509V0.935758C52.9687 0.374303 52.5937 0 52.0312 0C51.4687 0 51.0938 0.374303 51.0938 0.935758V2.05867C51.0938 2.62012 51.4687 2.99442 52.0312 2.99442C52.5937 2.99442 52.9687 2.52655 52.9687 1.96509Z" fill="#C74318"/>
<path d="M47.625 2.33932C47.25 1.96502 46.6875 1.96502 46.3125 2.33932C45.9375 2.71362 45.9375 3.27508 46.3125 3.64938L47.0625 4.39799C47.4375 4.77229 48 4.77229 48.375 4.39799C48.75 4.02369 48.75 3.46223 48.375 3.08793L47.625 2.33932Z" fill="#C74318"/>
<path d="M44.9062 7.01758C44.3437 7.01758 43.9688 7.39188 43.9688 7.95334C43.9688 8.51479 44.3437 8.88909 44.9062 8.88909H46.0312C46.5937 8.88909 46.9687 8.51479 46.9687 7.95334C46.9687 7.39188 46.5937 7.01758 46.0312 7.01758H44.9062Z" fill="#C74318"/>
<path d="M47.0625 11.603L46.3125 12.3516C45.9375 12.7259 45.9375 13.2874 46.3125 13.6617C46.6875 14.036 47.25 14.036 47.625 13.6617L48.375 12.9131C48.75 12.5388 48.75 11.9773 48.375 11.603C48 11.2287 47.4375 11.2287 47.0625 11.603Z" fill="#C74318"/>
<path d="M51.0938 13.9436V15.0665C51.0938 15.6279 51.4687 16.0022 52.0312 16.0022C52.5937 16.0022 52.9687 15.6279 52.9687 15.0665V13.9436C52.9687 13.3821 52.5937 13.0078 52.0312 13.0078C51.4687 13.0078 51.0938 13.4757 51.0938 13.9436Z" fill="#C74318"/>
<path d="M55.5937 11.603C55.2188 11.9773 55.2188 12.5388 55.5937 12.9131L56.3437 13.6617C56.7187 14.036 57.2813 14.036 57.6563 13.6617C58.0313 13.2874 58.0313 12.7259 57.6563 12.3516L56.9063 11.603C56.5313 11.2287 55.9687 11.2287 55.5937 11.603Z" fill="#C74318"/>
<path d="M59.0625 8.88909C59.625 8.88909 60 8.51479 60 7.95334C60 7.39188 59.625 7.01758 59.0625 7.01758H57.9375C57.375 7.01758 57 7.39188 57 7.95334C57 8.51479 57.375 8.88909 57.9375 8.88909H59.0625Z" fill="#C74318"/>
<path d="M56.3437 2.33932L55.5937 3.08793C55.2188 3.46223 55.2188 4.02369 55.5937 4.39799C55.9687 4.77229 56.5313 4.77229 56.9063 4.39799L57.6563 3.64938C58.0313 3.27508 58.0313 2.71362 57.6563 2.33932C57.2813 1.96502 56.7187 1.96502 56.3437 2.33932Z" fill="#C74318"/>
<path d="M31.6861 2.52734C30.0924 2.52734 28.5924 3.27595 27.6549 4.58601C25.5924 4.39886 23.7174 5.89607 23.4361 7.95474C21.7486 8.51619 20.8111 10.107 20.9049 11.6042C20.9986 13.3821 22.2174 15.1601 24.5611 15.1601H35.9986C37.9674 15.1601 39.4674 13.5693 39.4674 11.6042C39.4674 9.91983 38.3424 8.60977 36.8424 8.23547C37.4049 5.05389 34.7799 2.52734 31.6861 2.52734ZM37.7799 11.6978C37.7799 12.6335 37.0299 13.3821 36.1861 13.3821H24.6549C23.3424 13.3821 22.8736 12.4464 22.8736 11.6042C22.8736 10.762 23.2486 9.82625 24.4674 9.73268C24.7486 9.73268 24.9361 9.6391 25.1236 9.35838C25.3111 9.17122 25.4049 8.8905 25.3111 8.70335C25.2174 7.48686 26.1549 6.45753 27.3736 6.45753C27.5611 6.45753 27.7486 6.45753 27.9361 6.5511C28.3111 6.64468 28.7799 6.45753 28.9674 6.08322C29.6236 4.96031 30.5611 4.39886 31.6861 4.39886C33.8424 4.39886 35.8111 6.36395 34.8736 8.79692C34.7799 9.07765 34.7799 9.45195 34.9674 9.6391C35.1549 9.91983 35.4361 10.0134 35.8111 10.0134C37.0299 9.91983 37.7799 10.8556 37.7799 11.6978Z" fill="#C74318"/>
</g>
<defs>
<clipPath id="clip0_50_4508">
<rect width="60" height="60.0008" fill="white"/>
</clipPath>
</defs>
</svg>
