<svg width="54" height="60" viewBox="0 0 54 60" fill="none" xmlns="http://www.w3.org/2000/svg">
<g clip-path="url(#clip0_50_4889)">
<path fill-rule="evenodd" clip-rule="evenodd" d="M43.6588 42.0322C44.3158 41.7057 45.0705 41.6301 45.7799 41.8195C46.4894 42.009 47.1041 42.4505 47.5077 43.0602L47.6817 43.3641L53.6815 55.2831C53.8956 55.7081 54.0042 56.1779 53.9983 56.6531C53.9923 57.1283 53.8721 57.5953 53.6475 58.0149C53.4228 58.4346 53.1004 58.7948 52.7071 59.0655C52.3138 59.3361 51.861 59.5094 51.3866 59.5709L50.9996 59.5948H3.00089C2.52231 59.5949 2.05064 59.4813 1.62526 59.2635C1.19989 59.0457 0.833152 58.7299 0.555679 58.3426C0.278207 57.9553 0.0980509 57.5077 0.0302545 57.0371C-0.0375418 56.5666 0.00898932 56.0867 0.165963 55.6377L0.315959 55.2801L6.3158 43.3611C6.65208 42.6707 7.24344 42.1357 7.96682 41.8674C8.6902 41.5991 9.48988 41.6181 10.1995 41.9206C10.909 42.2231 11.4739 42.7858 11.7764 43.4914C12.0789 44.1971 12.0958 44.9914 11.8236 45.7092L11.6827 46.028L6.85475 55.6353H47.1457L42.3178 46.028C41.9626 45.3214 41.9043 44.5037 42.1557 43.7544C42.4071 43.0052 42.9478 42.3857 43.6588 42.0322ZM27.0002 0C32.5696 0 37.9109 2.19755 41.8491 6.10921C45.7872 10.0209 47.9997 15.3262 47.9997 20.8582C47.9997 27.9559 44.1328 33.7217 40.1309 37.8129C37.9205 40.0433 35.4904 42.0478 32.8771 43.7962L31.7581 44.5292L30.7621 45.152L30.3151 45.4201L29.5442 45.8611C27.9602 46.7551 26.0403 46.7551 24.4563 45.8611L23.6853 45.4172L22.7554 44.854L22.2424 44.5292L21.1234 43.7962C18.5101 42.0478 16.0799 40.0433 13.8696 37.8129C9.8677 33.7217 6.0008 27.9559 6.0008 20.8582C6.0008 15.3262 8.21324 10.0209 12.1514 6.10921C16.0896 2.19755 21.4308 0 27.0002 0ZM27.0002 4.95948C23.0221 4.95948 18.2069 6.52915 15.3939 9.3232C12.581 12.1172 11.0006 16.9068 11.0006 20.8582C11.0006 25.733 13.6706 31.0805 17.1715 34.6591C19.2773 36.7717 22.6045 38.6547 25.1133 40.2759L26.1333 40.9225C26.4493 41.1152 26.7382 41.288 27.0002 41.441L27.8702 40.9225L28.8872 40.2759C31.396 38.6547 34.9995 36.4945 36.829 34.6591C40.4764 31 42.9998 25.733 42.9998 20.8582C42.9998 16.9068 41.4195 12.1172 38.6065 9.3232C35.7936 6.52915 30.9784 4.95948 27.0002 4.95948ZM27.0002 11.919C29.3871 11.919 31.6762 12.8608 33.364 14.5372C35.0518 16.2136 36 18.4873 36 20.8582C36 23.229 35.0518 25.5027 33.364 27.1791C31.6762 28.8556 29.3871 29.7974 27.0002 29.7974C24.6133 29.7974 22.3242 28.8556 20.6364 27.1791C18.9487 25.5027 18.0005 23.229 18.0005 20.8582C18.0005 18.4873 18.9487 16.2136 20.6364 14.5372C22.3242 12.8608 24.6133 11.919 27.0002 11.919ZM27.0002 17.8784C26.2046 17.8784 25.4416 18.1924 24.879 18.7512C24.3164 19.31 24.0003 20.0679 24.0003 20.8582C24.0003 21.6484 24.3164 22.4063 24.879 22.9652C25.4416 23.524 26.2046 23.8379 27.0002 23.8379C27.7959 23.8379 28.5589 23.524 29.1215 22.9652C29.6841 22.4063 30.0002 21.6484 30.0002 20.8582C30.0002 20.0679 29.6841 19.31 29.1215 18.7512C28.5589 18.1924 27.7959 17.8784 27.0002 17.8784Z" fill="url(#paint0_linear_50_4889)"/>
</g>
<defs>
<linearGradient id="paint0_linear_50_4889" x1="26.9992" y1="0" x2="26.9992" y2="59.5948" gradientUnits="userSpaceOnUse">
<stop stop-color="#092199"/>
<stop offset="1" stop-color="#DD57FF"/>
</linearGradient>
<clipPath id="clip0_50_4889">
<rect width="54" height="60" fill="white"/>
</clipPath>
</defs>
</svg>
