<svg width="48" height="49" viewBox="0 0 48 49" fill="none" xmlns="http://www.w3.org/2000/svg">
<g clip-path="url(#clip0_50_6273)">
<path d="M43.8601 46.3348H30.9115C30.5677 46.3348 30.2891 46.0566 30.2891 45.7134C30.2891 45.3702 30.5677 45.0918 30.9115 45.0918H43.8601C44.2038 45.0918 44.4825 45.3701 44.4825 45.7134C44.4825 46.0565 44.2038 46.3348 43.8601 46.3348Z" fill="white"/>
<path d="M24.8532 52.12C23.2395 52.2045 21.9216 50.5329 22.3878 48.9868L23.9078 43.3805L20.5892 39.1179L20.6981 41.8382C20.7036 41.9737 20.6645 42.1072 20.5869 42.2183L15.2303 49.8978C14.4919 50.9566 13.0412 51.2733 11.9272 50.6186C10.7392 49.9541 10.3332 48.3006 11.0788 47.1627L15.6307 39.8784V33.5064C15.6307 33.0316 15.7161 32.5658 15.8845 32.1217L18.5755 25.0279C19.8169 21.5326 24.526 20.4063 27.2279 22.9363L31.7236 26.9835L34.4555 25.5365C35.6804 24.8504 37.3591 25.5067 37.7916 26.8409C38.1835 27.959 37.6786 29.2013 36.6174 29.7305L32.2516 31.9073C31.4254 32.319 30.4424 32.1934 29.747 31.5872L26.7669 28.9893L24.8725 35.6581L28.5381 41.4926C28.9882 42.209 29.1243 43.0895 28.9116 43.9082L27.2613 50.2598C26.9765 51.3551 25.9864 52.12 24.8532 52.12ZM19.8897 36.5855C20.078 36.5855 20.2608 36.671 20.3812 36.8255L25.0812 42.8623C25.2011 43.0163 25.2416 43.2177 25.1905 43.4062L23.5894 49.3116C23.3523 50.098 24.0353 50.9375 24.8532 50.877C25.4194 50.877 25.914 50.4948 26.0562 49.9476L27.7065 43.596C27.8336 43.107 27.7522 42.581 27.4833 42.1532L23.6707 36.0845C23.5772 35.9355 23.5511 35.7539 23.5992 35.5846L25.8371 27.7064C25.9454 27.2778 26.5203 27.1074 26.8453 27.4078L30.5651 30.6507C30.8789 30.9243 31.3224 30.9811 31.6951 30.7952L36.0609 28.6184C36.5629 28.3681 36.8016 27.7805 36.6163 27.2516C36.4118 26.6206 35.6175 26.3101 35.0384 26.6347L31.9217 28.2857C31.6907 28.4079 31.4076 28.3732 31.2133 28.1981L26.3941 23.8596C24.3158 21.9138 20.6943 22.7801 19.7394 25.4685L17.0484 32.5623C16.9335 32.865 16.8753 33.1827 16.8753 33.5065V40.0566C16.8753 40.1729 16.8426 40.2869 16.7809 40.3857L12.1346 47.821C11.7623 48.3894 11.9651 49.2157 12.5585 49.5475C13.1152 49.8748 13.8397 49.7162 14.2088 49.1874L19.4458 41.6794L19.2677 37.232C19.2481 36.8868 19.5448 36.58 19.8897 36.5855Z" fill="white"/>
<path d="M13.0306 34.4004C12.9648 34.4004 12.898 34.3899 12.8323 34.3678C7.67973 32.1493 8.1645 25.6906 12.0786 22.7756C14.0865 21.2905 16.4225 20.6337 19.0207 20.8227C19.3636 20.8477 19.6212 21.1455 19.5962 21.4879C19.5712 21.8302 19.2743 22.0889 18.9302 22.0626C16.6371 21.8953 14.5811 22.4714 12.8195 23.7745C9.64702 26.09 9.15644 31.3991 13.2288 33.1895C13.8905 33.3899 13.7089 34.4228 13.0306 34.4004Z" fill="white"/>
<path d="M26.0355 20.3815C24.0989 20.3815 22.5234 18.8082 22.5234 16.8744C22.5234 14.9406 24.099 13.3672 26.0355 13.3672C27.9722 13.3672 29.5476 14.9406 29.5476 16.8744C29.5476 18.8082 27.9722 20.3815 26.0355 20.3815ZM26.0355 14.6102C24.7854 14.6102 23.7682 15.6259 23.7682 16.8744C23.7682 18.1228 24.7854 19.1385 26.0355 19.1385C27.2857 19.1385 28.3028 18.1228 28.3028 16.8744C28.3028 15.6259 27.2858 14.6102 26.0355 14.6102Z" fill="white"/>
<path d="M46.7167 22.7872L23.5847 3.72618C23.3548 3.53659 23.0224 3.53659 22.7925 3.72618L13.6524 11.2577V8.8699H14.2618C14.6055 8.8699 14.8842 8.59163 14.8842 8.24832C14.8842 7.90502 14.6055 7.62675 14.2618 7.62675H4.65383C4.31012 7.62675 4.03143 7.90502 4.03143 8.24832C4.03143 8.59163 4.31012 8.8699 4.65383 8.8699H5.26327V18.1705L-0.339494 22.7872C-0.788586 23.1328 -0.5099 23.9069 0.0565997 23.8882H5.32094V45.0914H2.51375C2.17003 45.0914 1.89135 45.3697 1.89135 45.713C1.89135 46.0562 2.17003 46.3345 2.51375 46.3345H8.57256C8.91627 46.3345 9.19496 46.0562 9.19496 45.713C9.19496 45.3698 8.91627 45.0914 8.57256 45.0914H6.56574V23.2666C6.56574 22.9234 6.28706 22.645 5.94334 22.645H1.78877L23.1886 5.01143L44.5885 22.6451H40.434C40.0902 22.6451 39.8116 22.9234 39.8116 23.2667V39.7565C39.8116 40.0997 40.0902 40.378 40.434 40.378C40.7777 40.378 41.0564 40.0998 41.0564 39.7565V23.8882H46.3207C46.8872 23.9069 47.1657 23.1327 46.7167 22.7872ZM6.50797 8.8699H12.4077V12.2834L6.50797 17.1449V8.8699Z" fill="white"/>
<path d="M40.3824 43.6728C40.7834 43.6728 41.1085 43.3482 41.1085 42.9477C41.1085 42.5473 40.7834 42.2227 40.3824 42.2227C39.9813 42.2227 39.6562 42.5473 39.6562 42.9477C39.6562 43.3482 39.9813 43.6728 40.3824 43.6728Z" fill="white"/>
</g>
<defs>
<clipPath id="clip0_50_6273">
<rect width="47.5913" height="48.5393" fill="white"/>
</clipPath>
</defs>
</svg>
