<svg width="37" height="49" viewBox="0 0 37 49" fill="none" xmlns="http://www.w3.org/2000/svg">
<g clip-path="url(#clip0_50_6258)">
<path d="M35.8016 10.2008C35.6861 9.35116 35.2368 8.64497 34.5691 8.2633C33.9015 7.88162 33.0651 7.8528 32.2743 8.18461C31.5477 8.48931 30.9102 9.06732 30.4748 9.81361L26.2965 15.9043L25.025 15.252L25.0771 14.9749C25.2315 14.1542 25.0145 13.315 24.4814 12.6722C24.0618 12.1662 23.4859 11.8311 22.8527 11.7109V10.6137C24.0619 9.68591 24.8435 8.22727 24.8435 6.58879V4.50313C24.8435 2.02015 22.8234 0 20.3404 0H19.2028C16.7198 0 14.6996 2.02015 14.6996 4.50313V6.58879C14.6996 7.39936 14.8966 8.19731 15.2639 8.91146H12.6916C10.6085 8.91374 8.43581 9.81958 6.57388 11.4621C6.27943 11.7219 6.25127 12.1713 6.51103 12.4657C6.65153 12.6251 6.84758 12.7064 7.04449 12.7064C7.21162 12.7064 7.37942 12.6478 7.51452 12.5287C9.11697 11.1151 10.956 10.3355 12.6924 10.3336H14.7413C14.5318 10.7294 14.4155 11.1817 14.4223 11.6608H13.3289C12.1448 11.6295 10.8097 12.4142 10.4139 13.7021C10.1473 14.5132 10.2264 15.4107 10.6313 16.1646L12.2362 19.1533C12.1784 19.3477 11.6918 27.5787 11.6638 27.7656C8.4123 27.6475 6.23449 26.6412 4.84174 24.6249C2.67076 21.4872 3.73255 17.558 5.45019 14.9272C5.66492 14.5984 5.57239 14.1578 5.24352 13.9431C4.91474 13.7284 4.474 13.8209 4.25946 14.1498C3.11007 15.9102 2.41479 17.8451 2.24898 19.7453C2.06487 21.8551 2.557 23.8222 3.67197 25.4336C5.31993 27.8194 7.92719 29.0505 11.6278 29.1863C11.6666 29.7741 11.7831 30.3464 11.9722 30.8902L10.372 34.0834L6.06546 33.5C6.06527 33.5 6.06498 33.5 6.06479 33.4999C6.0647 33.4999 6.0647 33.4999 6.0646 33.4999L3.24147 33.1209C2.80235 33.0609 2.36635 33.1755 2.0134 33.4436C1.66045 33.7117 1.43311 34.1011 1.37319 34.5402L0.590785 40.2699C0.463749 41.2765 1.30655 42.2614 2.4985 42.1715C3.27001 42.1715 4.01686 41.9213 4.64171 41.4466C5.2 41.0225 5.61107 40.4563 5.83992 39.8108L11.9107 41.0225C12.0817 41.0566 12.2533 41.0733 12.4235 41.0733C13.1963 41.0733 13.9378 40.7294 14.4392 40.1162L17.5953 36.2567L20.6998 38.3719C20.3089 40.2856 19.3783 44.7055 19.017 46.5534C18.8978 47.1499 19.1 47.7577 19.5448 48.1393C19.8451 48.3971 20.2287 48.539 20.6249 48.539H26.5975C27.5122 48.539 28.2565 47.7947 28.2565 46.88C28.2565 45.2903 27.2077 43.9412 25.7658 43.4878L26.9123 37.1184C27.0288 36.4709 26.8982 35.8088 26.5442 35.2541L22.4383 28.8199C22.4708 28.7582 22.4952 28.6913 22.5086 28.6198L22.9405 26.3254C23.0132 25.9396 22.7592 25.5677 22.3733 25.4951C21.9871 25.4223 21.6157 25.6765 21.5431 26.0623L21.2203 27.7774H17.7749C17.3823 27.7774 17.0639 28.0958 17.0639 28.4884C17.0639 28.8811 17.3823 29.1994 17.7749 29.1994H20.9936L25.3454 36.0193C25.5063 36.2714 25.5657 36.5723 25.5127 36.8666L24.3502 43.3251H21.1282L22.1884 38.1956C22.2465 37.9144 22.1298 37.6258 21.8924 37.4641L15.2541 32.941C13.979 32.0722 13.1872 30.7067 13.0552 29.1995H14.4546C14.8472 29.1995 15.1656 28.8812 15.1656 28.4885C15.1656 28.0959 14.8472 27.7775 14.4546 27.7775H13.0881L13.4945 21.4966L14.7575 23.8486C15.2682 24.8695 16.342 25.5138 17.5186 25.5138C18.3636 25.5403 19.3843 25.1829 19.9712 24.5213C20.5633 23.8754 20.8582 22.9921 20.7807 22.1024L20.252 15.5734C21.4818 15.3163 22.4595 14.3665 22.7579 13.1523C23.0007 13.2319 23.2192 13.3781 23.3867 13.5801C23.6487 13.8961 23.7555 14.3086 23.6795 14.712L22.6136 20.3749C22.6132 20.377 22.6127 20.3791 22.6124 20.3812L22.1624 22.7721C22.0898 23.158 22.3438 23.5298 22.7296 23.6024C22.7741 23.6107 22.8183 23.6148 22.862 23.6148C23.1972 23.6148 23.4956 23.3767 23.5599 23.0352L23.8361 21.568C24.0226 21.6715 25.3551 22.3303 25.4804 22.4233C26.1914 22.8039 26.8586 22.9923 27.4673 22.9922C28.5055 22.9921 29.3735 22.4438 29.9973 21.3645L31.0013 19.705C31.2046 19.3692 31.097 18.9319 30.761 18.7287C30.425 18.5254 29.9879 18.6329 29.7846 18.969L28.7768 20.6348C28.7741 20.6391 28.7715 20.6436 28.7689 20.6481C28.3595 21.3594 27.7395 21.9784 26.2495 21.2208C26.1801 21.1521 24.2368 20.1853 24.1105 20.1106L24.7507 16.7097L26.2043 17.4555C26.3077 17.5086 26.4188 17.534 26.5285 17.534C26.7564 17.534 26.9786 17.4243 27.1152 17.2251L30.3007 12.5818C30.5415 13.0056 30.9228 13.3777 31.4396 13.673C31.8741 13.9214 32.3107 14.0605 32.7324 14.0972L31.5028 16.1296C31.2995 16.4655 31.4071 16.9027 31.7431 17.1059C31.8582 17.1755 31.9851 17.2087 32.1104 17.2087C32.351 17.2087 32.5859 17.0865 32.7195 16.8656C32.7245 16.8568 35.2769 12.6394 35.293 12.6117C35.7286 11.8492 35.9093 10.993 35.8016 10.2008ZM26.8345 46.8802C26.8345 47.0108 26.7281 47.1172 26.5975 47.1172H20.6249C20.5524 47.1172 20.5011 47.0863 20.4708 47.0603C20.4173 47.0143 20.3934 46.9227 20.4115 46.8324L20.8285 44.7471H24.7014C25.8775 44.7471 26.8345 45.704 26.8345 46.8802ZM4.60455 38.9045C4.52747 39.4691 4.23519 39.9697 3.78147 40.3144C3.32784 40.6591 2.76708 40.8065 2.20253 40.7294C2.10071 40.7082 1.97747 40.6494 1.99984 40.4625L2.78225 34.7327C2.79381 34.6481 2.84453 34.5983 2.87364 34.5761C2.89885 34.5569 2.94825 34.5278 3.01679 34.5278C3.0276 34.5278 3.03888 34.5286 3.05073 34.5301L5.16824 34.8144L4.60455 38.9045ZM14.4533 34.1161L16.4156 35.4531L13.3383 39.2162C13.0601 39.5564 12.6197 39.7141 12.189 39.6282L6.10755 38.4145L6.57749 35.0045L10.6844 35.5609C10.9195 35.5892 11.2034 35.4979 11.4156 35.1749L12.7755 32.4613C13.2211 33.0985 13.7851 33.6608 14.4533 34.1161ZM23.3837 7.1104H20.8619C20.3392 7.1104 19.9139 6.68511 19.9139 6.16237C19.9139 5.63963 20.3392 5.21434 20.8619 5.21434H23.4216C23.4052 5.97921 23.4619 6.36553 23.3837 7.1104ZM16.1218 4.50332C16.1218 2.80446 17.504 1.42223 19.2028 1.42223H20.3405C21.7947 1.42223 23.0159 2.4352 23.3379 3.7923H20.8619C19.555 3.7923 18.4918 4.85551 18.4918 6.16237C18.4918 7.46923 19.555 8.53244 20.8619 8.53244H22.8588C22.2117 9.55669 21.0702 10.2389 19.7717 10.2389C19.696 10.2389 19.6203 10.236 19.5447 10.2314C19.0565 9.39998 18.0172 8.77087 16.9284 8.87771C16.4007 8.22319 16.1218 7.43197 16.1218 6.58889V4.50332ZM18.923 23.5603C18.6875 23.8222 18.1738 24.0952 17.5818 24.0905C17.126 24.1184 16.3545 23.8718 16.0156 23.1854L11.8843 15.4919C11.6629 15.0795 11.6194 14.5891 11.7649 14.1463C11.9594 13.5598 12.5648 13.0715 13.329 13.083H14.4634L14.6052 17.9859C14.6166 18.3785 14.9443 18.6867 15.3365 18.6761C15.7291 18.6647 16.038 18.3372 16.0267 17.9447L15.8444 11.6439C15.8293 10.9116 16.4129 10.3035 17.1452 10.2886C17.8385 10.2737 18.4338 10.8077 18.4954 11.497L19.3637 22.2215C19.4064 22.7121 19.2417 23.2127 18.923 23.5603ZM20.1357 14.1357L19.935 11.6568C20.4572 11.6401 20.9595 11.5444 21.4307 11.3808V12.372C21.4307 13.1985 20.8853 13.8998 20.1357 14.1357ZM32.1451 12.4382C31.3674 11.9937 31.2184 11.3767 31.6898 10.5521C31.967 10.0671 32.3805 9.68221 32.8243 9.49602C32.9556 9.44094 33.159 9.37533 33.3825 9.37533C33.5389 9.37533 33.7052 9.40747 33.8634 9.49791C34.2478 9.71757 34.3598 10.1525 34.3924 10.3923C34.4426 10.7495 34.3537 11.4023 34.0415 11.9329C33.578 12.722 32.9403 12.8927 32.1451 12.4382Z" fill="white"/>
</g>
<defs>
<clipPath id="clip0_50_6258">
<rect width="36.4043" height="48.5393" fill="white"/>
</clipPath>
</defs>
</svg>
