<svg width="64" height="65" viewBox="0 0 64 65" fill="none" xmlns="http://www.w3.org/2000/svg">
<g clip-path="url(#clip0_50_4906)">
<path d="M61.2475 64.1707H6.40458C6.29511 64.1224 6.18247 64.0816 6.06744 64.0487C3.23566 63.4435 1.28183 61.7946 0.390061 59.0433C-0.489045 56.3324 0.141516 53.8918 2.04241 51.7757C2.16323 51.6423 2.28175 51.5053 2.40372 51.3684C2.34044 51.3155 2.31512 51.2787 2.28175 51.2683C0.808903 50.7931 0.0379591 49.8875 0.0310551 48.5435C0.0230004 47.0891 0.944684 46.0121 2.24148 45.7129C2.33112 45.6811 2.41163 45.6279 2.476 45.5579C2.54038 45.488 2.58667 45.4033 2.61084 45.3113C2.66492 44.545 2.66608 43.7752 2.68104 43.01C2.69024 42.5106 2.47161 42.2586 1.95611 42.1079C1.35832 41.9312 0.840083 41.5531 0.489389 41.0378C0.138695 40.5224 -0.0228412 39.9016 0.0322069 39.2807C0.147273 37.87 1.0678 36.8194 2.46701 36.6756C3.44047 36.5766 4.43004 36.625 5.41156 36.6054C5.62443 36.6054 5.83846 36.587 6.14683 36.5732C5.9075 36.3074 5.74985 36.144 5.60602 35.9691C3.91915 33.9209 3.35072 31.6184 4.11016 29.0513C4.56079 27.5582 5.47034 26.245 6.70966 25.2981C7.94898 24.3513 9.45509 23.8189 11.0141 23.7766C11.8438 23.7571 12.6745 23.7766 13.4938 23.7766C14.4005 20.7193 15.2808 17.7483 16.1726 14.7405C15.3303 14.5104 14.5674 14.3078 13.8022 14.1076C10.4085 13.2178 7.0152 12.3306 3.62228 11.4461C2.84213 11.2436 2.18395 10.8938 1.8422 10.1056C1.26687 8.76854 1.91584 7.33366 3.34957 6.93553C5.52087 6.33143 7.70713 5.77451 9.88649 5.19918C11.2799 4.83097 12.6699 4.45585 14.0668 4.10145C14.9068 3.88858 15.4822 4.39602 15.3406 5.19113C15.252 5.68936 14.8804 5.83895 14.4535 5.94941C11.4617 6.73186 8.53216 7.76056 5.4898 8.29562C5.3149 8.32668 4.81206 8.41068 4.74993 8.67534C4.74269 8.74556 4.75204 8.8165 4.77723 8.88245C4.80241 8.9484 4.84272 9.00752 4.89491 9.05505C5.00553 9.15135 5.14357 9.21051 5.28959 9.2242C13.1406 11.4622 19.1781 13.1848 27.5572 15.821C31.2727 16.8738 34.7236 16.3065 38.2987 15.1087L33.4475 10.704C32.0931 11.2459 30.8159 10.9801 29.732 10.0573C28.9265 9.36688 28.6043 7.77897 28.7228 6.84578C28.8943 5.50871 30.2647 4.1843 31.7525 4.14172C33.2404 4.09915 34.4267 4.99551 34.7949 6.43499C34.9904 7.31424 34.8527 8.23476 34.4083 9.01823C36.1423 10.5613 38.3481 12.5853 40.0465 14.1686C40.4101 14.5138 40.7208 14.5345 41.1592 14.4183C45.1528 13.3551 49.1498 12.3015 53.1503 11.2574C55.2502 10.7051 56.9406 10.1298 59.0348 9.55559C59.2499 9.49576 59.5928 9.29324 59.6101 9.09533C59.5629 8.79615 59.2937 8.71906 59.0279 8.63506C58.4848 8.48548 43.6642 4.95294 35.926 2.85528C33.1195 2.09584 30.5374 2.31102 27.6953 2.85528C24.9648 3.37998 22.6105 4.04737 19.9214 4.73891C19.1505 4.93798 18.2161 4.74812 18.0804 4.09569C17.9653 3.55488 18.4658 2.95999 19.1781 2.75977C23.08 1.65974 24.6184 1.3226 27.693 0.51713C30.1738 -0.121192 32.7697 -0.169271 35.2724 0.376749C40.1432 1.45492 44.7642 2.86448 49.5096 4.1095C52.9616 5.01546 56.4136 5.92103 59.8656 6.82622C60.5985 7.01723 61.2463 7.3141 61.61 8.02751C62.3119 9.38529 61.6537 10.9421 60.1452 11.3529C57.1638 12.1653 54.1721 12.9362 51.1849 13.7244C49.9192 14.0581 48.6535 14.3941 47.3475 14.7393C48.2496 17.7794 49.1333 20.7538 50.0274 23.7651H50.7465C52.7752 23.7651 54.8038 23.7536 56.8324 23.7651C58.4617 23.7789 59.5503 24.8191 59.6147 26.3794C59.6849 28.0732 58.6746 29.2757 57.0556 29.431C56.9406 29.4425 56.8255 29.4736 56.6886 29.4989C56.4113 30.6162 56.3859 31.6944 56.7104 32.7852C57.883 32.8301 58.7736 33.303 59.3328 34.2972C59.892 35.2913 59.8218 36.2878 59.2419 37.2716C61.549 38.4902 62.985 40.3174 63.3912 42.8731C63.802 45.454 62.8941 47.6069 61.0622 49.4318L61.3073 49.517C62.7042 49.9773 63.4821 50.93 63.4809 52.2452C63.4809 53.733 62.4937 54.7882 61.3085 55.0379C61.2161 55.067 61.1318 55.117 61.0619 55.1841C60.9921 55.2511 60.9386 55.3334 60.9058 55.4245C60.6682 56.4312 60.694 57.4822 60.9805 58.4761L61.4638 58.6302C62.9908 59.1124 63.7732 60.5231 63.3774 62.0822C63.0886 63.2145 62.2693 63.7898 61.2475 64.1707ZM16.7444 53.2198C16.9424 53.2302 46.0024 53.2486 60.3684 53.2463C61.1439 53.2463 61.5961 52.9011 61.61 52.3062C61.6238 51.6998 61.1635 51.3408 60.3442 51.3396C57.7299 51.3396 55.1156 51.3396 52.5013 51.3396C51.9999 51.3562 51.4979 51.3473 50.9974 51.3132C50.4853 51.2614 50.2391 50.9024 50.2241 50.403C50.2125 50.1706 50.2927 49.9429 50.4475 49.7692C50.6023 49.5954 50.8193 49.4895 51.0515 49.4744C51.239 49.4593 51.4272 49.4539 51.6153 49.4583C53.0789 49.4583 54.5437 49.4767 56.0074 49.4583C59.5744 49.4031 62.1163 46.3941 61.5064 42.9743C61.0358 40.3278 58.7172 38.4948 55.806 38.4948C38.3021 38.4902 20.7978 38.4902 3.29318 38.4948C3.16776 38.4948 3.04234 38.4948 2.91692 38.4948C2.30247 38.5454 1.89168 38.9447 1.90434 39.474C1.91815 39.9837 2.31167 40.3612 2.89735 40.4072C3.12749 40.4256 3.35762 40.4141 3.58775 40.4141H55.4102C55.7232 40.4141 56.0373 40.4141 56.3503 40.4313C57.1076 40.4715 57.832 40.7536 58.417 41.2362C59.0019 41.7189 59.4165 42.3765 59.5998 43.1124C59.7785 43.8496 59.7188 44.6244 59.4294 45.3255C59.1399 46.0267 58.6356 46.6179 57.9888 47.0143C57.2616 47.4642 56.4653 47.5367 55.638 47.5367C42.9658 47.5367 17.0459 47.5367 16.7606 47.5367V49.4583H45.5271C45.778 49.4583 46.03 49.4525 46.2785 49.4767C46.7756 49.5239 47.0242 49.8415 47.0541 50.3086C47.084 50.7758 46.9045 51.1452 46.4293 51.2718C46.1646 51.3277 45.894 51.3497 45.6238 51.3373C36.2758 51.3373 17.0471 51.3373 16.7421 51.3373L16.7444 53.2198ZM58.9266 55.1299H58.5642C44.5123 55.1299 30.46 55.1326 16.4073 55.138C16.14 55.1448 15.8777 55.2116 15.6398 55.3336C14.4293 55.9469 13.2326 56.589 12.0279 57.2138C10.9923 57.7488 10.3778 57.368 10.3617 56.1966C10.3617 55.8652 10.3617 55.535 10.3617 55.161C9.22601 55.161 8.14093 55.1046 7.06506 55.1805C6.29872 55.2358 5.73374 55.986 5.70267 56.7593C5.68783 57.1391 5.80503 57.5123 6.03432 57.8154C6.26362 58.1185 6.59085 58.3329 6.96035 58.422C7.26621 58.487 7.57863 58.516 7.89124 58.5083C24.6825 58.5129 41.4741 58.5129 58.2661 58.5083H58.9312L58.9266 55.1299ZM37.0111 25.6476H11.7241C11.4525 25.6476 11.1798 25.6476 10.9083 25.6614C7.32742 25.8709 4.8788 29.3309 5.90634 32.7288C6.62781 35.1153 8.73007 36.5996 11.4364 36.6008C21.0337 36.6054 30.6314 36.6054 40.2295 36.6008C45.6867 36.6008 51.1443 36.6008 56.6023 36.6008C57.4204 36.6008 57.8059 36.2867 57.7978 35.6584C57.7898 35.0301 57.3928 34.7022 56.6023 34.6941H11.8127C11.4779 34.6941 11.1419 34.701 10.8093 34.6757C8.87275 34.5342 7.35733 32.6736 7.60357 30.7543C7.85787 28.7912 9.32957 27.5589 11.4433 27.5577C19.6192 27.5577 27.795 27.5577 35.9709 27.5577C36.2332 27.5577 36.575 27.5681 36.827 27.5681C36.9006 26.8627 36.9512 26.1551 37.0111 25.6476ZM37.3919 23.7467C37.5289 22.9988 38.2158 21.5236 39.2629 21.1635C39.3205 19.2568 39.3239 17.9244 39.3239 17.5331C38.1997 17.8277 37.1825 18.0624 36.1861 18.3616C33.2427 19.2488 30.3177 19.22 27.3628 18.3743C24.2744 17.4929 21.5024 16.6126 18.337 15.783C17.4901 18.6343 16.8825 20.8816 16.0356 23.7467H37.3919ZM36.6222 29.4713C36.407 29.4586 36.2436 29.4402 36.0802 29.4402C27.8614 29.4402 19.643 29.4402 11.4249 29.4402C11.1954 29.4387 10.9665 29.4634 10.7426 29.5139C10.3619 29.6024 10.0249 29.823 9.7915 30.1364C9.55808 30.4499 9.44334 30.836 9.46765 31.226C9.49131 31.6157 9.64986 31.985 9.91609 32.2706C10.1823 32.5561 10.5396 32.7401 10.9267 32.7909C11.1562 32.8117 11.3867 32.8186 11.6171 32.8117H54.6519V29.4747C51.1021 29.4747 47.2992 29.4402 43.7206 29.4402C43.7045 29.5748 43.7148 29.7118 43.7079 29.813C43.6354 30.8739 43.6193 31.0937 42.5849 31.0949C40.9544 31.0949 39.3228 31.1018 37.6923 31.0949C37.0145 31.0949 36.7441 30.8348 36.6567 30.1743C36.6348 29.9603 36.6371 29.7509 36.6233 29.4713H36.6222ZM10.3364 51.3627C9.21795 51.3627 8.15013 51.327 7.09728 51.3696C4.24248 51.4846 1.91124 53.9298 1.89858 56.7926C1.88362 59.8695 4.34604 62.2882 7.53683 62.2894C25.1274 62.2955 42.7176 62.2955 60.3074 62.2894C60.4745 62.2969 60.642 62.29 60.8079 62.2686C61.039 62.2363 61.2491 62.1174 61.3958 61.9361C61.5426 61.7547 61.615 61.5244 61.5985 61.2917C61.5467 60.7728 61.2648 60.4425 60.7193 60.4011C60.4892 60.3839 60.2591 60.3919 60.0289 60.3919C42.6923 60.3919 25.3533 60.3919 8.01206 60.3919C7.5523 60.3957 7.09316 60.3572 6.64047 60.2768C4.99847 59.9719 3.88808 58.613 3.83975 56.895C3.79257 55.1955 4.84773 53.7353 6.48627 53.3982C7.23305 53.244 8.02126 53.2831 8.7876 53.2543C9.29735 53.2359 9.80939 53.2543 10.3375 53.2543L10.3364 51.3627ZM16.7467 45.6565C17.0287 45.6565 42.9048 45.6565 55.5966 45.6565C55.868 45.6635 56.1396 45.6496 56.409 45.6151C57.1742 45.5 57.6747 44.9638 57.7782 44.1975C57.9301 43.0284 57.1488 42.3 55.7243 42.3C42.952 42.3 16.9608 42.3253 16.7467 42.3391V45.6565ZM41.2087 16.929C41.2087 18.5066 41.2271 21.0473 41.3088 21.0979C42.2477 21.4765 43.1199 22.8181 43.174 23.7513C44.839 23.7513 45.32 23.7513 47.0184 23.7513C46.1681 20.8873 45.5594 18.8702 44.7171 16.0269C43.2396 16.4066 42.6401 16.547 41.2087 16.9244V16.929ZM43.5365 25.6741C43.6375 26.2962 43.6711 26.9273 43.6366 27.5566C43.7517 27.5819 52.5301 27.5566 56.7749 27.5566C57.4354 27.5566 57.8634 27.1412 57.8438 26.5866C57.8243 26.0112 57.3836 25.6557 56.6575 25.6557C52.4123 25.6511 48.1671 25.6511 43.922 25.6557C43.8207 25.6488 43.7206 25.6603 43.5365 25.6718V25.6741ZM10.3364 42.3368H4.58308V45.5932H10.3364V42.3368ZM10.3145 47.5896C10.1557 47.5678 5.36668 47.5332 3.08837 47.5378C2.92363 47.5344 2.75938 47.5569 2.60164 47.6046C2.43512 47.6562 2.28619 47.753 2.17141 47.8843C2.05664 48.0155 1.98052 48.176 1.95151 48.3479C1.89513 48.6333 2.06658 49.0268 2.27945 49.2075C2.49232 49.3881 2.89391 49.4433 3.21264 49.4456C5.31951 49.4652 10.0246 49.456 10.3111 49.456L10.3145 47.5896Z" fill="url(#paint0_linear_50_4906)"/>
</g>
<defs>
<linearGradient id="paint0_linear_50_4906" x1="31.7444" y1="0" x2="31.7444" y2="64.1707" gradientUnits="userSpaceOnUse">
<stop stop-color="#092199"/>
<stop offset="1" stop-color="#DD57FF"/>
</linearGradient>
<clipPath id="clip0_50_4906">
<rect width="63.4879" height="64.1702" fill="white"/>
</clipPath>
</defs>
</svg>
