<svg width="19" height="35" viewBox="0 0 19 35" fill="none" xmlns="http://www.w3.org/2000/svg">
<g clip-path="url(#clip0_50_5030)">
<path d="M3.35938 2.25781H15.6535V30.4836H3.35938V2.25781Z" fill="#3E3D42"/>
<path d="M9.50138 19.7586C11.3532 19.7586 12.8543 18.2421 12.8543 16.3715C12.8543 14.5008 11.3532 12.9844 9.50138 12.9844C7.6496 12.9844 6.14844 14.5008 6.14844 16.3715C6.14844 18.2421 7.6496 19.7586 9.50138 19.7586Z" fill="#FFDA44"/>
<path d="M9.50138 10.7254C11.3532 10.7254 12.8543 9.20891 12.8543 7.33827C12.8543 5.46763 11.3532 3.95117 9.50138 3.95117C7.6496 3.95117 6.14844 5.46763 6.14844 7.33827C6.14844 9.20891 7.6496 10.7254 9.50138 10.7254Z" fill="#D80027"/>
<path d="M9.50138 28.7898C11.3532 28.7898 12.8543 27.2734 12.8543 25.4027C12.8543 23.5321 11.3532 22.0156 9.50138 22.0156C7.6496 22.0156 6.14844 23.5321 6.14844 25.4027C6.14844 27.2734 7.6496 28.7898 9.50138 28.7898Z" fill="#91CC04"/>
<path d="M6.99081 0.564453H12.0202C12.3907 0.564453 12.7461 0.713142 13.0081 0.977811C13.2701 1.24248 13.4173 1.60145 13.4173 1.97574V2.258H5.59375V1.97574C5.59375 1.60145 5.74094 1.24248 6.00294 0.977811C6.26494 0.713142 6.62029 0.564453 6.99081 0.564453Z" fill="#2D2D30"/>
<path d="M7.26562 30.4844H11.7362V34.436H7.26562V30.4844Z" fill="#2D2D30"/>
<path d="M17.3249 10.7254H15.6484V3.95117H18.4426L17.3249 10.7254Z" fill="#2D2D30"/>
<path d="M17.3249 20.323H15.6484V13.5488H18.4426L17.3249 20.323Z" fill="#2D2D30"/>
<path d="M17.3249 29.3543H15.6484V22.5801H18.4426L17.3249 29.3543Z" fill="#2D2D30"/>
<path d="M1.68015 10.7254H3.35662V3.95117H0.5625L1.68015 10.7254Z" fill="#2D2D30"/>
<path d="M1.68015 20.323H3.35662V13.5488H0.5625L1.68015 20.323Z" fill="#2D2D30"/>
<path d="M1.68015 29.3543H3.35662V22.5801H0.5625L1.68015 29.3543Z" fill="#2D2D30"/>
<path d="M9.4977 12.4199C8.72403 12.4199 7.96773 12.6517 7.32444 13.0859C6.68116 13.5201 6.17978 14.1373 5.8837 14.8593C5.58763 15.5814 5.51017 16.3759 5.6611 17.1425C5.81204 17.909 6.1846 18.6131 6.73167 19.1657C7.27874 19.7184 7.97575 20.0947 8.73456 20.2472C9.49336 20.3997 10.2799 20.3214 10.9947 20.0223C11.7095 19.7233 12.3204 19.2168 12.7502 18.5669C13.18 17.9171 13.4095 17.1531 13.4095 16.3715C13.4083 15.3239 12.9958 14.3194 12.2625 13.5786C11.5291 12.8378 10.5348 12.4211 9.4977 12.4199ZM9.4977 19.1941C8.94508 19.1941 8.40487 19.0286 7.94538 18.7184C7.48589 18.4083 7.12776 17.9674 6.91628 17.4517C6.7048 16.9359 6.64946 16.3684 6.75727 15.8209C6.86509 15.2733 7.1312 14.7704 7.52196 14.3757C7.91273 13.9809 8.41059 13.7121 8.9526 13.6032C9.4946 13.4943 10.0564 13.5502 10.567 13.7638C11.0775 13.9774 11.5139 14.3392 11.8209 14.8034C12.128 15.2676 12.2918 15.8133 12.2918 16.3715C12.291 17.1199 11.9963 17.8373 11.4725 18.3665C10.9487 18.8956 10.2385 19.1933 9.4977 19.1941Z" fill="black"/>
<path d="M9.4977 3.38672C8.72403 3.38672 7.96773 3.61848 7.32444 4.05269C6.68116 4.48689 6.17978 5.10405 5.8837 5.82611C5.58763 6.54818 5.51017 7.34272 5.6611 8.10925C5.81204 8.87579 6.1846 9.5799 6.73167 10.1325C7.27874 10.6852 7.97575 11.0615 8.73456 11.214C9.49336 11.3665 10.2799 11.2882 10.9947 10.9891C11.7095 10.6901 12.3204 10.1836 12.7502 9.53373C13.18 8.88389 13.4095 8.11989 13.4095 7.33833C13.4083 6.29066 12.9958 5.28624 12.2625 4.54542C11.5291 3.8046 10.5348 3.3879 9.4977 3.38672ZM9.4977 10.1609C8.94508 10.1609 8.40487 9.99537 7.94538 9.68522C7.48589 9.37507 7.12776 8.93425 6.91628 8.41849C6.7048 7.90273 6.64946 7.3352 6.75727 6.78767C6.86509 6.24015 7.1312 5.73721 7.52196 5.34247C7.91273 4.94772 8.41059 4.6789 8.9526 4.56999C9.4946 4.46108 10.0564 4.51697 10.567 4.73061C11.0775 4.94424 11.5139 5.30602 11.8209 5.77019C12.128 6.23436 12.2918 6.78008 12.2918 7.33833C12.291 8.08667 11.9963 8.80411 11.4725 9.33327C10.9487 9.86242 10.2385 10.1601 9.4977 10.1609Z" fill="black"/>
<path d="M9.4977 21.4512C8.72403 21.4512 7.96773 21.6829 7.32444 22.1171C6.68116 22.5513 6.17978 23.1685 5.8837 23.8906C5.58763 24.6126 5.51017 25.4072 5.6611 26.1737C5.81204 26.9402 6.1846 27.6444 6.73167 28.197C7.27874 28.7496 7.97575 29.126 8.73456 29.2785C9.49336 29.4309 10.2799 29.3527 10.9947 29.0536C11.7095 28.7545 12.3204 28.248 12.7502 27.5982C13.18 26.9483 13.4095 26.1843 13.4095 25.4028C13.4083 24.3551 12.9958 23.3507 12.2625 22.6099C11.5291 21.8691 10.5348 21.4523 9.4977 21.4512ZM9.4977 28.2254C8.94508 28.2254 8.40487 28.0598 7.94538 27.7497C7.48589 27.4395 7.12776 26.9987 6.91628 26.4829C6.7048 25.9672 6.64946 25.3997 6.75727 24.8521C6.86509 24.3046 7.1312 23.8017 7.52196 23.4069C7.91273 23.0122 8.41059 22.7433 8.9526 22.6344C9.4946 22.5255 10.0564 22.5814 10.567 22.7951C11.0775 23.0087 11.5139 23.3705 11.8209 23.8346C12.128 24.2988 12.2918 24.8445 12.2918 25.4028C12.291 26.1511 11.9963 26.8686 11.4725 27.3977C10.9487 27.9269 10.2385 28.2245 9.4977 28.2254Z" fill="black"/>
<path d="M17.3234 20.8871C17.4556 20.8871 17.5836 20.8397 17.6845 20.7534C17.7854 20.6671 17.8527 20.5475 17.8746 20.4157L18.9922 13.6415C19.0055 13.5607 19.0012 13.4778 18.9797 13.3988C18.9581 13.3197 18.9198 13.2464 18.8673 13.1838C18.8149 13.1212 18.7496 13.0709 18.676 13.0364C18.6024 13.0019 18.5222 12.984 18.4411 12.9839H16.2058V11.2903H17.3234C17.4556 11.2903 17.5836 11.243 17.6845 11.1566C17.7854 11.0703 17.8527 10.9507 17.8746 10.819L18.9922 4.04476C19.0055 3.96388 19.0012 3.88105 18.9797 3.80201C18.9581 3.72297 18.9198 3.64961 18.8673 3.58704C18.8149 3.52446 18.7496 3.47417 18.676 3.43964C18.6024 3.40511 18.5222 3.38718 18.4411 3.3871H16.2058V2.25806C16.2058 2.10835 16.1469 1.96476 16.0421 1.85889C15.9373 1.75302 15.7952 1.69355 15.6469 1.69355H13.9502C13.8824 1.2236 13.6496 0.793957 13.2943 0.483041C12.9389 0.172124 12.4847 0.000677924 12.0146 0H6.98518C6.51507 0.000677924 6.06087 0.172124 5.70551 0.483041C5.35015 0.793957 5.11733 1.2236 5.04956 1.69355H3.35283C3.20462 1.69355 3.06248 1.75302 2.95768 1.85889C2.85288 1.96476 2.794 2.10835 2.794 2.25806V3.3871H0.558711C0.477551 3.38718 0.397383 3.40511 0.323771 3.43964C0.250159 3.47417 0.184867 3.52446 0.132428 3.58704C0.0799887 3.64961 0.0416581 3.72297 0.0200974 3.80201C-0.00146323 3.88105 -0.00573743 3.96388 0.0075713 4.04476L1.12522 10.819C1.14703 10.9507 1.21438 11.0703 1.31529 11.1566C1.4162 11.243 1.54414 11.2903 1.67636 11.2903H2.794V12.9839H0.558711C0.477551 12.984 0.397383 13.0019 0.323771 13.0364C0.250159 13.0709 0.184867 13.1212 0.132428 13.1838C0.0799887 13.2464 0.0416581 13.3197 0.0200974 13.3988C-0.00146323 13.4778 -0.00573743 13.5607 0.0075713 13.6415L1.12522 20.4157C1.14703 20.5475 1.21438 20.6671 1.31529 20.7534C1.4162 20.8397 1.54414 20.8871 1.67636 20.8871H2.794V22.0161H0.558711C0.477551 22.0162 0.397383 22.0341 0.323771 22.0687C0.250159 22.1032 0.184867 22.1535 0.132428 22.2161C0.0799887 22.2786 0.0416581 22.352 0.0200974 22.431C-0.00146323 22.5101 -0.00573743 22.5929 0.0075713 22.6738L1.12522 29.448C1.14703 29.5797 1.21438 29.6994 1.31529 29.7857C1.4162 29.872 1.54414 29.9193 1.67636 29.9194H2.794V30.4839C2.794 30.6336 2.85288 30.7772 2.95768 30.883C3.06248 30.9889 3.20462 31.0484 3.35283 31.0484H6.70577V34.4355C6.70577 34.5852 6.76464 34.7288 6.86944 34.8347C6.97424 34.9405 7.11638 35 7.26459 35H11.7352C11.8834 35 12.0255 34.9405 12.1303 34.8347C12.2351 34.7288 12.294 34.5852 12.294 34.4355V31.0484H15.6469C15.7952 31.0484 15.9373 30.9889 16.0421 30.883C16.1469 30.7772 16.2058 30.6336 16.2058 30.4839V29.9194H17.3234C17.4556 29.9193 17.5836 29.872 17.6845 29.7857C17.7854 29.6994 17.8527 29.5797 17.8746 29.448L18.9922 22.6738C19.0055 22.5929 19.0012 22.5101 18.9797 22.431C18.9581 22.352 18.9198 22.2786 18.8673 22.2161C18.8149 22.1535 18.7496 22.1032 18.676 22.0687C18.6024 22.0341 18.5222 22.0162 18.4411 22.0161H16.2058V20.8871H17.3234ZM16.2058 4.51613H17.7816L16.8498 10.1613H16.2058V4.51613ZM16.2058 14.1129H17.7816L16.8498 19.7581H16.2058V14.1129ZM2.794 28.7903H2.14996L1.21812 23.1452H2.794V28.7903ZM2.794 19.7581H2.14996L1.21812 14.1129H2.794V19.7581ZM2.794 10.1613H2.14996L1.21812 4.51613H2.794V10.1613ZM6.98518 1.12903H12.0146C12.1879 1.12923 12.3568 1.1836 12.4983 1.28467C12.6397 1.38575 12.7467 1.52858 12.8046 1.69355H6.19514C6.25303 1.52858 6.36005 1.38575 6.50151 1.28467C6.64296 1.1836 6.81192 1.12923 6.98518 1.12903ZM11.1764 33.871H7.82342V31.0484H11.1764V33.871ZM15.0881 29.9194H3.91165V2.82258H15.0881V29.9194ZM17.7816 23.1452L16.8498 28.7903H16.2058V23.1452H17.7816Z" fill="black"/>
</g>
<defs>
<clipPath id="clip0_50_5030">
<rect width="19" height="35" fill="white"/>
</clipPath>
</defs>
</svg>
