<svg width="49" height="33" viewBox="0 0 49 33" fill="none" xmlns="http://www.w3.org/2000/svg">
<g clip-path="url(#clip0_50_6266)">
<path d="M43.4376 21.545L40.7559 20.4249C39.7965 20.0241 38.6813 20.4011 38.1614 21.3009L37.9521 21.6631C37.7944 21.9369 37.7517 22.2574 37.834 22.5629C37.9164 22.8695 38.1128 23.1255 38.3867 23.2832L41.2966 24.9639C41.5248 25.0958 41.7777 25.1623 42.0337 25.1623C42.1627 25.1623 42.2927 25.1454 42.4207 25.1107C42.8036 25.0085 43.1231 24.7635 43.3205 24.4212L44.0071 23.2326C44.1797 22.933 44.2144 22.5877 44.1033 22.2593C43.9942 21.9319 43.757 21.678 43.4376 21.545ZM42.2907 23.8259C42.2391 23.9162 42.1577 23.9489 42.1131 23.9608C42.0694 23.9727 41.9821 23.9847 41.8918 23.9321L38.9829 22.2574L39.1923 21.8952C39.356 21.6125 39.6457 21.4517 39.9512 21.4517C40.0663 21.4517 40.1834 21.4746 40.2965 21.5222L42.9743 22.6403L42.2907 23.8259ZM29.6351 14.0038L27.3244 12.2408C27.0496 12.0315 26.7113 11.9531 26.372 12.0206C26.0327 12.089 25.7509 12.2914 25.5783 12.5911L24.8917 13.7796C24.6943 14.1219 24.6417 14.5207 24.7439 14.9037C24.8461 15.2867 25.0911 15.6061 25.4334 15.8036L28.3443 17.4842C28.5309 17.5914 28.7342 17.643 28.9356 17.643C29.3464 17.643 29.7452 17.4307 29.9655 17.0497L30.1748 16.6875C30.6937 15.7887 30.4615 14.6348 29.6351 14.0038ZM29.142 16.0933L28.9386 16.4534L26.0277 14.7727C25.9374 14.7212 25.9047 14.6398 25.8928 14.5951C25.8809 14.5515 25.869 14.4642 25.9216 14.3739L26.6061 13.1893L28.9128 14.9483C29.271 15.2232 29.3672 15.7043 29.142 16.0933ZM47.5867 18.5736L46.1193 17.7263C45.7473 17.512 45.3266 17.4485 44.9297 17.518L45.0796 15.5337C45.1847 14.1398 44.525 12.8907 43.3146 12.1912L35.4867 7.67109C34.2763 6.97263 32.8645 7.02521 31.7096 7.81296L30.0667 8.93407C29.9278 8.55607 29.6629 8.22271 29.2908 8.00742L27.8235 7.16014C27.5496 7.00239 27.2302 6.95973 26.9236 7.04208C26.617 7.12443 26.3611 7.32087 26.2033 7.59469L25.9404 8.05008C25.6577 8.5392 25.7658 9.14737 26.1646 9.51545C25.0386 9.75257 24.0425 10.4292 23.4383 11.4749L20.3071 16.8979C20.2277 17.0348 20.2069 17.1975 20.2476 17.3493C20.2883 17.5021 20.3885 17.6321 20.5254 17.7104L20.6454 17.7799L20.2664 18.4367C19.7297 19.3673 20.0492 20.5608 20.9798 21.0986L21.6584 21.4904C21.964 21.667 22.2993 21.7514 22.6297 21.7514C23.3033 21.7514 23.9601 21.4021 24.3203 20.7771L24.6993 20.1203L37.9263 27.7577L37.5473 28.4145C37.0106 29.3451 37.33 30.5386 38.2607 31.0764L38.9393 31.4683C39.2379 31.6409 39.5703 31.7292 39.9076 31.7292C40.0772 31.7292 40.2489 31.7064 40.4175 31.6617C40.9215 31.5268 41.3412 31.2054 41.6012 30.7559L41.9801 30.0991L42.1002 30.1686C42.1935 30.2222 42.2966 30.248 42.3968 30.248C42.6022 30.248 42.8026 30.1408 42.9127 29.9503L46.0439 24.5273C46.6501 23.4777 46.7414 22.2792 46.3872 21.1878C46.5003 21.2216 46.6154 21.2404 46.7295 21.2404C47.1402 21.2404 47.539 21.0281 47.7593 20.6471L48.0222 20.1917C48.3486 19.6282 48.1532 18.901 47.5867 18.5736ZM32.3793 8.79815C33.1472 8.2743 34.0858 8.23859 34.8904 8.70389L42.7183 13.224C43.5229 13.6883 43.9614 14.5188 43.892 15.4454L43.6826 18.2234C39.1208 15.2301 34.5541 12.5911 30.0835 10.3647L32.3793 8.79815ZM27.2272 8.19394L28.6946 9.04122C28.9218 9.17218 29.0289 9.43608 28.9724 9.68213L28.8791 9.74563L26.9702 8.64734L27.2272 8.19394ZM23.2875 20.1848C23.0781 20.5469 22.6138 20.6709 22.2517 20.4626L21.5731 20.0707C21.2109 19.8614 21.0869 19.3971 21.2953 19.0349L21.6743 18.3781L23.6655 19.528L23.2875 20.1848ZM40.5693 30.1616C40.4691 30.3353 40.3054 30.4603 40.109 30.5129C39.9125 30.5654 39.7082 30.5396 39.5345 30.4384L38.8559 30.0466C38.4938 29.8372 38.3698 29.3729 38.5781 29.0108L38.9571 28.354L40.9483 29.5039L40.5693 30.1616ZM45.0121 23.9341L42.1786 28.8411L21.6346 16.9802L24.4681 12.0732C25.2707 10.6832 27.0665 10.2149 28.645 10.9838C33.6354 13.4125 38.7587 16.3701 43.8701 19.7741C45.3296 20.7454 45.8207 22.5342 45.0121 23.9341ZM46.7334 20.0528L44.8226 18.9496L44.8315 18.8375C45.0161 18.6649 45.2988 18.6262 45.526 18.7581L46.9914 19.5994L46.7334 20.0528ZM19.4946 23.5947H19.4479V20.3753C19.4479 19.0091 18.3367 17.8979 16.9706 17.8979H10.1497L3.39231 10.7447C2.90815 10.2328 2.28113 9.96191 1.57672 9.96191H0.954652C0.626257 9.96191 0.359375 10.2288 0.359375 10.5572V27.5762C0.359375 27.9045 0.626257 28.1714 0.954652 28.1714H7.91046C8.19818 28.1714 8.44522 27.9651 8.49681 27.6813C8.81131 25.9282 10.3342 24.6563 12.1191 24.6563C13.9029 24.6563 15.4258 25.9282 15.7403 27.6813C15.7909 27.9651 16.038 28.1714 16.3267 28.1714H19.4955C20.7575 28.1714 21.7844 27.1446 21.7844 25.8826C21.7844 24.6206 20.7565 23.5947 19.4946 23.5947ZM1.54993 13.6993L4.89836 17.2441H1.54993V13.6993ZM19.4946 26.9819H16.797C16.2027 24.9182 14.3087 23.4668 12.1171 23.4668C9.92547 23.4668 8.0315 24.9172 7.43722 26.9819H1.54993V18.4347H6.2794C6.51751 18.4347 6.73181 18.2938 6.82607 18.0755C6.92032 17.8573 6.87567 17.6043 6.71197 17.4307L1.83169 12.2646C1.74339 12.1714 1.64914 12.09 1.54894 12.0176V11.1535H1.57572C1.95472 11.1535 2.26625 11.2874 2.52618 11.5632L9.46017 18.903C9.57228 19.022 9.72903 19.0895 9.89273 19.0895H16.9706C17.6799 19.0895 18.2574 19.6669 18.2574 20.3763V24.191C18.2574 24.5194 18.5243 24.7863 18.8526 24.7863H19.4946C20.0997 24.7863 20.5928 25.2784 20.5928 25.8846C20.5928 26.4908 20.1007 26.9819 19.4946 26.9819ZM12.1181 24.944C10.2469 24.944 8.725 26.466 8.725 28.3371C8.725 30.2083 10.2469 31.7302 12.1181 31.7302C13.9892 31.7302 15.5112 30.2083 15.5112 28.3371C15.5112 26.466 13.9892 24.944 12.1181 24.944ZM12.1181 30.5396C10.9037 30.5396 9.91555 29.5515 9.91555 28.3371C9.91555 27.1228 10.9037 26.1346 12.1181 26.1346C13.3324 26.1346 14.3206 27.1228 14.3206 28.3371C14.3206 29.5515 13.3324 30.5396 12.1181 30.5396ZM6.59589 7.37841C6.47386 7.14526 6.5195 6.85953 6.708 6.67598C6.89651 6.49244 7.18323 6.45375 7.41341 6.58173L10.9801 8.56698L12.1855 1.50303C12.2312 1.23614 12.4514 1.03276 12.7223 1.00994C12.9931 0.98712 13.2441 1.14983 13.3344 1.4058L15.0776 6.35553L17.2871 3.65793C17.4458 3.46446 17.7077 3.39105 17.9429 3.47339C18.179 3.55574 18.3387 3.77599 18.3427 4.02502L18.4002 7.38436L22.3846 5.05485C22.6118 4.92289 22.8985 4.95365 23.09 5.13322C23.2815 5.3128 23.3351 5.59555 23.219 5.83168L20.2267 11.9293C20.0819 12.225 19.7257 12.346 19.4301 12.2011C19.1354 12.0563 19.0134 11.6991 19.1582 11.4045L21.2804 7.07978L18.1224 8.92613C17.9399 9.03328 17.7147 9.03526 17.5301 8.93109C17.3456 8.82791 17.2305 8.63345 17.2265 8.42213L17.1799 5.66699L15.3276 7.92805C15.1917 8.09473 14.9754 8.1741 14.7641 8.13739C14.5528 8.09969 14.3772 7.95186 14.3057 7.74847L12.9733 3.96549L12.0129 9.59681C11.9802 9.7873 11.8571 9.95001 11.6835 10.0333C11.5099 10.1167 11.3055 10.1107 11.1369 10.0165L8.57618 8.59178L10.5317 12.3252C10.6845 12.6168 10.5714 12.976 10.2807 13.1288C10.1924 13.1754 10.0981 13.1972 10.0048 13.1972C9.79055 13.1972 9.58319 13.0812 9.47703 12.8778L6.59589 7.37841Z" fill="white"/>
</g>
<defs>
<clipPath id="clip0_50_6266">
<rect width="48.5393" height="32.7358" fill="white"/>
</clipPath>
</defs>
</svg>
