<svg width="24" height="32" viewBox="0 0 24 32" fill="none" xmlns="http://www.w3.org/2000/svg">
<g clip-path="url(#clip0_864_9130)">
<path d="M12.4411 0C12.7492 0.0391943 13.0573 0.0740323 13.3654 0.117582C16.8494 0.609688 19.6202 2.29505 21.5778 5.1976C23.6311 8.23843 24.1755 11.5602 23.0769 15.1127C22.6345 16.5123 21.9968 17.8424 21.1825 19.0637C18.5587 23.0557 15.9258 27.0416 13.2838 31.0212C13.0875 31.3266 12.8312 31.5889 12.5304 31.7921C11.9381 32.172 11.1738 32.0098 10.6937 31.472C10.5637 31.3231 10.4444 31.1652 10.3366 30.9995C7.70622 27.0227 5.07948 23.0445 2.45636 19.0648C1.31972 17.3424 0.512972 15.485 0.151514 13.4469C-0.142444 11.7855 0.00453481 10.1448 0.478133 8.53566C1.15575 6.16335 2.56798 4.06692 4.51189 2.54763C5.98821 1.3683 7.73083 0.568383 9.58755 0.217746C10.1167 0.115406 10.6567 0.0685901 11.1913 0H12.4411ZM11.8195 30.6739C11.9479 30.4954 12.0372 30.3734 12.1276 30.245C13.6997 27.865 15.2773 25.4883 16.8396 23.1029C18.1232 21.1432 19.421 19.1943 20.6502 17.202C21.5205 15.7967 22.0465 14.2056 22.1853 12.5585C22.4215 9.79314 21.6224 7.30539 19.8412 5.19869C17.3578 2.25912 14.1504 1.03539 10.3246 1.51225C8.67483 1.72556 7.10607 2.35373 5.76502 3.33805C3.93612 4.62686 2.57791 6.47743 1.89675 8.6086C1.39049 10.1644 1.23698 11.755 1.54945 13.3816C1.88804 15.1475 2.60225 16.7567 3.57993 18.245C6.22918 22.2842 8.88859 26.3157 11.5582 30.3397C11.63 30.4409 11.7106 30.5313 11.8195 30.6739Z" fill="white"/>
<path d="M11.8184 18.0729C10.1592 18.0729 8.568 17.4138 7.3948 16.2406C6.2216 15.0674 5.5625 13.4762 5.5625 11.817C5.5674 10.1578 6.22966 8.56814 7.40425 7.3962C8.57884 6.22427 10.17 5.5656 11.8292 5.56445C13.4829 5.57277 15.0663 6.23405 16.2347 7.4043C17.4032 8.57455 18.0619 10.159 18.0677 11.8127C18.0685 12.6341 17.9075 13.4477 17.5939 14.2069C17.2803 14.9661 16.8202 15.656 16.2399 16.2374C15.6595 16.8187 14.9704 17.28 14.2117 17.595C13.453 17.9099 12.6398 18.0723 11.8184 18.0729Z" fill="white"/>
</g>
<defs>
<clipPath id="clip0_864_9130">
<rect width="23.6353" height="32" fill="white"/>
</clipPath>
</defs>
</svg>
