<svg width="28" height="28" viewBox="0 0 28 28" fill="none" xmlns="http://www.w3.org/2000/svg">
<path fill-rule="evenodd" clip-rule="evenodd" d="M9.78766 9.78701H14.9365V12.4115H14.9929C15.7779 10.9964 18.0964 9.55935 20.9631 9.55935C26.4653 9.55935 28.0006 12.4807 28.0006 17.8918V28H22.5367V18.888C22.5367 16.4657 21.5696 14.3403 19.3076 14.3403C16.5611 14.3403 15.2516 16.1998 15.2516 19.2523V28H9.78766V9.78701ZM0.681167 28H6.14506V9.78701H0.681167V28ZM6.82805 3.41247C6.82825 3.86086 6.74013 4.3049 6.56871 4.71923C6.39728 5.13356 6.14591 5.51006 5.82897 5.82723C5.51202 6.14441 5.13571 6.39604 4.72151 6.56776C4.3073 6.73948 3.86332 6.82793 3.41493 6.82805C2.96654 6.82817 2.52252 6.73996 2.10822 6.56846C1.69393 6.39696 1.31747 6.14553 1.00036 5.82852C0.683244 5.51152 0.431682 5.13515 0.260039 4.72091C0.0883951 4.30667 3.50751e-05 3.86268 1.04543e-08 3.41429C-7.07885e-05 2.50895 0.35946 1.64065 0.999524 1.00036C1.63959 0.360076 2.50777 0.000241611 3.41311 1.21628e-07C4.31846 -0.000241368 5.18683 0.359129 5.82723 0.999073C6.46764 1.63902 6.82764 2.50713 6.82805 3.41247Z" fill="white"/>
</svg>
