<svg width="28" height="28" viewBox="0 0 28 28" fill="none" xmlns="http://www.w3.org/2000/svg">
<g clip-path="url(#clip0_864_9120)">
<path d="M26.8033 0C25.534 1.47936 24.2658 2.95966 22.9951 4.43783C20.9224 6.8489 18.8481 9.25853 16.7746 11.6689C16.7272 11.724 16.6818 11.7806 16.6174 11.8583C20.3014 17.2201 23.986 22.5828 27.6916 27.9758C24.9574 27.9758 22.2587 27.9758 19.535 27.9758C17.0633 24.3792 14.5792 20.7645 12.08 17.128C11.4925 17.8099 10.9279 18.4645 10.3642 19.1199C7.86891 22.0206 5.37321 24.921 2.88099 27.8244C2.77783 27.9446 2.67556 28.002 2.5123 27.9999C1.80244 27.9909 1.09244 27.9961 0.3125 27.9961C3.89595 23.8304 7.44369 19.7063 11.0006 15.5715C10.9484 15.4907 10.9024 15.4152 10.8524 15.3424C7.41315 10.3361 3.97352 5.33008 0.534901 0.323365C0.463596 0.219542 0.403578 0.107961 0.338296 0C3.05405 0 5.76983 0 8.48558 0C8.50228 0.0319107 8.51591 0.0659507 8.53617 0.0954278C10.84 3.4504 13.1443 6.80509 15.4497 10.1589C15.4771 10.1988 15.5205 10.2277 15.5626 10.2677C18.516 6.83527 21.4567 3.41763 24.3974 0C25.1994 0 26.0014 0 26.8033 0ZM24.3848 26.2414C18.6701 18.0672 12.9903 9.94277 7.32098 1.83342C6.08027 1.83342 4.86641 1.83342 3.60921 1.83342C9.3166 9.9974 15.0007 18.1281 20.6727 26.2414C21.9121 26.2414 23.1197 26.2414 24.3848 26.2414Z" fill="white"/>
</g>
<defs>
<clipPath id="clip0_864_9120">
<rect width="27.3791" height="28" fill="white" transform="translate(0.3125)"/>
</clipPath>
</defs>
</svg>
