<svg width="34" height="37" viewBox="0 0 34 37" fill="none" xmlns="http://www.w3.org/2000/svg">
<g clip-path="url(#clip0_864_104)">
<path d="M23.6376 11.7983C23.6376 12.8271 23.6379 13.7984 23.6372 14.7699C23.6371 14.8791 23.6438 14.9904 23.6258 15.0971C23.5761 15.3901 23.3232 15.6047 23.0448 15.5842C22.7465 15.5622 22.5618 15.3889 22.5041 15.0926C22.4813 14.9752 22.4926 14.8505 22.4925 14.7292C22.4921 11.5339 22.503 8.33853 22.4857 5.14337C22.4803 4.17045 22.6931 3.293 23.3431 2.50007C23.2217 2.48621 23.1361 2.46786 23.0505 2.46786C16.7747 2.46651 10.4989 2.46463 4.22311 2.46828C2.86244 2.46911 1.87495 3.4757 1.87444 4.86363C1.87137 14.0728 1.8728 23.282 1.8728 32.4911C1.8728 32.5749 1.8728 32.6587 1.8728 32.7945C2.04035 32.7945 2.18999 32.7945 2.33963 32.7945C9.10458 32.7945 15.8696 32.7945 22.6346 32.7945C22.7181 32.7945 22.8016 32.7941 22.8851 32.7946C23.3671 32.7975 23.6351 33.0063 23.6345 33.3782C23.6339 33.75 23.3661 33.9606 22.8838 33.9606C15.749 33.9612 8.61411 33.9612 1.47926 33.9605C0.918981 33.9603 0.727787 33.7656 0.727685 33.1946C0.727071 23.7547 0.724819 14.3148 0.72922 4.87478C0.730244 2.82764 2.22724 1.30369 4.23805 1.30224C11.4444 1.29713 18.6509 1.29692 25.8573 1.30234C27.8676 1.3038 29.3555 2.82691 29.3633 4.87791C29.3711 6.9311 29.366 8.98439 29.3645 11.0376C29.3641 11.6035 29.1702 11.7973 28.607 11.7978C27.0918 11.7991 25.5765 11.7983 24.0613 11.7983C23.9328 11.7983 23.8045 11.7983 23.6376 11.7983ZM28.2159 10.6156C28.2159 8.60742 28.2259 6.64115 28.2055 4.6752C28.2023 4.37149 28.1025 4.04871 27.9739 3.77002C27.5255 2.79856 26.4704 2.29517 25.4416 2.52571C24.3934 2.76052 23.6489 3.66757 23.6418 4.76671C23.6298 6.64824 23.6377 8.52988 23.6391 10.4115C23.6391 10.4796 23.6575 10.5477 23.6673 10.6156C25.1864 10.6156 26.6841 10.6156 28.2159 10.6156Z" fill="#BE4400"/>
<path d="M26.4449 28.9643C26.7873 29.3153 27.1142 29.6505 27.4955 30.0413C27.6623 29.8541 27.8165 29.658 27.994 29.4872C28.2678 29.2239 28.5546 29.2099 28.82 29.4771C30.1007 30.7667 31.3746 32.0634 32.6418 33.3668C32.8874 33.6194 32.8784 33.9207 32.6295 34.1809C32.0136 34.8247 31.389 35.46 30.7571 36.0876C30.4765 36.3665 30.1791 36.3692 29.9034 36.0909C28.6413 34.8165 27.3845 33.5368 26.1328 32.2519C25.8541 31.9658 25.8593 31.6753 26.1301 31.3854C26.2935 31.2105 26.4823 31.0602 26.6484 30.9091C26.2702 30.528 25.9328 30.188 25.5796 29.8321C23.8515 31.2599 21.853 31.8843 19.6073 31.5239C17.6769 31.2142 16.0986 30.251 14.8954 28.6786C12.5448 25.6072 12.8734 21.2218 15.6449 18.551C18.4553 15.8428 22.7598 15.7519 25.6724 18.3347C28.5615 20.8968 29.2257 25.535 26.4449 28.9643ZM27.0748 24.0643C27.0819 20.5199 24.2603 17.6342 20.784 17.6309C17.3185 17.6275 14.488 20.4888 14.4748 24.0086C14.4615 27.5566 17.2746 30.4507 20.7469 30.4613C24.2279 30.4719 27.0678 27.6011 27.0748 24.0643ZM31.3444 33.785C30.3695 32.7892 29.3815 31.78 28.4072 30.785C28.0748 31.1219 27.7235 31.478 27.3966 31.8092C28.373 32.8048 29.3618 33.8134 30.342 34.8131C30.6685 34.4783 31.0182 34.1197 31.3444 33.785Z" fill="#BE4400"/>
<path d="M17.3366 10.0117C17.3366 8.52956 17.3355 7.04751 17.337 5.56536C17.3375 4.99391 17.5273 4.80141 18.0881 4.79995C18.7562 4.79818 19.4243 4.79588 20.0924 4.80089C20.5589 4.80432 20.7711 5.01725 20.7715 5.49272C20.7742 8.52977 20.7742 11.5669 20.7715 14.604C20.7711 15.079 20.5583 15.2928 20.0923 15.2962C19.4004 15.3012 18.7084 15.3012 18.0164 15.2962C17.5498 15.2928 17.339 15.0797 17.3379 14.6039C17.3344 13.0732 17.3367 11.5424 17.3366 10.0117Z" fill="#BE4400"/>
<path d="M11.6091 10.6685C11.6091 11.9562 11.6102 13.244 11.6086 14.5316C11.6079 15.1017 11.4164 15.2958 10.8565 15.2974C10.1884 15.2992 9.52029 15.3015 8.85223 15.2964C8.38571 15.2929 8.17446 15.0797 8.17395 14.6038C8.17118 11.9555 8.17118 9.30715 8.17395 6.65885C8.17446 6.18307 8.38551 5.97088 8.85295 5.96754C9.54485 5.96264 10.2369 5.96264 10.9288 5.96754C11.3952 5.97088 11.6062 6.18401 11.6077 6.65958C11.6116 7.99593 11.6091 9.33227 11.6091 10.6685Z" fill="#BE4400"/>
<path d="M7.03124 11.8348C7.03124 12.7459 7.03349 13.6569 7.03042 14.568C7.02868 15.0896 6.82674 15.2942 6.31427 15.2966C5.63434 15.2998 4.95431 15.3011 4.27429 15.296C3.80787 15.2925 3.59703 15.0793 3.59621 14.6032C3.59293 12.7326 3.59293 10.8618 3.59621 8.99106C3.59703 8.51559 3.80797 8.3034 4.27541 8.30006C4.96731 8.29516 5.65921 8.29516 6.35111 8.30006C6.81743 8.3034 7.02756 8.51653 7.02981 8.9922C7.03441 9.9398 7.03124 10.8873 7.03124 11.8348Z" fill="#BE4400"/>
<path d="M16.1953 11.8347C16.1953 12.7458 16.1976 13.6568 16.1945 14.5679C16.1927 15.0896 15.9908 15.2942 15.4784 15.2966C14.7985 15.2998 14.1185 15.3011 13.4385 15.296C12.972 15.2925 12.7611 15.0793 12.7603 14.6034C12.757 12.7327 12.757 10.8619 12.7603 8.99116C12.7611 8.51549 12.9719 8.3034 13.4394 8.30006C14.1313 8.29516 14.8233 8.29516 15.5151 8.30006C15.9814 8.3034 16.1916 8.51653 16.1939 8.9921C16.1985 9.93969 16.1953 10.8872 16.1953 11.8347Z" fill="#BE4400"/>
<path d="M3.58901 24.0096C3.58901 23.6452 3.58083 23.2805 3.59116 22.9165C3.60222 22.5294 3.81665 22.305 4.19637 22.2999C4.93576 22.29 5.67546 22.2901 6.41485 22.2998C6.79447 22.3048 7.01576 22.5292 7.02088 22.9155C7.0308 23.6684 7.0308 24.4216 7.02088 25.1746C7.01576 25.5609 6.79447 25.7866 6.41577 25.7917C5.67638 25.8018 4.93668 25.8017 4.19729 25.7917C3.81746 25.7866 3.60191 25.5619 3.59137 25.1753C3.58072 24.7872 3.58901 24.3982 3.58901 24.0096Z" fill="#BE4400"/>
<path d="M3.58854 29.2732C3.58864 28.9088 3.58148 28.5443 3.59049 28.1801C3.60062 27.7733 3.81546 27.5527 4.21801 27.5482C4.94552 27.5401 5.67325 27.5397 6.40077 27.5485C6.79984 27.5533 7.01733 27.7775 7.02194 28.187C7.03013 28.9278 7.03054 29.6688 7.02163 30.4096C7.01672 30.8158 6.79564 31.0376 6.39421 31.0422C5.6667 31.0504 4.93897 31.0508 4.21146 31.0419C3.81239 31.0369 3.5997 30.8124 3.59038 30.4028C3.58179 30.0264 3.58844 29.6498 3.58854 29.2732Z" fill="#BE4400"/>
<path d="M11.68 18.2138C10.9302 18.2138 10.1804 18.2168 9.43068 18.2126C9.00899 18.2103 8.75362 17.9881 8.75004 17.6356C8.74645 17.2829 9.00326 17.0499 9.42024 17.049C10.9554 17.0455 12.4907 17.0454 14.0259 17.0492C14.4396 17.0502 14.6962 17.2893 14.6881 17.6434C14.6803 17.9836 14.4315 18.2094 14.0363 18.2122C13.2509 18.2177 12.4654 18.2138 11.68 18.2138Z" fill="#BE4400"/>
<path d="M5.12019 19.0459C5.5734 18.4944 6.00748 17.9661 6.44165 17.4379C6.49518 17.3728 6.54452 17.3032 6.60378 17.2437C6.83878 17.008 7.14297 16.9832 7.37756 17.1764C7.61624 17.373 7.68707 17.7008 7.48523 17.9564C6.84297 18.7702 6.18833 19.5743 5.51803 20.3642C5.28835 20.6348 4.93626 20.6182 4.69706 20.3482C4.35388 19.9608 4.02502 19.559 3.71039 19.1471C3.51213 18.8876 3.56055 18.558 3.78613 18.3599C4.02451 18.1504 4.35193 18.1663 4.58857 18.4176C4.7684 18.6085 4.92899 18.8182 5.12019 19.0459Z" fill="#BE4400"/>
<path d="M10.9317 27.5458C11.4318 27.5458 11.9318 27.5421 12.4318 27.547C12.8445 27.551 13.1092 27.7868 13.1052 28.1343C13.1012 28.4811 12.8379 28.7094 12.4208 28.7109C11.4207 28.7146 10.4205 28.715 9.42044 28.7107C9.00417 28.7089 8.74666 28.4757 8.75003 28.123C8.75341 27.7701 9.00827 27.5504 9.43139 27.5469C9.93158 27.5425 10.4317 27.5457 10.9317 27.5458Z" fill="#BE4400"/>
<path d="M10.7738 19.3806C11.2151 19.3806 11.6564 19.3761 12.0976 19.3819C12.4942 19.3871 12.7452 19.6099 12.7535 19.9494C12.7622 20.3019 12.5021 20.5429 12.0891 20.5451C11.1947 20.5499 10.3001 20.5501 9.40568 20.5449C9.00917 20.5426 8.75882 20.317 8.75022 19.9771C8.74132 19.6242 9.00047 19.3866 9.41418 19.3817C9.86739 19.3764 10.3206 19.3806 10.7738 19.3806Z" fill="#BE4400"/>
<path d="M10.7517 31.0445C10.2985 31.0445 9.84517 31.0501 9.39216 31.0429C9.00005 31.0367 8.75041 30.8036 8.75 30.4616C8.74959 30.1193 8.99902 29.8831 9.39144 29.8805C10.2978 29.8744 11.2043 29.8745 12.1106 29.8805C12.5019 29.8831 12.7531 30.1201 12.7533 30.4609C12.7534 30.8019 12.5024 31.0367 12.1114 31.0429C11.6581 31.0501 11.2049 31.0445 10.7517 31.0445Z" fill="#BE4400"/>
<path d="M10.481 23.4624C10.1127 23.4627 9.74421 23.4693 9.37605 23.4609C8.99253 23.452 8.74269 23.2077 8.75016 22.8669C8.75733 22.5399 8.99939 22.3037 9.3652 22.2997C10.1256 22.2916 10.8861 22.2911 11.6465 22.3C12.0115 22.3043 12.2508 22.5446 12.254 22.874C12.2572 23.2034 12.0183 23.4489 11.6574 23.4595C11.2656 23.4711 10.8731 23.4621 10.481 23.4624Z" fill="#BE4400"/>
<path d="M10.4933 24.6299C10.8735 24.6298 11.2538 24.623 11.634 24.6317C12.002 24.64 12.2435 24.867 12.2537 25.1941C12.2644 25.5354 12.0154 25.7886 11.6338 25.7926C10.8734 25.8009 10.1127 25.8015 9.35244 25.7918C8.99053 25.7872 8.7501 25.5403 8.75 25.2119C8.7499 24.8833 8.99002 24.6424 9.35275 24.6323C9.73258 24.6218 10.113 24.63 10.4933 24.6299Z" fill="#BE4400"/>
<path d="M31.3462 33.7852C31.02 34.1198 30.6701 34.4785 30.3438 34.8133C29.3636 33.8136 28.3747 32.8051 27.3984 31.8094C27.7253 31.4781 28.0766 31.122 28.4091 30.7852C29.3832 31.7803 30.3713 32.7894 31.3462 33.7852Z" fill="white"/>
<path d="M20.7685 29.2998C19.6963 29.273 18.6653 29.0718 17.7683 28.4159C16.4244 27.4333 16.4339 25.8954 17.7818 24.9136C19.3699 23.7568 22.1752 23.7559 23.7686 24.9117C25.111 25.8855 25.1213 27.4429 23.7831 28.4181C22.8855 29.0723 21.854 29.2735 20.7685 29.2998Z" fill="#BE4400"/>
<path d="M20.7675 23.4618C19.5034 23.4588 18.4778 22.4039 18.4844 21.1138C18.4911 19.827 19.5305 18.7869 20.7988 18.7979C22.0481 18.8088 23.063 19.8525 23.064 21.1274C23.0652 22.4168 22.0342 23.4647 20.7675 23.4618Z" fill="#BE4400"/>
</g>
<defs>
<clipPath id="clip0_864_104">
<rect width="33" height="36" fill="white" transform="translate(0.367188 0.333496)"/>
</clipPath>
</defs>
</svg>
