<svg width="37" height="37" viewBox="0 0 37 37" fill="none" xmlns="http://www.w3.org/2000/svg">
<g clip-path="url(#clip0_864_126)">
<path d="M21.6693 35.7412C21.6384 35.8267 21.6124 35.9142 21.5759 35.9972C21.4455 36.2939 21.1186 36.4744 20.8305 36.4125C20.5025 36.3421 20.2733 36.0715 20.2899 35.726C20.3146 35.2131 20.4661 34.7203 20.5742 34.2218C20.9114 32.6686 21.1693 31.0972 21.5919 29.5637C22.159 27.5058 23.2992 25.8109 24.9568 24.4756C25.931 23.6908 26.9942 23.0259 28.0458 22.3512C29.0906 21.6809 30.1091 21.8218 31.0981 22.6216C31.0981 22.4676 31.0981 22.3482 31.0981 22.2287C31.0981 19.6564 31.0946 17.084 31.0997 14.5117C31.1018 13.4137 31.7072 12.5541 32.6758 12.2418C33.959 11.8281 35.3043 12.5994 35.6142 13.9268C35.6266 13.9798 35.6134 14.0424 35.6753 14.0745C35.6753 17.7654 35.6753 21.4562 35.6753 25.1471C35.6194 25.2838 35.6194 25.4205 35.6753 25.5572C35.6753 25.6255 35.6753 25.6939 35.6753 25.7622C35.5408 26.0747 35.5407 26.4179 35.449 26.7412C35.2298 27.5141 34.8952 28.2306 34.4312 28.8849C32.7401 31.2698 31.0478 33.654 29.352 36.0356C28.9498 36.6004 28.3919 36.5513 28.0747 35.9344C27.9369 35.5809 28.0889 35.3023 28.2875 35.0202C29.8937 32.7391 31.5146 30.4682 33.1299 28.1935C33.8998 27.1094 34.2286 25.9215 34.2215 24.6018C34.2038 21.3218 34.2158 18.0417 34.2155 14.7616C34.2155 14.6136 34.2247 14.4649 34.2032 14.3179C34.146 13.9266 33.8264 13.6314 33.4406 13.6092C33.0309 13.5856 32.7142 13.8145 32.5999 14.215C32.5491 14.3933 32.5556 14.5758 32.5556 14.7579C32.5553 17.366 32.5353 19.9743 32.5631 22.582C32.5793 24.0973 32.0388 25.3599 31.0013 26.4275C30.0096 27.4478 29.0644 28.5119 28.0627 29.5226C27.9098 29.6769 27.7632 29.8393 27.5321 29.8723C27.2111 29.9181 26.9403 29.8193 26.7526 29.5549C26.57 29.2976 26.5936 29.0163 26.7286 28.7453C26.821 28.5596 26.9795 28.4236 27.1192 28.2735C28.088 27.2321 29.0837 26.2157 30.0309 25.1541C30.3877 24.7544 30.4403 24.2339 30.1739 23.8344C29.8995 23.4231 29.3525 23.2518 28.9434 23.5242C27.5247 24.469 26.0083 25.2885 24.8465 26.5763C23.7673 27.7727 23.1131 29.183 22.7898 30.7549C22.4755 32.283 22.1499 33.8087 21.8327 35.3363C21.8025 35.4815 21.7799 35.6288 21.6693 35.7412Z" fill="#BE4400"/>
<path d="M18.3168 0.806641C18.7191 0.989051 18.8885 1.33821 18.8662 1.84188C18.8524 2.15021 18.8719 2.46046 18.8611 2.76919C18.8433 3.28226 18.5442 3.64334 18.1629 3.6295C17.7918 3.61606 17.5161 3.2669 17.4991 2.76939C17.4885 2.46076 17.5077 2.15041 17.4941 1.84208C17.4718 1.33841 17.6401 0.988444 18.0434 0.806641C18.1346 0.806641 18.2256 0.806641 18.3168 0.806641Z" fill="#BE4400"/>
<path d="M35.6732 25.5571C35.558 25.4204 35.577 25.2837 35.6732 25.147C35.6732 25.2837 35.6732 25.4204 35.6732 25.5571Z" fill="#BE4400"/>
<path d="M16.3552 22.3386C16.2443 22.8218 16.0467 23.004 15.557 23.0074C14.2588 23.0164 12.9604 23.0184 11.6623 23.0065C11.1369 23.0016 10.8797 22.7228 10.875 22.188C10.8675 21.3454 10.8731 20.5027 10.8731 19.6588C10.7872 19.5736 10.6789 19.6144 10.5821 19.614C9.69377 19.6105 8.80549 19.6138 7.91721 19.6113C7.32189 19.6097 7.06284 19.3584 7.05832 18.7622C7.05379 18.1713 7.00714 17.5737 7.14187 16.9933C7.4591 15.6266 8.34507 14.8217 9.6872 14.4895C10.0277 14.4052 10.3699 14.3273 10.6998 14.2491C10.7784 14.0924 10.7197 14.0033 10.6088 13.9136C9.75871 13.2259 9.39765 12.3206 9.43285 11.2418C9.45139 10.6735 9.41038 10.1054 9.47847 9.5363C9.71385 7.56861 11.844 6.30868 13.7252 7.14501C13.9875 7.26164 14.2205 7.42038 14.4714 7.59825C15.2312 6.06014 16.4337 5.13743 18.1712 5.13623C19.9071 5.13504 21.129 6.02682 21.8879 7.59595C22.2107 7.3651 22.5324 7.15809 22.9004 7.03873C24.796 6.42393 26.7194 7.71658 26.8897 9.61627C26.9619 10.4202 26.9811 11.2314 26.8683 12.0347C26.7642 12.7755 26.3895 13.374 25.8241 13.8565C25.7141 13.9504 25.5642 14.0212 25.6522 14.2445C25.9814 14.323 26.3315 14.4065 26.6817 14.49C28.2841 14.872 29.2557 16.0613 29.3047 17.71C29.3155 18.0741 29.3134 18.4389 29.305 18.8032C29.2922 19.3524 29.0274 19.6095 28.4728 19.6119C27.596 19.6157 26.719 19.6129 25.8421 19.6129C25.7303 19.6129 25.6185 19.6129 25.4809 19.6129C25.4809 20.3859 25.4809 21.1334 25.4809 21.8809C25.4809 21.9835 25.4833 22.086 25.4805 22.1884C25.4657 22.7238 25.2174 23.0015 24.6909 23.0063C23.3699 23.0181 22.0488 23.0162 20.7278 23.0072C20.2393 23.0039 20.0365 22.817 19.9302 22.3385C19.8615 21.9803 20.0642 21.6812 20.4369 21.5932C20.5598 21.5641 20.6858 21.5684 20.8109 21.5666C21.2933 21.5596 21.2932 21.5595 21.2946 21.0618C21.2952 20.834 21.2889 20.6061 21.2973 20.3785C21.3173 19.8442 21.6432 19.469 22.0785 19.4736C22.5138 19.4781 22.8295 19.8516 22.8482 20.3912C22.8576 20.6643 22.8598 20.9381 22.8487 21.2109C22.8378 21.4794 22.9564 21.5723 23.2159 21.5689C24.1545 21.5565 24.0182 21.6515 24.0278 20.775C24.0351 20.1033 24.0533 19.4312 23.7823 18.7914C23.4805 18.0793 22.9692 17.5907 22.2476 17.3269C21.6473 17.1075 21.0185 16.9901 20.3995 16.8378C20.1582 16.7784 20.0473 16.8984 19.9626 17.1041C19.6675 17.8199 19.3315 18.5181 19.0326 19.2324C18.993 19.327 18.9547 19.422 18.9059 19.5124C18.7402 19.8196 18.4948 19.9907 18.1338 19.9737C17.7856 19.9573 17.5689 19.7664 17.4317 19.4617C17.0857 18.6935 16.757 17.9176 16.4095 17.15C16.2402 16.7758 16.2271 16.7654 15.8142 16.8658C15.4269 16.9599 15.0401 17.0554 14.6511 17.1425C13.2587 17.454 12.4248 18.4269 12.3334 19.8559C12.3037 20.3215 12.3302 20.7895 12.3249 21.2563C12.3225 21.4698 12.4095 21.5677 12.6287 21.5669C13.651 21.5628 13.4882 21.6531 13.5025 20.7653C13.5048 20.6287 13.4991 20.4919 13.5063 20.3554C13.5336 19.8405 13.8521 19.4767 14.2768 19.4734C14.7016 19.4701 15.0298 19.835 15.055 20.3459C15.0668 20.5847 15.0583 20.8241 15.059 21.0632C15.0605 21.5547 15.0603 21.5549 15.5427 21.567C15.6566 21.5699 15.7708 21.5699 15.8816 21.6012C16.2341 21.7011 16.4215 21.9935 16.3552 22.3386Z" fill="#BE4400"/>
<path d="M4.79466 31.7145C4.53698 31.4103 4.31861 31.078 4.09758 30.7474C4.09545 30.7362 4.0875 30.7215 4.09186 30.7143C4.41831 30.1824 4.13646 29.7788 3.83179 29.3592C3.27713 28.5954 2.69514 27.8467 2.3328 26.9613C2.08786 26.3626 1.965 25.7331 1.96244 25.0951C1.94834 21.5761 1.9533 18.057 1.95765 14.538C1.95859 13.7514 2.54323 13.2729 3.25031 13.4615C3.67587 13.5749 3.88587 13.8771 3.96695 14.2879C4.00018 14.4564 3.98882 14.6284 3.98882 14.7991C3.98925 17.3957 4.00651 19.9925 3.98224 22.5888C3.96866 24.0412 4.47957 25.2585 5.47755 26.283C6.46246 27.2941 7.39722 28.3524 8.3941 29.352C8.45843 29.4165 8.51687 29.4869 8.58812 29.5441C8.82803 29.7367 9.11783 29.7432 9.33945 29.5619C9.54484 29.3938 9.59602 29.1133 9.46855 28.8482C9.42369 28.755 9.36201 28.6725 9.29033 28.599C8.48808 27.7757 7.72966 26.9108 6.92305 26.0918C6.64273 25.8072 6.37959 25.5085 6.12345 25.2039C5.71421 24.7174 5.72865 24.0352 6.14319 23.5789C6.52321 23.1607 7.13886 23.1002 7.6649 23.4491C8.4715 23.9841 9.28298 24.5119 10.0758 25.0677C12.1204 26.5008 13.316 28.4681 13.7935 30.9039C14.0783 32.3564 14.398 33.8022 14.697 35.252C14.7297 35.4107 14.8213 35.581 14.6887 35.7412C12.6881 35.7412 10.6874 35.743 8.6868 35.7378C8.50841 35.7374 8.35232 35.7372 8.28252 35.9366C8.1348 35.3316 7.72727 34.8758 7.40073 34.3702C7.10042 33.9053 6.76252 33.5859 6.16301 33.7614C6.05835 33.4108 5.76308 33.1797 5.60084 32.8651C5.56743 32.7508 5.65423 32.6766 5.69473 32.5876C5.90807 32.1185 5.63715 31.7143 5.12154 31.7304C5.01261 31.7339 4.89983 31.7914 4.79466 31.7145Z" fill="white"/>
<path d="M21.6719 35.7413C21.8843 34.6952 22.0924 33.6482 22.3104 32.6033C22.4728 31.8247 22.6345 31.0456 22.8202 30.2724C23.3578 28.034 24.6264 26.304 26.5181 25.0165C27.2421 24.5238 27.9697 24.0366 28.6979 23.5501C29.2405 23.1876 29.8115 23.2335 30.1736 23.6623C30.5607 24.1209 30.5497 24.754 30.1214 25.2144C29.0977 26.315 28.0642 27.4066 27.0353 28.5023C26.8795 28.6683 26.7242 28.8325 26.7107 29.0824C26.6949 29.374 26.8059 29.5948 27.0632 29.7282C27.3025 29.8523 27.545 29.8509 27.7669 29.6799C27.8565 29.611 27.9413 29.534 28.0189 29.4517C29.0116 28.4 29.9949 27.3395 30.996 26.2958C31.9991 25.2499 32.4861 24.0212 32.474 22.5655C32.4521 19.9351 32.4673 17.3043 32.4691 14.6737C32.4692 14.5266 32.4725 14.3762 32.5019 14.233C32.5954 13.7768 32.9824 13.4784 33.4335 13.4996C33.8993 13.5216 34.262 13.8714 34.3052 14.3464C34.3155 14.4595 34.3108 14.574 34.3108 14.6878C34.311 18.0473 34.3043 21.4067 34.3143 24.7661C34.3182 26.0618 33.9487 27.2212 33.1949 28.2746C31.5596 30.5596 29.9397 32.8557 28.3097 35.1446C28.1383 35.3852 28.014 35.6294 28.0773 35.9341C28.0037 35.7405 27.8501 35.7371 27.6718 35.7376C25.6718 35.7432 23.6719 35.7412 21.6719 35.7413Z" fill="white"/>
<path d="M14.6873 35.7414C14.4749 34.695 14.2667 33.6477 14.0485 32.6024C13.886 31.8237 13.7246 31.0443 13.5386 30.2709C13.0001 28.0322 11.7312 26.3018 9.83822 25.0147C9.1138 24.5223 8.3864 24.0341 7.65788 23.5476C7.1169 23.1864 6.54541 23.2352 6.18239 23.6665C5.79964 24.1212 5.81493 24.7607 6.2422 25.2196C7.26675 26.32 8.30028 27.4121 9.32928 28.5084C9.47691 28.6657 9.62514 28.8209 9.64582 29.0566C9.67128 29.3471 9.57183 29.5741 9.31894 29.7162C9.0716 29.8552 8.81896 29.856 8.58606 29.6747C8.49687 29.6052 8.41237 29.5279 8.33471 29.4457C7.34954 28.402 6.37497 27.3482 5.37963 26.3142C4.3655 25.2608 3.87202 24.0241 3.88492 22.5549C3.90799 19.9351 3.89158 17.315 3.89107 14.695C3.89107 14.536 3.89671 14.3774 3.85835 14.2194C3.74839 13.7666 3.36606 13.4734 2.91214 13.5015C2.45787 13.5296 2.10511 13.8667 2.05598 14.3268C2.04393 14.4396 2.04863 14.5543 2.04863 14.6682C2.04829 18.04 2.05436 21.4118 2.0453 24.7836C2.04188 26.0677 2.40302 27.2235 3.15675 28.2611C3.48448 28.7122 3.80512 29.1684 4.12577 29.6246C4.45734 30.0963 4.45008 30.3051 4.09629 30.7476C3.5712 30.9549 3.34189 30.8976 3.02381 30.4289C2.42515 29.5463 1.71953 28.7341 1.27637 27.7487C0.902845 26.9179 0.689424 26.0502 0.687203 25.1417C0.678403 21.589 0.677122 18.0362 0.684469 14.4835C0.686861 13.3508 1.36335 12.4822 2.42174 12.1939C3.35145 11.9407 4.40096 12.3738 4.92434 13.2297C5.18168 13.6505 5.26139 14.1134 5.26062 14.6012C5.25652 17.1405 5.25865 19.6798 5.25865 22.2192C5.25865 22.34 5.25865 22.4609 5.25865 22.6454C5.61356 22.3171 5.97239 22.1099 6.38291 22.0087C7.07136 21.8388 7.71957 21.9538 8.30617 22.3437C9.22445 22.9539 10.1495 23.5566 11.0395 24.2065C13.1314 25.7338 14.4143 27.7963 14.9633 30.3179C15.3331 32.0163 15.6834 33.7188 16.0395 35.4202C16.0625 35.5306 16.0707 35.6464 16.0687 35.7593C16.0628 36.0849 15.8433 36.3444 15.5267 36.4127C15.25 36.4723 14.9278 36.3054 14.796 36.0281C14.7524 35.9359 14.7231 35.8371 14.6873 35.7414Z" fill="#BE4400"/>
<path d="M16.3573 22.3387C16.2619 21.8293 16.0628 21.6558 15.5546 21.6446C15.3741 21.6407 15.1934 21.644 14.9666 21.644C14.9666 21.3907 14.9669 21.1564 14.9665 20.922C14.9663 20.6942 14.9764 20.4658 14.9623 20.2389C14.9375 19.839 14.6574 19.5561 14.2966 19.5475C13.9249 19.5385 13.62 19.8306 13.6049 20.2461C13.5886 20.6989 13.6012 21.1527 13.6012 21.6249C13.1469 21.6249 12.7195 21.6249 12.236 21.6249C12.2977 20.6326 12.0792 19.6267 12.5169 18.6725C12.8251 18.0007 13.3272 17.5113 14.0095 17.2468C14.7405 16.9635 15.5235 16.8611 16.2969 16.6509C16.6771 17.5128 17.0474 18.3522 17.4174 19.1917C17.4541 19.2748 17.4884 19.3589 17.5251 19.442C17.6502 19.7259 17.8535 19.9046 18.1768 19.906C18.4992 19.9075 18.7074 19.735 18.8335 19.4499C18.9806 19.1176 19.1261 18.7846 19.2725 18.452C19.5327 17.8613 19.7931 17.2708 20.0616 16.6614C20.836 16.8547 21.623 16.9537 22.3458 17.251C23.3315 17.6565 23.9236 18.4174 24.0706 19.4889C24.1668 20.1899 24.0996 20.895 24.1142 21.6211C23.6646 21.6211 23.2375 21.6211 22.7583 21.6211C22.7583 21.247 22.7587 20.8655 22.7582 20.4841C22.7576 19.8769 22.5035 19.536 22.0605 19.5473C21.6284 19.5585 21.3921 19.887 21.3914 20.4786C21.391 20.853 21.3913 21.2274 21.3913 21.6154C21.162 21.671 20.9465 21.6361 20.7341 21.6429C20.2271 21.6593 20.0239 21.833 19.9322 22.3387C19.5781 22.3382 19.2241 22.3377 18.87 22.3371C18.7734 22.2812 18.7531 22.1747 18.706 22.0867C18.5892 21.8684 18.4146 21.7443 18.1619 21.7506C17.9239 21.7566 17.7614 21.8814 17.6518 22.0868C17.6048 22.1748 17.5845 22.2814 17.4877 22.3371C17.1109 22.3378 16.7341 22.3383 16.3573 22.3387Z" fill="white"/>
<path d="M6.15821 33.7617C6.65835 33.514 6.925 33.5798 7.25786 34.0412C7.52998 34.4184 7.79175 34.8031 8.06874 35.1766C8.23936 35.4067 8.33436 35.6487 8.27772 35.9369C7.96228 36.5474 7.4084 36.5958 7.00659 36.0434C6.70765 35.6324 6.41375 35.2177 6.12343 34.8006C5.84354 34.3985 5.85516 34.1535 6.15821 33.7617Z" fill="#BE4400"/>
<path d="M15.8512 4.05565C15.8299 4.33407 15.7177 4.57297 15.4882 4.71637C15.2607 4.85846 15.0196 4.86452 14.8152 4.67938C14.4633 4.36074 14.1415 3.99603 13.884 3.56815C13.7095 3.27831 13.7684 2.85559 13.9767 2.60557C14.1739 2.36889 14.5253 2.2744 14.7581 2.46308C15.1616 2.7901 15.5038 3.20343 15.7824 3.68285C15.8403 3.78269 15.8533 3.90851 15.8512 4.05565Z" fill="#BE4400"/>
<path d="M20.5 4.02201C20.5045 3.5047 21.4653 2.38042 21.8973 2.39417C22.1547 2.40235 22.3538 2.54464 22.4756 2.81406C22.5973 3.08308 22.6053 3.36503 22.4463 3.61172C22.1849 4.01746 21.8806 4.38026 21.5378 4.6894C21.3207 4.88525 21.0737 4.88101 20.8367 4.71648C20.6143 4.56197 20.4988 4.33034 20.5 4.02201Z" fill="#BE4400"/>
<path d="M4.7941 31.7145C5.06562 31.6156 5.33526 31.5646 5.59088 31.7566C5.95236 32.028 5.95518 32.4219 5.6002 32.8652C5.06767 33.0728 4.70166 32.9466 4.54625 32.5029C4.43228 32.1777 4.58863 31.9387 4.7941 31.7145Z" fill="#BE4400"/>
<path d="M17.4844 22.3369C17.5964 21.8384 17.8389 21.6204 18.2424 21.6555C18.5862 21.6854 18.7588 21.8739 18.8667 22.3369C18.7968 22.8469 18.3789 23.0807 17.9767 22.962C17.6671 22.8707 17.5413 22.6298 17.4844 22.3369Z" fill="#BE4400"/>
<path d="M27.9386 18.2333C26.9909 18.2333 26.0834 18.2333 25.1502 18.2333C24.5433 16.876 23.4826 16.0459 22.0312 15.6666C22.2535 15.6128 22.4754 15.5582 22.6979 15.5056C23.3148 15.3599 23.4415 15.2172 23.5088 14.5732C23.7402 14.5732 23.9739 14.5732 24.2137 14.5732C24.2798 14.618 24.2487 14.6929 24.2542 14.7563C24.2887 15.1513 24.4391 15.3463 24.8356 15.451C25.3073 15.5756 25.784 15.6811 26.2586 15.7946C27.4377 16.0768 27.9425 16.7174 27.9386 17.9266C27.9383 18.0162 27.9386 18.106 27.9386 18.2333Z" fill="white"/>
<path d="M8.45637 18.2457C8.30173 16.9421 8.82118 16.1274 9.96432 15.8369C10.3167 15.7473 10.6707 15.6645 11.0239 15.5784C11.1122 15.5569 11.2002 15.5341 11.2888 15.5136C11.9541 15.3597 12.0575 15.2463 12.1264 14.5762C12.3577 14.5762 12.5918 14.5762 12.8278 14.5762C13.0077 15.3077 13.0077 15.3077 14.331 15.6724C14.2104 15.7966 14.0424 15.7927 13.8989 15.8365C12.7264 16.195 11.8655 16.9174 11.317 18.0133C11.2572 18.1326 11.2208 18.2527 11.0341 18.2504C10.1807 18.2396 9.32705 18.2457 8.45637 18.2457Z" fill="white"/>
<path d="M18.1858 17.4594C17.9069 16.7243 17.3716 16.0929 17.3594 15.2231C17.9221 15.3287 18.4383 15.3257 18.9908 15.2337C19.006 16.0941 18.4382 16.7117 18.1858 17.4594Z" fill="white"/>
<path d="M14.8493 13.498C15.1346 13.9362 15.4926 14.2629 15.8357 14.6257C15.3378 14.5055 14.8366 14.3967 14.3436 14.2588C14.1756 14.2118 14.2088 14.0669 14.3158 13.9658C14.4792 13.8116 14.6532 13.6687 14.8493 13.498Z" fill="#FAFAFA"/>
<path d="M21.5303 13.5078C21.7232 13.6761 21.888 13.8151 22.0468 13.9605C22.1568 14.061 22.2011 14.206 22.0319 14.2538C21.5163 14.3993 20.9915 14.5122 20.4609 14.6128C20.8884 14.3123 21.2185 13.93 21.5303 13.5078Z" fill="#FBFBFB"/>
</g>
<defs>
<clipPath id="clip0_864_126">
<rect width="36" height="37" fill="white" transform="translate(0.367188)"/>
</clipPath>
</defs>
</svg>
