<svg width="42" height="36" viewBox="0 0 42 36" fill="none" xmlns="http://www.w3.org/2000/svg">
<g clip-path="url(#clip0_864_84)">
<path d="M2.33783 18.7721C1.93566 18.7721 1.58791 18.7667 1.24026 18.7738C0.949889 18.7797 0.727232 18.6725 0.587162 18.4156C0.439392 18.1446 0.540753 17.92 0.707825 17.6904C2.27898 15.5328 3.84665 13.3728 5.40936 11.209C5.63339 10.8987 5.89803 10.7597 6.29535 10.7607C10.2309 10.7712 14.1666 10.7641 18.1022 10.7621C18.2947 10.762 18.4872 10.7621 18.7427 10.7621C19.1361 10.3533 19.5568 9.93056 19.957 9.48925C20.0524 9.38399 20.1293 9.2167 20.1302 9.07748C20.1413 7.14507 20.1377 5.21256 20.1377 3.30041C19.4434 2.54975 19.3589 1.93947 19.8563 1.38225C20.2931 0.892952 20.9979 0.823339 21.5143 1.2291C21.8708 1.50924 22.0926 1.8956 21.9748 2.33321C21.8762 2.69995 21.6263 3.02597 21.4257 3.40346C21.5785 3.41137 21.7457 3.4273 21.9129 3.42741C23.6353 3.4292 25.3577 3.42825 27.0801 3.42899C27.2381 3.42909 27.3981 3.42171 27.5538 3.4427C28.0952 3.51579 28.3116 4.03241 27.9551 4.44387C27.622 4.82822 27.2483 5.17734 26.8935 5.54291C26.7965 5.6429 26.703 5.74648 26.5828 5.87516C27.0301 6.33397 27.4801 6.77581 27.9066 7.23926C28.2582 7.62129 28.1818 8.10764 27.7519 8.27903C27.6125 8.33451 27.4429 8.32597 27.2871 8.32618C25.5297 8.32913 23.7723 8.32808 22.0148 8.32808C21.825 8.32808 21.6352 8.32808 21.4195 8.32808C21.4195 8.68395 21.4195 8.99352 21.4195 9.30878C21.8902 9.77277 22.3647 10.2404 22.8758 10.7441C22.9419 10.7481 23.0636 10.7613 23.1854 10.7619C25.3107 10.7735 27.436 10.7914 29.5612 10.7917C31.4238 10.7919 33.2865 10.7812 35.1489 10.7542C35.598 10.7477 35.9024 10.8996 36.1658 11.2661C37.6926 13.3912 39.2354 15.5048 40.777 17.6192C40.9602 17.8705 41.1252 18.1118 40.9412 18.4313C40.7678 18.7323 40.4898 18.7864 40.1721 18.7742C39.8595 18.7621 39.5461 18.7716 39.188 18.7716C39.188 19.0167 39.1881 19.2227 39.188 19.4286C39.1862 24.209 39.1624 28.9896 39.196 33.7699C39.2058 35.1722 38.2097 35.969 37.0066 35.9648C29.4145 35.9385 21.8221 35.9468 14.2298 35.9457C11.0663 35.9452 7.90278 35.9547 4.73928 35.9451C4.34227 35.9439 3.91563 35.9302 3.55459 35.7895C2.71132 35.4607 2.33762 34.7729 2.33635 33.8799C2.33425 32.4389 2.33751 30.9978 2.33762 29.5568C2.33783 26.1472 2.33762 22.7377 2.33751 19.3281C2.33773 19.1707 2.33783 19.0132 2.33783 18.7721ZM37.9554 18.7901C35.5869 18.7901 33.2794 18.7901 30.9298 18.7901C31.01 18.9104 31.0686 18.9927 31.1217 19.0787C31.3016 19.3701 31.2125 19.6177 30.9827 19.8298C30.7594 20.0359 30.5043 20.0344 30.2549 19.8874C30.1516 19.8265 30.0711 19.7252 29.9843 19.6382C27.3756 17.029 24.7661 14.4205 22.1602 11.8083C21.7044 11.3514 21.2645 10.8785 20.8105 10.4058C20.6958 10.502 20.6402 10.5419 20.5924 10.5898C17.5873 13.5971 14.5828 16.6052 11.5776 19.6125C11.4786 19.7115 11.3833 19.8206 11.2671 19.8949C10.9942 20.0693 10.7299 20.0349 10.5047 19.8012C10.3006 19.5893 10.2481 19.3488 10.4102 19.0842C10.4672 18.9913 10.5235 18.8981 10.5813 18.8032C8.23461 18.8032 5.92302 18.8032 3.57758 18.8032C3.57758 18.9958 3.57758 19.1515 3.57758 19.3072C3.57853 24.1048 3.57927 28.9024 3.58075 33.6999C3.58096 34.562 3.73094 34.7124 4.58645 34.7132C7.46854 34.7161 10.3506 34.7185 13.2327 34.7208C14.0887 34.7214 14.9446 34.7209 15.8538 34.7209C15.8538 34.4651 15.8538 34.2768 15.8538 34.0883C15.8538 30.9425 15.8535 27.7968 15.8545 24.651C15.8546 24.4757 15.852 24.2986 15.8742 24.1255C15.964 23.4267 16.3183 23.0887 17.0178 23.0855C19.443 23.0744 21.8686 23.1018 24.2931 23.0631C25.2194 23.0483 25.7001 23.5171 25.6814 24.427C25.6778 24.6026 25.6824 24.7784 25.6824 24.9543C25.6826 27.9906 25.6826 31.0268 25.6826 34.0631C25.6826 34.2659 25.6826 34.4686 25.6826 34.6777C25.8283 34.6958 25.8959 34.7116 25.9635 34.7116C29.6891 34.7133 33.4147 34.7165 37.1402 34.7116C37.7626 34.7108 37.9518 34.4924 37.9523 33.8213C37.9551 30.7459 37.9548 27.6705 37.9552 24.5951C37.9557 22.6804 37.9554 20.7662 37.9554 18.7901ZM2.36779 17.4876C2.52484 17.5052 2.57694 17.5162 2.62905 17.5162C5.61367 17.5179 8.59828 17.5148 11.5829 17.5261C11.8592 17.5272 12.0357 17.4204 12.2183 17.2366C13.8508 15.5928 15.4907 13.9564 17.1265 12.316C17.2025 12.2398 17.2604 12.1456 17.3658 12.0094C13.6439 12.0094 9.99804 12.0094 6.35209 12.0094C5.02543 13.8333 3.71871 15.6301 2.36779 17.4876ZM24.1304 12.0021C24.2473 12.1439 24.285 12.1984 24.3311 12.2445C25.9814 13.8963 27.637 15.5428 29.2779 17.2038C29.5077 17.4365 29.7357 17.5281 30.0601 17.5267C32.9404 17.5146 35.8207 17.519 38.701 17.5168C38.8312 17.5167 38.9615 17.5008 39.1684 17.4873C37.8065 15.6154 36.4908 13.8073 35.1772 12.002C31.5036 12.0021 27.8735 12.0021 24.1304 12.0021ZM17.1191 24.3112C17.1191 27.8096 17.1191 31.2409 17.1191 34.6915C18.1334 34.6915 19.1085 34.6915 20.1063 34.6915C20.1063 31.223 20.1063 27.7778 20.1063 24.3112C19.0996 24.3112 18.1262 24.3112 17.1191 24.3112ZM21.4163 34.6675C22.4486 34.6675 23.4358 34.6675 24.4114 34.6675C24.4114 31.1898 24.4114 27.7594 24.4114 24.3101C23.3947 24.3101 22.4206 24.3101 21.4163 24.3101C21.4163 27.7746 21.4163 31.2079 21.4163 34.6675ZM21.4108 7.05996C22.9561 7.05996 24.4494 7.05996 26.0057 7.05996C25.8612 6.90185 25.7703 6.79775 25.6743 6.69849C25.5645 6.5849 25.4444 6.4809 25.3389 6.36361C25.0169 6.00552 25.0105 5.74859 25.3268 5.39546C25.5298 5.1689 25.7503 4.95805 26.0191 4.68266C24.416 4.68266 22.9203 4.68266 21.4108 4.68266C21.4108 5.48691 21.4108 6.25529 21.4108 7.05996Z" fill="#BE4400"/>
<path d="M20.7499 13.9907C23.0191 13.9851 24.7928 15.7534 24.792 18.0206C24.7913 20.2455 23.0073 22.0348 20.7845 22.04C18.5583 22.0452 16.7501 20.2625 16.7422 18.0547C16.7341 15.7759 18.489 13.9963 20.7499 13.9907ZM20.7959 20.8059C22.3109 20.7782 23.5627 19.6721 23.5907 17.9875C23.6164 16.4385 22.2727 15.1792 20.7095 15.1887C19.4223 15.1965 17.9286 16.2288 17.9483 18.0494C17.9657 19.6446 19.2048 20.8119 20.7959 20.8059Z" fill="#BE4400"/>
<path d="M30.7954 31.4267C29.731 31.4267 28.6255 31.4345 27.5202 31.4227C27.0973 31.4182 26.9057 31.1823 26.9031 30.6843C26.8961 29.3862 26.8975 28.088 26.9039 26.7899C26.9049 26.5986 26.9397 26.4051 26.9796 26.217C27.1758 25.2943 27.9065 24.6854 28.8442 24.654C30.3468 24.6038 31.2048 25.4373 31.2087 26.9568C31.2118 28.1683 31.2023 29.3798 31.2149 30.5912C31.2186 30.9349 31.1352 31.2115 30.7954 31.4267Z" fill="#BE4400"/>
<path d="M10.3245 28.6674C10.3248 28.0174 10.3132 27.367 10.3275 26.7173C10.3495 25.7199 10.9963 24.9293 11.9497 24.7068C12.9167 24.4811 13.957 24.8367 14.3089 25.6447C14.525 26.141 14.5781 26.7301 14.6048 27.2822C14.653 28.28 14.6143 29.2817 14.635 30.2812C14.653 31.1514 14.6287 31.4911 13.461 31.4348C12.6547 31.3958 11.845 31.4312 11.0368 31.426C10.5556 31.423 10.337 31.2141 10.3276 30.723C10.3146 30.0381 10.3243 29.3527 10.3245 28.6674Z" fill="#BE4400"/>
<path d="M36.7192 28.6131C36.7192 29.2987 36.7257 29.9843 36.7172 30.6698C36.71 31.2464 36.5291 31.4233 35.9561 31.426C35.0244 31.4306 34.0928 31.4315 33.1611 31.426C32.654 31.4231 32.4421 31.2546 32.4343 30.7367C32.4133 29.3315 32.3778 27.9232 32.4466 26.5209C32.5077 25.2767 33.3844 24.6145 34.7278 24.6535C35.9147 24.688 36.6369 25.3899 36.6939 26.6099C36.725 27.2762 36.6995 27.9451 36.6995 28.6129C36.7061 28.6131 36.7126 28.6131 36.7192 28.6131Z" fill="#BE4400"/>
<path d="M4.83164 28.6321C4.83164 27.9294 4.80242 27.225 4.83828 26.524C4.8964 25.3903 5.63936 24.6821 6.77923 24.6611C7.14312 24.6544 7.52546 24.6815 7.86984 24.7883C8.56681 25.0045 9.01118 25.5037 9.06181 26.2423C9.11824 27.0647 9.10463 27.8922 9.11054 28.7177C9.11528 29.3853 9.11908 30.0536 9.09482 30.7205C9.07489 31.2672 8.89094 31.4243 8.34057 31.4264C7.42653 31.4298 6.51248 31.4302 5.59844 31.4268C4.99671 31.4246 4.82288 31.2514 4.81624 30.6361C4.80896 29.9682 4.81455 29.3002 4.81455 28.6322C4.82025 28.6321 4.82594 28.6321 4.83164 28.6321Z" fill="#BE4400"/>
<path d="M20.1396 18.1373C20.1396 17.5383 20.1354 16.9988 20.1409 16.4594C20.146 15.9569 20.387 15.683 20.7984 15.6963C21.1864 15.7087 21.385 15.9557 21.3912 16.467C21.3997 17.1675 21.4022 17.8684 21.3931 18.569C21.3856 19.1476 21.1704 19.3701 20.6028 19.385C20.0951 19.3984 19.5866 19.3958 19.0789 19.3859C18.5817 19.3762 18.3489 19.1708 18.3438 18.7654C18.3388 18.3594 18.5758 18.149 19.0645 18.1386C19.3959 18.1317 19.7278 18.1373 20.1396 18.1373Z" fill="#BE4400"/>
</g>
<defs>
<clipPath id="clip0_864_84">
<rect width="41" height="36" fill="white" transform="translate(0.367188)"/>
</clipPath>
</defs>
</svg>
