<svg width="42" height="32" viewBox="0 0 42 32" fill="none" xmlns="http://www.w3.org/2000/svg">
<g clip-path="url(#clip0_864_95)">
<path d="M39.1512 25.488C39.1512 17.7553 39.1512 10.303 39.1512 2.75326C27.556 2.75326 16.0248 2.75326 4.38981 2.75326C4.3416 3.58163 4.29423 4.39223 4.24489 5.23808C3.7371 5.23808 3.33588 5.23808 2.80469 5.23808C2.80469 3.8038 2.80469 2.43324 2.80469 0.984863C15.4552 0.984863 28.0657 0.984863 40.7741 0.984863C40.7741 9.66414 40.7741 18.2794 40.7741 27.0021C35.0987 27.0021 29.3991 27.0021 23.6228 27.0021C23.6228 26.562 23.6228 26.1142 23.6228 25.4878C28.7543 25.488 33.886 25.488 39.1512 25.488Z" fill="#BE4400"/>
<path d="M13.799 31.2791C11.0424 31.2791 8.51107 31.2791 5.71891 31.2791C5.71891 27.795 5.71891 24.3445 5.71891 20.8937C5.57343 20.8816 5.42766 20.8692 5.28217 20.8571C5.21507 21.1165 5.0927 21.375 5.0896 21.6352C5.07099 23.2793 5.09496 24.9236 5.07297 26.5674C5.05379 27.9921 4.24065 28.8921 2.99753 28.9253C1.82856 28.9566 0.858092 27.9614 0.841457 26.637C0.812134 24.2957 0.699918 21.9462 0.849352 19.6148C1.01965 16.9566 2.61013 15.3489 5.2661 15.2102C8.26323 15.0537 11.277 15.0779 14.2784 15.1803C16.2833 15.2485 17.3403 16.195 18.7569 18.675C19.1068 18.4709 19.4527 18.2595 19.8074 18.0638C21.0198 17.3956 22.2017 17.6098 22.7605 18.593C23.3935 19.7073 23.0563 21.1241 21.9733 21.7844C20.5315 22.6638 19.0797 23.5266 17.6257 24.3857C16.0654 25.3074 14.7196 24.6696 14.4659 22.8696C14.3722 22.2053 14.3773 21.527 14.3373 20.8548C14.158 20.8551 13.9784 20.8554 13.799 20.8557C13.799 22.5654 13.799 24.2751 13.799 25.9846C13.799 27.7479 13.799 29.5112 13.799 31.2791Z" fill="#BE4400"/>
<path d="M9.86478 14.4101C7.62722 14.3638 5.79229 12.4959 5.86954 10.3432C5.94961 8.11412 7.76848 6.38238 10.0055 6.4055C12.216 6.42834 14.039 8.29457 13.9908 10.4848C13.9421 12.6953 12.0913 14.4563 9.86478 14.4101Z" fill="#BE4400"/>
<path d="M36.5127 7.14648C36.5127 7.6774 36.5127 8.12485 36.5127 8.65971C31.3048 8.65971 26.1713 8.65971 20.9462 8.65971C20.9175 8.15925 20.8915 7.70728 20.8594 7.14648C26.1073 7.14648 31.2825 7.14648 36.5127 7.14648Z" fill="#BE4400"/>
<path d="M36.5076 14.1567C36.5076 14.6978 36.5076 15.1484 36.5076 15.6827C31.2937 15.6827 26.1572 15.6827 20.9453 15.6827C20.9453 15.1534 20.9453 14.7048 20.9453 14.1567C26.0991 14.1567 31.2413 14.1567 36.5076 14.1567Z" fill="#BE4400"/>
</g>
<defs>
<clipPath id="clip0_864_95">
<rect width="41" height="31" fill="white" transform="translate(0.367188 0.666992)"/>
</clipPath>
</defs>
</svg>
